<svg xmlns="http://www.w3.org/2000/svg" xmlns:xlink="http://www.w3.org/1999/xlink"><symbol viewBox="0 0 68 84" id="error" xmlns="http://www.w3.org/2000/svg"><path d="M33.8.038c-.2 0-.4.1-.6.1l-32 14c-.7.3-1.2 1.1-1.2 1.8 0 21.5 1.3 33.9 6.2 43.4 5 9.4 13.4 15.4 26.7 24.3.6.4 1.5.4 2.2 0 13.4-8.9 21.7-14.9 26.7-24.3 4.9-9.5 6.2-21.9 6.2-43.4 0-.8-.5-1.6-1.2-1.8l-32-14c-.3-.1-.6-.2-1-.1zm.2 4.1l30 13.1c0 20.5-1.4 32-5.7 40.3-4.3 8.1-11.7 13.7-24.2 22-12.5-8.4-19.9-13.9-24.2-22-4.3-8.3-5.7-19.8-5.7-40.3L34 4.138zm0 16.9c-2.8 0-5 2.2-5 5l1 18c0 2.2 1.8 4 4 4s4-1.8 4-4l1-18c0-2.8-2.3-5-5-5zm0 30c-2.8 0-5 2.2-5 5s2.3 5 5 5 5-2.2 5-5-2.3-5-5-5z"/></symbol><symbol viewBox="0 0 24 24" id="plus" xmlns="http://www.w3.org/2000/svg"><path d="M12 0c1.1 0 2 .9 2 2v8h8c1.1 0 2 .9 2 2s-.9 2-2 2h-8v8c0 1.1-.9 2-2 2s-2-.9-2-2v-8H2c-1.1 0-2-.9-2-2s.9-2 2-2h8V2c0-1.1.9-2 2-2"/></symbol><symbol viewBox="-988 768 50 50" id="sort" xmlns="http://www.w3.org/2000/svg"><style>.ctest{fill:#000}</style><path class="ctest" d="M-949.7 784.6l-11.5-15.7c-.4-.6-1.1-.9-1.8-.9s-1.4.3-1.8.9l-11.5 15.7c-.4.5-.5 1-.6 1.6 0 .4.1.7.2 1.1.4.9 1.2 1.4 2.2 1.5h22.9c.9 0 1.7-.5 2.1-1.5.1-.3.2-.7.2-1.1.1-.6-.1-1.1-.4-1.6zm-26.6 16.8l11.5 15.7c.4.6 1.1.9 1.8.9s1.4-.3 1.8-.9l11.5-15.7c.4-.5.5-1 .6-1.6 0-.4-.1-.7-.2-1.1-.4-.9-1.2-1.4-2.2-1.5h-23c-.9 0-1.7.5-2.1 1.5-.1.3-.2.7-.2 1.1 0 .6.2 1.1.5 1.6z"/></symbol><symbol viewBox="0 0 77.2 77.2" id="success" xmlns="http://www.w3.org/2000/svg"><path d="M58.1 27.4l-2.9-3-22.5 22.5-12.3-12.4-3 3 15.3 15.3 25.4-25.4zM38.6 77.2c21.3 0 38.6-17.3 38.6-38.6S59.9 0 38.6 0 0 17.3 0 38.6s17.3 38.6 38.6 38.6zm0-73C57.5 4.2 73 19.6 73 38.6S57.5 73 38.6 73 4.2 57.5 4.2 38.6 19.7 4.2 38.6 4.2z"/></symbol><symbol viewBox="0 0 90 80.3" id="warning" xmlns="http://www.w3.org/2000/svg"><path d="M81.2 80.3H8.8c-3.2 0-6-1.6-7.6-4.4-1.6-2.7-1.6-6 0-8.7L37.4 4.4C39 1.7 41.8 0 45 0c3.2 0 6 1.6 7.6 4.4l36.2 62.8c1.6 2.7 1.6 6 0 8.7-1.6 2.8-4.4 4.4-7.6 4.4zM6.9 70.5c-.6 1-.2 1.9 0 2.2.2.3.8 1.1 1.9 1.1h72.5c1.1 0 1.7-.8 1.9-1.1.2-.3.6-1.2 0-2.2L46.9 7.7c-.6-1-1.5-1.1-1.9-1.1s-1.3.1-1.9 1.1L6.9 70.5zm38.1-14c-1.8 0-3-1.5-3-3.3V25.7c0-1.8 1.2-3.3 3-3.3s3 1.5 3 3.3v27.5c0 1.8-1.2 3.3-3 3.3zm0 4.6c2.2 0 3.9 1.7 3.9 3.9s-1.7 3.9-3.9 3.9-3.9-1.7-3.9-3.9 1.7-3.9 3.9-3.9z"/></symbol></svg>