<svg xmlns="http://www.w3.org/2000/svg" xmlns:xlink="http://www.w3.org/1999/xlink"><symbol viewBox="0 0 68 84" id="error" xmlns="http://www.w3.org/2000/svg"><path d="M33.8.038c-.2 0-.4.1-.6.1l-32 14c-.7.3-1.2 1.1-1.2 1.8 0 21.5 1.3 33.9 6.2 43.4 5 9.4 13.4 15.4 26.7 24.3.6.4 1.5.4 2.2 0 13.4-8.9 21.7-14.9 26.7-24.3 4.9-9.5 6.2-21.9 6.2-43.4 0-.8-.5-1.6-1.2-1.8l-32-14c-.3-.1-.6-.2-1-.1zm.2 4.1l30 13.1c0 20.5-1.4 32-5.7 40.3-4.3 8.1-11.7 13.7-24.2 22-12.5-8.4-19.9-13.9-24.2-22-4.3-8.3-5.7-19.8-5.7-40.3L34 4.138zm0 16.9c-2.8 0-5 2.2-5 5l1 18c0 2.2 1.8 4 4 4s4-1.8 4-4l1-18c0-2.8-2.3-5-5-5zm0 30c-2.8 0-5 2.2-5 5s2.3 5 5 5 5-2.2 5-5-2.3-5-5-5z"/></symbol><symbol id="link" viewBox="0 0 28.3 28.3" xmlns="http://www.w3.org/2000/svg"><style>.bst0{fill:#2e1a35}</style><path class="bst0" d="M15.5 22.5c.1-.5.6-.8 1.1-.6.5.1.8.6.6 1.1-.1.5-.6.8-1.1.6-.4-.1-.7-.6-.6-1.1zm5.8-3.1l4.5-4.5c1.7-1.7 2.6-3.9 2.6-6.2 0-2.3-.9-4.5-2.6-6.2C24.1.9 21.9 0 19.6 0c-2.3 0-4.5.9-6.2 2.6l-2 2c-.4.4-.4 1.1 0 1.5.4.4 1.1.4 1.5 0l2-2c1.3-1.3 2.9-1.9 4.7-1.9 1.8 0 3.4.7 4.7 1.9 1.3 1.3 2 2.9 2 4.7 0 1.8-.7 3.4-2 4.7L19.8 18c-.4.4-.4 1.1 0 1.5.2.2.5.3.7.3.3-.1.6-.2.8-.4zm-6.4 6.4c.4-.4.4-1.1 0-1.5-.4-.4-1.1-.4-1.5 0a6.64 6.64 0 0 1-9.4 0 6.64 6.64 0 0 1 0-9.4l4.5-4.5c.4-.4.4-1.1 0-1.5-.4-.4-1.1-.4-1.5 0l-4.5 4.5c-3.4 3.4-3.4 9 0 12.4 1.7 1.7 3.9 2.6 6.2 2.6s4.5-.9 6.2-2.6zm-5.6-5.3l11-11c.4-.4.4-1.1 0-1.5-.4-.4-1.1-.4-1.5 0l-11 11c-.4.4-.4 1.1 0 1.5.2.2.5.3.7.3.4 0 .6-.1.8-.3z"/></symbol><symbol viewBox="0 0 29.1 22.7" id="marque_small" xmlns="http://www.w3.org/2000/svg"><path d="M12.9 22.7c-.1 0-.3 0-.4-.1-.4-.2-.8-.5-.5-2v-.1H7.7c-.3 0-.6-.3-.6-.6s.3-.6.6-.6h5.5c.5 0 .8-.4.8-.8 0-.5-.4-.8-.8-.8H9.7c-.3 0-.5-.3-.5-.6s.2-.5.5-.6h5.8c.5 0 .8-.4.8-.8 0-.5-.4-.8-.8-.8H3.3c-.3 0-.6-.3-.6-.6s.3-.6.6-.6h17.2c.5 0 .8-.4.8-.8 0-.5-.4-.8-.8-.8h-11c-.3 0-.5-.3-.5-.6s.3-.5.6-.5h7c.5 0 .8-.4.8-.8s-.4-.8-.8-.8H.6C.3 9.3 0 9 0 8.7c0-.3.3-.6.6-.6h12.1c.5 0 .8-.4.8-.8 0-.5-.4-.8-.8-.8H8.2c-.3 0-.6-.3-.6-.6s.3-.6.6-.6h6.7c.5 0 .8-.4.8-.8 0-.5-.4-.8-.8-.8H5.6c-.3 0-.6-.2-.6-.5s.3-.6.6-.6h6.3s.1 0 .1-.1v-.1c-.4-1.8 0-2.1.5-2.3.1-.1.2-.1.4-.1.3 0 .7.1 1.2.4L28 9.8c.6.4 1 1 1.1 1.6-.1.6-.5 1.1-1.1 1.6l-13.9 9.4c-.5.1-.9.3-1.2.3zm9.2-13.4c-.5 0-.8.4-.8.8 0 .5.4.8.8.8.5 0 .8-.4.8-.8s-.4-.8-.8-.8zm-2.7 0c-.5 0-.8.4-.8.8 0 .5.4.8.8.8.5 0 .8-.4.8-.8.1-.4-.3-.8-.8-.8zM5.5 16.4c-.4 0-.7.3-.7.7 0 .4.3.7.7.7.4 0 .7-.3.7-.7 0-.4-.3-.7-.7-.7zm.1-5.8c-.4 0-.7.3-.7.7 0 .4.3.7.7.7.4 0 .7-.3.7-.7 0-.3-.3-.7-.7-.7z"/></symbol><symbol id="search" viewBox="0 0 22.8 23.4" xmlns="http://www.w3.org/2000/svg"><style>.dst0{fill:#948c98}</style><path class="dst0" d="M22.5 23.1c-.2.2-.5.3-.7.3s-.5-.1-.7-.3l-5.8-5.8-.1-.1c-.6.5-1.3.8-2 1.1-1.2.5-2.4.8-3.7.8s-2.5-.3-3.7-.8c-1.1-.5-2.2-1.2-3-2-.9-.9-1.6-1.9-2-3-.5-1.2-.8-2.5-.8-3.8S.3 7 .7 5.8c.5-1.1 1.2-2.2 2-3 .9-.9 1.9-1.6 3-2C7 .3 8.2 0 9.5 0c.6 0 1 .4 1 1s-.4 1-1 1c-1 0-2 .2-2.9.6-.9.4-1.7.9-2.4 1.6-.7.7-1.2 1.5-1.6 2.4-.4.9-.6 1.9-.6 2.9s.2 2 .6 2.9c.4.9.9 1.7 1.6 2.4.7.7 1.5 1.2 2.4 1.6 1.9.8 4 .8 5.9 0 .9-.4 1.7-.9 2.4-1.6.7-.7 1.2-1.5 1.6-2.4.4-.9.6-1.9.6-2.9s-.2-2-.6-2.9c-.2-.5 0-1.1.5-1.3.5-.2 1.1 0 1.3.5.5 1.2.8 2.4.8 3.7s-.3 2.5-.8 3.7c-.4 1-1 1.8-1.7 2.6h.1l5.8 5.8c.4.5.4 1.1 0 1.5zM16.1 3.7c.5-.3.7-1 .4-1.5s-1-.7-1.5-.4c-.5.3-.7 1-.4 1.5s1 .7 1.5.4z"/></symbol><symbol viewBox="-988 768 50 50" id="sort" xmlns="http://www.w3.org/2000/svg"><style>.etest{fill:#000}</style><path class="etest" d="M-949.7 784.6l-11.5-15.7c-.4-.6-1.1-.9-1.8-.9s-1.4.3-1.8.9l-11.5 15.7c-.4.5-.5 1-.6 1.6 0 .4.1.7.2 1.1.4.9 1.2 1.4 2.2 1.5h22.9c.9 0 1.7-.5 2.1-1.5.1-.3.2-.7.2-1.1.1-.6-.1-1.1-.4-1.6zm-26.6 16.8l11.5 15.7c.4.6 1.1.9 1.8.9s1.4-.3 1.8-.9l11.5-15.7c.4-.5.5-1 .6-1.6 0-.4-.1-.7-.2-1.1-.4-.9-1.2-1.4-2.2-1.5h-23c-.9 0-1.7.5-2.1 1.5-.1.3-.2.7-.2 1.1 0 .6.2 1.1.5 1.6z"/></symbol><symbol viewBox="0 0 77.2 77.2" id="success" xmlns="http://www.w3.org/2000/svg"><path d="M58.1 27.4l-2.9-3-22.5 22.5-12.3-12.4-3 3 15.3 15.3 25.4-25.4zM38.6 77.2c21.3 0 38.6-17.3 38.6-38.6S59.9 0 38.6 0 0 17.3 0 38.6s17.3 38.6 38.6 38.6zm0-73C57.5 4.2 73 19.6 73 38.6S57.5 73 38.6 73 4.2 57.5 4.2 38.6 19.7 4.2 38.6 4.2z"/></symbol><symbol viewBox="0 0 90 80.3" id="warning" xmlns="http://www.w3.org/2000/svg"><path d="M81.2 80.3H8.8c-3.2 0-6-1.6-7.6-4.4-1.6-2.7-1.6-6 0-8.7L37.4 4.4C39 1.7 41.8 0 45 0c3.2 0 6 1.6 7.6 4.4l36.2 62.8c1.6 2.7 1.6 6 0 8.7-1.6 2.8-4.4 4.4-7.6 4.4zM6.9 70.5c-.6 1-.2 1.9 0 2.2.2.3.8 1.1 1.9 1.1h72.5c1.1 0 1.7-.8 1.9-1.1.2-.3.6-1.2 0-2.2L46.9 7.7c-.6-1-1.5-1.1-1.9-1.1s-1.3.1-1.9 1.1L6.9 70.5zm38.1-14c-1.8 0-3-1.5-3-3.3V25.7c0-1.8 1.2-3.3 3-3.3s3 1.5 3 3.3v27.5c0 1.8-1.2 3.3-3 3.3zm0 4.6c2.2 0 3.9 1.7 3.9 3.9s-1.7 3.9-3.9 3.9-3.9-1.7-3.9-3.9 1.7-3.9 3.9-3.9z"/></symbol></svg>