<?xml version="1.0" standalone="no"?>
<!DOCTYPE svg PUBLIC "-//W3C//DTD SVG 1.1//EN" "http://www.w3.org/Graphics/SVG/1.1/DTD/svg11.dtd" >
<svg xmlns="http://www.w3.org/2000/svg" xmlns:xlink="http://www.w3.org/1999/xlink" version="1.1">
<metadata></metadata>
<defs>
<font id="avertablack_italic" horiz-adv-x="1200" >
<font-face units-per-em="2048" ascent="1581" descent="-467" />
<missing-glyph horiz-adv-x="340" />
<glyph horiz-adv-x="0" />
<glyph horiz-adv-x="682" />
<glyph unicode=" "  horiz-adv-x="340" />
<glyph unicode="&#x09;" horiz-adv-x="340" />
<glyph unicode="&#xa0;" horiz-adv-x="340" />
<glyph unicode="!" horiz-adv-x="616" d="M210 516l64 992h365l-180 -992h-249zM296 363q90 0 141.5 -52.5t51.5 -136.5q0 -87 -53.5 -142.5t-146.5 -55.5q-90 0 -141.5 53.5t-51.5 138.5q0 86 53.5 140.5t146.5 54.5z" />
<glyph unicode="&#x22;" horiz-adv-x="918" d="M226 1455h338l-205 -564h-255zM662 1455h339l-206 -564h-255z" />
<glyph unicode="#" horiz-adv-x="1209" d="M897 1343h233l-85 -333h175l-33 -253h-212l-64 -249h195l-33 -253h-231l-92 -359h-234l92 359h-193l-93 -359h-234l94 359h-164l32 253h202l63 249h-184l31 253h223l85 333h233l-86 -333h194zM741 757h-193l-64 -249h195z" />
<glyph unicode="$" horiz-adv-x="1060" d="M625 843q26 -16 66.5 -39.5t64 -37t56.5 -34.5t52.5 -37t43.5 -38t37.5 -43.5t26 -48.5t18 -57.5t5.5 -65.5q0 -180 -100.5 -296.5t-275.5 -149.5l-24 -190h-274l24 195q-217 52 -334 235l252 217q25 -37 55.5 -66t61.5 -46.5t62 -26.5t60 -9q40 0 68 12t40 29.5t12 39.5 q0 29 -29.5 55t-121.5 80q-8 5 -25 15q-30 17 -45.5 26.5t-43.5 27.5t-43.5 30t-39.5 31t-37.5 35t-31 38t-27 44t-19 48.5t-13.5 56t-4 61.5q0 169 103 284t268 145l26 210h274l-28 -226q172 -54 257 -190l-250 -208q-50 62 -93 83.5t-92 21.5q-40 0 -66 -22.5t-26 -57.5 q0 -31 22 -61t88 -70z" />
<glyph unicode="%" horiz-adv-x="2007" d="M1529 1385l-762 -1441l-237 109l762 1441zM532 1469q108 0 194.5 -47.5t136.5 -135.5t50 -200q0 -90 -34 -171t-91 -138.5t-135.5 -91t-165.5 -33.5q-107 0 -192.5 48t-135 136.5t-49.5 201.5q0 89 33 169t89.5 137.5t134.5 91t165 33.5zM522 1241q-67 0 -115.5 -57 t-48.5 -140q0 -77 39 -121t101 -44q68 0 117.5 57t49.5 141q0 74 -40.5 119t-102.5 45zM1570 797q108 0 195 -47.5t136.5 -135.5t49.5 -200q0 -91 -33.5 -171.5t-91 -138t-136 -91t-165.5 -33.5q-80 0 -149.5 28t-119.5 78t-79 122.5t-29 157.5q0 119 56 218t153 156t213 57 zM1560 569q-67 0 -115 -57t-48 -140q0 -51 18.5 -89t49.5 -57t71 -19q68 0 117.5 57t49.5 141q0 49 -18.5 86.5t-51 57.5t-73.5 20z" />
<glyph unicode="&#x26;" horiz-adv-x="1450" d="M1478 952l-38 -311h-278q-27 -154 -87.5 -275.5t-152 -207.5t-218.5 -132t-282 -46q-116 0 -207 47.5t-143 137.5t-52 210q0 89 32 174t96 156.5t150 111.5q-84 87 -84 217q0 91 34 172.5t93.5 140.5t146 93.5t187.5 34.5q64 0 117.5 -10.5t93 -27.5t71.5 -43t53.5 -53.5 t38.5 -62.5t27 -66.5t18 -69.5l-281 -88q-6 61 -36 96.5t-88 35.5q-59 0 -97 -42.5t-38 -104.5q0 -29 14.5 -49t36 -29t47.5 -9h826zM482 284q53 0 103.5 19.5t91.5 53t75.5 79t58.5 97.5t39 108h-251q-69 0 -126 -35t-87 -87.5t-30 -108.5q0 -60 36 -93t90 -33z" />
<glyph unicode="'" horiz-adv-x="482" d="M226 1455h338l-205 -564h-255z" />
<glyph unicode="(" horiz-adv-x="620" d="M386 362q0 138 20 281t57.5 280.5t93.5 269t126 244.5l-229 99q-181 -236 -278.5 -562t-97.5 -654q0 -389 139 -660l267 120q-98 268 -98 582z" />
<glyph unicode=")" horiz-adv-x="621" d="M568 891q0 389 -138 655l-267 -120q97 -262 97 -581q0 -281 -77 -563.5t-219 -512.5l228 -99q182 240 279 565t97 656z" />
<glyph unicode="*" horiz-adv-x="728" d="M630 857l-116 101l-20 -187h-193l32 187l-138 -99l-82 170l148 82l-130 86l118 172l121 -101l15 187h193l-34 -187l142 98l81 -169l-150 -84l130 -84z" />
<glyph unicode="+" horiz-adv-x="1081" d="M974 424h-299l-42 -344h-289l42 344h-298l36 287h297l43 347h289l-43 -347h300z" />
<glyph unicode="," horiz-adv-x="491" d="M56 288h335l-212 -563h-245z" />
<glyph unicode="-" horiz-adv-x="708" d="M636 477h-571l38 312h572z" />
<glyph unicode="." horiz-adv-x="543" d="M234 363q90 0 141.5 -52.5t51.5 -136.5q0 -87 -53.5 -142.5t-146.5 -55.5q-90 0 -141.5 53.5t-51.5 138.5q0 86 53.5 140.5t146.5 54.5z" />
<glyph unicode="/" horiz-adv-x="823" d="M983 1522l-908 -1749l-232 109l912 1750z" />
<glyph unicode="0" horiz-adv-x="1164" d="M684 1426q215 0 330.5 -146.5t115.5 -417.5q0 -112 -16.5 -219.5t-49 -206.5t-83.5 -182t-116 -144t-151.5 -95.5t-185.5 -34.5q-216 0 -330 143t-114 418q0 113 16.5 220.5t48.5 207t82.5 182.5t115.5 144.5t151.5 96t185.5 34.5zM662 1087q-39 0 -71 -28t-54 -75.5 t-38.5 -106t-25.5 -125t-13.5 -126t-4.5 -114.5q0 -90 25 -141.5t73 -51.5q33 0 61.5 21t49 55.5t37 82t27 99t17.5 107t10 104.5t3 95q0 98 -24.5 151t-71.5 53z" />
<glyph unicode="1" horiz-adv-x="835" d="M521 1406h292l-172 -1406h-367l117 946l-178 -129l-142 274z" />
<glyph unicode="2" horiz-adv-x="979" d="M519 332l-1 -6h377l-40 -326h-860l23 234l401 440q39 43 66.5 76.5t59 79.5t48 92t16.5 88q0 39 -20.5 61.5t-58.5 22.5q-15 0 -32.5 -5.5t-36 -15.5t-37 -25t-37 -35t-34.5 -43l-235 197q74 116 197.5 188t280.5 72q76 0 144.5 -24.5t121 -69.5t83.5 -114.5t31 -153.5 q0 -64 -12 -123.5t-33.5 -111t-56 -104.5t-74 -100t-92.5 -101z" />
<glyph unicode="3" horiz-adv-x="975" d="M758 723q152 -89 152 -280q0 -85 -25 -159t-70 -129t-107 -95t-137.5 -60t-158.5 -20q-175 0 -290 94.5t-146 243.5l321 112q7 -68 36.5 -101.5t76.5 -33.5q59 0 96 53.5t37 133.5q0 42 -25.5 69t-71.5 27h-90l34 278h80q42 0 73.5 22.5t47.5 59t16 82.5q0 40 -23 64 t-56 24q-42 0 -76 -30t-57 -84l-267 166q57 126 177 196t264 70q116 0 200.5 -37t131.5 -111t47 -180q0 -117 -50 -213.5t-139 -157.5z" />
<glyph unicode="4" horiz-adv-x="1039" d="M846 511h151l-37 -295h-150l-27 -216h-349l27 216h-481l24 210l669 980h282zM368 470h165l49 377z" />
<glyph unicode="5" horiz-adv-x="983" d="M925 1082h-418l-32 -182q69 15 124 15q147 0 235.5 -99t88.5 -277q0 -100 -25 -187.5t-72.5 -155.5t-112.5 -117t-148 -74.5t-176 -25.5q-134 0 -245 55t-183 170l270 200q22 -48 60.5 -74t81.5 -26q62 0 105.5 32t62 79t18.5 105q0 41 -14.5 69t-35.5 39.5t-47 12.5 q-49 1 -95.5 -21t-81.5 -51l-178 77l134 760h723z" />
<glyph unicode="6" horiz-adv-x="1072" d="M703 909q65 0 121 -22t99 -64.5t67.5 -111.5t24.5 -157q0 -124 -36.5 -229t-104 -181.5t-168.5 -120t-224 -43.5q-73 0 -136.5 19t-114.5 57.5t-87.5 93t-56 128.5t-19.5 162q0 176 58.5 342.5t162 300t253 232t325.5 140.5l54 -284q-296 -125 -417 -311l5 -2 q100 51 194 51zM514 293q66 0 113 63.5t47 144.5q0 67 -28.5 101.5t-91.5 34.5q-36 0 -76 -19t-73 -53q-6 -53 -6 -110q0 -72 32 -117t83 -45z" />
<glyph unicode="7" horiz-adv-x="866" d="M138 1406h793l-27 -231l-521 -1210l-354 63l470 1056h-400z" />
<glyph unicode="8" horiz-adv-x="1043" d="M813 766q79 -34 127 -111t48 -187q0 -116 -40 -209t-112 -153.5t-170.5 -93t-216.5 -32.5q-123 0 -217.5 40t-149 119t-54.5 185q0 136 71.5 254.5t191.5 177.5v3q-31 16 -55.5 46.5t-40.5 79t-16 105.5q0 92 33.5 172.5t94 138.5t149 91.5t193.5 33.5q72 0 134 -19.5 t109.5 -56.5t75 -96t27.5 -134q0 -103 -51.5 -206t-130.5 -145v-3zM571 895q44 0 72.5 47t28.5 102q0 33 -8 56t-24 35.5t-39 12.5q-44 0 -72.5 -47t-28.5 -102q0 -48 19 -76t52 -28zM485 274q56 0 98 59t42 134q0 56 -23.5 94.5t-72.5 38.5q-57 0 -97 -59.5t-40 -130.5 q0 -64 24 -100t69 -36z" />
<glyph unicode="9" horiz-adv-x="1073" d="M647 1426q183 0 292 -123.5t109 -343.5q0 -188 -58.5 -357.5t-164 -301t-256.5 -223.5t-331 -130l-55 274q290 88 427 318q-93 -47 -191 -47q-65 0 -121.5 22t-101 64.5t-70 111t-25.5 155.5q0 123 41 231t112.5 185t173.5 121t219 44zM442 901q0 -66 34 -101t100 -35 q72 0 131 67q6 54 6 111q0 85 -29.5 126t-74.5 41q-71 0 -119 -59.5t-48 -149.5z" />
<glyph unicode=":" horiz-adv-x="557" d="M323 1024q60 0 104 -24.5t66.5 -67t22.5 -97.5q0 -87 -53.5 -142.5t-146.5 -55.5q-90 0 -141.5 53.5t-51.5 138.5q0 86 53.5 140.5t146.5 54.5zM240 363q90 0 141.5 -52.5t51.5 -136.5q0 -57 -23.5 -101.5t-69 -70.5t-107.5 -26q-60 0 -104 25t-66.5 68.5t-22.5 98.5 q0 86 53.5 140.5t146.5 54.5z" />
<glyph unicode=";" horiz-adv-x="510" d="M289 1024q45 0 81.5 -14t61 -39.5t37.5 -60t13 -75.5q0 -57 -23.5 -101.5t-69 -70.5t-107.5 -26q-90 0 -141.5 53.5t-51.5 138.5q0 86 53.5 140.5t146.5 54.5zM58 288h335l-212 -563h-245z" />
<glyph unicode="&#x3c;" horiz-adv-x="1082" d="M949 340l-36 -309l-834 404l27 236l934 414l-36 -316l-493 -212z" />
<glyph unicode="=" horiz-adv-x="1110" d="M1037 662h-886l36 287h886zM972 187h-886l36 287h886z" />
<glyph unicode="&#x3e;" horiz-adv-x="1083" d="M92 340l493 217l-438 212l36 316l834 -414l-27 -236l-934 -404z" />
<glyph unicode="?" horiz-adv-x="879" d="M309 1129q77 83 145 83q41 0 62.5 -25.5t21.5 -72.5q0 -26 -7.5 -52t-17.5 -46t-29 -45t-33.5 -41t-38.5 -41q-100 -105 -142.5 -168t-48.5 -133l-7 -83h303l20 86q11 47 46.5 89t108.5 108q102 93 159 189t57 212q0 81 -29 146t-80.5 107t-120 64t-149.5 22 q-131 0 -246 -54t-178 -139zM356 363q60 0 104 -24.5t66.5 -67t22.5 -97.5q0 -87 -53.5 -142.5t-146.5 -55.5q-90 0 -141.5 53.5t-51.5 138.5q0 86 53.5 140.5t146.5 54.5z" />
<glyph unicode="@" horiz-adv-x="1807" d="M1386 959l-71 -572q-3 -21 -3 -40q0 -36 17.5 -55t50.5 -19q28 0 53 13.5t44 35.5t34.5 51t26 60t18 63t11 59t3.5 49q0 80 -15.5 152.5t-46.5 136t-79 115t-111 89t-145 57.5t-178 20t-181.5 -18t-152.5 -51t-124.5 -76.5t-99 -96t-73 -108.5t-51 -115.5t-29 -115 t-9.5 -108.5q0 -140 43.5 -256.5t120 -194t181 -120t226.5 -42.5q71 0 145 15t142 42.5t129 64.5l99 -145q-112 -78 -246 -121t-269 -43q-165 0 -307 57t-243.5 160t-159 253.5t-57.5 331.5q0 77 15.5 158t50 167t85 164.5t125.5 149t166.5 122t213 82t260.5 30.5 q120 0 226 -26.5t189 -75t149 -117t109.5 -152.5t66 -181t22.5 -203q0 -44 -5.5 -89t-20.5 -98t-38.5 -100t-62 -92t-87.5 -77t-119.5 -51.5t-153.5 -19.5q-119 0 -186 36q-76 40 -90 129h-4q-102 -149 -256 -149q-55 0 -103.5 22t-86 64.5t-59 110t-21.5 152.5 q0 118 32.5 218.5t87.5 169t129 107t155 38.5q132 0 197 -76h4l7 59h310zM865 387q73 0 122.5 71t64.5 188l1 3q-48 39 -111 39q-72 0 -115 -62.5t-43 -146.5q0 -40 23 -66t58 -26z" />
<glyph unicode="A" horiz-adv-x="1288" d="M842 0l-35 245h-389l-95 -245h-391l652 1455h348l295 -1455h-385zM540 558h222l-58 411h-4z" />
<glyph unicode="B" horiz-adv-x="1184" d="M929 780q200 -69 200 -286q0 -107 -33 -198.5t-93.5 -156.5t-148.5 -102t-194 -37h-607l178 1455h532q197 0 290 -75.5t93 -221.5q0 -112 -57 -216.5t-160 -158.5v-3zM615 877q69 0 113.5 48t44.5 117q0 89 -104 89h-117l-32 -254h95zM568 320q80 0 134 53.5t54 128.5 q0 30 -13 52t-40.5 34.5t-67.5 12.5h-148l-35 -281h116z" />
<glyph unicode="C" horiz-adv-x="1319" d="M1244 232q-104 -123 -248 -187.5t-312 -64.5q-129 0 -237.5 39.5t-189.5 115t-126 194t-45 267.5q0 144 35 277t103 242t162 190t217 125.5t262 44.5q66 0 131.5 -16t132.5 -50.5t129.5 -95.5t112.5 -143l-290 -223q-43 77 -105 124t-135 47q-82 0 -152 -44.5 t-115.5 -116.5t-71 -161t-25.5 -181q0 -134 63 -206t171 -72q77 0 150 35.5t126 101.5z" />
<glyph unicode="D" horiz-adv-x="1337" d="M507 0h-454l178 1455h472q149 0 264 -42.5t189 -122.5t111.5 -191.5t37.5 -251.5q0 -186 -54.5 -342t-155.5 -268t-252 -174.5t-336 -62.5zM551 330q74 0 135.5 27t104 74t72 111.5t43 139t13.5 157.5q0 142 -62.5 213.5t-199.5 71.5h-106l-98 -794h98z" />
<glyph unicode="E" horiz-adv-x="1092" d="M1005 330l-40 -330h-914l178 1455h876l-40 -331h-516l-30 -242h400l-39 -323h-401l-28 -229h554z" />
<glyph unicode="F" horiz-adv-x="1070" d="M552 1124l-36 -294h442l-41 -330h-441l-61 -500h-362l178 1455h905l-40 -331h-544z" />
<glyph unicode="G" horiz-adv-x="1364" d="M1312 827l-78 -673q-99 -77 -248 -125.5t-302 -48.5q-84 0 -160.5 16.5t-143.5 49t-121 83.5t-93 117.5t-60 153.5t-21 189q0 146 35.5 280t103.5 244t161.5 191t216 126t261.5 45q152 0 287 -71t209 -200l-279 -214q-40 59 -102 97.5t-139 38.5q-55 0 -104.5 -20.5 t-89 -56t-72 -84t-53.5 -105.5t-32.5 -119.5t-11.5 -125.5q0 -97 29.5 -163t81.5 -97.5t124 -31.5q100 0 192 56l22 146h-209l37 302h559z" />
<glyph unicode="H" horiz-adv-x="1341" d="M1343 1455l-179 -1455h-375l66 537h-361l-65 -537h-376l178 1455h376l-73 -589h361l72 589h376z" />
<glyph unicode="I" horiz-adv-x="626" d="M440 0h-377l178 1455h377z" />
<glyph unicode="J" horiz-adv-x="929" d="M208 432q17 -44 46 -70.5t65 -26.5q20 0 35.5 4.5t33 19t30 39.5t24 69t19.5 104l109 884h370l-108 -880q-18 -149 -54.5 -257t-97 -185t-149 -115t-206.5 -38q-111 0 -207 52.5t-148 152.5z" />
<glyph unicode="K" horiz-adv-x="1247" d="M1358 1455l-539 -624l376 -831h-441l-206 514h-3l-72 -83l-51 -431h-369l178 1455h370l-56 -462h3l348 462h462z" />
<glyph unicode="L" horiz-adv-x="1041" d="M971 330l-40 -330h-878l178 1455h374l-138 -1125h504z" />
<glyph unicode="M" horiz-adv-x="1600" d="M1231 1455h371l-178 -1455h-368l86 697h-4l-249 -432h-232l-147 445h-4l-86 -710h-367l178 1455h367l227 -720h4z" />
<glyph unicode="N" horiz-adv-x="1379" d="M1012 1455h370l-179 -1455h-375l-307 773h-4l-95 -773h-369l178 1455h365l315 -801h3z" />
<glyph unicode="O" horiz-adv-x="1486" d="M861 1475q133 0 243 -41.5t188 -119.5t121 -194t43 -259q0 -146 -33 -278t-98.5 -242t-157.5 -190.5t-217 -125.5t-270 -45q-89 0 -168 18.5t-145 54.5t-118.5 89.5t-89 121.5t-55.5 153.5t-19 183.5q0 115 24.5 225.5t70.5 207.5t115 178t153.5 139.5t190.5 91t222 32.5 zM708 327q105 0 188 66.5t128.5 182t45.5 259.5q0 146 -67.5 219.5t-175.5 73.5q-98 0 -181 -70.5t-129 -185.5t-46 -245q0 -76 18.5 -134.5t51.5 -94t75 -53.5t92 -18z" />
<glyph unicode="P" horiz-adv-x="1141" d="M748 1455q107 0 188.5 -31.5t131 -88t74 -129.5t24.5 -160q0 -104 -25 -195t-74 -164t-118.5 -125.5t-162.5 -80.5t-203 -28h-113l-55 -453h-362l178 1455h517zM590 776q85 0 137.5 63.5t52.5 151.5q0 72 -37 104.5t-91 32.5h-99l-43 -352h80z" />
<glyph unicode="Q" horiz-adv-x="1493" d="M1457 861q0 -327 -151 -557l111 -119l-206 -235l-124 139q-173 -109 -407 -109q-134 0 -244 41.5t-187.5 120t-120 196t-42.5 263.5q0 139 34.5 269t102 239.5t160.5 191.5t216.5 128t262.5 46q133 0 243 -41.5t188 -119.5t121 -194t43 -259zM709 327q71 0 137 33l-86 96 l202 221l72 -78q37 108 37 236q0 146 -67.5 219.5t-175.5 73.5q-98 0 -181 -70.5t-129 -185.5t-46 -245q0 -149 66.5 -224.5t170.5 -75.5z" />
<glyph unicode="R" horiz-adv-x="1217" d="M903 526l-1 -5l234 -521h-408l-185 453h-73l-55 -453h-362l178 1455h529q107 0 188.5 -31.5t130.5 -88t73.5 -129.5t24.5 -160q0 -177 -71 -312.5t-203 -207.5zM553 1128l-43 -352h92q85 0 137.5 63.5t52.5 151.5q0 72 -37 104.5t-91 32.5h-111z" />
<glyph unicode="S" horiz-adv-x="1097" d="M645 901q26 -15 64 -37.5t62 -36t56.5 -33.5t53 -35t46 -36t40.5 -40t31.5 -43.5t25.5 -49.5t14.5 -55.5t5.5 -64.5q0 -152 -68 -263.5t-189.5 -169t-283.5 -57.5q-69 0 -137 14t-136.5 44t-131 83.5t-108.5 125.5l262 227q51 -81 122.5 -123.5t138.5 -42.5 q70 0 107.5 30t37.5 74q0 36 -33.5 64.5t-138.5 89.5q-9 5 -26 15q-36 21 -54.5 32t-52 32.5t-52 36.5t-46 38.5t-42.5 44t-33.5 49t-28 57t-16 64t-6.5 73.5q0 70 18 133.5t51 114.5t79.5 92.5t102.5 69t121.5 42.5t135.5 15q137 0 260.5 -58t195.5 -171l-260 -218 q-54 71 -103 96t-104 25q-32 0 -57.5 -13t-39.5 -35.5t-13 -50.5q1 -36 27.5 -70.5t101.5 -78.5z" />
<glyph unicode="T" horiz-adv-x="1095" d="M1133 1124h-324l-138 -1124h-370l138 1124h-324l40 331h1018z" />
<glyph unicode="U" horiz-adv-x="1311" d="M1223 601q-21 -173 -71 -293.5t-130 -192t-183 -103.5t-241 -32q-250 0 -370 133.5t-120 384.5q0 74 11 167l98 790h371l-97 -788q-9 -79 -9 -126q0 -216 146 -216q50 0 86 14t64.5 46.5t47 88.5t28.5 138l104 843h370z" />
<glyph unicode="V" horiz-adv-x="1276" d="M987 1455h406l-653 -1455h-320l-299 1455h399l123 -882h4z" />
<glyph unicode="W" horiz-adv-x="1891" d="M1600 1455h394l-584 -1455h-331l-81 859h-4l-301 -859h-331l-228 1455h385l83 -821h3l267 821h383l62 -821h4z" />
<glyph unicode="X" horiz-adv-x="1331" d="M1415 1455l-480 -729l317 -726h-421l-168 438h-4l-277 -438h-431l501 739l-300 716h414l158 -423h7l252 423h432z" />
<glyph unicode="Y" horiz-adv-x="1189" d="M892 1455h429l-522 -825l-79 -630h-376l79 630l-317 825h415l131 -459h4z" />
<glyph unicode="Z" horiz-adv-x="1146" d="M1161 1174l-658 -838l-1 -6h551l-40 -330h-1002l33 289l642 828l1 7h-524l40 331h990z" />
<glyph unicode="[" horiz-adv-x="719" d="M508 1258l-162 -1315h235l-31 -251h-524l223 1816h524l-31 -250h-234z" />
<glyph unicode="\" horiz-adv-x="821" d="M92 1522l247 110l485 -1750l-249 -109z" />
<glyph unicode="]" horiz-adv-x="715" d="M393 1258h-231l31 250h520l-222 -1816h-521l31 251h231z" />
<glyph unicode="^" horiz-adv-x="860" d="M136 1023l293 432h226l193 -432h-256l-67 228l-135 -228h-254z" />
<glyph unicode="_" horiz-adv-x="967" d="M889 -284h-1003l28 229h1003z" />
<glyph unicode="`" horiz-adv-x="883" d="M578 1396l161 -309h-308l-189 311z" />
<glyph unicode="a" horiz-adv-x="1123" d="M743 1003h350l-123 -1003h-350l17 133h-5q-110 -154 -272 -154q-100 0 -172.5 54.5t-108.5 147t-36 211.5q0 138 38 257.5t102 201t148 127.5t174 46q148 0 226 -88h4zM486 289q73 0 139 95.5t89 266.5q-30 33 -61.5 48t-74.5 15q-54 0 -98 -46.5t-65.5 -111 t-21.5 -127.5t26.5 -101.5t66.5 -38.5z" />
<glyph unicode="b" horiz-adv-x="1129" d="M768 1024q100 0 172.5 -54.5t108.5 -147t36 -211.5q0 -200 -66 -340.5t-200 -216.5t-329 -76q-253 0 -447 100l176 1430h349l-78 -639h4q52 72 121.5 113.5t152.5 41.5zM492 288q77 0 133 40.5t83 104t27 141.5q0 63 -26.5 101.5t-66.5 38.5q-76 0 -143 -99t-88 -275v1 l-5 -44q46 -9 86 -9z" />
<glyph unicode="c" horiz-adv-x="971" d="M474 -21q-202 0 -315.5 115.5t-113.5 326.5q0 79 18 155t51 143t83 123t111.5 96.5t138.5 63t162 22.5q80 0 148.5 -20t123 -59.5t90.5 -95.5l-264 -198q-13 21 -29.5 35t-34 19.5t-30.5 7.5t-29 2q-51 0 -95 -41t-68.5 -106.5t-24.5 -137.5q0 -35 7.5 -62t19 -41.5 t26.5 -23.5t27 -12t25 -3q42 0 76 20.5t72 71.5l270 -162q-152 -239 -445 -239z" />
<glyph unicode="d" horiz-adv-x="1098" d="M805 1508h350l-185 -1508h-350l17 133h-5q-110 -154 -272 -154q-100 0 -172.5 54.5t-108.5 147t-36 211.5q0 138 38 257.5t102 201t148 127.5t174 46q144 0 227 -88h3zM486 289q73 0 139 95.5t89 266.5q-30 33 -61.5 48t-74.5 15q-54 0 -98 -46.5t-65.5 -111 t-21.5 -127.5t26.5 -101.5t66.5 -38.5z" />
<glyph unicode="e" horiz-adv-x="972" d="M501 258q95 0 160 97l254 -137q-148 -238 -446 -238q-202 0 -314.5 113.5t-112.5 319.5q0 97 24.5 188t73 167.5t116 133.5t157.5 89.5t193 32.5q51 0 100 -10.5t94.5 -33.5t80 -56t55 -82.5t20.5 -108.5q0 -65 -31.5 -121.5t-84 -98t-126.5 -75.5t-155 -56t-173 -37 l-1 -2q17 -43 49 -64t67 -21zM577 742q-65 0 -116.5 -54.5t-74.5 -144.5q242 49 242 153q0 19 -14 32.5t-37 13.5z" />
<glyph unicode="f" horiz-adv-x="689" d="M721 1203q-46 30 -92 30q-41 0 -60.5 -31.5t-31.5 -126.5l-9 -72h140l-35 -278h-140l-88 -725h-350l88 725h-79l34 278h80l18 147q23 186 114.5 282t252.5 96q69 0 133 -21.5t110 -61.5z" />
<glyph unicode="g" horiz-adv-x="1113" d="M735 1003h349l-107 -871q-68 -557 -589 -557q-218 0 -378 97l107 262q119 -72 248 -72q45 0 78 6.5t65 25.5t54.5 51.5t40.5 86t28 128.5h-3q-109 -150 -268 -150q-75 0 -136 31t-100 83.5t-60 121.5t-21 146q0 138 38 257.5t102 201t148 127.5t174 46q141 0 218 -80h5z M486 320q71 0 134 90t86 242l1 7q-28 29 -58 42t-71 13q-54 0 -98 -46.5t-65.5 -108.5t-21.5 -120q0 -59 25.5 -89t67.5 -30z" />
<glyph unicode="h" horiz-adv-x="1109" d="M814 1023q137 0 193.5 -98t29.5 -307l-80 -618h-347l69 523q14 101 5 145.5t-46 44.5q-30 0 -61 -20t-61 -59.5t-54 -108t-36 -157.5l-45 -368h-347l185 1508h347l-78 -633h5q129 148 321 148z" />
<glyph unicode="i" horiz-adv-x="560" d="M381 1505q91 0 147 -53t56 -136q0 -86 -58 -142t-152 -56q-91 0 -147 54.5t-56 137.5q0 85 58 140t152 55zM167 1003h348l-123 -1003h-348z" />
<glyph unicode="j" horiz-adv-x="525" d="M358 1520q91 0 147 -53t56 -136q0 -57 -26 -102t-74 -70.5t-110 -25.5q-91 0 -147 54.5t-56 137.5q0 85 58 140t152 55zM-138 -110q31 -24 73 -24t59 36.5t28 131.5l119 969h350l-125 -1018q-14 -113 -45.5 -193.5t-79 -127t-105.5 -67.5t-132 -21q-124 0 -228 48z" />
<glyph unicode="k" horiz-adv-x="1047" d="M779 439q12 -43 26.5 -72.5t30.5 -48t37.5 -28.5t43 -13.5t51.5 -4.5l-72 -289q-36 -3 -111 -3q-111 0 -182 75t-106 204l-12 47h-4q-44 -22 -66 -32l-32 -274h-349l185 1508h349l-104 -849h3q89 66 136.5 148.5t71.5 195.5h363q-54 -299 -275 -505z" />
<glyph unicode="l" horiz-adv-x="562" d="M229 1508h350l-185 -1508h-350z" />
<glyph unicode="m" horiz-adv-x="1646" d="M1342 1023q147 0 202.5 -101.5t26.5 -321.5l-78 -600h-346l69 523q15 100 5 145t-50 45q-21 0 -47 -19.5t-53 -58t-50.5 -106.5t-35.5 -153l-49 -376h-347l69 523q16 101 8.5 145.5t-52.5 44.5q-21 0 -47 -20t-53.5 -59.5t-51.5 -109.5t-35 -158l-45 -366h-348l123 1003 h348l-14 -115h4q119 135 299 135q84 0 136 -33.5t75 -106.5h5q128 140 332 140z" />
<glyph unicode="n" horiz-adv-x="1109" d="M814 1023q137 0 193.5 -98t29.5 -307l-80 -618h-347l69 523q14 101 5 145.5t-46 44.5q-30 0 -61 -20t-60.5 -60t-53.5 -109t-35 -158l-45 -366h-349l123 1003h349l-16 -128h4q129 148 320 148z" />
<glyph unicode="o" horiz-adv-x="1084" d="M609 1023q197 0 313 -115t116 -321q0 -97 -20 -185t-64.5 -165.5t-109.5 -134t-161 -89.5t-214 -33q-192 0 -308 115.5t-116 319.5q0 97 23 186.5t70.5 166t113.5 133.5t158 89.5t199 32.5zM578 713q-42 0 -77 -25.5t-57.5 -66.5t-34.5 -91.5t-12 -102.5q0 -39 11 -67.5 t28 -43t33.5 -21t32.5 -6.5q54 0 97 41t65 104t22 133q0 43 -11 74t-28.5 45.5t-34.5 20.5t-34 6z" />
<glyph unicode="p" horiz-adv-x="1129" d="M768 1024q100 0 172.5 -54.5t108.5 -147t36 -211.5q0 -138 -38.5 -257.5t-103 -201t-150.5 -127.5t-180 -46q-133 0 -218 59l-7 -1l-54 -442h-350l173 1408h350l-17 -134h4q52 72 121.5 113.5t152.5 41.5zM529 289q52 0 93.5 27t65 70.5t35.5 91.5t12 96 q0 63 -26.5 101.5t-66.5 38.5q-76 0 -143 -99.5t-88 -276.5v1l-1 -7q26 -27 52 -35t67 -8z" />
<glyph unicode="q" horiz-adv-x="1127" d="M744 1003h350l-173 -1408h-350l67 540h-4q-33 -48 -73.5 -82t-92 -54t-107.5 -20q-100 0 -172.5 54.5t-108.5 147t-36 211.5q0 138 38 257.5t102 201t148 127.5t174 46q150 0 227 -89h3zM487 289q74 0 139.5 95.5t88.5 266.5q-30 33 -61.5 48t-74.5 15q-54 0 -98 -46.5 t-65.5 -111t-21.5 -127.5t26.5 -101.5t66.5 -38.5z" />
<glyph unicode="r" horiz-adv-x="719" d="M495 888q112 135 264 135l-49 -382q-38 19 -74.5 19.5t-69.5 -18.5t-60.5 -54.5t-48 -92.5t-29.5 -130l-45 -365h-349l123 1003h349l-14 -115h3z" />
<glyph unicode="s" horiz-adv-x="855" d="M161 348q45 -52 110.5 -85t121.5 -33q14 0 25 2t18.5 6.5t11.5 10.5t4 14q0 18 -23.5 34t-118.5 67q-127 67 -185 136.5t-58 173.5q0 103 51 183.5t138 123.5t194 43q109 0 205 -43.5t162 -126.5l-203 -189q-36 54 -78.5 77.5t-78.5 24.5q-24 1 -43 -11t-19 -33 q0 -16 30.5 -37.5t99.5 -56.5q56 -28 95 -52.5t72 -53t52 -60t29.5 -70t10.5 -85.5q0 -145 -109 -236.5t-294 -91.5q-112 0 -223.5 45t-180.5 127z" />
<glyph unicode="t" horiz-adv-x="753" d="M568 311l59 -259q-135 -72 -279 -72q-38 0 -71.5 6.5t-65.5 22t-54.5 41t-39.5 62.5t-20.5 86.5t2.5 114.5l49 412h-97l34 278h98l36 283l357 70l-44 -353h189l-34 -278h-189l-44 -371q-4 -31 5.5 -48t29.5 -17q32 0 79 22z" />
<glyph unicode="u" horiz-adv-x="1087" d="M710 1003h348l-123 -1003h-348l16 127h-7q-112 -147 -277 -147q-55 0 -98 12t-78.5 40t-54.5 74t-26.5 112.5t4.5 156.5l76 628h346l-61 -499q-5 -44 -8 -72.5t-3.5 -55t2.5 -41.5t10 -26t17.5 -15.5t26.5 -4.5q35 0 75.5 37.5t69 92t34.5 103.5z" />
<glyph unicode="v" horiz-adv-x="1026" d="M378 -20q69 0 131.5 11t124 37t114.5 65.5t99 99t80 135t56 176t29 219.5q8 146 -16 280h-346q21 -140 11 -265q-9 -105 -28.5 -188t-43 -130.5t-51 -78.5t-50 -41.5t-42.5 -10.5q-38 0 -45 58t8 154l63 502h-346l-72 -587q-7 -74 -3.5 -139.5t27 -120t62 -93.5t99 -61 t139.5 -22z" />
<glyph unicode="w" horiz-adv-x="1492" d="M1461 1003q26 -148 15 -306q-9 -116 -32.5 -214.5t-57.5 -171t-79.5 -130t-95.5 -95t-108 -61.5t-115.5 -34.5t-119.5 -10.5q-99 0 -161.5 46t-88.5 129h-4q-57 -89 -125.5 -132t-161.5 -43q-55 0 -100.5 15t-77 42t-54.5 65t-34 83t-14.5 96.5t4.5 105.5l75 616h346 l-61 -496q-15 -101 -9.5 -159.5t41.5 -58.5q18 0 39 16.5t42.5 48t40 86t28.5 122.5l53 441h331l-65 -524q-14 -102 -8 -146t41 -44q15 0 32.5 10t40.5 41t43 79t38 133.5t28 195.5q10 108 -12 255h346z" />
<glyph unicode="x" horiz-adv-x="980" d="M1029 1003l-355 -497l236 -506h-365l-86 213h-5l-141 -213h-371l361 525l-228 478h379l69 -202h4l115 202h387z" />
<glyph unicode="y" horiz-adv-x="1082" d="M704 1003h349l-106 -861q-69 -567 -579 -567q-208 0 -368 97l107 251q102 -72 238 -72q40 0 69.5 6t59.5 23.5t51.5 47.5t40 80t30.5 120h-5q-113 -148 -279 -148q-55 0 -98 12t-78.5 40t-54.5 74t-26.5 112.5t5.5 156.5l76 628h346l-61 -499q-5 -44 -8 -72.5t-3.5 -55 t2.5 -41t9.5 -26t17.5 -16t27 -4.5q35 0 75.5 37.5t69 91.5t34.5 103z" />
<glyph unicode="z" horiz-adv-x="898" d="M882 775l-413 -499l-1 -4q184 -9 353 -59l-77 -269q-167 35 -343.5 45.5t-409.5 10.5l26 229l401 496l1 6h-301l33 272h757z" />
<glyph unicode="{" horiz-adv-x="676" d="M564 1508h184l-27 -219h-31q-25 0 -45 -10.5t-31.5 -25.5t-20 -35.5t-12 -34.5t-5.5 -29l-41 -327q-12 -94 -40 -147t-78 -81l-1 -6q18 -10 27.5 -18t21 -24.5t15.5 -39t4 -60.5t-6 -89l-39 -320q-4 -39 -5 -67.5t16.5 -44t58.5 -15.5h43l-27 -219h-172 q-99 0 -159.5 81.5t-45.5 206.5l42 337q0 2 1 6q6 32 5 59t-10.5 47.5t-41 32t-85.5 11.5l19 248q44 1 77 12t51 26.5t30 40.5t16 43t7 44l42 339q10 78 46 141t93 100t124 37z" />
<glyph unicode="|" horiz-adv-x="654" d="M316 1509h270l-214 -1744h-270z" />
<glyph unicode="}" horiz-adv-x="677" d="M510 880v-3q-3 -20 -4 -30.5t-0.5 -29t4.5 -29t13.5 -24t24.5 -21t38.5 -13t55.5 -5.5l-19 -248q-45 0 -77.5 -10t-50.5 -23.5t-30 -38t-16.5 -44.5t-8.5 -52l-41 -337q-15 -124 -91 -200t-172 -76h-183l27 219h31q31 0 52.5 10t34 31t18.5 43t10 55l39 320q5 44 11.5 76 t15.5 55.5t16.5 38t22 27.5t24.5 19t31 18l1 2q-87 55 -65 228l40 328q2 14 2.5 22.5t1 25.5t-4 28t-12 23t-22.5 18t-36 6h-42l27 219h171q69 0 119.5 -39.5t72.5 -106t13 -144.5z" />
<glyph unicode="~" horiz-adv-x="1073" d="M75 473q53 128 135.5 206t180.5 78q16 0 34 -3t31 -6t32 -9.5t27 -9.5t27 -11.5t21 -9.5q41 -18 60 -23.5t41 -5.5q72 0 133 90l219 -88q-34 -86 -80 -151.5t-107.5 -107t-127.5 -41.5q-21 0 -40 2.5t-33 5.5t-28.5 8.5t-23 9.5t-21.5 10.5l-19 9.5q-75 35 -112 35 q-70 0 -130 -93z" />
<glyph unicode="&#xa1;" horiz-adv-x="608" d="M336 639q-90 0 -141.5 52.5t-51.5 136.5q0 87 53.5 142.5t146.5 55.5q89 0 141 -53.5t52 -138.5q0 -86 -53.5 -140.5t-146.5 -54.5zM422 486l-64 -992h-365l180 992h249z" />
<glyph unicode="&#xa2;" horiz-adv-x="982" d="M519 397q42 0 76 20.5t72 72.5l270 -163q-119 -187 -321 -227l-21 -179h-260l22 183q-138 37 -216 146.5t-78 279.5q0 102 29 197t82 173t132 134.5t175 81.5l21 170h260l-20 -164q163 -35 247 -163l-264 -198q-41 64 -122 64q-52 -1 -96 -41.5t-68.5 -106t-24.5 -138.5 q0 -43 11 -73.5t28.5 -44t33.5 -19t32 -5.5z" />
<glyph unicode="&#xa3;" horiz-adv-x="1060" d="M875 1007q-33 46 -74 72t-72 26q-16 0 -31 -4.5t-32 -18.5t-30.5 -35.5t-25 -59t-17.5 -86.5l-6 -51h249l-30 -247h-245l-34 -275h465l-40 -328h-936l40 328h97l34 275h-86l29 247h86l9 73q11 92 35.5 167.5t58.5 130t75.5 94.5t90.5 64t100.5 35.5t107.5 11.5 q116 0 216 -53.5t162 -150.5z" />
<glyph unicode="&#xa4;" horiz-adv-x="948" d="M854 843q0 -123 -62 -227l130 -165l-163 -155l-132 167q-80 -39 -169 -39q-83 0 -151 33l-158 -159l-135 153l160 161q-18 52 -18 116q0 141 70 253l-127 160l165 153l129 -161q72 35 156 35q87 0 158 -40l166 168l134 -155l-172 -174q19 -59 19 -124zM488 655 q59 0 98 47t39 112q0 56 -29.5 89.5t-75.5 33.5q-38 0 -69 -22.5t-48.5 -61t-17.5 -83.5q0 -34 12.5 -60t36 -40.5t54.5 -14.5z" />
<glyph unicode="&#xa5;" horiz-adv-x="1153" d="M1275 1406l-328 -544h96l-16 -132h-159l-64 -106h210l-16 -132h-232l-62 -492h-380l63 492h-246l17 132h224l-38 106h-173l16 132h110l-193 544h421l102 -465h3l212 465h433z" />
<glyph unicode="&#xa6;" horiz-adv-x="654" d="M316 1509h270l-89 -722h-270zM190 485h270l-88 -719h-270z" />
<glyph unicode="&#xa7;" horiz-adv-x="1019" d="M680 909q3 -2 10 -5q60 -30 88.5 -45.5t71 -45t62 -56.5t35 -67.5t15.5 -89.5q0 -100 -43 -177t-120 -126q63 -72 63 -184q0 -131 -57.5 -229t-158 -148.5t-231.5 -50.5q-130 0 -237.5 53.5t-176.5 155.5l211 217q30 -42 68 -71t73.5 -41.5t69.5 -12.5q88 0 88 76 q0 52 -161 134q-44 22 -76 41t-69 49t-60 61.5t-39 75.5t-16 95q0 101 40.5 176.5t114.5 120.5q-68 79 -68 192q0 92 32 168.5t88.5 128t135 79.5t171.5 28q123 0 233.5 -49.5t170.5 -127.5l-206 -225q-112 94 -195 94q-26 0 -43.5 -9t-26 -24.5t-8.5 -35.5q0 -25 32 -53.5 t119 -71.5zM411 582q0 -34 25 -64t95 -61q7 -3 37 -16q32 12 47 36.5t15 51.5q0 36 -26.5 63t-108.5 65l-25 12q-29 -9 -44 -32.5t-15 -54.5z" />
<glyph unicode="&#xa8;" horiz-adv-x="993" d="M359 1452q91 0 147 -53t56 -136q0 -86 -58 -142t-152 -56q-91 0 -147 54.5t-56 137.5q0 56 26 100t74 69.5t110 25.5zM831 1452q91 0 147 -53t56 -136q0 -86 -58 -142t-152 -56q-91 0 -147 54.5t-56 137.5q0 56 26 100t74 69.5t110 25.5z" />
<glyph unicode="&#xa9;" horiz-adv-x="1482" d="M741 1321q138 0 261.5 -53.5t212 -144t140 -214t51.5 -258.5q0 -134 -52 -257t-140.5 -214t-213.5 -145t-263 -54q-137 0 -261 53.5t-212 144t-139.5 214t-51.5 258.5t52 258t140.5 213.5t213 144.5t262.5 54zM1189 651q0 124 -58.5 228.5t-162 165.5t-228.5 61 q-127 0 -231 -61.5t-162.5 -166.5t-58.5 -230q0 -93 34.5 -176.5t93.5 -144.5t143 -96.5t178 -35.5q126 0 230 61.5t163 166t59 228.5zM758 494q35 0 71 17.5t59 45.5l137 -120q-46 -55 -114.5 -89t-152.5 -34q-70 0 -131 21.5t-109 62t-75.5 105t-27.5 144.5q0 69 22.5 130 t65 106.5t108.5 72t147 26.5q72 0 143 -31t124 -96l-137 -118q-24 25 -58 44.5t-72 19.5q-28 0 -53.5 -10t-45.5 -28.5t-32 -48.5t-12 -67q0 -63 38.5 -108t104.5 -45z" />
<glyph unicode="&#xaa;" horiz-adv-x="682" d="M511 1406h235l-74 -603h-236l10 80h-3q-67 -93 -158 -93q-79 0 -133.5 65t-54.5 183q0 84 23.5 156t63.5 121t93 76.5t111 27.5q75 0 114 -50h4zM384 1000q33 0 63.5 43.5t41.5 120.5l3 22q-22 20 -64 20q-36 0 -64 -43t-28 -103q0 -17 5 -30.5t16 -21.5t27 -8z" />
<glyph unicode="&#xab;" horiz-adv-x="1027" d="M959 109h-314l-151 399l255 407h314l-254 -407zM518 108h-314l-151 399l255 407h314l-254 -407z" />
<glyph unicode="&#xac;" horiz-adv-x="1014" d="M906 275h-290l42 338h-564l35 285h853z" />
<glyph unicode="&#xad;" horiz-adv-x="708" d="M636 477h-571l38 312h572z" />
<glyph unicode="&#xae;" horiz-adv-x="1495" d="M748 1328q139 0 264 -54.5t214 -146t141 -216t52 -260.5q0 -135 -52.5 -259.5t-142 -216t-215 -146t-265.5 -54.5q-111 0 -214 34.5t-185.5 97.5t-144 146.5t-94.5 186t-33 211.5q0 135 52.5 259.5t142 216.5t215 146.5t265.5 54.5zM744 189q128 0 233.5 62.5t164.5 168 t59 231.5q0 127 -59 232.5t-163.5 167t-231.5 61.5q-129 0 -234.5 -62.5t-164.5 -169t-59 -232.5q0 -63 16 -122.5t44.5 -110t70 -92.5t91.5 -71.5t109.5 -46t123.5 -16.5zM1013 747q0 -143 -111 -198l144 -225h-215l-117 195h-32v-195h-184v663h270q122 0 183.5 -65.5 t61.5 -174.5zM682 820v-137h44q40 0 65 17t25 51q0 29 -24 49t-68 20h-42z" />
<glyph unicode="&#xaf;" horiz-adv-x="792" d="M209 1392h595l-32 -260h-595z" />
<glyph unicode="&#xb0;" horiz-adv-x="717" d="M476 1473q110 0 177.5 -68t67.5 -182q0 -86 -38 -159.5t-111 -119t-166 -45.5q-76 0 -131.5 30t-83.5 82.5t-28 122.5q0 92 39.5 169.5t112 123.5t161.5 46zM455 1288q-20 0 -38 -9.5t-31 -26t-21 -40t-8 -50.5q0 -35 19.5 -56t52.5 -21q26 0 48.5 16t35.5 43t13 59 q0 37 -20 61t-51 24z" />
<glyph unicode="&#xb1;" horiz-adv-x="1102" d="M1029 734h-299l-42 -344h-289l42 344h-298l36 287h297l43 347h289l-43 -347h300zM936 5h-886l36 287h886z" />
<glyph unicode="&#xb2;" horiz-adv-x="608" d="M459 1122l-1 -5h197l-28 -226h-552l15 166l239 256q53 57 82 98.5t29 75.5q0 30 -32 30q-37 0 -89 -61l-175 139q50 69 126.5 112.5t173.5 43.5q112 0 182 -61.5t70 -162.5q0 -40 -7.5 -76t-19.5 -65.5t-33 -61t-43.5 -58t-55.5 -61.5z" />
<glyph unicode="&#xb3;" horiz-adv-x="622" d="M578 1321q94 -55 94 -169q0 -83 -40.5 -147t-110 -97.5t-156.5 -33.5q-114 0 -193 63t-97 156l224 76q1 -41 15.5 -59t35.5 -18q29 0 48 26.5t19 66.5q0 42 -52 42h-46l22 182h49q17 0 31.5 13t23 33t8.5 40q0 36 -29 36q-18 0 -35 -18t-27 -53l-197 122q32 71 110 120 t169 49q113 0 181 -55.5t68 -157.5q0 -34 -8 -66t-23 -58.5t-36 -49t-48 -40.5v-3z" />
<glyph unicode="&#xb4;" horiz-adv-x="882" d="M521 1396l343 2l-265 -311h-316z" />
<glyph unicode="&#xb5;" horiz-adv-x="1176" d="M1086 273l36 -235q-91 -59 -201 -59q-108 0 -167 42.5t-74 139.5h-3q-94 -181 -229 -181q-67 0 -111 44l-5 -2q27 -161 13 -285l-17 -142h-344l173 1408h345l-67 -543q-10 -91 6.5 -131t61.5 -40t86.5 49.5t60.5 149.5l63 515h350l-79 -644q-5 -35 -1.5 -55t13.5 -27.5 t30 -7.5q28 0 60 4z" />
<glyph unicode="&#xb6;" horiz-adv-x="957" d="M626 1406h326l-173 -1406h-360l67 542q-119 1 -209.5 42t-142.5 122t-52 193q0 102 36.5 193t103.5 161t172 111.5t232 41.5z" />
<glyph unicode="&#xb7;" horiz-adv-x="570" d="M332 686q90 0 141.5 -52.5t51.5 -136.5q0 -87 -53.5 -142.5t-146.5 -55.5q-90 0 -141.5 53.5t-51.5 138.5q0 86 53.5 140.5t146.5 54.5z" />
<glyph unicode="&#xb8;" horiz-adv-x="573" d="M229 -62q156 -5 156 -137q0 -99 -71 -148t-197 -49q-59 0 -120 13l6 133q33 -12 84 -12q47 0 73.5 17t26.5 46q0 25 -31.5 36.5t-98.5 11.5l3 79l54 84h171l-58 -72z" />
<glyph unicode="&#xb9;" horiz-adv-x="550" d="M418 1735h194l-104 -844h-249l67 521l-93 -63l-103 191z" />
<glyph unicode="&#xba;" horiz-adv-x="656" d="M451 1420q76 0 132 -30t87 -89.5t31 -142.5q0 -74 -20 -138t-60.5 -116t-107.5 -82t-154 -30q-117 0 -186.5 69.5t-69.5 192.5q0 74 22.5 139.5t65 116.5t109.5 80.5t151 29.5zM421 1209q-27 0 -48.5 -20.5t-32.5 -51t-11 -63.5q0 -39 16.5 -54.5t36.5 -15.5 q39 0 66 39.5t27 91.5q0 43 -16.5 58.5t-37.5 15.5z" />
<glyph unicode="&#xbb;" horiz-adv-x="1033" d="M-36 108l254 399l-156 407h316l155 -407l-249 -399h-320zM414 108l254 399l-156 407h316l155 -407l-249 -399h-320z" />
<glyph unicode="&#xbc;" horiz-adv-x="1557" d="M1068 1494l237 -109l-762 -1441l-237 109zM484 611h-249l67 521l-93 -63l-103 191l288 195h194zM1438 334h91l-26 -212h-90l-15 -122h-250l15 122h-271l16 148l396 573h197zM1127 308h101l29 212z" />
<glyph unicode="&#xbd;" horiz-adv-x="1632" d="M1068 1494l237 -109l-762 -1441l-237 109zM484 611h-249l67 521l-93 -63l-103 191l288 195h194zM1382 231l-1 -5h197l-28 -226h-552l15 166l239 256q53 57 82 98.5t29 75.5q0 30 -32 30q-37 0 -89 -61l-175 139q50 69 126.5 112.5t173.5 43.5q55 0 101.5 -16t80 -45 t52 -71t18.5 -92t-10 -92t-32.5 -81.5t-48.5 -72t-68 -76.5z" />
<glyph unicode="&#xbe;" horiz-adv-x="1586" d="M1090 1494l237 -109l-762 -1441l-237 109zM648 872q0 -125 -86.5 -201.5t-220.5 -76.5q-114 0 -193 63t-97 156l224 76q1 -41 15.5 -59t35.5 -18q19 0 34.5 12t24 33.5t8.5 47.5q0 42 -52 42h-46l22 182h49q25 0 44 27t19 59q0 36 -29 36q-18 0 -35 -18t-27 -53l-197 122 q32 71 110 120t169 49q113 0 181 -55.5t68 -157.5q0 -68 -30.5 -123t-84.5 -91v-3q94 -55 94 -169zM1467 334h91l-26 -212h-90l-15 -122h-250l15 122h-271l16 148l396 573h197zM1156 308h101l29 212z" />
<glyph unicode="&#xbf;" horiz-adv-x="845" d="M538 639q-90 0 -141.5 52.5t-51.5 136.5q0 87 53.5 142.5t146.5 55.5q90 0 141.5 -53.5t51.5 -138.5q0 -86 -53.5 -140.5t-146.5 -54.5zM585 -127q-77 -83 -145 -83q-20 0 -36 6.5t-26.5 19t-16 31t-5.5 41.5q0 32 9.5 62t30 60t38 50.5t48.5 52.5q100 105 142.5 168 t48.5 133l7 83h-303l-20 -86q-11 -47 -46.5 -89t-108.5 -108q-102 -93 -159 -189t-57 -212q0 -161 106 -250t273 -89q131 0 246 54t178 139z" />
<glyph unicode="&#xc0;" horiz-adv-x="1288" d="M932 1594h-308l-189 311l336 -2zM842 0l-35 245h-389l-95 -245h-391l652 1455h348l295 -1455h-385zM540 558h222l-58 411h-4z" />
<glyph unicode="&#xc1;" horiz-adv-x="1288" d="M1219 1905l-265 -311h-316l238 309zM842 0l-35 245h-389l-95 -245h-391l652 1455h348l295 -1455h-385zM540 558h222l-58 411h-4z" />
<glyph unicode="&#xc2;" horiz-adv-x="1288" d="M801 1737l-71 -148h-296l232 316h297l168 -316h-290l-36 148h-4zM842 0l-35 245h-389l-95 -245h-391l652 1455h348l295 -1455h-385zM540 558h222l-58 411h-4z" />
<glyph unicode="&#xc3;" horiz-adv-x="1288" d="M714 1668q-67 0 -119 -101l-189 93q48 119 119.5 190t157.5 71q36 0 68 -9.5t46 -17.5t35 -23q4 -3 6 -4q50 -34 83 -34q69 0 121 97l187 -77q-48 -126 -117.5 -201.5t-154.5 -75.5q-34 0 -66 10t-47 19t-39 26q-3 3 -5 4q-47 33 -86 33zM584 1455h348l295 -1455h-385 l-35 245h-389l-95 -245h-391zM540 558h222l-58 411h-4z" />
<glyph unicode="&#xc4;" horiz-adv-x="1288" d="M566 1572q-91 0 -147 54.5t-56 137.5q0 85 58 140t152 55q91 0 147 -53t56 -136q0 -86 -58 -142t-152 -56zM1038 1572q-91 0 -147 54.5t-56 137.5q0 85 58 140t152 55q91 0 147 -53t56 -136q0 -86 -58 -142t-152 -56zM584 1455h348l295 -1455h-385l-35 245h-389l-95 -245 h-391zM540 558h222l-58 411h-4z" />
<glyph unicode="&#xc5;" horiz-adv-x="1288" d="M806 1554q-61 0 -110 28t-77 77.5t-28 109.5q0 93 63.5 155.5t158.5 62.5q92 0 153.5 -60.5t61.5 -150.5q0 -95 -63.5 -158.5t-158.5 -63.5zM811 1843q-32 0 -53 -21t-21 -52t20.5 -51t51.5 -20q20 0 37 9.5t26.5 26.5t9.5 38q0 29 -20.5 49.5t-50.5 20.5zM842 0l-35 245 h-389l-95 -245h-391l652 1455h348l295 -1455h-385zM540 558h222l-58 411h-4z" />
<glyph unicode="&#xc6;" horiz-adv-x="1764" d="M1737 1124h-519l-30 -243h411l-40 -318h-410l-29 -233h557l-40 -330h-916l30 246h-303l-124 -246h-392l781 1455h1064zM605 558h185l58 476h-2z" />
<glyph unicode="&#xc7;" horiz-adv-x="1319" d="M711 337q77 0 150 35.5t126 101.5l257 -242q-97 -114 -228.5 -178.5t-285.5 -72.5l-34 -41l2 -2q156 -5 156 -137q0 -99 -71 -148t-197 -49q-59 0 -120 13l6 133q33 -12 84 -12q23 0 41.5 4.5t31.5 12.5t20 20t7 26q0 25 -31.5 36.5t-98.5 11.5l3 79l37 58v3 q-106 16 -193.5 63t-151.5 121.5t-99.5 182.5t-35.5 240q0 144 35 277t103 242t162 190t217 125.5t262 44.5q66 0 131.5 -16t132.5 -50.5t129.5 -95.5t112.5 -143l-290 -223q-43 77 -105 124t-135 47q-82 0 -152 -44.5t-115.5 -116.5t-71 -161t-25.5 -181q0 -134 63 -206 t171 -72z" />
<glyph unicode="&#xc8;" horiz-adv-x="1092" d="M754 1899l161 -309h-308l-189 311zM1005 330l-40 -330h-914l178 1455h876l-40 -331h-516l-30 -242h400l-39 -323h-401l-28 -229h554z" />
<glyph unicode="&#xc9;" horiz-adv-x="1092" d="M702 1899l343 2l-265 -311h-316zM1005 330l-40 -330h-914l178 1455h876l-40 -331h-516l-30 -242h400l-39 -323h-401l-28 -229h554z" />
<glyph unicode="&#xca;" horiz-adv-x="1092" d="M710 1733l-71 -148h-296l232 316h297l168 -316h-290l-36 148h-4zM1065 1124h-516l-30 -242h400l-39 -323h-401l-28 -229h554l-40 -330h-914l178 1455h876z" />
<glyph unicode="&#xcb;" horiz-adv-x="1092" d="M482 1955q91 0 147 -53t56 -136q0 -86 -58 -142t-152 -56q-60 0 -106.5 25t-71.5 68.5t-25 98.5q0 85 58 140t152 55zM954 1955q45 0 83 -14.5t64.5 -39.5t41 -59.5t14.5 -75.5q0 -57 -26 -102t-74 -70.5t-110 -25.5q-91 0 -147 54.5t-56 137.5q0 85 58 140t152 55z M1005 330l-40 -330h-914l178 1455h876l-40 -331h-516l-30 -242h400l-39 -323h-401l-28 -229h554z" />
<glyph unicode="&#xcc;" horiz-adv-x="626" d="M424 1900l161 -309h-308l-189 311zM440 0h-377l178 1455h377z" />
<glyph unicode="&#xcd;" horiz-adv-x="626" d="M516 1900l343 2l-265 -311h-316zM440 0h-377l178 1455h377z" />
<glyph unicode="&#xce;" horiz-adv-x="626" d="M458 1733l-71 -148h-296l232 316h297l168 -316h-290l-36 148h-4zM63 0l178 1455h377l-178 -1455h-377z" />
<glyph unicode="&#xcf;" horiz-adv-x="626" d="M230 1955q91 0 147 -53t56 -136q0 -86 -58 -142t-152 -56q-91 0 -147 54.5t-56 137.5q0 85 58 140t152 55zM702 1955q60 0 106.5 -24.5t71.5 -67.5t25 -97q0 -86 -58 -142t-152 -56q-91 0 -147 54.5t-56 137.5q0 85 58 140t152 55zM440 0h-377l178 1455h377z" />
<glyph unicode="&#xd0;" horiz-adv-x="1332" d="M705 1455q149 0 264 -42.5t189 -122.5t111.5 -191.5t37.5 -251.5q0 -186 -54.5 -342t-155.5 -268t-252 -174.5t-336 -62.5h-454l68 554h-82l38 312h82l72 589h472zM553 330q74 0 135.5 27t104 74t72 111.5t43 139t13.5 157.5q0 142 -62.5 213.5t-199.5 71.5h-106 l-32 -258h130l-39 -312h-129l-28 -224h98z" />
<glyph unicode="&#xd1;" horiz-adv-x="1379" d="M760 1667q-67 0 -119 -101l-189 93q48 119 119.5 190t157.5 71q36 0 68 -9.5t46 -17.5t35 -23q4 -3 6 -4q50 -34 83 -34q69 0 121 97l187 -77q-31 -82 -70.5 -142.5t-92 -97.5t-109.5 -37q-22 0 -44 4.5t-34.5 8.5t-32 15.5t-24 14.5t-22.5 16q-47 33 -86 33zM1012 1455 h370l-179 -1455h-375l-307 773h-4l-95 -773h-369l178 1455h365l315 -801h3z" />
<glyph unicode="&#xd2;" horiz-adv-x="1486" d="M903 1902l161 -309h-308l-189 311zM861 1475q133 0 243 -41.5t188 -119.5t121 -194t43 -259q0 -146 -33 -278t-98.5 -242t-157.5 -190.5t-217 -125.5t-270 -45q-89 0 -168 18.5t-145 54.5t-118.5 89.5t-89 121.5t-55.5 153.5t-19 183.5q0 115 24.5 225.5t70.5 207.5 t115 178t153.5 139.5t190.5 91t222 32.5zM708 327q105 0 188 66.5t128.5 182t45.5 259.5q0 146 -67.5 219.5t-175.5 73.5q-98 0 -181 -70.5t-129 -185.5t-46 -245q0 -149 66.5 -224.5t170.5 -75.5z" />
<glyph unicode="&#xd3;" horiz-adv-x="1486" d="M963 1902l343 2l-265 -311h-316zM861 1475q133 0 243 -41.5t188 -119.5t121 -194t43 -259q0 -146 -33 -278t-98.5 -242t-157.5 -190.5t-217 -125.5t-270 -45q-107 0 -199 26.5t-165 78.5t-124.5 126t-79 173.5t-27.5 216.5q0 115 24.5 225.5t70.5 207.5t115 178 t153.5 139.5t190.5 91t222 32.5zM708 327q105 0 188 66.5t128.5 182t45.5 259.5q0 146 -67.5 219.5t-175.5 73.5q-98 0 -181 -70.5t-129 -185.5t-46 -245q0 -76 18.5 -134.5t51.5 -94t75 -53.5t92 -18z" />
<glyph unicode="&#xd4;" horiz-adv-x="1486" d="M953 1736l-71 -148h-296l232 316h297l168 -316h-290l-36 148h-4zM861 1475q133 0 243 -41.5t188 -119.5t121 -194t43 -259q0 -146 -33 -278t-98.5 -242t-157.5 -190.5t-217 -125.5t-270 -45q-107 0 -199 26.5t-165 78.5t-124.5 126t-79 173.5t-27.5 216.5 q0 115 24.5 225.5t70.5 207.5t115 178t153.5 139.5t190.5 91t222 32.5zM708 327q105 0 188 66.5t128.5 182t45.5 259.5q0 146 -67.5 219.5t-175.5 73.5q-98 0 -181 -70.5t-129 -185.5t-46 -245q0 -76 18.5 -134.5t51.5 -94t75 -53.5t92 -18z" />
<glyph unicode="&#xd5;" horiz-adv-x="1486" d="M558 1659q48 119 119.5 190t157.5 71q77 0 145 -47q1 -1 4 -3l6 -4q50 -34 83 -34q69 0 121 97l187 -77q-48 -126 -117.5 -201.5t-154.5 -75.5q-34 0 -66 10t-47 19.5t-39 25.5q-3 3 -5 4q-47 33 -86 33q-67 0 -119 -101zM861 1475q133 0 243 -41.5t188 -119.5t121 -194 t43 -259q0 -146 -33 -278t-98.5 -242t-157.5 -190.5t-217 -125.5t-270 -45q-107 0 -199 26.5t-165 78.5t-124.5 126t-79 173.5t-27.5 216.5q0 115 24.5 225.5t70.5 207.5t115 178t153.5 139.5t190.5 91t222 32.5zM708 327q105 0 188 66.5t128.5 182t45.5 259.5 q0 146 -67.5 219.5t-175.5 73.5q-98 0 -181 -70.5t-129 -185.5t-46 -245q0 -76 18.5 -134.5t51.5 -94t75 -53.5t92 -18z" />
<glyph unicode="&#xd6;" horiz-adv-x="1486" d="M725 1958q91 0 147 -53t56 -136q0 -86 -58 -142t-152 -56q-91 0 -147 54.5t-56 137.5q0 85 58 140t152 55zM1197 1958q60 0 106.5 -24.5t71.5 -67.5t25 -97q0 -57 -26 -102t-74 -70.5t-110 -25.5q-91 0 -147 54.5t-56 137.5q0 85 58 140t152 55zM861 1475 q133 0 243 -41.5t188 -119.5t121 -194t43 -259q0 -146 -33 -278t-98.5 -242t-157.5 -190.5t-217 -125.5t-270 -45q-107 0 -199 26.5t-165 78.5t-124.5 126t-79 173.5t-27.5 216.5q0 116 24.5 226t70.5 207t115 178t153.5 139.5t190.5 91t222 32.5zM708 327q105 0 188 66.5 t128.5 182t45.5 259.5q0 146 -67.5 219.5t-175.5 73.5q-98 0 -181 -70.5t-129 -185.5t-46 -245q0 -76 18.5 -134.5t51.5 -94t75 -53.5t92 -18z" />
<glyph unicode="&#xd7;" horiz-adv-x="1001" d="M686 101l-198 263l-261 -262l-181 205l262 263l-197 262l222 202l195 -262l262 264l182 -204l-263 -265l197 -264z" />
<glyph unicode="&#xd8;" horiz-adv-x="1488" d="M1517 1387l-153 -163q94 -148 94 -363q0 -146 -33 -278t-98.5 -242t-157.5 -190.5t-217 -125.5t-270 -45q-228 0 -379 116l-162 -172l-131 129l169 180q-92 151 -92 368q0 139 34.5 269t102 239.5t160.5 191.5t216.5 128t262.5 46q225 0 378 -115l144 153zM473 627 q0 -37 5 -77l500 530q-60 48 -149 48q-98 0 -181 -70.5t-129 -185.5t-46 -245zM1072 835q0 36 -5 73l-501 -532q59 -49 144 -49q79 0 146.5 39t115 106.5t74 161t26.5 201.5z" />
<glyph unicode="&#xd9;" horiz-adv-x="1311" d="M763 1902l161 -309h-308l-189 311zM1223 601q-21 -173 -71 -293.5t-130 -192t-183 -103.5t-241 -32q-250 0 -370 133.5t-120 384.5q0 74 11 167l98 790h371l-97 -788q-9 -79 -9 -126q0 -216 146 -216q50 0 86 14t64.5 46.5t47 88.5t28.5 138l104 843h370z" />
<glyph unicode="&#xda;" horiz-adv-x="1311" d="M850 1902l343 2l-265 -311h-316zM1223 601q-21 -173 -71 -293.5t-130 -192t-183 -103.5t-241 -32q-250 0 -370 133.5t-120 384.5q0 74 11 167l98 790h371l-97 -788q-9 -79 -9 -126q0 -216 146 -216q50 0 86 14t64.5 46.5t47 88.5t28.5 138l104 843h370z" />
<glyph unicode="&#xdb;" horiz-adv-x="1311" d="M807 1736l-71 -148h-296l232 316h297l168 -316h-290l-36 148h-4zM958 1455h370l-105 -854q-21 -173 -71 -293.5t-130 -192t-183 -103.5t-241 -32q-250 0 -370 133.5t-120 384.5q0 74 11 167l98 790h371l-97 -788q-9 -79 -9 -126q0 -216 146 -216q50 0 86 14t64.5 46.5 t47 88.5t28.5 138z" />
<glyph unicode="&#xdc;" horiz-adv-x="1311" d="M579 1958q91 0 147 -53t56 -136q0 -86 -58 -142t-152 -56q-60 0 -106.5 25t-71.5 68.5t-25 98.5q0 85 58 140t152 55zM1051 1958q91 0 147 -53t56 -136q0 -86 -58 -142t-152 -56q-91 0 -147 54.5t-56 137.5q0 85 58 140t152 55zM1223 601q-21 -173 -71 -293.5t-130 -192 t-183 -103.5t-241 -32q-250 0 -370 133.5t-120 384.5q0 74 11 167l98 790h371l-97 -788q-9 -79 -9 -126q0 -216 146 -216q50 0 86 14t64.5 46.5t47 88.5t28.5 138l104 843h370z" />
<glyph unicode="&#xdd;" horiz-adv-x="1189" d="M1150 1904l-265 -311h-316l238 309zM892 1455h429l-522 -825l-79 -630h-376l79 630l-317 825h415l131 -459h4z" />
<glyph unicode="&#xde;" horiz-adv-x="1191" d="M443 225l-28 -225h-362l178 1455h363l-28 -228h193q107 0 189 -31.5t131.5 -88t74 -129.5t24.5 -160q0 -74 -13 -142t-38 -127.5t-61.5 -109.5t-85.5 -89.5t-107.5 -67.5t-129 -42.5t-148.5 -14.5h-152zM602 548q85 0 137.5 63.5t52.5 151.5q0 72 -37 104.5t-91 32.5 h-137l-44 -352h119z" />
<glyph unicode="&#xdf;" horiz-adv-x="1315" d="M1275 323q0 -84 -29.5 -150t-81.5 -108t-121 -63.5t-150 -21.5q-103 0 -205.5 45t-172.5 127l184 195q49 -57 98 -85t89 -28q26 0 43 9.5t17 31.5q0 18 -25 37.5t-104 61.5q-223 119 -223 292q0 50 17.5 96.5t44 81t58 72t59 68.5t47 70t22.5 78q4 54 -38.5 79.5 t-113.5 25.5q-73 0 -120.5 -49.5t-57.5 -140.5l-128 -1047h-350l132 1075q55 453 515 453q88 0 164 -13t140 -42t108.5 -72.5t68.5 -106.5t21 -141q-2 -53 -16.5 -99.5t-36.5 -80.5t-47.5 -63.5t-51 -53t-46.5 -44t-34 -41.5t-13 -41q0 -17 6 -31.5t24 -31.5t50 -36l6 -3 q34 -20 50.5 -30t44 -27.5t40.5 -28t33.5 -27.5t30 -30.5t22 -32.5t17.5 -38t9 -42t4 -49z" />
<glyph unicode="&#xe0;" horiz-adv-x="1123" d="M858 1142h-308l-189 311l336 -2zM743 1003h350l-123 -1003h-350l17 133h-5q-110 -154 -272 -154q-100 0 -172.5 54.5t-108.5 147t-36 211.5q0 138 38 257.5t102 201t148 127.5t174 46q148 0 226 -88h4zM486 289q73 0 139 95.5t89 266.5q-30 33 -61.5 48t-74.5 15 q-54 0 -98 -46.5t-65.5 -111t-21.5 -127.5t26.5 -101.5t66.5 -38.5z" />
<glyph unicode="&#xe1;" horiz-adv-x="1123" d="M1050 1453l-265 -311h-316l238 309zM743 1003h350l-123 -1003h-350l17 133h-5q-110 -154 -272 -154q-100 0 -172.5 54.5t-108.5 147t-36 211.5q0 138 38 257.5t102 201t148 127.5t174 46q148 0 226 -88h4zM486 289q73 0 139 95.5t89 266.5q-30 33 -61.5 48t-74.5 15 q-54 0 -98 -46.5t-65.5 -111t-21.5 -127.5t26.5 -101.5t66.5 -38.5z" />
<glyph unicode="&#xe2;" horiz-adv-x="1123" d="M665 1283l-71 -148h-296l232 316h297l168 -316h-290l-36 148h-4zM743 1003h350l-123 -1003h-350l17 133h-5q-110 -154 -272 -154q-100 0 -172.5 54.5t-108.5 147t-36 211.5q0 138 38 257.5t102 201t148 127.5t174 46q148 0 226 -88h4zM486 289q73 0 139 95.5t89 266.5 q-30 33 -61.5 48t-74.5 15q-54 0 -98 -46.5t-65.5 -111t-21.5 -127.5t26.5 -101.5t66.5 -38.5z" />
<glyph unicode="&#xe3;" horiz-adv-x="1123" d="M578 1214q-67 0 -119 -101l-189 93q48 119 119.5 190t157.5 71q77 0 145 -47q2 -1 4 -3l6 -4q50 -34 83 -34q69 0 121 97l187 -77q-48 -126 -117.5 -201.5t-154.5 -75.5q-22 0 -44 4.5t-34.5 8.5t-32 15.5t-24 14.5t-22.5 16q-47 33 -86 33zM735 936l8 67h350l-123 -1003 h-350l17 133h-5q-110 -154 -272 -154q-100 0 -172.5 54.5t-108.5 147t-36 211.5q0 138 38 257.5t102 200.5t148 127.5t174 46.5q148 0 226 -88h4zM486 289q73 0 139 95.5t89 266.5q-30 33 -61.5 48t-74.5 15q-54 0 -98 -46.5t-65.5 -111t-21.5 -127.5t26.5 -101.5 t66.5 -38.5z" />
<glyph unicode="&#xe4;" horiz-adv-x="1123" d="M430 1118q-91 0 -147 54.5t-56 137.5q0 85 58 140t152 55q91 0 147 -53t56 -136q0 -86 -58 -142t-152 -56zM902 1118q-91 0 -147 54.5t-56 137.5q0 85 58 140t152 55q91 0 147 -53t56 -136q0 -86 -58 -142t-152 -56zM735 936l8 67h350l-123 -1003h-350l17 133h-5 q-110 -154 -272 -154q-100 0 -172.5 54.5t-108.5 147t-36 211.5q0 138 38 257.5t102 201t148 127.5t174 46q148 0 226 -88h4zM486 289q73 0 139 96t89 266q-30 33 -61.5 48t-74.5 15q-54 0 -98 -46.5t-65.5 -111t-21.5 -127.5t26.5 -101.5t66.5 -38.5z" />
<glyph unicode="&#xe5;" horiz-adv-x="1123" d="M670 1100q-61 0 -110 28t-77 77.5t-28 109.5q0 93 63.5 155.5t158.5 62.5q60 0 109.5 -27.5t77.5 -76t28 -107.5q0 -95 -63.5 -158.5t-158.5 -63.5zM675 1389q-32 0 -53 -21t-21 -52t20.5 -51t51.5 -20t52 21t21 53q0 14 -5.5 27t-15 22.5t-22.5 15t-28 5.5zM743 1003 h350l-123 -1003h-350l17 133h-5q-110 -154 -272 -154q-100 0 -172.5 54.5t-108.5 147t-36 211.5q0 138 38 257.5t102 201t148 127.5t174 46q148 0 226 -88h4zM486 289q74 0 139.5 95.5t88.5 266.5q-30 33 -61.5 48t-74.5 15q-54 0 -98 -46.5t-65.5 -111t-21.5 -127.5 t26.5 -101.5t66.5 -38.5z" />
<glyph unicode="&#xe6;" horiz-adv-x="1415" d="M973 258q21 0 44 7.5t51.5 30t51.5 56.5l252 -140q-148 -232 -435 -232q-117 0 -198 48.5t-123 140.5h-5q-118 -188 -297 -189q-130 -1 -212 96.5t-82 280.5q0 134 44 253t121 204.5t186 135.5t234 50q113 0 197 -47h8q107 70 257 70q52 0 100.5 -9.5t95 -31t81 -53.5 t55.5 -80.5t21 -108.5q0 -63 -31 -119t-82 -97.5t-125 -78t-150 -62t-168 -48.5l-1 -4q9 -19 22 -33.5t28 -23t30 -12.5t30 -4zM1038 742q-37 0 -72 -25t-62.5 -71t-42.5 -106l1 -6q43 13 73 24t62 26t51 30.5t31.5 36.5t12.5 45q0 9 -3.5 17.5t-10 14.5t-17 10t-23.5 4z M430 270q22 0 43 17t36.5 44t29.5 64.5t24 75t18 79.5q12 81 40 158l-1 5h-16q-51 0 -95 -26.5t-74.5 -72t-47.5 -107.5t-17 -132q0 -105 60 -105z" />
<glyph unicode="&#xe7;" horiz-adv-x="971" d="M501 288q21 0 39 4.5t36 15.5t35.5 28.5t37.5 43.5l270 -162q-143 -225 -408 -238l-33 -40l2 -2q156 -5 156 -137q0 -99 -71 -148t-197 -49q-59 0 -120 13l6 133q33 -12 84 -12q31 0 53.5 7.5t34.5 22t12 33.5q0 25 -31.5 36.5t-98.5 11.5l3 79l38 59v5q-96 22 -164 78 t-104 145t-36 206q0 79 18 155t51 143t83 123t111.5 96.5t138.5 63t162 22.5q80 0 148.5 -20t123 -59.5t90.5 -95.5l-264 -198q-13 21 -29.5 35t-34 19.5t-30.5 7.5t-29 2q-51 0 -95 -41t-68.5 -106.5t-24.5 -137.5q0 -35 7.5 -62t19 -41.5t26.5 -23.5t27 -12t25 -3z" />
<glyph unicode="&#xe8;" horiz-adv-x="972" d="M790 1142h-308l-189 311l336 -2zM501 258q95 0 160 97l254 -137q-148 -238 -446 -238q-202 0 -314.5 113.5t-112.5 319.5q0 97 24.5 188t73 167.5t116 133.5t157.5 89.5t193 32.5q51 0 100 -10.5t94.5 -33.5t80 -56t55 -82.5t20.5 -108.5q0 -65 -31.5 -121.5t-84 -98 t-126.5 -75.5t-155 -56t-173 -37l-1 -2q17 -43 49 -64t67 -21zM577 742q-32 0 -62 -14.5t-55 -40t-44 -62.5t-30 -82q242 49 242 153q0 19 -14 32.5t-37 13.5z" />
<glyph unicode="&#xe9;" horiz-adv-x="972" d="M1025 1453l-265 -311h-316l238 309zM956 733q0 -65 -31.5 -121.5t-84 -98t-126.5 -75.5t-155 -56t-173 -37l-1 -2q17 -43 49 -64t67 -21q95 0 160 97l254 -137q-148 -238 -446 -238q-202 0 -314.5 113.5t-112.5 319.5q0 97 24.5 188t73 167.5t116 133.5t157.5 89.5 t193 32.5q51 0 100 -10.5t94.5 -33.5t80 -56t55 -82.5t20.5 -108.5zM577 742q-65 0 -116.5 -54.5t-74.5 -144.5q242 49 242 153q0 19 -14 32.5t-37 13.5z" />
<glyph unicode="&#xea;" horiz-adv-x="972" d="M635 1283l-71 -148h-296l232 316h297l168 -316h-290l-36 148h-4zM956 733q0 -65 -31.5 -121.5t-84 -98t-126.5 -75.5t-155 -56t-173 -37l-1 -2q17 -43 49 -64t67 -21q95 0 160 97l254 -137q-148 -238 -446 -238q-202 0 -314.5 113.5t-112.5 319.5q0 97 24.5 188t73 167.5 t116 133.5t157.5 89.5t193 32.5q51 0 100 -10.5t94.5 -33.5t80 -56t55 -82.5t20.5 -108.5zM577 742q-65 0 -116.5 -54.5t-74.5 -144.5q242 49 242 153q0 19 -14 32.5t-37 13.5z" />
<glyph unicode="&#xeb;" horiz-adv-x="972" d="M400 1118q-91 0 -147 54.5t-56 137.5q0 85 58 140t152 55q91 0 147 -53t56 -136q0 -86 -58 -142t-152 -56zM879 1505q91 0 147 -53t56 -136q0 -86 -58 -142t-152 -56q-91 0 -147 54.5t-56 137.5q0 85 58 140t152 55zM956 733q0 -65 -31.5 -121.5t-84 -98t-126.5 -75.5 t-155 -56t-173 -37l-1 -2q11 -29 31 -49t41.5 -28t43.5 -8q95 0 160 97l254 -137q-148 -238 -446 -238q-202 0 -314.5 113.5t-112.5 319.5q0 97 24.5 188t73 167.5t116 133.5t157.5 89.5t193 32.5q51 0 100 -10.5t94.5 -33.5t80 -56t55 -82.5t20.5 -108.5zM577 742 q-65 0 -116.5 -54.5t-74.5 -144.5q242 49 242 153q0 19 -14 32.5t-37 13.5z" />
<glyph unicode="&#xec;" horiz-adv-x="558" d="M414 1452l83 -309h-309l-111 311zM165 1003h348l-123 -1003h-348z" />
<glyph unicode="&#xed;" horiz-adv-x="560" d="M438 1451l343 2l-265 -311h-316zM167 1003h348l-123 -1003h-348z" />
<glyph unicode="&#xee;" horiz-adv-x="560" d="M381 1283l-71 -148h-296l232 316h297l168 -316h-290l-36 148h-4zM44 0l123 1003h348l-123 -1003h-348z" />
<glyph unicode="&#xef;" horiz-adv-x="560" d="M189 1503q78 0 129.5 -53.5t51.5 -133.5q0 -83 -53.5 -139t-133.5 -56q-77 0 -128.5 54.5t-51.5 134.5q0 82 53 137.5t133 55.5zM587 1503q77 0 128.5 -53.5t51.5 -133.5q0 -83 -53.5 -139t-133.5 -56q-77 0 -128.5 54.5t-51.5 134.5q0 54 24.5 98.5t67 69.5t95.5 25z M167 1003h348l-123 -1003h-348z" />
<glyph unicode="&#xf0;" horiz-adv-x="1071" d="M1028 639q0 -64 -8 -141q-8 -86 -35 -162.5t-74 -142t-110 -113t-149 -74t-187 -26.5q-190 0 -307 111t-117 300q0 79 21 156.5t62 145t97 119t129.5 81t155.5 29.5q83 0 163 -38q-38 115 -127 212h-3l-120 -91l-123 166l79 61v3q-49 35 -110 69l153 215q108 -43 197 -99 h1l142 110l123 -174l-94 -72l-1 -3q242 -250 242 -642zM497 287q73 0 123 64.5t50 171.5q0 37 -10 64t-26 40t-32.5 18.5t-33.5 5.5q-77 0 -127.5 -72.5t-49.5 -168.5q0 -35 10.5 -61t27.5 -38.5t33.5 -18t34.5 -5.5z" />
<glyph unicode="&#xf1;" horiz-adv-x="1109" d="M598 1214q-67 0 -119 -101l-189 93q48 119 119.5 190t157.5 71q36 0 68 -9.5t46 -17.5t35 -23q4 -3 6 -4q50 -34 83 -34q69 0 121 97l187 -77q-23 -61 -51.5 -110.5t-62.5 -87t-74.5 -58.5t-83.5 -21q-22 0 -44 4.5t-34.5 8.5t-32 15.5t-24 14.5t-22.5 16q-47 33 -86 33z M814 1023q137 0 193.5 -98t29.5 -307l-80 -618h-347l69 523q14 100 5 145t-46 45q-30 0 -61 -20t-60.5 -60t-53.5 -109t-35 -158l-45 -366h-349l123 1003h349l-16 -128h4q129 148 320 148z" />
<glyph unicode="&#xf2;" horiz-adv-x="1084" d="M637 1451l161 -309h-308l-189 311zM609 1023q197 0 313 -115t116 -321q0 -97 -20 -185t-64.5 -165.5t-109.5 -134t-161 -89.5t-214 -33q-192 0 -308 115.5t-116 319.5q0 97 23 186.5t70.5 166t113.5 133.5t158 89.5t199 32.5zM578 713q-42 0 -77 -25.5t-57.5 -66.5 t-34.5 -91.5t-12 -102.5q0 -39 11 -67.5t28 -43t33.5 -21t32.5 -6.5q54 0 97 41t65 104t22 133q0 43 -11 74t-28.5 45.5t-34.5 20.5t-34 6z" />
<glyph unicode="&#xf3;" horiz-adv-x="1084" d="M720 1451l343 2l-265 -311h-316zM609 1023q197 0 313 -115t116 -321q0 -97 -20 -185t-64.5 -165.5t-109.5 -134t-161 -89.5t-214 -33q-192 0 -308 115.5t-116 319.5q0 97 23 186.5t70.5 166t113.5 133.5t158 89.5t199 32.5zM578 713q-55 0 -97.5 -43.5t-63 -107.5 t-20.5 -135q0 -39 11 -67.5t28 -43t33.5 -21t32.5 -6.5q54 0 97 41t65 104t22 133q0 43 -11 74t-28.5 45.5t-34.5 20.5t-34 6z" />
<glyph unicode="&#xf4;" horiz-adv-x="1084" d="M654 1283l-71 -148h-296l232 316h297l168 -316h-290l-36 148h-4zM609 1023q197 0 313 -115t116 -321q0 -97 -20 -185t-64.5 -165.5t-109.5 -134t-161 -89.5t-214 -33q-192 0 -308 115.5t-116 319.5q0 97 23 186.5t70.5 166t113.5 133.5t158 89.5t199 32.5zM502 289 q41 0 76 24t58.5 63.5t36.5 89t13 101.5q0 43 -11 74t-28.5 45.5t-34.5 20.5t-34 6q-55 0 -97.5 -43.5t-63 -107.5t-20.5 -135q0 -39 11 -67.5t28 -43t33.5 -21t32.5 -6.5z" />
<glyph unicode="&#xf5;" horiz-adv-x="1084" d="M259 1206q48 119 119.5 190t157.5 71q36 0 68 -9.5t46 -17.5t35 -23q4 -3 6 -4q50 -34 83 -34q69 0 121 97l187 -77q-48 -126 -118 -201.5t-154 -75.5q-22 0 -44 4.5t-34.5 8.5t-32 15.5t-24 14.5t-22.5 16q-47 33 -86 33q-67 0 -119 -101zM609 1023q197 0 313 -115 t116 -321q0 -97 -20 -185t-64.5 -165.5t-109.5 -134t-161 -89.5t-214 -33q-192 0 -308 115.5t-116 319.5q0 97 23 186.5t70.5 166t113.5 133.5t158 89.5t199 32.5zM578 713q-42 0 -77 -25.5t-57.5 -66.5t-34.5 -91.5t-12 -102.5q0 -39 11 -67.5t28 -43t33.5 -21t32.5 -6.5 q54 0 97 41t65 104t22 133q0 43 -11 74t-28.5 45.5t-34.5 20.5t-34 6z" />
<glyph unicode="&#xf6;" horiz-adv-x="1084" d="M426 1505q91 0 147 -53t56 -136q0 -86 -58 -142t-152 -56q-91 0 -147 54.5t-56 137.5q0 85 58 140t152 55zM898 1505q60 0 106.5 -24.5t71.5 -67.5t25 -97q0 -86 -58 -142t-152 -56q-91 0 -147 54.5t-56 137.5q0 85 58 140t152 55zM609 1023q197 0 313 -115t116 -321 q0 -97 -20 -185t-64.5 -165.5t-109.5 -134t-161 -89.5t-214 -33q-192 0 -308 115.5t-116 319.5q0 97 23 186.5t70.5 166t113.5 133.5t158 89.5t199 32.5zM578 713q-42 0 -77 -25.5t-57.5 -66.5t-34.5 -91.5t-12 -102.5q0 -38 11 -67t28 -43.5t33.5 -21t32.5 -6.5q54 0 97 41 t65 104t22 133q0 43 -11 74t-28.5 45.5t-34.5 20.5t-34 6z" />
<glyph unicode="&#xf7;" horiz-adv-x="1050" d="M584 1155q82 0 133 -48t51 -123q0 -51 -23.5 -92t-67 -64t-99.5 -23q-55 0 -97 22.5t-64.5 62t-22.5 89.5t23.5 90t67 63t99.5 23zM975 424h-886l36 287h886zM501 316q82 0 133 -48t51 -123q0 -51 -23.5 -92t-67 -64t-99.5 -23q-82 0 -133 49t-51 125q0 77 52.5 126.5 t137.5 49.5z" />
<glyph unicode="&#xf8;" horiz-adv-x="1081" d="M1068 954l-99 -104q69 -106 69 -263q0 -97 -20 -185t-64.5 -165.5t-109.5 -134t-161 -89.5t-214 -33q-150 0 -256 72l-94 -99l-93 87l96 101q-77 112 -77 274q0 97 23 186.5t70.5 166t113.5 133.5t158 89.5t199 32.5q165 0 274 -81l93 98zM578 713q-55 0 -97 -42.5 t-63 -106t-21 -133.5l246 258q-27 24 -65 24zM502 289q52 0 94 38t64.5 97t25.5 127l-234 -247q23 -15 50 -15z" />
<glyph unicode="&#xf9;" horiz-adv-x="1087" d="M772 1143h-308l-189 311l336 -2zM710 1003h348l-123 -1003h-348l16 127h-7q-112 -147 -277 -147q-55 0 -98 12t-78.5 40t-54.5 74t-26.5 112.5t4.5 156.5l76 628h346l-61 -499q-5 -44 -8 -72.5t-3.5 -55t2.5 -41.5t10 -26t17.5 -15.5t26.5 -4.5q35 0 75.5 37.5t69 92 t34.5 103.5z" />
<glyph unicode="&#xfa;" horiz-adv-x="1087" d="M1062 1451l-265 -311h-316l238 309zM651 522l59 481h348l-123 -1003h-348l16 127h-7q-112 -147 -277 -147q-55 0 -98 12t-78.5 40t-54.5 74t-26.5 112.5t4.5 156.5l76 628h346l-61 -499q-5 -44 -8 -72.5t-3.5 -55t2.5 -41.5t10 -26t17.5 -15.5t26.5 -4.5q35 0 75.5 37.5 t69 92t34.5 103.5z" />
<glyph unicode="&#xfb;" horiz-adv-x="1087" d="M646 1283l-71 -148h-296l232 316h297l168 -316h-290l-36 148h-4zM710 1003h348l-123 -1003h-348l16 127h-7q-112 -147 -277 -147q-55 0 -98 12t-78.5 40t-54.5 74t-26.5 112.5t4.5 156.5l76 628h346l-61 -499q-5 -44 -8 -72.5t-3.5 -55t2.5 -41.5t10 -26t17.5 -15.5 t26.5 -4.5q35 0 75.5 37.5t69 92t34.5 103.5z" />
<glyph unicode="&#xfc;" horiz-adv-x="1087" d="M411 1118q-91 0 -147 54.5t-56 137.5q0 85 58 140t152 55q91 0 147 -53t56 -136q0 -86 -58 -142t-152 -56zM883 1118q-91 0 -147 54.5t-56 137.5q0 85 58 140t152 55q91 0 147 -53t56 -136q0 -86 -58 -142t-152 -56zM651 522l59 481h348l-123 -1003h-348l16 127h-7 q-112 -147 -277 -147q-55 0 -98 12t-78.5 40t-54.5 74t-26.5 112.5t4.5 156.5l76 628h346l-61 -499q-5 -37 -7.5 -63t-3.5 -50t0.5 -39.5t5 -28.5t10.5 -20t16.5 -10.5t23.5 -3.5q35 0 75.5 37.5t69 92t34.5 103.5z" />
<glyph unicode="&#xfd;" horiz-adv-x="1082" d="M1028 1453l-265 -311h-316l238 309zM704 1003h349l-106 -861q-69 -567 -579 -567q-208 0 -368 97l107 251q102 -72 238 -72q40 0 69.5 6t59.5 23.5t51.5 47.5t40 80t30.5 120h-5q-113 -148 -279 -148q-55 0 -98 12t-78.5 40t-54.5 74t-26.5 112.5t5.5 156.5l76 628h346 l-61 -499q-5 -44 -8 -72.5t-3.5 -55t2.5 -41t9.5 -26t17.5 -16t27 -4.5q35 0 75.5 37.5t69 91.5t34.5 103z" />
<glyph unicode="&#xfe;" horiz-adv-x="1129" d="M768 1024q100 0 172.5 -54.5t108.5 -147t36 -211.5q0 -138 -38.5 -257.5t-103 -201t-150.5 -127.5t-180 -46q-132 0 -216 58l-9 -3l-54 -439h-350l235 1913h350l-80 -641h4q34 48 74.5 82.5t92.5 54.5t108 20zM529 289q52 0 93.5 27t65 70.5t35.5 91.5t12 96 q0 63 -26.5 101.5t-66.5 38.5q-74 0 -140.5 -96.5t-88.5 -268.5l-3 -18q26 -26 52 -34t67 -8z" />
<glyph unicode="&#xff;" horiz-adv-x="1082" d="M388 1118q-60 0 -106.5 25t-71.5 68.5t-25 98.5q0 85 58 140t152 55q91 0 147 -53t56 -136q0 -86 -58 -142t-152 -56zM860 1118q-91 0 -147 54.5t-56 137.5q0 56 26 100t74 69.5t110 25.5q91 0 147 -53t56 -136q0 -86 -58 -142t-152 -56zM645 521l59 482h349l-106 -861 q-69 -567 -579 -567q-208 0 -368 97l107 251q102 -72 238 -72q40 0 69.5 6t59.5 23.5t51.5 47.5t40 80t30.5 120h-5q-113 -148 -279 -148q-55 0 -98 12t-78.5 40t-54.5 74t-26.5 112.5t5.5 156.5l76 628h346l-61 -499q-5 -44 -8 -72.5t-3.5 -55t2.5 -41t9.5 -26t17.5 -16 t27 -4.5q35 0 75.5 37.5t69 91.5t34.5 103z" />
<glyph unicode="&#x131;" horiz-adv-x="560" d="M167 1003h348l-123 -1003h-348z" />
<glyph unicode="&#x13f;" horiz-adv-x="1045" d="M971 330l-40 -330h-878l178 1455h374l-138 -1125h504zM856 895q90 0 141.5 -52.5t51.5 -136.5q0 -87 -53.5 -142.5t-146.5 -55.5q-89 0 -141 53.5t-52 138.5q0 86 53.5 140.5t146.5 54.5z" />
<glyph unicode="&#x140;" horiz-adv-x="984" d="M229 1508h350l-185 -1508h-350zM798 760q60 0 104 -24.5t66.5 -67t22.5 -97.5q0 -87 -53.5 -142.5t-146.5 -55.5q-90 0 -141.5 53.5t-51.5 138.5q0 86 53.5 140.5t146.5 54.5z" />
<glyph unicode="&#x152;" horiz-adv-x="1758" d="M1730 1124h-506l-30 -242h391l-40 -323h-390l-29 -229h545l-40 -330h-953q-178 0 -312 71.5t-207.5 206.5t-73.5 317q0 119 25 230t71 206t114.5 173.5t153 134t189 86t219.5 30.5h914zM708 346h61l93 762h-34q-98 0 -180.5 -65.5t-129.5 -175.5t-47 -238 q0 -70 18.5 -124.5t51.5 -89t75 -52t92 -17.5z" />
<glyph unicode="&#x153;" horiz-adv-x="1497" d="M1055 258q34 0 73.5 22t73.5 72l252 -140q-148 -232 -435 -232q-196 0 -294 131h-6q-124 -131 -309 -131q-170 0 -276.5 116t-106.5 318q0 170 64.5 309.5t181.5 219.5t262 80q178 0 275 -130h7q133 130 332 130q52 0 100.5 -9.5t95 -31t81 -53.5t55.5 -80.5t21 -108.5 q0 -63 -31 -119t-82 -97.5t-125 -78t-150 -61.5t-167 -48l-2 -5q18 -37 48.5 -55t61.5 -18zM1120 742q-56 0 -106 -57t-72 -148l1 -3q44 13 74 23.5t62 26t51 30.5t31.5 36.5t12.5 45.5q0 19 -14.5 32.5t-39.5 13.5zM453 288q62 0 111.5 82t49.5 208q0 137 -91 137 q-31 0 -59.5 -23t-49 -61.5t-32.5 -91.5t-12 -110q0 -42 8 -71t21 -43.5t26 -20.5t28 -6z" />
<glyph unicode="&#x178;" horiz-adv-x="1189" d="M511 1571q-91 0 -147 54.5t-56 137.5q0 85 58 140t152 55q91 0 147 -53t56 -136q0 -57 -26 -102t-74 -70.5t-110 -25.5zM983 1571q-91 0 -147 54.5t-56 137.5q0 85 58 140t152 55q91 0 147 -53t56 -136q0 -57 -26 -102t-74 -70.5t-110 -25.5zM892 1455h429l-522 -825 l-79 -630h-376l79 630l-317 825h415l131 -459h4z" />
<glyph unicode="&#x237;" horiz-adv-x="525" d="M-138 -110q31 -24 73 -24t59 36.5t28 131.5l119 969h350l-125 -1018q-14 -113 -45.5 -193.5t-79 -127t-105.5 -67.5t-132 -21q-124 0 -228 48z" />
<glyph unicode="&#x2c6;" horiz-adv-x="810" d="M532 1082l-36 148h-4l-71 -148h-296l232 316h297l168 -316h-290z" />
<glyph unicode="&#x2dc;" horiz-adv-x="903" d="M131 1153q48 119 119.5 190t157.5 71q36 0 68 -9.5t46 -17.5t35 -23q4 -3 6 -4q50 -34 83 -34q69 0 121 97l187 -77q-31 -82 -70.5 -142.5t-92 -97.5t-109.5 -37q-22 0 -44 4.5t-34.5 8.5t-32 15.5t-24 14.5t-22.5 16q-47 33 -86 33q-67 0 -119 -101z" />
<glyph unicode="&#x2000;" horiz-adv-x="993" />
<glyph unicode="&#x2001;" horiz-adv-x="1987" />
<glyph unicode="&#x2002;" horiz-adv-x="993" />
<glyph unicode="&#x2003;" horiz-adv-x="1987" />
<glyph unicode="&#x2004;" horiz-adv-x="662" />
<glyph unicode="&#x2005;" horiz-adv-x="496" />
<glyph unicode="&#x2006;" horiz-adv-x="331" />
<glyph unicode="&#x2007;" horiz-adv-x="331" />
<glyph unicode="&#x2008;" horiz-adv-x="248" />
<glyph unicode="&#x2009;" horiz-adv-x="22" />
<glyph unicode="&#x200a;" horiz-adv-x="110" />
<glyph unicode="&#x2010;" horiz-adv-x="708" d="M636 477h-571l38 312h572z" />
<glyph unicode="&#x2011;" horiz-adv-x="708" d="M636 477h-571l38 312h572z" />
<glyph unicode="&#x2012;" horiz-adv-x="708" d="M636 477h-571l38 312h572z" />
<glyph unicode="&#x2013;" horiz-adv-x="1092" d="M1020 469h-956l35 286h956z" />
<glyph unicode="&#x2014;" horiz-adv-x="2048" d="M1976 469h-1912l35 286h1912z" />
<glyph unicode="&#x2018;" horiz-adv-x="482" d="M444 889h-338l205 564h255z" />
<glyph unicode="&#x2019;" horiz-adv-x="482" d="M226 1455h338l-205 -564h-255z" />
<glyph unicode="&#x201a;" horiz-adv-x="491" d="M56 288h335l-212 -563h-245z" />
<glyph unicode="&#x201c;" horiz-adv-x="920" d="M444 890h-339l206 564h255zM880 890h-338l205 564h255z" />
<glyph unicode="&#x201d;" horiz-adv-x="918" d="M229 1455h338l-205 -564h-255zM665 1455h339l-206 -564h-255z" />
<glyph unicode="&#x201e;" horiz-adv-x="930" d="M72 401h338l-205 -564h-255zM508 401h339l-206 -564h-255z" />
<glyph unicode="&#x2022;" horiz-adv-x="850" d="M448 909q111 0 185 -73t74 -183q0 -115 -77 -192t-192 -77q-111 0 -185 74.5t-74 186.5q0 113 77 188.5t192 75.5z" />
<glyph unicode="&#x2026;" horiz-adv-x="2048" d="M288 363q90 0 141.5 -52.5t51.5 -136.5q0 -87 -53.5 -142.5t-146.5 -55.5q-90 0 -141.5 53.5t-51.5 138.5q0 56 23.5 100t69 69.5t107.5 25.5zM971 363q90 0 141.5 -52.5t51.5 -136.5q0 -87 -53.5 -142.5t-146.5 -55.5q-90 0 -141.5 53.5t-51.5 138.5q0 86 53.5 140.5 t146.5 54.5zM1655 363q90 0 141.5 -52.5t51.5 -136.5q0 -57 -23.5 -101.5t-69 -70.5t-107.5 -26q-90 0 -141.5 53.5t-51.5 138.5q0 56 23.5 100t69 69.5t107.5 25.5z" />
<glyph unicode="&#x202f;" horiz-adv-x="397" />
<glyph unicode="&#x2039;" horiz-adv-x="585" d="M518 108h-314l-151 399l255 407h314l-254 -407z" />
<glyph unicode="&#x203a;" horiz-adv-x="584" d="M-36 108l254 399l-156 407h316l155 -407l-249 -399h-320z" />
<glyph unicode="&#x2044;" horiz-adv-x="413" d="M763 1385l-762 -1441l-237 109l762 1441z" />
<glyph unicode="&#x205f;" horiz-adv-x="496" />
<glyph unicode="&#x2070;" horiz-adv-x="753" d="M520 1754q143 0 224 -94.5t81 -258.5q0 -84 -15.5 -161.5t-47.5 -145.5t-77.5 -118t-110 -78.5t-140.5 -28.5q-71 0 -128 24.5t-96 70t-59.5 111.5t-20.5 147q0 83 16 161t48.5 145.5t78.5 117.5t109.5 79t137.5 29zM513 1523q-34 0 -60.5 -31t-42 -79t-23 -98.5 t-7.5 -96.5q0 -56 18 -87t47 -31q34 0 61 31t41.5 79t21.5 98t7 98q0 55 -17 86t-46 31z" />
<glyph unicode="&#x2074;" horiz-adv-x="626" d="M609 1227h91l-26 -212h-90l-15 -122h-250l15 122h-271l16 148l396 573h197zM298 1201h101l29 212z" />
<glyph unicode="&#x2075;" horiz-adv-x="605" d="M457 1440q95 0 150 -62t55 -172q0 -67 -24 -128t-65.5 -105.5t-101 -71t-126.5 -26.5q-175 0 -285 128l198 143q28 -45 64 -45q18 0 34.5 9t28 24t18 35t6.5 40q0 28 -11.5 39.5t-26.5 11.5q-42 0 -91 -52l-128 59l84 468h448l-27 -225h-242l-14 -77q29 7 56 7z" />
<glyph unicode="&#x2076;" horiz-adv-x="639" d="M511 1437q55 0 96 -23.5t65 -71.5t24 -116q0 -97 -39.5 -176t-118.5 -126.5t-183 -47.5q-109 0 -178.5 76.5t-69.5 211.5q0 142 66.5 270t184.5 216t265 117l36 -195q-49 -14 -88 -29.5t-72 -34.5t-57.5 -41.5t-42.5 -50.5l5 -4q58 25 107 25zM398 1093q26 0 46 28t20 66 q0 65 -56 65q-30 0 -62 -27q-1 -12 -1 -36q0 -96 53 -96z" />
<glyph unicode="&#x2077;" horiz-adv-x="522" d="M174 1735h490l-19 -163l-291 -705l-248 45l253 595h-212z" />
<glyph unicode="&#x2078;" horiz-adv-x="666" d="M616 1356q48 -27 76.5 -72.5t28.5 -108.5q0 -93 -46.5 -161.5t-126 -103t-180.5 -34.5q-119 0 -193 53.5t-74 156.5q0 82 43 152t114 105v4q-28 18 -45 54.5t-17 81.5q0 117 85.5 193t214.5 76q66 0 115 -19t79 -62t30 -105q0 -68 -28 -122t-76 -86v-2zM451 1438 q21 0 36.5 22.5t15.5 50.5q0 49 -40 49q-11 0 -21 -6.5t-16.5 -16.5t-10.5 -23.5t-4 -26.5t4.5 -24t14 -18t21.5 -7zM409 1083q15 0 29.5 10.5t24 32t9.5 48.5q0 28 -11.5 47t-38.5 19q-14 0 -28.5 -13.5t-24 -37.5t-9.5 -50q0 -13 3 -23t9 -17.5t15.5 -11.5t21.5 -4z" />
<glyph unicode="&#x2079;" horiz-adv-x="636" d="M483 1751q109 0 178 -78t69 -213q0 -149 -65 -277.5t-181.5 -213.5t-262.5 -109l-35 195q97 24 159.5 64t97.5 101q-61 -29 -118 -29q-36 0 -68.5 12.5t-59 37t-42.5 66.5t-16 95q0 94 46.5 174.5t125.5 127.5t172 47zM365 1440q0 -31 14.5 -48t38.5 -17q43 0 73 27 q2 36 2 56q0 38 -15 57t-39 19q-30 0 -52 -27t-22 -67z" />
<glyph unicode="&#x207a;" horiz-adv-x="644" d="M690 1405l-25 -208h-148l-22 -180h-218l22 180h-149l25 208h150l22 181h218l-22 -181h147z" />
<glyph unicode="&#x207c;" horiz-adv-x="693" d="M707 1339h-514l24 199h514zM666 1011h-514l25 198h514z" />
<glyph unicode="&#x207d;" horiz-adv-x="488" d="M441 1173q0 102 22 220t61.5 226.5t88.5 174.5l-180 70q-109 -145 -170.5 -336t-61.5 -378q0 -208 78 -406l221 84q-23 58 -41 153.5t-18 191.5z" />
<glyph unicode="&#x207e;" horiz-adv-x="489" d="M485 1459q0 243 -87 415l-210 -90q13 -27 26 -80.5t22 -128t9 -143.5q0 -152 -47.5 -315.5t-124.5 -299.5l192 -62q220 346 220 704z" />
<glyph unicode="&#x207f;" horiz-adv-x="646" d="M444 480q88 0 123 -58.5t19 -184.5l-48 -372h-240l42 315q7 39 1.5 61.5t-26.5 22.5q-35 0 -63.5 -43t-39.5 -126l-28 -230h-240l74 604h240l-12 -94h4q80 105 194 105z" />
<glyph unicode="&#x2080;" horiz-adv-x="752" d="M391 726q143 0 224 -94.5t81 -258.5q0 -84 -15.5 -161.5t-47.5 -145.5t-77.5 -118t-110 -78.5t-140.5 -28.5q-143 0 -223.5 94.5t-80.5 258.5q0 83 16 161t48.5 145.5t78.5 117.5t109.5 79t137.5 29zM384 495q-34 0 -60.5 -31t-42 -79t-23 -98.5t-7.5 -96.5 q0 -38 8.5 -65t23 -40t33.5 -13q34 0 61 30.5t41.5 79t21.5 98.5t7 98q0 55 -17 86t-46 31z" />
<glyph unicode="&#x2081;" horiz-adv-x="549" d="M291 708h194l-104 -844h-249l67 521l-93 -63l-103 191z" />
<glyph unicode="&#x2082;" horiz-adv-x="609" d="M332 95l-1 -5h197l-28 -226h-552l15 166l239 256q53 57 82 98.5t29 75.5q0 30 -32 30q-37 0 -89 -61l-175 139q50 69 126.5 112.5t173.5 43.5q55 0 101.5 -16t80 -45t52 -71t18.5 -92t-10 -92t-32.5 -81.5t-48.5 -72t-68 -76.5z" />
<glyph unicode="&#x2083;" horiz-adv-x="622" d="M451 294q94 -55 94 -169q0 -125 -86.5 -201.5t-220.5 -76.5q-114 0 -193 63t-97 156l224 76q1 -41 15.5 -59t35.5 -18q12 0 22 4.5t18.5 13t14.5 20t9 25.5t3 30q0 42 -52 42h-46l22 182h49q25 0 44 27t19 59q0 36 -29 36q-18 0 -35 -18t-27 -53l-197 122q32 71 110 120 t169 49q113 0 181 -55.5t68 -157.5q0 -68 -30.5 -123t-84.5 -91v-3z" />
<glyph unicode="&#x2084;" horiz-adv-x="626" d="M482 199h91l-26 -212h-90l-15 -122h-250l15 122h-271l16 148l396 573h197zM171 173h101l29 212z" />
<glyph unicode="&#x2085;" horiz-adv-x="604" d="M329 413q95 0 150 -62t55 -172q0 -90 -40.5 -166t-113.5 -120.5t-163 -44.5q-175 0 -285 128l198 143q28 -45 64 -45q24 0 44.5 15.5t31.5 40.5t11 52q0 28 -11.5 39.5t-26.5 11.5q-42 0 -91 -52l-128 59l84 468h448l-27 -225h-242l-14 -77q29 7 56 7z" />
<glyph unicode="&#x2086;" horiz-adv-x="639" d="M384 409q41 0 74.5 -13.5t58.5 -39.5t38.5 -66.5t13.5 -91.5q0 -73 -23.5 -136.5t-66 -111t-107.5 -75t-144 -27.5q-109 0 -178.5 76.5t-69.5 211.5q0 142 66.5 270t184.5 216t265 117l36 -195q-49 -14 -88 -29.5t-72 -34.5t-57.5 -41.5t-42.5 -50.5l5 -4q58 25 107 25z M271 65q26 0 46 28t20 66q0 65 -56 65q-30 0 -62 -27q-1 -12 -1 -36q0 -96 53 -96z" />
<glyph unicode="&#x2087;" horiz-adv-x="522" d="M46 708h490l-19 -163l-291 -705l-248 45l253 595h-212z" />
<glyph unicode="&#x2088;" horiz-adv-x="666" d="M488 328q48 -27 76.5 -72.5t28.5 -108.5q0 -56 -17.5 -104t-49 -83.5t-75.5 -61t-97.5 -38t-113.5 -12.5q-119 0 -193 53.5t-74 156.5q0 82 43 152t114 105v4q-28 18 -45 54.5t-17 81.5q0 117 85.5 193t214.5 76q66 0 115 -19t79 -62t30 -105q0 -68 -28 -122t-76 -86v-2z M323 410q10 0 20 6.5t17 16.5t11 23.5t4 26.5q0 49 -40 49q-22 0 -37 -22.5t-15 -50.5q0 -20 10.5 -34.5t29.5 -14.5zM281 55q15 0 29.5 10.5t24 32t9.5 48.5q0 28 -11.5 47t-38.5 19q-22 0 -42 -30.5t-20 -70.5q0 -26 12.5 -41t36.5 -15z" />
<glyph unicode="&#x2089;" horiz-adv-x="636" d="M355 724q109 0 178 -78t69 -213q0 -149 -65 -277.5t-181.5 -213.5t-262.5 -109l-35 195q97 24 159.5 64t97.5 101q-61 -29 -118 -29q-36 0 -68.5 12.5t-59 37t-42.5 66.5t-16 95q0 94 46.5 174.5t125.5 127.5t172 47zM237 413q0 -16 4 -28.5t11 -20.5t16.5 -12t21.5 -4 q43 0 73 27q2 36 2 56q0 38 -15 57t-39 19q-30 0 -52 -27t-22 -67z" />
<glyph unicode="&#x208a;" horiz-adv-x="643" d="M562 365l-25 -208h-148l-22 -180h-218l22 180h-149l25 208h150l22 181h218l-22 -181h147z" />
<glyph unicode="&#x208b;" horiz-adv-x="658" d="M542 146h-514l28 225h514z" />
<glyph unicode="&#x208c;" horiz-adv-x="692" d="M583 338h-514l24 199h514zM543 9h-514l24 199h514z" />
<glyph unicode="&#x208d;" horiz-adv-x="495" d="M321 137q0 157 49.5 339.5t122.5 281.5l-180 70q-109 -145 -170.5 -336t-61.5 -378q0 -208 78 -406l221 84q-23 58 -41 153.5t-18 191.5z" />
<glyph unicode="&#x208e;" horiz-adv-x="493" d="M367 412q0 243 -87 415l-210 -90q21 -43 39 -146t18 -206q0 -152 -47.5 -315.5t-124.5 -299.5l192 -62q220 346 220 704z" />
<glyph unicode="&#x2090;" horiz-adv-x="653" d="M389 468h235l-74 -603h-236l10 79h-3q-68 -92 -158 -92q-79 0 -133.5 65t-54.5 183q0 84 23.5 156t63.5 121t93 76.5t111 27.5q75 0 114 -50h4zM262 62q35 0 65.5 47t41.5 132l1 7q-22 20 -64 20q-23 0 -44 -19t-34.5 -53t-13.5 -74q0 -27 12.5 -43.5t35.5 -16.5z" />
<glyph unicode="&#x2091;" horiz-adv-x="616" d="M254 20q33 0 60 13t55 45l172 -84q-89 -144 -316 -144q-118 0 -187.5 69.5t-69.5 191.5q0 73 23.5 139.5t66.5 117.5t108 81t143 30q50 0 92.5 -9t78 -28.5t56 -54.5t20.5 -83q0 -51 -29.5 -92.5t-82 -69t-116.5 -45.5t-142 -29q16 -48 68 -48zM290 308q-29 -6 -58 -38 t-43 -80q159 31 159 89q0 41 -58 29z" />
<glyph unicode="&#x2092;" horiz-adv-x="633" d="M324 478q115 0 182.5 -69t67.5 -193q0 -74 -20 -138t-60.5 -116t-107.5 -82t-154 -30q-117 0 -186.5 69.5t-69.5 192.5q0 74 22.5 139.5t65 116.5t109.5 80.5t151 29.5zM294 267q-41 0 -66.5 -41.5t-25.5 -93.5q0 -27 9.5 -43.5t20.5 -21.5t23 -5q11 0 22 3.5t20 10.5 t17 16.5t14.5 21t10.5 24.5t6.5 27t2.5 28q0 23 -5.5 39t-14.5 23t-17 9.5t-17 2.5z" />
<glyph unicode="&#x2093;" horiz-adv-x="607" d="M615 469l-217 -300l149 -304h-261l-45 100h-3l-70 -100h-268l224 320l-148 284h272l33 -104h4l51 104h279z" />
<glyph unicode="&#x20ac;" horiz-adv-x="1118" d="M715 310q51 0 92 17.5t67 46.5l173 -273q-168 -119 -358 -119q-108 0 -201.5 32t-167 94.5t-120.5 160.5t-58 223h-120l16 134h102q3 50 11 108h-100l17 133h113q70 231 238 368.5t400 137.5q201 0 355 -124l-232 -255q-52 49 -121 49q-79 0 -143 -47t-105 -129h316 l-16 -133h-344q-10 -51 -12 -108h342l-16 -134h-316q13 -56 40 -97t64.5 -63t83.5 -22z" />
<glyph unicode="&#x2116;" horiz-adv-x="2004" d="M1664 837q-117 0 -186.5 69.5t-69.5 192.5q0 74 22.5 139.5t65 116.5t109.5 80.5t151 29.5q115 0 182.5 -69t67.5 -193q0 -74 -20 -138t-60.5 -116t-107.5 -82t-154 -30zM1012 1455h370l-179 -1455h-375l-307 773h-4l-95 -773h-369l178 1455h365l315 -801h3zM1726 1254 q-27 0 -48.5 -20.5t-32.5 -51t-11 -63.5q0 -39 16.5 -54.5t36.5 -15.5q39 0 66 39.5t27 91.5q0 19 -4 33t-9.5 21.5t-13 12t-14 6t-13.5 1.5zM1372 523l18 214h517l-19 -214h-516z" />
<glyph unicode="&#x2122;" horiz-adv-x="1257" d="M142 1455h473l-21 -177h-138l-60 -486h-197l60 486h-138zM1120 1455h201l-81 -663h-193l39 302l-87 -181h-123l-43 178l-38 -299h-192l81 663h196l81 -312z" />
<glyph unicode="&#x2190;" horiz-adv-x="1279" d="M595 149l-596 398l498 400l27 -234h640l41 -332h-640z" />
<glyph unicode="&#x2191;" horiz-adv-x="1159" d="M978 638l-232 2v-640h-332v640l-234 -2l400 547z" />
<glyph unicode="&#x2192;" horiz-adv-x="1279" d="M684 149l30 232h-640l41 332h640l27 234l498 -400z" />
<glyph unicode="&#x2193;" horiz-adv-x="1159" d="M978 547l-398 -547l-400 547l234 -2v640h332v-640z" />
<glyph unicode="&#x2236;" horiz-adv-x="556" d="M337 1142q90 0 141.5 -52.5t51.5 -136.5q0 -87 -53.5 -142.5t-146.5 -55.5q-90 0 -141.5 53.5t-51.5 138.5q0 86 53.5 140.5t146.5 54.5zM254 481q90 0 141.5 -52.5t51.5 -136.5q0 -87 -53.5 -142.5t-146.5 -55.5q-90 0 -141.5 53.5t-51.5 138.5q0 86 53.5 140.5 t146.5 54.5z" />
<glyph unicode="&#x25fc;" horiz-adv-x="1004" d="M0 1005h1005v-1005h-1005v1005z" />
<glyph unicode="&#x2780;" horiz-adv-x="1565" d="M885 1447q137 0 258.5 -50.5t208 -137.5t136.5 -209.5t50 -260.5q0 -108 -29 -213t-81 -194t-127 -165t-164 -129.5t-195 -83.5t-217 -30q-137 0 -257.5 50.5t-207 137.5t-136 209t-49.5 260q0 108 30 213t84 194t129.5 165.5t164.5 130t192.5 83.5t209.5 30zM732 174 q126 0 239.5 50.5t193.5 135t127 197t47 233.5q0 96 -35.5 181t-96 146t-146 96t-181.5 35q-119 0 -231 -51t-194 -135t-132 -198t-50 -234q0 -55 11.5 -107t33.5 -97.5t53 -84.5t70.5 -69.5t85 -52.5t98 -33.5t107.5 -11.5zM529 942l288 195h194l-104 -844h-249l67 521 l-93 -63z" />
<glyph unicode="&#x2781;" horiz-adv-x="1565" d="M885 1447q137 0 258.5 -50.5t208 -137.5t136.5 -209.5t50 -260.5q0 -108 -29 -213t-81 -194t-127 -165t-164 -129.5t-195 -83.5t-217 -30q-137 0 -257.5 50.5t-207 137.5t-136 209t-49.5 260q0 108 30 213t84 194t129.5 165.5t164.5 130t192.5 83.5t209.5 30zM732 174 q126 0 239.5 50.5t193.5 135t127 197t47 233.5q0 96 -35.5 181t-96 146t-146 96t-181.5 35q-119 0 -231 -51t-194 -135t-132 -198t-50 -234q0 -55 11.5 -107t33.5 -97.5t53 -84.5t70.5 -69.5t85 -52.5t98 -33.5t107.5 -11.5zM948 607l-78 -83l-1 -5h197l-28 -226h-552 l15 166l239 256q53 57 82 98.5t29 75.5q0 30 -32 30q-37 0 -89 -61l-175 139q32 45 74 78.5t101 55.5t125 22q112 0 182 -61.5t70 -162.5q0 -50 -10 -92t-32.5 -81.5t-48.5 -72t-68 -76.5z" />
<glyph unicode="&#x2782;" horiz-adv-x="1565" d="M885 1447q137 0 258.5 -50.5t208 -137.5t136.5 -209.5t50 -260.5q0 -108 -29 -213t-81 -194t-127 -165t-164 -129.5t-195 -83.5t-217 -30q-137 0 -257.5 50.5t-207 137.5t-136 209t-49.5 260q0 108 30 213t84 194t129.5 165.5t164.5 130t192.5 83.5t209.5 30zM732 174 q126 0 239.5 50.5t193.5 135t127 197t47 233.5q0 96 -35.5 181t-96 146t-146 96t-181.5 35q-119 0 -231 -51t-194 -135t-132 -198t-50 -234q0 -55 11.5 -107t33.5 -97.5t53 -84.5t70.5 -69.5t85 -52.5t98 -33.5t107.5 -11.5zM1109 940q0 -68 -30.5 -123t-84.5 -91v-3 q94 -55 94 -169q0 -83 -40.5 -147t-110 -97.5t-156.5 -33.5q-114 0 -193 63t-97 156l224 76q1 -41 15.5 -59t35.5 -18q29 0 48 26.5t19 66.5q0 42 -52 42h-46l22 182h49q25 0 44 27t19 59q0 36 -29 36q-18 0 -35 -18t-27 -53l-197 122q32 71 110 120t169 49q74 0 129.5 -24 t87.5 -72.5t32 -116.5z" />
<glyph unicode="&#x2783;" horiz-adv-x="1565" d="M885 1447q137 0 258.5 -50.5t208 -137.5t136.5 -209.5t50 -260.5q0 -108 -29 -213t-81 -194t-127 -165t-164 -129.5t-195 -83.5t-217 -30q-137 0 -257.5 50.5t-207 137.5t-136 209t-49.5 260q0 108 30 213t84 194t129.5 165.5t164.5 130t192.5 83.5t209.5 30zM732 174 q126 0 239.5 50.5t193.5 135t127 197t47 233.5q0 96 -35.5 181t-96 146t-146 96t-181.5 35q-119 0 -231 -51t-194 -135t-132 -198t-50 -234q0 -55 11.5 -107t33.5 -97.5t53 -84.5t70.5 -69.5t85 -52.5t98 -33.5t107.5 -11.5zM1044 1136l-63 -509h91l-26 -212h-90l-15 -122 h-250l15 122h-271l16 148l396 573h197zM670 601h101l29 212z" />
<glyph unicode="&#x2784;" horiz-adv-x="1565" d="M885 1447q137 0 258.5 -50.5t208 -137.5t136.5 -209.5t50 -260.5q0 -108 -29 -213t-81 -194t-127 -165t-164 -129.5t-195 -83.5t-217 -30q-137 0 -257.5 50.5t-207 137.5t-136 209t-49.5 260q0 108 30 213t84 194t129.5 165.5t164.5 130t192.5 83.5t209.5 30zM732 174 q126 0 239.5 50.5t193.5 135t127 197t47 233.5q0 96 -35.5 181t-96 146t-146 96t-181.5 35q-119 0 -231 -51t-194 -135t-132 -198t-50 -234q0 -55 11.5 -107t33.5 -97.5t53 -84.5t70.5 -69.5t85 -52.5t98 -33.5t107.5 -11.5zM1066 911h-242l-14 -77q29 7 56 7q95 0 150 -62 t55 -172q0 -90 -40.5 -166t-113.5 -120.5t-163 -44.5q-175 0 -285 128l198 143q28 -45 64.5 -45t61.5 33t25 75q0 20 -6.5 32t-14.5 15.5t-17 3.5q-42 0 -91 -52l-128 59l84 468h448z" />
<glyph unicode="&#x2785;" horiz-adv-x="1565" d="M885 1447q137 0 258.5 -50.5t208 -137.5t136.5 -209.5t50 -260.5q0 -108 -29 -213t-81 -194t-127 -165t-164 -129.5t-195 -83.5t-217 -30q-137 0 -257.5 50.5t-207 137.5t-136 209t-49.5 260q0 108 30 213t84 194t129.5 165.5t164.5 130t192.5 83.5t209.5 30zM732 174 q126 0 239.5 50.5t193.5 135t127 197t47 233.5q0 96 -35.5 181t-96 146t-146 96t-181.5 35q-119 0 -231 -51t-194 -135t-132 -198t-50 -234q0 -55 11.5 -107t33.5 -97.5t53 -84.5t70.5 -69.5t85 -52.5t98 -33.5t107.5 -11.5zM881 836q84 0 134.5 -55t50.5 -156 q0 -97 -39.5 -176t-118.5 -126.5t-183 -47.5q-109 0 -178.5 76.5t-69.5 211.5q0 142 66.5 270t184.5 216t265 117l36 -195q-66 -18 -114 -40t-85 -50.5t-61 -65.5l5 -4q58 25 107 25zM768 492q26 0 46 28t20 66q0 65 -56 65q-30 0 -62 -27q-1 -12 -1 -36q0 -96 53 -96z" />
<glyph unicode="&#x2786;" horiz-adv-x="1565" d="M885 1447q137 0 258.5 -50.5t208 -137.5t136.5 -209.5t50 -260.5q0 -108 -29 -213t-81 -194t-127 -165t-164 -129.5t-195 -83.5t-217 -30q-137 0 -257.5 50.5t-207 137.5t-136 209t-49.5 260q0 108 30 213t84 194t129.5 165.5t164.5 130t192.5 83.5t209.5 30zM732 174 q126 0 239.5 50.5t193.5 135t127 197t47 233.5q0 96 -35.5 181t-96 146t-146 96t-181.5 35q-119 0 -231 -51t-194 -135t-132 -198t-50 -234q0 -55 11.5 -107t33.5 -97.5t53 -84.5t70.5 -69.5t85 -52.5t98 -33.5t107.5 -11.5zM599 909l27 228h490l-19 -163l-291 -705l-248 45 l253 595h-212z" />
<glyph unicode="&#x2787;" horiz-adv-x="1565" d="M885 1447q137 0 258.5 -50.5t208 -137.5t136.5 -209.5t50 -260.5q0 -108 -29 -213t-81 -194t-127 -165t-164 -129.5t-195 -83.5t-217 -30q-137 0 -257.5 50.5t-207 137.5t-136 209t-49.5 260q0 108 30 213t84 194t129.5 165.5t164.5 130t192.5 83.5t209.5 30zM732 174 q126 0 239.5 50.5t193.5 135t127 197t47 233.5q0 96 -35.5 181t-96 146t-146 96t-181.5 35q-119 0 -231 -51t-194 -135t-132 -198t-50 -234q0 -55 11.5 -107t33.5 -97.5t53 -84.5t70.5 -69.5t85 -52.5t98 -33.5t107.5 -11.5zM989 756q48 -27 76.5 -72.5t28.5 -108.5 q0 -93 -46.5 -161.5t-126 -103t-180.5 -34.5q-119 0 -193 53.5t-74 156.5q0 82 43 152t114 105v4q-18 12 -32 32.5t-22 47t-8 56.5q0 117 85.5 193t214.5 76q66 0 115 -19t79 -62t30 -105q0 -68 -28 -122t-76 -86v-2zM824 838q21 0 36.5 22.5t15.5 50.5q0 49 -40 49 q-14 0 -26.5 -11t-19 -27.5t-6.5 -34.5q0 -20 10.5 -34.5t29.5 -14.5zM782 483q15 0 29.5 10.5t24 32t9.5 48.5q0 28 -11.5 47t-38.5 19q-22 0 -42 -30.5t-20 -70.5q0 -17 5.5 -29.5t16.5 -19.5t27 -7z" />
<glyph unicode="&#x2788;" horiz-adv-x="1565" d="M885 1447q137 0 258.5 -50.5t208 -137.5t136.5 -209.5t50 -260.5q0 -108 -29 -213t-81 -194t-127 -165t-164 -129.5t-195 -83.5t-217 -30q-137 0 -257.5 50.5t-207 137.5t-136 209t-49.5 260q0 108 30 213t84 194t129.5 165.5t164.5 130t192.5 83.5t209.5 30zM732 174 q126 0 239.5 50.5t193.5 135t127 197t47 233.5q0 96 -35.5 181t-96 146t-146 96t-181.5 35q-119 0 -231 -51t-194 -135t-132 -198t-50 -234q0 -55 11.5 -107t33.5 -97.5t53 -84.5t70.5 -69.5t85 -52.5t98 -33.5t107.5 -11.5zM869 1152q109 0 178 -78t69 -213 q0 -149 -65 -277.5t-181.5 -213.5t-262.5 -109l-35 195q97 24 159.5 64t97.5 101q-61 -29 -118 -29q-36 0 -68.5 12.5t-59 37t-42.5 66.5t-16 95q0 94 46.5 174.5t125.5 127.5t172 47zM751 841q0 -21 7 -36t18.5 -22t27.5 -7q43 0 73 27q2 36 2 56q0 25 -7 42.5t-19 25.5 t-28 8q-30 0 -52 -27t-22 -67z" />
<glyph unicode="&#x278a;" horiz-adv-x="1565" d="M725 -26q-137 0 -257.5 50.5t-206.5 137.5t-136 209t-50 260q0 108 30 213t84 194t129.5 165.5t164.5 130t192.5 83.5t209.5 30q137 0 258.5 -50.5t208 -137.5t136.5 -209.5t50 -260.5q0 -108 -29 -213t-81 -194t-127 -165t-164 -129.5t-195 -83.5t-217 -30zM817 1137 l-288 -195l103 -191l93 63l-67 -521h249l104 844h-194z" />
<glyph unicode="&#x278b;" horiz-adv-x="1565" d="M725 -26q-137 0 -257.5 50.5t-206.5 137.5t-136 209t-50 260q0 108 30 213t84 194t129.5 165.5t164.5 130t192.5 83.5t209.5 30q137 0 258.5 -50.5t208 -137.5t136.5 -209.5t50 -260.5q0 -108 -29 -213t-81 -194t-127 -165t-164 -129.5t-195 -83.5t-217 -30zM870 524 l78 83q42 44 68 76.5t48.5 72t32.5 81.5t10 92q0 101 -70 162.5t-182 61.5q-97 0 -173.5 -43.5t-126.5 -112.5l175 -139q52 61 89 61q32 0 32 -30q0 -34 -29 -75.5t-82 -98.5l-239 -256l-15 -166h552l28 226h-197z" />
<glyph unicode="&#x278c;" horiz-adv-x="1565" d="M725 -26q-137 0 -257.5 50.5t-206.5 137.5t-136 209t-50 260q0 108 30 213t84 194t129.5 165.5t164.5 130t192.5 83.5t209.5 30q137 0 258.5 -50.5t208 -137.5t136.5 -209.5t50 -260.5q0 -108 -29 -213t-81 -194t-127 -165t-164 -129.5t-195 -83.5t-217 -30zM994 723v3 q54 36 84.5 91t30.5 123q0 102 -68 157.5t-181 55.5q-91 0 -169 -49t-110 -120l197 -122q10 35 27 53t35 18q29 0 29 -36q0 -21 -8.5 -40.5t-23 -32.5t-31.5 -13h-49l-22 -182h46q52 0 52 -42q0 -40 -19 -66.5t-48 -26.5q-21 0 -35.5 18t-15.5 59l-224 -76q18 -93 97 -156 t193 -63q134 0 220.5 76.5t86.5 201.5q0 114 -94 169z" />
<glyph unicode="&#x278d;" horiz-adv-x="1565" d="M725 -26q-137 0 -257.5 50.5t-206.5 137.5t-136 209t-50 260q0 108 30 213t84 194t129.5 165.5t164.5 130t192.5 83.5t209.5 30q137 0 258.5 -50.5t208 -137.5t136.5 -209.5t50 -260.5q0 -108 -29 -213t-81 -194t-127 -165t-164 -129.5t-195 -83.5t-217 -30zM981 627 l63 509h-197l-396 -573l-16 -148h271l-15 -122h250l15 122h90l26 212h-91zM670 601h101l29 212z" />
<glyph unicode="&#x278e;" horiz-adv-x="1565" d="M725 -26q-137 0 -257.5 50.5t-206.5 137.5t-136 209t-50 260q0 108 30 213t84 194t129.5 165.5t164.5 130t192.5 83.5t209.5 30q137 0 258.5 -50.5t208 -137.5t136.5 -209.5t50 -260.5q0 -108 -29 -213t-81 -194t-127 -165t-164 -129.5t-195 -83.5t-217 -30zM866 841 q-27 0 -56 -7l14 77h242l27 225h-448l-84 -468l128 -59q49 52 91 52q9 0 17 -3.5t14.5 -15.5t6.5 -32q0 -27 -11 -52t-31.5 -40.5t-44.5 -15.5q-36 0 -64 45l-198 -143q110 -128 285 -128q90 0 163 44.5t113.5 120.5t40.5 166q0 55 -14.5 98.5t-41 73.5t-64.5 46t-85 16z " />
<glyph unicode="&#x278f;" horiz-adv-x="1565" d="M725 -26q-137 0 -257.5 50.5t-206.5 137.5t-136 209t-50 260q0 108 30 213t84 194t129.5 165.5t164.5 130t192.5 83.5t209.5 30q137 0 258.5 -50.5t208 -137.5t136.5 -209.5t50 -260.5q0 -108 -29 -213t-81 -194t-127 -165t-164 -129.5t-195 -83.5t-217 -30zM881 836 q-49 0 -107 -25l-5 4q35 54 98 91t162 65l-36 195q-147 -29 -265 -117t-184.5 -216t-66.5 -270q0 -135 69.5 -211.5t178.5 -76.5q104 0 183 47.5t118.5 126.5t39.5 176q0 101 -50.5 156t-134.5 55zM768 492q26 0 46 28t20 66q0 65 -56 65q-30 0 -62 -27q-1 -12 -1 -36 q0 -96 53 -96z" />
<glyph unicode="&#x2790;" horiz-adv-x="1565" d="M725 -26q-137 0 -257.5 50.5t-206.5 137.5t-136 209t-50 260q0 108 30 213t84 194t129.5 165.5t164.5 130t192.5 83.5t209.5 30q137 0 258.5 -50.5t208 -137.5t136.5 -209.5t50 -260.5q0 -108 -29 -213t-81 -194t-127 -165t-164 -129.5t-195 -83.5t-217 -30zM626 1137 l-27 -228h212l-253 -595l248 -45l291 705l19 163h-490z" />
<glyph unicode="&#x2791;" horiz-adv-x="1565" d="M725 -26q-137 0 -257.5 50.5t-206.5 137.5t-136 209t-50 260q0 108 30 213t84 194t129.5 165.5t164.5 130t192.5 83.5t209.5 30q137 0 258.5 -50.5t208 -137.5t136.5 -209.5t50 -260.5q0 -108 -29 -213t-81 -194t-127 -165t-164 -129.5t-195 -83.5t-217 -30zM989 756v2 q48 32 76 86t28 122q0 93 -61.5 139.5t-162.5 46.5q-129 0 -214.5 -76t-85.5 -193q0 -45 17 -81.5t45 -54.5v-4q-71 -35 -114 -105t-43 -152q0 -103 74 -156.5t193 -53.5q101 0 180.5 34.5t126 103t46.5 161.5q0 63 -28.5 108.5t-76.5 72.5zM824 838q21 0 36.5 22.5 t15.5 50.5q0 49 -40 49q-22 0 -37 -22.5t-15 -50.5q0 -20 10.5 -34.5t29.5 -14.5zM782 483q15 0 29.5 10.5t24 32t9.5 48.5q0 28 -11.5 47t-38.5 19q-22 0 -42 -30.5t-20 -70.5q0 -26 12.5 -41t36.5 -15z" />
<glyph unicode="&#x2792;" horiz-adv-x="1565" d="M725 -26q-137 0 -257.5 50.5t-206.5 137.5t-136 209t-50 260q0 108 30 213t84 194t129.5 165.5t164.5 130t192.5 83.5t209.5 30q137 0 258.5 -50.5t208 -137.5t136.5 -209.5t50 -260.5q0 -108 -29 -213t-81 -194t-127 -165t-164 -129.5t-195 -83.5t-217 -30zM869 1152 q-93 0 -172 -47t-125.5 -127.5t-46.5 -174.5q0 -53 16 -95t42.5 -66.5t59 -37t68.5 -12.5q57 0 118 29q-23 -41 -59 -72t-84.5 -54t-113.5 -39l35 -195q146 24 262.5 109t181.5 213.5t65 277.5q0 135 -69 213t-178 78zM751 841q0 -21 7 -36t18.5 -22t27.5 -7q43 0 73 27 q2 36 2 56q0 25 -7 42.5t-19 25.5t-28 8q-30 0 -52 -27t-22 -67z" />
<glyph horiz-adv-x="1488" d="M1457 861q0 -223 -74 -409.5t-215 -304.5l213 -209l-244 -268l-315 321q-71 -11 -142 -11q-134 0 -244 41.5t-187.5 120t-120 196t-42.5 263.5q0 139 34.5 269t102 239.5t160.5 191.5t216.5 128t262.5 46q133 0 243 -41.5t188 -119.5t121 -194t43 -259zM472 627 q0 -149 66.5 -224.5t170.5 -75.5q105 0 188 66.5t128.5 182t45.5 259.5q0 146 -67.5 219.5t-175.5 73.5q-98 0 -181 -70.5t-129 -185.5t-46 -245z" />
<glyph horiz-adv-x="560" d="M381 1505q91 0 147 -53t56 -136q0 -86 -58 -142t-152 -56q-91 0 -147 54.5t-56 137.5q0 85 58 140t152 55zM167 1003h348l-123 -1003h-348z" />
<glyph horiz-adv-x="669" d="M651 1239q-14 2 -22 2q-28 0 -44 -12.5t-28 -48.5t-20 -105l-9 -72h140l-35 -278h-140l-88 -725h-350l88 725h-79l34 278h80l18 147q23 186 114.5 282t252.5 96q77 0 148 -27z" />
<glyph horiz-adv-x="1572" d="M1164 892q22 -13 61.5 -35.5t60.5 -35t54 -33t51 -34.5t44 -35.5t39.5 -39t30 -42.5t24.5 -49t13.5 -54.5t5.5 -63.5q0 -153 -65.5 -264t-184.5 -168.5t-280 -57.5q-121 0 -234.5 41.5t-202.5 130.5l189 315q52 -79 122.5 -120t139.5 -41q67 0 98.5 29.5t31.5 76.5 q0 36 -33.5 64.5t-138.5 89.5l-42 24t-50 29.5t-46 29.5t-50 35t-41 35.5t-37 40.5l245 393v5q-101 13 -179 13q-49 0 -91.5 -14.5t-78.5 -44t-60.5 -80.5t-32.5 -119l-114 -909h-360l115 921q16 124 55 219t95.5 157.5t134.5 102t165 56t193 16.5q150 0 321.5 -26.5 t328.5 -73.5l-297 -480v-4z" />
<glyph horiz-adv-x="1113" d="M692 0l-24 177h-324l-69 -177h-356l554 1194h321l248 -1194h-350zM451 450h181l-45 336h-5z" />
<glyph horiz-adv-x="1113" d="M1093 1633l-265 -311h-316l238 309zM473 1194h321l248 -1194h-350l-24 177h-324l-69 -177h-356zM451 450h181l-45 336h-5z" />
<glyph horiz-adv-x="1113" d="M673 1470l-71 -148h-296l232 316h297l168 -316h-290l-36 148h-4zM692 0l-24 177h-324l-69 -177h-356l554 1194h321l248 -1194h-350zM451 450h181l-45 336h-5z" />
<glyph horiz-adv-x="1113" d="M438 1305q-91 0 -147 54.5t-56 137.5q0 85 58 140t152 55q91 0 147 -53t56 -136q0 -57 -26 -102t-74 -70.5t-110 -25.5zM917 1692q60 0 106.5 -24.5t71.5 -67.5t25 -97q0 -86 -58 -142t-152 -56q-91 0 -147 54.5t-56 137.5q0 56 26 100t74 69.5t110 25.5zM473 1194h321 l248 -1194h-350l-24 177h-324l-69 -177h-356zM451 450h181l-45 336h-5z" />
<glyph horiz-adv-x="1113" d="M785 1326h-308l-189 311l336 -2zM692 0l-24 177h-324l-69 -177h-356l554 1194h321l248 -1194h-350zM451 450h181l-45 336h-5z" />
<glyph horiz-adv-x="1113" d="M678 1287q-92 0 -153.5 61.5t-61.5 153.5q0 93 63.5 155.5t158.5 62.5q92 0 153.5 -60.5t61.5 -150.5q0 -95 -63.5 -158.5t-158.5 -63.5zM683 1576q-32 0 -53 -21t-21 -52t20.5 -51t51.5 -20t52 21t21 53q0 29 -20.5 49.5t-50.5 20.5zM692 0l-24 177h-324l-69 -177h-356 l554 1194h321l248 -1194h-350zM451 450h181l-45 336h-5z" />
<glyph horiz-adv-x="1113" d="M586 1401q-67 0 -119 -101l-189 93q48 119 119.5 190t157.5 71q36 0 68 -9.5t46 -17.5t35 -23q4 -3 6 -4q50 -34 83 -34q69 0 121 97l187 -77q-48 -126 -117.5 -201.5t-154.5 -75.5q-22 0 -44 4.5t-34.5 8.5t-32 15.5t-24 14.5t-22.5 16q-47 33 -86 33zM473 1194h321 l248 -1194h-350l-24 177h-324l-69 -177h-356zM451 450h181l-45 336h-5z" />
<glyph horiz-adv-x="1500" d="M1452 885h-429l-20 -161h339l-33 -271h-339l-18 -146h463l-38 -307h-804l22 178h-244l-89 -178h-360l645 1194h943zM490 458h139l44 360h-4z" />
<glyph horiz-adv-x="1057" d="M822 645q172 -58 172 -250q0 -113 -48 -202.5t-139 -141t-212 -51.5h-565l147 1194h484q121 0 197 -28t110 -82t34 -137q0 -39 -7.5 -75.5t-22 -69t-36 -61t-50 -51.5t-63.5 -41zM534 726q55 0 85.5 32.5t30.5 80.5q0 26 -15.5 40.5t-44.5 14.5h-108l-21 -168h73z M507 295q58 0 91 37t33 91q0 20 -8 34.5t-24.5 22.5t-39.5 8h-128l-24 -193h100z" />
<glyph horiz-adv-x="1111" d="M1037 188q-88 -105 -210 -156.5t-265 -51.5q-112 0 -206 31t-165 91.5t-110.5 158t-39.5 223.5q0 119 30 229t87.5 200.5t136.5 158t183 105t222 37.5q55 0 111.5 -13t116.5 -41t116 -79t98 -119l-273 -203q-68 121 -187 121q-65 0 -119 -32t-88 -84t-52.5 -116 t-18.5 -131q0 -102 49 -153t128 -51q133 0 216 97z" />
<glyph horiz-adv-x="1111" d="M581 313q133 0 216 97l240 -222q-87 -103 -206 -154.5t-258 -53.5l-29 -35l2 -2q156 -5 156 -137q0 -66 -33.5 -110.5t-92.5 -65.5t-142 -21q-59 0 -120 13l6 133q33 -12 84 -12q31 0 53.5 7.5t34.5 22t12 33.5q0 25 -31.5 36.5t-98.5 11.5l3 79l37 58l-1 4 q-172 37 -272 160.5t-100 328.5q0 119 30 229t87.5 200.5t136.5 158t183 105t222 37.5q55 0 111.5 -13t116.5 -41t116 -79t98 -119l-273 -203q-68 121 -187 121q-65 0 -119 -32t-88 -84t-52.5 -116t-18.5 -131q0 -102 49 -153t128 -51z" />
<glyph horiz-adv-x="1166" d="M433 0h-402l146 1194h431q170 0 286.5 -62.5t172 -173.5t55.5 -266q0 -150 -47 -277t-134 -219t-217.5 -144t-290.5 -52zM485 307q71 0 126 32.5t87 87.5t48.5 122t16.5 141q0 106 -43.5 151t-150.5 45h-94l-71 -579h81z" />
<glyph horiz-adv-x="1195" d="M637 1194q170 0 286.5 -62.5t172 -173.5t55.5 -266q0 -120 -29.5 -225.5t-88 -191t-141 -147t-192.5 -95t-238 -33.5h-402l55 446h-109l38 263h103l59 485h431zM514 307q57 0 104 21.5t79 58t53.5 86t31.5 104t10 113.5q0 106 -43.5 151t-150.5 45h-94l-22 -177h134 l-39 -263h-127l-17 -139h81z" />
<glyph horiz-adv-x="974" d="M886 307l-38 -307h-818l147 1194h783l-38 -309h-442l-20 -161h341l-33 -273h-342l-17 -144h477z" />
<glyph horiz-adv-x="974" d="M600 1633l343 2l-265 -311h-316zM886 307l-38 -307h-818l147 1194h783l-38 -309h-442l-20 -161h341l-33 -273h-342l-17 -144h477z" />
<glyph horiz-adv-x="974" d="M608 1467l-71 -148h-296l232 316h297l168 -316h-290l-36 148h-4zM922 885h-442l-20 -161h341l-33 -273h-342l-17 -144h477l-38 -307h-818l147 1194h783z" />
<glyph horiz-adv-x="974" d="M380 1689q91 0 147 -53t56 -136q0 -57 -26 -102t-74 -70.5t-110 -25.5q-91 0 -147 54.5t-56 137.5q0 85 58 140t152 55zM852 1689q91 0 147 -53t56 -136q0 -86 -58 -142t-152 -56q-91 0 -147 54.5t-56 137.5q0 56 26 100t74 69.5t110 25.5zM886 307l-38 -307h-818 l147 1194h783l-38 -309h-442l-20 -161h341l-33 -273h-342l-17 -144h477z" />
<glyph horiz-adv-x="974" d="M652 1633l161 -309h-308l-189 311zM886 307l-38 -307h-818l147 1194h783l-38 -309h-442l-20 -161h341l-33 -273h-342l-17 -144h477z" />
<glyph horiz-adv-x="950" d="M474 885l-23 -192h375l-37 -307h-375l-48 -386h-336l147 1194h800l-38 -309h-465z" />
<glyph horiz-adv-x="1176" d="M1091 700l-69 -580q-85 -60 -212.5 -100t-258.5 -40q-111 0 -204 32t-161.5 93.5t-107 158t-38.5 219.5q0 100 21 193.5t61 174.5t99 148t132 114.5t164.5 74t192.5 26.5q127 0 244.5 -62.5t177.5 -169.5l-254 -198q-84 104 -192 104q-68 0 -124 -31.5t-90.5 -84.5 t-53 -118.5t-18.5 -136.5q0 -63 12.5 -108t36 -71t55.5 -38t75 -12q74 0 135 28l12 102h-148l34 282h479z" />
<glyph horiz-adv-x="1187" d="M1156 1194l-147 -1194h-346l53 426h-287l-53 -426h-346l147 1194h346l-56 -460h287l56 460h346z" />
<glyph horiz-adv-x="573" d="M387 0h-349l147 1194h349z" />
<glyph horiz-adv-x="572" d="M472 1629l343 2l-265 -311h-316zM387 0h-349l147 1194h349z" />
<glyph horiz-adv-x="573" d="M393 1467l-71 -148h-296l232 316h297l168 -316h-290l-36 148h-4zM38 0l147 1194h349l-147 -1194h-349z" />
<glyph horiz-adv-x="573" d="M165 1689q91 0 147 -53t56 -136q0 -57 -26 -102t-74 -70.5t-110 -25.5q-91 0 -147 54.5t-56 137.5q0 56 26 100t74 69.5t110 25.5zM637 1689q91 0 147 -53t56 -136q0 -86 -58 -142t-152 -56q-91 0 -147 54.5t-56 137.5q0 56 26 100t74 69.5t110 25.5zM387 0h-349 l147 1194h349z" />
<glyph horiz-adv-x="573" d="M353 1629l161 -309h-308l-189 311zM387 0h-349l147 1194h349z" />
<glyph horiz-adv-x="795" d="M158 375q12 -36 36 -55t51 -19q80 0 103 181l91 712h340l-89 -702q-17 -136 -49 -230.5t-84.5 -158.5t-128.5 -93.5t-181 -29.5q-92 0 -175.5 45t-131.5 132z" />
<glyph horiz-adv-x="1104" d="M1165 1194l-449 -504l312 -690h-412l-154 401h-4l-45 -51l-42 -350h-341l147 1194h341l-42 -334h4l268 334h417z" />
<glyph horiz-adv-x="910" d="M836 307l-38 -307h-768l147 1194h345l-109 -887h423z" />
<glyph horiz-adv-x="1422" d="M1039 1194h352l-147 -1194h-341l69 559h-3l-196 -338h-214l-114 344h-3l-71 -565h-341l148 1194h346l185 -569h4z" />
<glyph horiz-adv-x="1217" d="M847 1194h339l-147 -1194h-348l-244 601h-4l-74 -601h-339l147 1194h337l253 -625h4z" />
<glyph horiz-adv-x="1217" d="M635 1400q-67 0 -119 -101l-189 93q31 77 72 134.5t94 92t111 34.5q77 0 145 -47q2 -1 4 -3l6 -4q50 -34 83 -34q69 0 121 97l187 -77q-48 -126 -118 -201.5t-154 -75.5q-34 0 -66 10t-47 19.5t-39 25.5q-3 3 -5 4q-47 33 -86 33zM847 1194h339l-147 -1194h-348l-244 601 h-4l-74 -601h-339l147 1194h337l253 -625h4z" />
<glyph horiz-adv-x="1251" d="M699 1214q152 0 267 -59.5t179 -175t64 -273.5q0 -118 -24.5 -224t-77.5 -198.5t-129.5 -159.5t-186.5 -105.5t-243 -38.5q-153 0 -267 59t-177.5 174t-63.5 274q0 119 29.5 229t86.5 200t136 157t183.5 104t223.5 37zM571 303q128 0 203.5 104t75.5 270q0 56 -14 98 t-39.5 66t-57 36t-69.5 12q-74 0 -137 -51t-98.5 -137t-35.5 -186q0 -106 49 -159t123 -53z" />
<glyph horiz-adv-x="1251" d="M782 1631l343 2l-265 -311h-316zM699 1214q152 0 267 -59t179 -175t64 -274q0 -118 -24.5 -224t-77.5 -198.5t-129.5 -159.5t-186.5 -105.5t-243 -38.5q-114 0 -208 34t-160.5 98t-103 160t-36.5 215t29.5 229t86.5 200t136 157t183.5 104t223.5 37zM571 303 q128 0 203.5 104t75.5 270q0 45 -9.5 81t-25.5 60t-39 40.5t-49.5 23.5t-56.5 7q-74 0 -137 -51t-98.5 -137t-35.5 -186q0 -106 49 -159t123 -53z" />
<glyph horiz-adv-x="1251" d="M734 1469l-71 -148h-296l232 316h297l168 -316h-290l-36 148h-4zM699 1214q152 0 267 -59t179 -175t64 -274q0 -118 -24.5 -224t-77.5 -198.5t-129.5 -159.5t-186.5 -105.5t-243 -38.5q-153 0 -267 59t-177.5 174.5t-63.5 273.5q0 119 29.5 229t86.5 200t136 157 t183.5 104t223.5 37zM571 303q128 0 203.5 104t75.5 270q0 45 -9.5 81t-25.5 60t-39 40.5t-49.5 23.5t-56.5 7q-74 0 -137 -51t-98.5 -137t-35.5 -186q0 -106 49 -159t123 -53z" />
<glyph horiz-adv-x="1251" d="M506 1691q60 0 106.5 -24.5t71.5 -67.5t25 -97q0 -86 -58 -142t-152 -56q-60 0 -106.5 25t-71.5 68.5t-25 98.5q0 56 26 100t74 69.5t110 25.5zM978 1691q91 0 147 -53t56 -136q0 -86 -58 -142t-152 -56q-91 0 -147 54.5t-56 137.5q0 85 58 140t152 55zM699 1214 q152 0 267 -59t179 -175t64 -274q0 -118 -24.5 -224t-77.5 -198.5t-129.5 -159.5t-186.5 -105.5t-243 -38.5q-153 0 -267 59t-177.5 174.5t-63.5 273.5q0 119 29.5 229t86.5 200t136 157t183.5 104t223.5 37zM571 303q128 0 203.5 104t75.5 270q0 56 -14 98t-39.5 66t-57 36 t-69.5 12q-74 0 -137 -51t-98.5 -137t-35.5 -186q0 -106 49 -159t123 -53z" />
<glyph horiz-adv-x="1251" d="M752 1631l161 -309h-308l-189 311zM699 1214q152 0 267 -59.5t179 -175t64 -273.5q0 -118 -24.5 -224t-77.5 -198.5t-129.5 -159.5t-186.5 -105.5t-243 -38.5q-153 0 -267 59t-177.5 174t-63.5 274q0 119 29.5 229t86.5 200t136 157t183.5 104t223.5 37zM571 303 q128 0 203.5 104t75.5 270q0 56 -14 98t-39.5 66t-57 36t-69.5 12q-74 0 -137 -51t-98.5 -137t-35.5 -186q0 -106 49 -159t123 -53z" />
<glyph horiz-adv-x="1259" d="M1276 1139l-139 -145q72 -121 72 -288q0 -118 -24.5 -224t-77.5 -198.5t-129.5 -159.5t-186.5 -105.5t-243 -38.5q-183 0 -308 84l-127 -131l-116 114l127 132q-84 126 -84 308q0 119 29.5 229t86.5 200t136 157t183.5 104t223.5 37q198 0 329 -99l131 136zM399 515 q0 -26 3 -48l376 390q-44 32 -108 32q-74 0 -137 -51t-98.5 -137t-35.5 -186zM850 677v20l-361 -374q36 -20 82 -20q128 0 203.5 104t75.5 270z" />
<glyph horiz-adv-x="1251" d="M339 1392q31 77 72 134.5t94 92t111 34.5q77 0 145 -47q1 -1 4 -3l6 -4q50 -34 83 -34q69 0 121 97l187 -77q-48 -126 -118 -201.5t-154 -75.5q-22 0 -44 4.5t-34.5 8.5t-32 15.5t-24 14.5t-22.5 16q-47 33 -86 33q-67 0 -119 -101zM699 1214q152 0 267 -59.5t179 -175 t64 -273.5q0 -118 -24.5 -224t-77.5 -198.5t-129.5 -159.5t-186.5 -105.5t-243 -38.5q-153 0 -267 59t-177.5 174t-63.5 274q0 119 29.5 229t86.5 200t136 157t183.5 104t223.5 37zM571 303q128 0 203.5 104t75.5 270q0 56 -14 98t-39.5 66t-57 36t-69.5 12q-74 0 -137 -51 t-98.5 -137t-35.5 -186q0 -106 49 -159t123 -53z" />
<glyph horiz-adv-x="1515" d="M1464 885h-428l-19 -161h338l-33 -271h-338l-18 -146h461l-38 -307h-842q-230 0 -369 131.5t-139 355.5q0 111 29 216t86 193.5t135.5 155.5t183.5 104.5t223 37.5h806zM571 313l55 1l69 565h-26q-74 0 -137 -50.5t-98.5 -134t-35.5 -179.5q0 -100 50 -151.5t123 -50.5z " />
<glyph horiz-adv-x="1020" d="M657 1194q91 0 162 -28.5t113.5 -77.5t64 -109t21.5 -128q0 -109 -34 -202t-96.5 -161t-156.5 -107t-208 -39h-109l-42 -342h-342l147 1194h480zM531 642q59 0 94 42t35 104q0 100 -85 100h-94l-30 -246h80z" />
<glyph horiz-adv-x="1049" d="M667 1029q91 0 162 -28.5t113 -77.5t63.5 -109t21.5 -128q0 -109 -34 -202t-96.5 -161t-156 -107t-207.5 -39h-139l-22 -177h-342l149 1194h342l-21 -165h167zM541 477q59 0 94 42.5t35 103.5q0 100 -85 100h-123l-30 -246h109z" />
<glyph horiz-adv-x="1252" d="M1209 706q0 -265 -119 -452l72 -79l-192 -220l-90 102q-143 -77 -332 -77q-153 0 -267 59t-177.5 174t-63.5 274q0 119 29.5 229t86.5 200t136 157t183.5 104t223.5 37q152 0 267 -59.5t179 -175t64 -273.5zM571 303q45 0 81 13l-66 75l190 206l57 -62q17 66 17 142 q0 45 -9.5 81t-25.5 60t-39 40.5t-49.5 23.5t-56.5 7q-74 0 -137 -51t-98.5 -137t-35.5 -186q0 -106 49 -159t123 -53z" />
<glyph horiz-adv-x="1096" d="M820 416v-4l191 -412h-385l-142 342h-69l-43 -342h-342l149 1194h497q91 0 162 -28.5t113 -77.5t63.5 -109t21.5 -128q0 -143 -56 -256.5t-160 -178.5zM481 888l-29 -247h93q56 0 93 45.5t37 93.5q0 108 -86 108h-108z" />
<glyph horiz-adv-x="940" d="M539 748q69 -31 115.5 -55t92.5 -56.5t72.5 -67t43 -81.5t16.5 -103q0 -190 -125.5 -297.5t-339.5 -107.5q-57 0 -109 9t-109 30t-113 62.5t-107 101.5l217 216q51 -64 120 -98t127 -34q43 0 71 16.5t28 52.5q0 23 -29 45.5t-122 62.5q-51 22 -91 43.5t-81.5 53.5 t-68.5 67.5t-44 85t-17 106.5q0 118 56.5 212.5t158 148t227.5 53.5q59 0 116.5 -12.5t108.5 -36.5t95 -60.5t74 -82.5l-233 -192q-55 61 -91 79.5t-78 18.5q-44 0 -68.5 -24t-23.5 -54q1 -14 2.5 -21.5t11 -21t33.5 -27.5t64 -32z" />
<glyph horiz-adv-x="1343" d="M1025 719q54 -26 93.5 -49t75.5 -53t58 -63t34.5 -75.5t12.5 -92.5q0 -190 -125.5 -297.5t-339.5 -107.5q-225 0 -378 141l163 271q50 -61 117 -93t124 -32q28 0 49 6.5t35.5 22.5t14.5 40q0 23 -29 45.5t-122 62.5q-152 64 -222 143l189 313v4q-69 6 -123 6 q-72 0 -113.5 -15.5t-64 -54t-31.5 -108.5l-92 -733h-340l95 763q16 128 56.5 215.5t108 139t156 74t209.5 22.5q150 0 325 -22t296 -59l-231 -406z" />
<glyph horiz-adv-x="927" d="M936 885h-269l-113 -885h-344l112 885h-262l38 309h876z" />
<glyph horiz-adv-x="1140" d="M1035 488q-14 -117 -47.5 -205t-80.5 -145t-112 -92.5t-136.5 -50t-160.5 -14.5q-425 0 -425 420q0 76 11 164l81 629h348l-81 -627q-9 -76 -9 -131q0 -60 25.5 -95t79.5 -35q32 0 55.5 9t45.5 33t38 71.5t25 117.5l84 657h348z" />
<glyph horiz-adv-x="1140" d="M750 1631l343 2l-265 -311h-316zM1035 488q-14 -117 -47.5 -205t-80.5 -145t-112 -92.5t-136.5 -50t-160.5 -14.5q-425 0 -425 420q0 76 11 164l81 629h348l-81 -627q-9 -76 -9 -131q0 -60 25.5 -95t79.5 -35q31 0 55 9t46 33t38 71.5t25 117.5l84 657h348z" />
<glyph horiz-adv-x="1140" d="M678 1469l-71 -148h-296l232 316h297l168 -316h-290l-36 148h-4zM776 1194h348l-89 -706q-14 -117 -47.5 -205t-80.5 -145t-112 -92.5t-136.5 -50t-160.5 -14.5q-425 0 -425 420q0 76 11 164l81 629h348l-81 -627q-9 -76 -9 -131q0 -60 25.5 -95t79.5 -35q31 0 55 9 t46 33t38 71.5t25 117.5z" />
<glyph horiz-adv-x="1140" d="M450 1691q91 0 147 -53t56 -136q0 -86 -58 -142t-152 -56q-60 0 -106.5 25t-71.5 68.5t-25 98.5q0 85 58 140t152 55zM922 1691q91 0 147 -53t56 -136q0 -86 -58 -142t-152 -56q-91 0 -147 54.5t-56 137.5q0 85 58 140t152 55zM1035 488q-14 -116 -47.5 -204.5 t-80.5 -145.5t-112 -92.5t-136.5 -50t-160.5 -14.5q-425 0 -425 420q0 76 11 164l81 629h348l-81 -627q-9 -76 -9 -131q0 -60 25.5 -95t79.5 -35q32 0 55.5 9t45.5 33t38 71.5t25 117.5l84 657h348z" />
<glyph horiz-adv-x="1140" d="M649 1631l161 -309h-308l-189 311zM1035 488q-14 -117 -47.5 -205t-80.5 -145t-112 -92.5t-136.5 -50t-160.5 -14.5q-425 0 -425 420q0 76 11 164l81 629h348l-81 -627q-9 -76 -9 -131q0 -60 25.5 -95t79.5 -35q32 0 55.5 9t45.5 33t38 71.5t25 117.5l84 657h348z" />
<glyph horiz-adv-x="1122" d="M820 1194h370l-556 -1194h-296l-266 1194h356l112 -697h4z" />
<glyph horiz-adv-x="1615" d="M1317 1194h361l-494 -1194h-305l-58 681h-4l-235 -681h-307l-192 1194h353l55 -617h4l208 617h355l42 -625h4z" />
<glyph horiz-adv-x="1127" d="M1185 1194l-402 -597l268 -597h-380l-134 343h-4l-219 -343h-389l419 610l-251 584h373l124 -328h5l209 328h381z" />
<glyph horiz-adv-x="1020" d="M715 1194h397l-442 -680l-65 -514h-343l65 514l-270 680h378l99 -344h6z" />
<glyph horiz-adv-x="1020" d="M1025 1633l-265 -311h-316l238 309zM715 1194h397l-442 -680l-65 -514h-343l65 514l-270 680h378l99 -344h6z" />
<glyph horiz-adv-x="1020" d="M382 1304q-60 0 -106.5 25t-71.5 68.5t-25 98.5q0 85 58 140t152 55q91 0 147 -53t56 -136q0 -86 -58 -142t-152 -56zM854 1304q-91 0 -147 54.5t-56 137.5q0 85 58 140t152 55q91 0 147 -53t56 -136q0 -86 -58 -142t-152 -56zM715 1194h397l-442 -680l-65 -514h-343 l65 514l-270 680h378l99 -344h6z" />
<glyph horiz-adv-x="977" d="M967 933l-515 -620l-1 -6h433l-38 -307h-863l32 270l498 610l1 5h-414l38 309h859z" />
<glyph horiz-adv-x="1422" d="M1039 1194h352l-147 -1194h-341l69 559h-3l-196 -338h-214l-114 344h-3l-71 -565h-341l148 1194h346l185 -569h4z" />
<glyph horiz-adv-x="1164" d="M653 1085q219 0 336 -126t117 -346q0 -136 -43.5 -254t-120 -201t-184.5 -130.5t-232 -47.5q-221 0 -340.5 126t-119.5 345q0 108 29 206t82.5 175.5t125.5 134.5t162 87.5t188 30.5zM626 767q-56 0 -105.5 -43t-78 -112.5t-28.5 -146.5q0 -82 34 -125t97 -43 q62 0 111.5 43t75.5 111t26 146q0 81 -35 125.5t-97 44.5z" />
<glyph horiz-adv-x="772" d="M445 1064h281l-131 -1064h-355l79 648l-137 -97l-138 242z" />
<glyph horiz-adv-x="929" d="M534 295v-4h318l-36 -291h-829l24 244l348 262q32 25 45.5 35.5t41.5 33.5t41 38.5t29.5 37t23 41.5t6.5 41q0 61 -72 61q-54 0 -103.5 -28t-82.5 -73l-212 192q78 89 192.5 144.5t248.5 55.5q171 0 272.5 -81t101.5 -228q0 -121 -66.5 -220.5t-196.5 -193.5z" />
<glyph horiz-adv-x="932" d="M703 402q146 -83 146 -266q0 -201 -131 -326t-344 -125q-90 0 -164.5 26t-126.5 71.5t-85.5 103.5t-47.5 125l312 110q18 -127 101 -127q43 0 73.5 25.5t44 63t13.5 81.5q0 45 -25.5 70.5t-76.5 25.5h-76l34 273h57q68 0 106 49.5t38 116.5q0 33 -18.5 53.5t-48.5 20.5 q-78 0 -128 -109l-258 163q52 117 169 187.5t261 70.5q74 0 137.5 -19.5t113 -57.5t78 -100t28.5 -142q0 -115 -48 -208.5t-133 -152.5z" />
<glyph horiz-adv-x="981" d="M795 292h140l-35 -292h-141l-36 -295h-340l36 295h-465l23 205l617 859h296zM320 257h168l43 295z" />
<glyph horiz-adv-x="940" d="M857 748h-398l-31 -174q74 18 126 18q132 0 217 -97t85 -271q0 -64 -12.5 -125t-36 -114t-57 -99.5t-77 -83.5t-93.5 -63t-108.5 -40t-121.5 -14q-132 0 -239.5 53.5t-171.5 158.5l262 195q48 -87 131 -87q43 0 77.5 19.5t54.5 50.5t30 65.5t10 67.5q0 39 -14 65.5 t-34.5 37.5t-46.5 11q-40 0 -82 -20.5t-71 -46.5l-172 76l131 733h681z" />
<glyph horiz-adv-x="1045" d="M669 887q135 0 222 -93t87 -259q0 -118 -34.5 -219t-98.5 -176t-161.5 -117.5t-217.5 -42.5q-89 0 -161.5 28t-126 83t-82.5 141.5t-29 197.5q0 245 93 446.5t267.5 338.5t411.5 195l63 -269q-300 -84 -423 -298l6 -5q98 49 184 49zM494 289q64 0 109.5 57t45.5 132 q0 64 -31 102.5t-85 37.5q-20 -1 -43 -9t-48.5 -25t-47.5 -40q-3 -34 -3 -73q0 -46 7 -81t20.5 -57t32.5 -33t43 -11z" />
<glyph horiz-adv-x="855" d="M106 1064h777l-28 -227l-502 -1166l-347 68l446 1006h-385z" />
<glyph horiz-adv-x="1032" d="M807 719q162 -75 162 -268q0 -144 -69 -251.5t-189 -163.5t-276 -56q-116 0 -204.5 35t-141 108t-52.5 176q0 124 63.5 235.5t177.5 173.5v2q-42 24 -69.5 78.5t-27.5 123.5q0 126 57 223t158 149t229 52q104 0 181.5 -30.5t121.5 -94.5t44 -155q0 -104 -44 -200 t-120 -135zM560 846q41 0 67.5 38t26.5 90q0 85 -69 85q-41 0 -68.5 -37t-27.5 -92q0 -41 19 -62.5t52 -21.5zM487 273q51 0 87.5 52t36.5 113q0 24 -5.5 44.5t-16.5 36t-28.5 24t-39.5 8.5q-50 0 -85.5 -47t-35.5 -112q0 -55 22.5 -87t64.5 -32z" />
<glyph horiz-adv-x="1014" d="M564 1085q80 0 149.5 -27t124.5 -79.5t86.5 -137.5t31.5 -193q0 -192 -54.5 -356t-155.5 -288.5t-246 -211.5t-325 -129l-54 268q314 87 431 310q-107 -56 -208 -56q-58 0 -109.5 24.5t-91.5 69.5t-63.5 114.5t-23.5 153.5q0 112 37 211t103 171t161.5 114t206.5 42z M382 594q0 -37 9 -67.5t34 -52.5t62 -22q77 0 139 65q3 40 3 83q0 175 -106 175q-60 0 -100.5 -53t-40.5 -128z" />
<glyph d="M701 1426q215 0 330.5 -146.5t115.5 -417.5q0 -96 -12 -188.5t-36.5 -180.5t-60.5 -165t-86 -141t-110 -110t-136 -71.5t-161 -25.5q-216 0 -330 143t-114 418q0 113 16.5 220.5t48.5 207t82.5 182.5t115.5 144.5t151.5 96t185.5 34.5zM679 1087q-39 0 -71 -28t-54 -75.5 t-38.5 -106t-25.5 -125t-13.5 -126t-4.5 -114.5q0 -90 25 -141.5t73 -51.5q33 0 61.5 21t49 55.5t37 82t27 99t17.5 107t10 104.5t3 95q0 98 -24.5 151t-71.5 53z" />
<glyph d="M838 324h201l-40 -324h-806l40 324h238l78 628l-202 -134l-142 273l473 315h292z" />
<glyph d="M827 523l-201 -197h399l-41 -326h-888l24 234l418 438q38 41 68 77t60.5 81t47 91.5t16.5 88.5q0 40 -20.5 62t-58.5 22q-40 0 -90 -33t-97 -91l-235 197q74 116 199 188t288 72q77 0 145.5 -24.5t121 -69.5t83.5 -114.5t31 -153.5q0 -156 -66 -281t-204 -261z" />
<glyph d="M908 725q153 -88 153 -282q0 -106 -38.5 -194t-105.5 -146.5t-158 -90.5t-196 -32q-99 0 -180.5 26t-138.5 72t-93.5 107t-51.5 133l321 112q4 -34 15 -60t28 -42.5t38 -24.5t46 -8q68 0 108 50.5t40 119.5q0 35 -11 60.5t-32.5 39t-53.5 13.5h-93l34 278h83 q63 0 100 45.5t37 109.5q0 42 -25.5 69.5t-66.5 27.5q-101 0 -149 -114l-267 166q58 128 182 197t286 69q87 0 157.5 -21t120 -62t76.5 -103t27 -142q0 -118 -50.5 -215.5t-141.5 -157.5z" />
<glyph d="M928 511h151l-37 -295h-150l-27 -216h-349l27 216h-481l24 210l669 980h282zM450 470h165l49 377z" />
<glyph d="M1046 1082h-418l-32 -182q69 15 124 15q147 0 235.5 -99t88.5 -277q0 -100 -25 -187.5t-72.5 -155.5t-112.5 -117t-148 -74.5t-176 -25.5q-134 0 -245 55t-183 170l270 200q22 -48 60.5 -74t81.5 -26q62 0 105.5 32t62 79t18.5 105q0 61 -28 90.5t-69 30.5 q-49 1 -95.5 -21t-81.5 -51l-178 77l134 760h723z" />
<glyph d="M751 909q65 0 121 -22t99 -64.5t67.5 -111.5t24.5 -157q0 -99 -23 -186.5t-68.5 -158.5t-109.5 -122t-148.5 -79t-183.5 -28q-91 0 -167 30.5t-131 88t-85.5 145t-30.5 196.5q0 176 58.5 342.5t162 300t253 232t325.5 140.5l54 -284q-296 -125 -417 -311l5 -2 q100 51 194 51zM562 293q66 0 113 63.5t47 144.5q0 67 -28.5 101.5t-91.5 34.5q-36 0 -76 -19t-73 -53q-6 -52 -6 -110q0 -24 3.5 -45t10.5 -39t17.5 -32.5t23 -24.5t28 -15.5t32.5 -5.5z" />
<glyph d="M272 1406h888l-27 -231l-579 -1210l-354 63l525 1056h-492z" />
<glyph d="M891 766q79 -34 127 -111t48 -187q0 -93 -26 -171.5t-73.5 -136.5t-114 -98.5t-149 -61t-176.5 -20.5q-92 0 -169.5 23.5t-133 67t-87 108.5t-31.5 145q0 136 71.5 254.5t191.5 177.5v3q-48 24 -80 85t-32 146q0 92 33.5 172.5t94 138.5t149 91.5t193.5 33.5 q72 0 134 -19.5t109.5 -56.5t75 -96t27.5 -134q0 -67 -22.5 -136.5t-64.5 -128t-95 -86.5v-3zM649 895q44 0 72.5 47t28.5 102q0 33 -8 56t-24 35.5t-39 12.5q-44 0 -72.5 -47t-28.5 -102q0 -48 19 -76t52 -28zM563 274q56 0 98 59t42 134q0 56 -23.5 94.5t-72.5 38.5 q-57 0 -97 -59.5t-40 -130.5q0 -64 24 -100t69 -36z" />
<glyph d="M707 1426q183 0 292 -123.5t109 -343.5q0 -188 -58.5 -357.5t-164 -301t-256.5 -223.5t-331 -130l-55 274q290 88 427 318q-92 -47 -191 -47q-65 0 -121.5 22t-101 64.5t-70 111t-25.5 155.5q0 82 18.5 158.5t52.5 140.5t83 116.5t109 89t132.5 56.5t150.5 20zM502 901 q0 -66 34 -101t100 -35q72 0 131 67q6 54 6 111q0 85 -29.5 126t-74.5 41q-71 0 -119 -59.5t-48 -149.5z" />
<glyph horiz-adv-x="752" d="M408 865q95 0 164 -43t105 -122.5t36 -187.5q0 -84 -15.5 -161.5t-47.5 -145.5t-77.5 -118t-110 -78.5t-140.5 -28.5q-143 0 -223.5 94.5t-80.5 258.5q0 83 16 161t48.5 145.5t78.5 117.5t109.5 79t137.5 29zM401 634q-34 0 -60.5 -31t-42 -79t-23 -98.5t-7.5 -96.5 q0 -56 18 -87t47 -31q34 0 61 30.5t41.5 79t21.5 98.5t7 98q0 37 -8 63.5t-22 40t-33 13.5z" />
<glyph horiz-adv-x="549" d="M308 844h194l-104 -844h-249l67 521l-93 -63l-103 191z" />
<glyph horiz-adv-x="609" d="M349 231l-1 -5h197l-28 -226h-552l15 166l239 256q53 57 82 98.5t29 75.5q0 30 -32 30q-37 0 -89 -61l-175 139q24 33 54 60.5t67 49.5t83 34t96 12q112 0 182 -61.5t70 -162.5q0 -50 -10 -92t-32.5 -81.5t-48.5 -72t-68 -76.5z" />
<glyph horiz-adv-x="621" d="M467 430q94 -55 94 -169q0 -125 -86.5 -201.5t-220.5 -76.5q-76 0 -139 30t-101 79.5t-50 109.5l224 76q1 -41 15.5 -59t35.5 -18q29 0 48 26.5t19 66.5q0 42 -52 42h-46l22 182h49q25 0 44 27t19 59q0 36 -29 36q-18 0 -35 -18t-27 -53l-197 122q32 71 110 120t169 49 q113 0 181 -55.5t68 -157.5q0 -68 -30.5 -123t-84.5 -91v-3z" />
<glyph horiz-adv-x="627" d="M499 334h91l-26 -212h-90l-15 -122h-250l15 122h-271l16 148l396 573h197zM188 308h101l29 212z" />
<glyph horiz-adv-x="605" d="M346 548q95 0 150 -62t55 -172q0 -90 -40.5 -166t-113.5 -120.5t-163 -44.5q-175 0 -285 128l198 143q28 -45 64 -45q24 0 44.5 15.5t31.5 40.5t11 52q0 28 -11.5 39.5t-26.5 11.5q-42 0 -91 -52l-128 59l84 468h448l-27 -225h-242l-14 -77q29 7 56 7z" />
<glyph horiz-adv-x="639" d="M399 543q84 0 134.5 -55t50.5 -156q0 -97 -39.5 -176t-118.5 -126.5t-183 -47.5q-109 0 -178.5 76.5t-69.5 211.5q0 142 66.5 270t184.5 216t265 117l36 -195q-49 -14 -88 -29.5t-72 -34.5t-57.5 -41.5t-42.5 -50.5l5 -4q58 25 107 25zM286 199q13 0 25 7.5t21 20 t14.5 30t5.5 36.5q0 65 -56 65q-30 0 -62 -27q-1 -12 -1 -36q0 -96 53 -96z" />
<glyph horiz-adv-x="522" d="M63 844h490l-19 -163l-291 -705l-248 45l253 595h-212z" />
<glyph horiz-adv-x="666" d="M504 463q23 -13 41.5 -30t33 -39.5t22.5 -51t8 -60.5q0 -93 -46.5 -161.5t-126 -103t-180.5 -34.5q-119 0 -193 53.5t-74 156.5q0 82 43 152t114 105v4q-28 18 -45 54.5t-17 81.5q0 117 85.5 193t214.5 76q101 0 162.5 -46.5t61.5 -139.5q0 -68 -28 -122t-76 -86v-2z M339 545q21 0 36.5 22.5t15.5 50.5q0 49 -40 49q-14 0 -26.5 -11t-19 -27.5t-6.5 -34.5q0 -13 4.5 -24t14 -18t21.5 -7zM297 190q24 0 43.5 25t19.5 66q0 13 -2.5 24t-8 21t-15.5 15.5t-24 5.5q-22 0 -42 -30.5t-20 -70.5q0 -26 12.5 -41t36.5 -15z" />
<glyph horiz-adv-x="637" d="M372 859q109 0 178 -78t69 -213q0 -149 -65 -277.5t-181.5 -213.5t-262.5 -109l-35 195q97 24 159.5 64t97.5 101q-61 -29 -118 -29q-36 0 -68.5 12.5t-59 37t-42.5 66.5t-16 95q0 94 46.5 174.5t125.5 127.5t172 47zM254 548q0 -31 14.5 -48t38.5 -17q43 0 73 27 q2 36 2 56q0 38 -15 57t-39 19q-15 0 -28.5 -7t-23.5 -19.5t-16 -30t-6 -37.5z" />
<glyph horiz-adv-x="753" d="M485 1473q143 0 224 -94.5t81 -258.5q0 -84 -15.5 -161.5t-47.5 -145.5t-77.5 -118t-110 -78.5t-140.5 -28.5q-143 0 -223.5 94.5t-80.5 258.5q0 83 16 161t48.5 145.5t78.5 117.5t109.5 79t137.5 29zM478 1242q-34 0 -60.5 -31t-42 -79t-23 -98.5t-7.5 -96.5 q0 -38 8.5 -65t23 -40t33.5 -13q28 0 51 20.5t37.5 53t24.5 74t14 81.5t4 77q0 55 -17 86t-46 31z" />
<glyph horiz-adv-x="549" d="M383 1455h194l-104 -844h-249l67 521l-93 -63l-103 191z" />
<glyph horiz-adv-x="609" d="M424 842l-1 -5h197l-28 -226h-552l15 166l239 256q53 57 82 98.5t29 75.5q0 30 -32 30q-37 0 -89 -61l-175 139q50 69 126.5 112.5t173.5 43.5q112 0 182 -61.5t70 -162.5q0 -50 -10 -92t-32.5 -81.5t-48.5 -72t-68 -76.5z" />
<glyph horiz-adv-x="621" d="M542 1041q94 -55 94 -169q0 -125 -86.5 -201.5t-220.5 -76.5q-114 0 -193 63t-97 156l224 76q1 -41 15.5 -59t35.5 -18q14 0 26.5 7t21.5 19.5t14 29.5t5 37q0 42 -52 42h-46l22 182h49q25 0 44 27t19 59q0 36 -29 36q-18 0 -35 -18t-27 -53l-197 122q32 71 110 120 t169 49q113 0 181 -55.5t68 -157.5q0 -68 -30.5 -123t-84.5 -91v-3z" />
<glyph horiz-adv-x="626" d="M574 947h91l-26 -212h-90l-15 -122h-250l15 122h-271l16 148l396 573h197zM263 921h101l29 212z" />
<glyph horiz-adv-x="605" d="M421 1160q95 0 150 -62t55 -172q0 -67 -24 -128t-65.5 -105.5t-101 -71t-126.5 -26.5q-175 0 -285 128l198 143q28 -45 64 -45q18 0 34.5 9t28 24t18 35t6.5 40q0 28 -11.5 39.5t-26.5 11.5q-42 0 -91 -52l-128 59l84 468h448l-27 -225h-242l-14 -77q29 7 56 7z" />
<glyph horiz-adv-x="639" d="M474 1157q84 0 134.5 -55t50.5 -156q0 -97 -39.5 -176t-118.5 -126.5t-183 -47.5q-109 0 -178.5 76.5t-69.5 211.5q0 142 66.5 270t184.5 216t265 117l36 -195q-99 -28 -162 -65t-98 -91l5 -4q58 25 107 25zM361 813q26 0 46 28t20 66q0 65 -56 65q-30 0 -62 -27 q-1 -12 -1 -36q0 -96 53 -96z" />
<glyph horiz-adv-x="522" d="M138 1455h490l-19 -163l-291 -705l-248 45l253 595h-212z" />
<glyph horiz-adv-x="666" d="M580 1076q48 -27 76.5 -72.5t28.5 -108.5q0 -70 -27 -127t-74.5 -94.5t-111.5 -57.5t-140 -20q-119 0 -193 53.5t-74 156.5q0 82 43 152t114 105v4q-18 12 -32 32.5t-22 47t-8 56.5q0 117 85.5 193t214.5 76q101 0 162.5 -46.5t61.5 -139.5q0 -68 -28 -122t-76 -86v-2z M415 1158q21 0 36.5 22.5t15.5 50.5q0 49 -40 49q-22 0 -37 -22.5t-15 -50.5q0 -20 10.5 -34.5t29.5 -14.5zM373 803q15 0 29.5 10.5t24 32t9.5 48.5q0 28 -11.5 47t-38.5 19q-14 0 -28.5 -13.5t-24 -37.5t-9.5 -50q0 -12 3 -22.5t9 -18t15.5 -11.5t21.5 -4z" />
<glyph horiz-adv-x="636" d="M447 1471q109 0 178 -78t69 -213q0 -149 -65 -277.5t-181.5 -213.5t-262.5 -109l-35 195q97 24 159.5 64t97.5 101q-61 -29 -118 -29q-77 0 -131.5 53.5t-54.5 157.5q0 144 101.5 246.5t242.5 102.5zM329 1160q0 -31 14.5 -48t38.5 -17q43 0 73 27q2 36 2 56q0 38 -15 57 t-39 19q-30 0 -52 -27t-22 -67z" />
<glyph horiz-adv-x="1039" d="M583 1214q192 0 299 -129t107 -366q0 -115 -21 -222.5t-64.5 -201.5t-106 -164t-151 -110.5t-192.5 -40.5q-191 0 -297.5 129.5t-106.5 368.5q0 115 22 223t66.5 201t107 162.5t149.5 109.5t188 40zM567 900q-46 0 -82 -45t-55.5 -115.5t-29 -142.5t-9.5 -138 q0 -164 86 -164q46 0 81 44.5t53.5 114.5t27.5 141.5t9 140.5q0 50 -8.5 86t-27 57t-45.5 21z" />
<glyph horiz-adv-x="770" d="M444 1194h269l-147 -1194h-338l94 775l-144 -108l-133 254z" />
<glyph horiz-adv-x="883" d="M457 307l-1 -5h324l-37 -302h-777l21 216l348 369q12 13 42 43.5t43 45t35 41t32 44t18 41t8 45.5q0 29 -17.5 46.5t-47.5 17.5q-77 0 -163 -96l-215 184q72 96 177.5 156.5t244.5 60.5q98 0 175.5 -34t125 -107t47.5 -175q0 -68 -15.5 -127.5t-48.5 -114.5t-74 -103 t-102 -107z" />
<glyph horiz-adv-x="903" d="M694 618q133 -74 133 -240q0 -118 -57.5 -209t-159 -140t-230.5 -49q-158 0 -262.5 83.5t-131.5 214.5l292 102q3 -40 14.5 -65.5t30 -36.5t46.5 -11q34 0 62 21t43 53.5t15 68.5q0 78 -90 78h-73l30 245h80q48 0 76 37.5t28 90.5q0 22 -8 38t-21.5 24t-31.5 8 q-39 0 -67 -25t-51 -77l-245 157q45 101 156.5 164.5t237.5 63.5q99 0 175.5 -30t123.5 -94.5t47 -155.5q0 -51 -11.5 -97.5t-32.5 -85.5t-50.5 -72t-66.5 -58z" />
<glyph horiz-adv-x="953" d="M760 453h133l-34 -273h-133l-22 -180h-321l23 180h-424l22 192l591 822h256zM328 429h150l38 293z" />
<glyph horiz-adv-x="890" d="M532 779q142 0 219 -85.5t77 -237.5q0 -102 -35.5 -190.5t-97 -151t-146.5 -98.5t-182 -36q-254 0 -400 184l247 186q25 -35 61.5 -55t72.5 -20q48 0 82.5 28t49 64.5t14.5 74.5q0 89 -82 89q-33 0 -66 -13t-84 -47l-163 72l118 651h641l-37 -294h-373l-24 -136 q60 15 108 15z" />
<glyph horiz-adv-x="945" d="M602 779q42 0 81.5 -12t73.5 -37.5t60 -61.5t40.5 -87.5t14.5 -111.5q0 -136 -62.5 -248t-173.5 -176.5t-248 -64.5q-77 0 -142 26.5t-113.5 76t-75.5 126t-27 171.5q0 155 54.5 300t150 258t229.5 193t289 110l45 -254q-263 -75 -375 -243l5 -3q87 38 174 38zM433 274 q34 0 63 22t44.5 56t15.5 71q0 57 -23.5 81.5t-74.5 24.5q-26 0 -58 -15t-61 -43q-1 -15 -1 -47q0 -70 25.5 -110t69.5 -40z" />
<glyph horiz-adv-x="789" d="M116 1194h698l-24 -214l-444 -1012l-325 63l393 865h-334z" />
<glyph horiz-adv-x="927" d="M696 655q73 -31 117.5 -97t44.5 -162q0 -125 -61 -220t-170.5 -145.5t-252.5 -50.5q-167 0 -269.5 78.5t-102.5 216.5q0 118 63.5 219.5t167.5 149.5v3q-42 22 -69.5 76t-27.5 122q0 108 54.5 192.5t148.5 130.5t210 46q89 0 158.5 -28.5t111.5 -88.5t42 -144 q0 -95 -47 -175.5t-117 -119.5zM485 774q28 0 51.5 32.5t23.5 76.5q0 39 -15 61.5t-42 22.5t-51.5 -32t-24.5 -76q0 -26 6.5 -45t20 -29.5t31.5 -10.5zM419 253q43 0 75 40.5t32 100.5q0 47 -22.5 76.5t-55.5 29.5q-21 0 -41.5 -13t-35 -33.5t-23 -46.5t-8.5 -51 q0 -43 18.5 -73t60.5 -30z" />
<glyph horiz-adv-x="948" d="M550 1214q162 0 261.5 -108.5t99.5 -290.5q0 -158 -55.5 -304t-152 -258t-231 -191t-289.5 -108l-44 255q141 40 236 101.5t149 152.5q-94 -46 -183 -46q-57 0 -106.5 20t-87.5 57.5t-60 97.5t-22 135q0 103 38 194t103 155t154.5 101t189.5 37zM379 774q0 -25 6 -45 t18 -33t29.5 -20t39.5 -7q66 0 124 55q2 38 2 60q0 63 -25 99.5t-75 36.5q-34 0 -62 -22.5t-42.5 -56t-14.5 -67.5z" />
<glyph horiz-adv-x="845" d="M448 973q111 0 185 -73t74 -183q0 -115 -77 -192t-192 -77q-111 0 -185 74.5t-74 186.5q0 113 77 188.5t192 75.5z" />
<glyph horiz-adv-x="618" d="M369 729q-60 0 -104 24.5t-66.5 67t-22.5 97.5q0 87 53.5 142.5t146.5 55.5q90 0 141.5 -53.5t51.5 -138.5q0 -86 -53.5 -140.5t-146.5 -54.5zM455 576l-64 -992h-365l180 992h249z" />
<glyph horiz-adv-x="868" d="M549 729q-60 0 -104 24.5t-66.5 67t-22.5 97.5q0 87 53.5 142.5t146.5 55.5q89 0 141 -53.5t52 -138.5q0 -86 -53.5 -140.5t-146.5 -54.5zM596 -37q-77 -83 -145 -83q-41 0 -62.5 25.5t-21.5 72.5q0 32 9.5 62t30 60t38 50.5t48.5 52.5q100 105 142.5 168t48.5 133l7 83 h-303l-20 -86q-11 -47 -46.5 -89t-108.5 -108q-102 -93 -159 -189t-57 -212q0 -107 50.5 -185t135 -116t193.5 -38q131 0 246 54t178 139z" />
<glyph horiz-adv-x="600" d="M345 1024q45 0 81.5 -14t61 -39.5t37.5 -60t13 -75.5q0 -87 -53.5 -142.5t-146.5 -55.5q-90 0 -141.5 53.5t-51.5 138.5q0 86 53.5 140.5t146.5 54.5zM262 363q90 0 141.5 -52.5t51.5 -136.5q0 -87 -53.5 -142.5t-146.5 -55.5q-90 0 -141.5 53.5t-51.5 138.5 q0 86 53.5 140.5t146.5 54.5z" />
<glyph horiz-adv-x="600" d="M133 288h335l-212 -563h-245z" />
<glyph d="M899 1387h233l-85 -333h175l-33 -253h-212l-64 -249h195l-33 -253h-231l-92 -359h-234l92 359h-193l-93 -359h-234l94 359h-164l32 253h202l63 249h-184l31 253h223l85 333h233l-86 -333h194zM743 801h-193l-64 -249h195z" />
<glyph horiz-adv-x="600" d="M263 363q90 0 141.5 -52.5t51.5 -136.5q0 -87 -53.5 -142.5t-146.5 -55.5q-90 0 -141.5 53.5t-51.5 138.5q0 86 53.5 140.5t146.5 54.5z" />
<glyph horiz-adv-x="677" d="M579 1603h184l-27 -219h-31q-31 0 -54 -15t-34.5 -39t-17 -43t-8.5 -38l-41 -327q-12 -94 -40 -147t-78 -81l-1 -6q18 -10 27.5 -18t21 -24.5t15.5 -39t4 -60.5t-6 -89l-39 -320q-4 -39 -5 -67.5t16.5 -44t58.5 -15.5h43l-27 -219h-172q-99 0 -159.5 81.5t-45.5 206.5 l42 337q0 2 1 6q6 32 5 59t-10.5 47.5t-41 32t-85.5 11.5l19 248q44 1 77 12t51 26.5t30 40.5t16 43t7 44l42 339q15 119 88.5 198.5t174.5 79.5z" />
<glyph horiz-adv-x="677" d="M525 976v-3q-3 -20 -4 -30.5t-0.5 -29t4.5 -29t13.5 -24t24.5 -21t38.5 -13t55.5 -5.5l-19 -248q-45 0 -77.5 -10t-50.5 -23.5t-30 -38t-16.5 -44.5t-8.5 -52l-41 -337q-15 -124 -91 -200t-172 -76h-183l27 219h31q31 0 52.5 10t34 31t18.5 43t10 55l39 320q6 53 15 89.5 t17.5 58.5t24.5 39t27.5 25t36.5 22l1 2q-87 55 -65 228l40 328q2 14 2.5 22.5t1 25.5t-4 28t-12 23t-22.5 18t-36 6h-42l27 219h171q69 0 119.5 -39.5t72.5 -106t13 -144.5z" />
<glyph horiz-adv-x="719" d="M526 1348l-162 -1315h235l-31 -251h-524l223 1816h524l-31 -250h-234z" />
<glyph horiz-adv-x="775" d="M464 1350h-231l31 250h520l-222 -1816h-521l31 251h231z" />
<glyph horiz-adv-x="610" d="M403 454q0 279 78 564t219 511l-229 99q-181 -236 -278.5 -562t-97.5 -654q0 -389 139 -660l267 120q-98 268 -98 582z" />
<glyph horiz-adv-x="586" d="M582 983q0 389 -138 655l-267 -120q97 -262 97 -581q0 -281 -77 -563.5t-219 -512.5l228 -99q182 240 279 565t97 656z" />
<glyph horiz-adv-x="2037" d="M1975 515h-1912l35 286h1912z" />
<glyph horiz-adv-x="1081" d="M1019 515h-956l35 286h956z" />
<glyph horiz-adv-x="675" d="M611 506h-548l36 301h549z" />
<glyph d="M1033 424h-886l36 287h886z" />
<glyph horiz-adv-x="1027" d="M973 198h-314l-151 399l255 407h314l-254 -407zM532 197h-314l-151 399l255 407h314l-254 -407z" />
<glyph horiz-adv-x="1033" d="M-25 199l254 399l-156 407h316l155 -407l-249 -399h-320zM425 199l254 399l-156 407h316l155 -407l-249 -399h-320z" />
<glyph horiz-adv-x="507" d="M100 449l37 745h334l-148 -745h-223zM185 363q90 0 141.5 -52.5t51.5 -136.5q0 -87 -53.5 -142.5t-146.5 -55.5q-90 0 -141.5 53.5t-51.5 138.5q0 86 53.5 140.5t146.5 54.5z" />
<glyph horiz-adv-x="507" d="M346 831q-60 0 -104 24.5t-66.5 67t-22.5 97.5q0 87 53.5 142.5t146.5 55.5q90 0 141.5 -53.5t51.5 -138.5q0 -86 -53.5 -140.5t-146.5 -54.5zM431 745l-37 -745h-334l148 745h223z" />
<glyph horiz-adv-x="768" d="M242 871q14 19 31.5 32.5t36.5 20.5t38 7q29 0 43.5 -16.5t15.5 -42.5q1 -28 -15 -58.5t-35 -51t-54 -53.5q-32 -30 -49 -48t-39 -47.5t-33.5 -61.5t-14.5 -70l-3 -34h255l11 29q6 17 23 35.5t31 29.5t46 34t45 33q92 70 135 144t43 167q0 63 -19 114t-50.5 84t-75 55 t-89.5 31.5t-96 9.5q-108 0 -203.5 -42.5t-162.5 -114.5zM283 363q90 0 141.5 -52.5t51.5 -136.5q0 -87 -53.5 -142.5t-146.5 -55.5q-90 0 -141.5 53.5t-51.5 138.5q0 86 53.5 140.5t146.5 54.5z" />
<glyph horiz-adv-x="768" d="M511 832q-90 0 -141.5 52.5t-51.5 136.5q0 87 53.5 142.5t146.5 55.5q60 0 104 -25t66.5 -68.5t22.5 -98.5q0 -86 -53.5 -140.5t-146.5 -54.5zM552 324q-21 -28 -49.5 -44t-56.5 -16q-29 0 -43.5 16.5t-15.5 42.5q-1 28 15 58.5t35 51t54 53.5q32 30 49 48t39 47 t33.5 61.5t14.5 70.5l3 34h-255l-11 -29q-6 -17 -23 -35.5t-31 -29.5t-46 -34t-45 -33q-92 -70 -135 -144t-43 -167q0 -63 19 -114t50.5 -84t75 -55t89.5 -31.5t96 -9.5q108 0 203.5 42.5t162.5 114.5z" />
<glyph />
<glyph d="M613 397q42 0 76 20.5t72 72.5l270 -163q-119 -187 -321 -227l-21 -179h-260l22 183q-138 37 -216 146.5t-78 279.5q0 102 29 197t82 173t132 134.5t175 81.5l21 170h260l-20 -164q163 -35 247 -163l-264 -198q-41 64 -122 64q-52 -1 -96 -41.5t-68.5 -106t-24.5 -138.5 q0 -43 11 -73.5t28.5 -44t33.5 -19t32 -5.5z" />
<glyph d="M699 843q26 -16 66.5 -39.5t64 -37t56.5 -34.5t52.5 -37t43.5 -38t37.5 -43.5t26 -48.5t18 -57.5t5.5 -65.5q0 -180 -100.5 -296.5t-275.5 -149.5l-24 -190h-274l24 195q-217 52 -334 235l252 217q48 -73 113.5 -110.5t125.5 -37.5q59 0 89.5 23.5t30.5 57.5 q0 29 -29.5 55t-121.5 80q-8 5 -25 15q-34 19 -51 29.5t-48 30.5t-47.5 33.5t-42 36t-39 41.5t-30.5 45.5t-25.5 53t-14.5 59.5t-6 69q0 169 103 284t268 145l26 210h274l-28 -226q172 -54 257 -190l-250 -208q-50 62 -93 83.5t-92 21.5q-40 0 -66 -22.5t-26 -57.5 q0 -31 22 -61t88 -70z" />
<glyph d="M756 310q34 0 65 8.5t54 22.5t40 33l173 -273q-168 -119 -358 -119q-108 0 -201.5 32t-167 94.5t-120.5 160.5t-58 223h-120l16 134h102q3 50 11 108h-100l17 133h113q70 231 238 368.5t400 137.5q201 0 355 -124l-232 -255q-52 49 -121 49q-79 0 -143 -47t-105 -129h316 l-16 -133h-344q-10 -51 -12 -108h342l-16 -134h-316q13 -56 40 -97t64.5 -63t83.5 -22z" />
<glyph d="M929 1007q-33 46 -74 72t-72 26q-21 0 -39.5 -8.5t-38.5 -29t-35.5 -63t-22.5 -103.5l-6 -51h249l-30 -247h-245l-34 -275h465l-40 -328h-936l40 328h97l34 275h-86l29 247h86l9 73q10 79 29.5 146t45.5 118t60 91.5t71.5 68t81 45.5t88 26t92.5 8q116 0 216 -53.5 t162 -150.5z" />
<glyph d="M1296 1406l-328 -544h96l-16 -132h-159l-64 -106h210l-16 -132h-232l-62 -492h-380l63 492h-246l17 132h224l-38 106h-173l16 132h110l-193 544h421l102 -465h3l212 465h433z" />
<glyph horiz-adv-x="1083" d="M986 518h-299l-42 -344h-289l42 344h-298l36 287h297l43 347h289l-43 -347h300z" />
<glyph d="M642 1155q82 0 133 -48t51 -123q0 -51 -23.5 -92t-67 -64t-99.5 -23q-55 0 -97 22.5t-64.5 62t-22.5 89.5q0 38 14 70.5t38.5 55.5t60 36.5t77.5 13.5zM1033 424h-886l36 287h886zM559 316q82 0 133 -48t51 -123q0 -78 -52.5 -128.5t-137.5 -50.5q-82 0 -133 49t-51 125 q0 77 52.5 126.5t137.5 49.5z" />
<glyph d="M1065 662h-886l36 287h886zM1000 187h-886l36 287h886z" />
<glyph d="M137 340l493 217l-438 212l36 316l834 -414l-27 -236l-934 -404z" />
<glyph d="M1021 340l-36 -309l-834 404l27 236l934 414l-36 -316l-493 -212z" />
<glyph d="M785 101l-198 263l-261 -262l-181 205l262 263l-197 262l222 202l195 -262l262 264l182 -204l-263 -265l197 -264z" />
<glyph d="M1033 424h-299l-42 -344h-289l42 344h-298l36 287h297l43 347h289l-43 -347h300z" />
<glyph horiz-adv-x="1809" d="M1386 1109l-71 -572q-3 -21 -3 -40q0 -36 17.5 -55t50.5 -19q28 0 53 13.5t44 35.5t34.5 51t26 60t18 63t11 59t3.5 49q0 80 -15.5 152.5t-46.5 136t-79 115t-111 89t-145 57.5t-178 20t-181.5 -18t-152.5 -51t-124.5 -76.5t-99 -96t-73 -108.5t-51 -115.5t-29 -115 t-9.5 -108.5q0 -140 43.5 -256.5t120 -194t181 -120t226.5 -42.5q106 0 214.5 32.5t201.5 89.5l99 -145q-112 -78 -246 -121t-269 -43q-165 0 -307 57t-243.5 160t-159 253.5t-57.5 331.5q0 77 15.5 158t50 167t85 164.5t125.5 149t166.5 122t213 82t260.5 30.5 q144 0 266.5 -38t213 -106t154.5 -162t96 -208t32 -241q0 -33 -3.5 -67.5t-12 -75t-21.5 -78.5t-33.5 -76.5t-47.5 -72t-64 -63t-81 -50t-101.5 -32.5t-122.5 -12q-119 0 -186 36q-76 40 -90 129h-4q-102 -149 -256 -149q-44 0 -84 13.5t-74 42t-59 69.5t-39 98.5t-14 125.5 q0 118 32.5 218.5t87.5 169t129 107t155 38.5q132 0 197 -76h4l7 59h310zM865 537q73 0 122.5 71t64.5 188l1 3q-48 39 -111 39q-72 0 -115 -62.5t-43 -146.5q0 -27 10.5 -48t29 -32.5t41.5 -11.5z" />
<glyph d="M505 1473q54 0 99.5 -17.5t77.5 -49.5t50 -79t18 -104q0 -64 -22.5 -123t-63 -103.5t-100 -71t-129.5 -26.5q-76 0 -131.5 30t-83.5 82.5t-28 122.5q0 39 7.5 77t22.5 71.5t35.5 63t47.5 52.5t58 40t67 26t75 9zM484 1288q-20 0 -38 -9.5t-31 -26t-21 -40t-8 -50.5 q0 -35 19.5 -56t52.5 -21q26 0 48.5 16t35.5 43t13 59q0 37 -20 61t-51 24z" />
<glyph horiz-adv-x="1243" d="M1246 786l-34 -268h-231q-45 -255 -197 -396.5t-403 -141.5q-106 0 -187.5 39t-127.5 113.5t-46 173.5q0 112 61 214t167 152q-68 73 -68 177q0 76 28 143t78 116t123.5 77.5t160.5 28.5q71 0 127 -16.5t92.5 -41.5t64.5 -63t43.5 -73.5t27.5 -80.5l-244 -69 q-6 30 -16 49t-31.5 32t-54.5 13q-46 0 -74.5 -30.5t-28.5 -75.5q0 -35 22.5 -53.5t60.5 -18.5h687zM430 252q69 0 128 38t95.5 97t55.5 131h-181q-91 0 -147.5 -52t-56.5 -119q0 -31 13.5 -52.5t37.5 -32t55 -10.5z" />
<glyph horiz-adv-x="525" d="M414 1452l343 2l-265 -311h-316zM-138 -110q31 -24 73 -24t59 36.5t28 131.5l119 969h350l-125 -1018q-14 -113 -45.5 -193.5t-79 -127t-105.5 -67.5t-132 -21q-124 0 -228 48z" />
<glyph horiz-adv-x="929" d="M854 1902l343 2l-265 -311h-316zM208 432q17 -44 46 -70.5t65 -26.5q20 0 35.5 4.5t33 19t30 39.5t24 69t19.5 104l109 884h370l-108 -880q-18 -149 -54.5 -257t-97 -185t-149 -115t-206.5 -38q-111 0 -207 52.5t-148 152.5z" />
</font>
</defs>
</svg>
