<?xml version="1.0" encoding="utf-8"?>
<!-- Generator: Adobe Illustrator 22.0.1, SVG Export Plug-In . SVG Version: 6.00 Build 0)  -->
<svg version="1.1" id="Layer_1" xmlns="http://www.w3.org/2000/svg" xmlns:xlink="http://www.w3.org/1999/xlink" x="0px" y="0px"
	 viewBox="0 0 22.8 23.4" style="enable-background:new 0 0 22.8 23.4;" xml:space="preserve">
<path  d="M22.5,23.1c-0.2,0.2-0.5,0.3-0.7,0.3s-0.5-0.1-0.7-0.3l-5.8-5.8c0,0-0.1-0.1-0.1-0.1c-0.6,0.5-1.3,0.8-2,1.1
	c-1.2,0.5-2.4,0.8-3.7,0.8S7,18.8,5.8,18.3c-1.1-0.5-2.2-1.2-3-2c-0.9-0.9-1.6-1.9-2-3C0.3,12.1,0,10.8,0,9.5S0.3,7,0.7,5.8
	c0.5-1.1,1.2-2.2,2-3c0.9-0.9,1.9-1.6,3-2C7,0.3,8.2,0,9.5,0c0.6,0,1,0.4,1,1s-0.4,1-1,1c-1,0-2,0.2-2.9,0.6C5.7,3,4.9,3.5,4.2,4.2
	C3.5,4.9,3,5.7,2.6,6.6C2.2,7.5,2,8.5,2,9.5s0.2,2,0.6,2.9c0.4,0.9,0.9,1.7,1.6,2.4c0.7,0.7,1.5,1.2,2.4,1.6c1.9,0.8,4,0.8,5.9,0
	c0.9-0.4,1.7-0.9,2.4-1.6c0.7-0.7,1.2-1.5,1.6-2.4c0.4-0.9,0.6-1.9,0.6-2.9s-0.2-2-0.6-2.9c-0.2-0.5,0-1.1,0.5-1.3
	c0.5-0.2,1.1,0,1.3,0.5c0.5,1.2,0.8,2.4,0.8,3.7s-0.3,2.5-0.8,3.7c-0.4,1-1,1.8-1.7,2.6c0,0,0,0,0.1,0l5.8,5.8
	C22.9,22.1,22.9,22.7,22.5,23.1z M16.1,3.7c0.5-0.3,0.7-1,0.4-1.5s-1-0.7-1.5-0.4c-0.5,0.3-0.7,1-0.4,1.5S15.6,4,16.1,3.7z"/>
</svg>
