<?xml version="1.0" standalone="no"?>
<!DOCTYPE svg PUBLIC "-//W3C//DTD SVG 20010904//EN"
 "http://www.w3.org/TR/2001/REC-SVG-20010904/DTD/svg10.dtd">
<svg version="1.0" xmlns="http://www.w3.org/2000/svg"
 width="243.000000pt" height="243.000000pt" viewBox="0 0 243.000000 243.000000"
 preserveAspectRatio="xMidYMid meet">
<metadata>
Created by potrace 1.11, written by Peter Selinger 2001-2013
</metadata>
<g transform="translate(0.000000,243.000000) scale(0.100000,-0.100000)"
fill="#000000" stroke="none">
<path d="M1043 2155 c-47 -20 -57 -47 -49 -132 l6 -73 -275 0 -275 0 -16 -25
c-15 -23 -15 -27 0 -50 l16 -25 417 -2 416 -3 19 -26 c21 -28 18 -57 -8 -84
-13 -13 -61 -15 -312 -15 -253 0 -301 -2 -320 -16 -26 -18 -28 -46 -6 -68 13
-14 48 -16 223 -16 204 0 208 0 229 -23 27 -29 28 -57 3 -88 l-19 -24 -536 -3
-537 -3 -10 -23 c-8 -17 -8 -29 0 -45 l12 -21 693 0 c659 0 695 -1 717 -18 15
-13 22 -30 22 -52 0 -22 -7 -39 -22 -52 -21 -17 -47 -18 -336 -18 -272 0 -316
-2 -329 -16 -21 -21 -20 -40 4 -64 19 -19 33 -20 498 -20 451 0 480 -1 495
-18 23 -25 21 -68 -3 -92 -20 -20 -33 -20 -759 -20 l-740 0 -15 -22 c-20 -29
-20 -34 4 -58 19 -19 33 -20 543 -20 581 0 567 2 567 -64 0 -65 -6 -66 -298
-66 -249 0 -263 -1 -282 -20 -24 -24 -24 -29 -4 -58 15 -21 21 -22 183 -22
149 0 171 -2 192 -18 27 -23 30 -75 5 -100 -15 -15 -48 -17 -277 -20 l-260 -3
-10 -23 c-8 -17 -8 -29 0 -45 11 -20 20 -21 198 -23 l187 -3 1 -68 c0 -63 2
-71 28 -93 31 -27 55 -29 107 -10 42 15 1201 795 1248 839 46 44 59 94 38 139
-10 20 -27 45 -39 56 -28 25 -1184 805 -1223 824 -47 24 -77 28 -111 13z m630
-793 c23 -20 22 -67 -3 -92 -41 -41 -110 -13 -110 43 0 37 7 49 35 65 23 13
52 7 78 -16z m220 0 c23 -20 22 -67 -3 -92 -41 -41 -110 -13 -110 43 0 37 7
49 35 65 23 13 52 7 78 -16z"/>
<path d="M430 1260 c-24 -24 -25 -48 -4 -78 19 -27 64 -29 87 -4 24 26 21 68
-5 86 -30 21 -54 20 -78 -4z"/>
<path d="M430 782 c-28 -22 -30 -70 -4 -89 37 -27 85 -10 99 34 4 17 -1 29
-19 48 -30 30 -46 31 -76 7z"/>
</g>
</svg>
