<?xml version="1.0" standalone="no"?>
<!DOCTYPE svg PUBLIC "-//W3C//DTD SVG 1.1//EN" "http://www.w3.org/Graphics/SVG/1.1/DTD/svg11.dtd" >
<svg xmlns="http://www.w3.org/2000/svg" xmlns:xlink="http://www.w3.org/1999/xlink" version="1.1">
<metadata></metadata>
<defs>
<font id="avertaextrathin_italic" horiz-adv-x="1200" >
<font-face units-per-em="2048" ascent="1581" descent="-467" />
<missing-glyph horiz-adv-x="485" />
<glyph horiz-adv-x="0" />
<glyph horiz-adv-x="682" />
<glyph unicode=" "  horiz-adv-x="485" />
<glyph unicode="&#x09;" horiz-adv-x="485" />
<glyph unicode="&#xa0;" horiz-adv-x="485" />
<glyph unicode="!" horiz-adv-x="410" d="M181 369l132 1139h52l-148 -1139h-36zM169 95q23 0 38.5 -15.5t15.5 -39.5t-16 -40.5t-40 -16.5q-23 0 -37.5 15.5t-14.5 39.5t15.5 40.5t38.5 16.5z" />
<glyph unicode="&#x22;" horiz-adv-x="494" d="M291 1455h55l-132 -446h-43zM449 1455h55l-132 -446h-43z" />
<glyph unicode="#" horiz-adv-x="1152" d="M969 1343h44l-121 -464h254l-5 -44h-261l-98 -382h276l-6 -45h-283l-118 -459h-44l119 459h-353l-120 -459h-43l119 459h-242l6 45h247l100 382h-265l5 44h271l120 464h45l-121 -464h354zM837 835h-354l-100 -382h355z" />
<glyph unicode="$" horiz-adv-x="1047" d="M662 1359q58 -5 113.5 -24.5t105 -51.5t88.5 -74l-36 -38q-61 67 -145 104.5t-173 37.5q-70 0 -131.5 -20t-106.5 -55.5t-71 -89t-26 -116.5q0 -33 9 -63.5t21.5 -53.5t38 -48t45 -41.5t56 -39t58 -34.5t63.5 -35q3 -1 4 -2q38 -20 58.5 -31.5t54.5 -31.5t54 -34 t47.5 -34.5t43.5 -38t35 -40.5t28.5 -45t16 -48.5t6.5 -54.5q0 -163 -112.5 -263t-294.5 -100h-17l-31 -251h-42l31 255q-105 12 -201.5 65.5t-158.5 146.5l39 36q69 -104 168.5 -154t212.5 -50q161 0 259.5 86t98.5 227q0 30 -9 57.5t-21.5 49t-38 46t-45 40t-56.5 38.5 t-59 35.5t-66 36.5q-15 9 -23 13q-44 24 -67.5 37.5t-63.5 38.5t-62 44t-50.5 47.5t-43 55.5t-25 62t-10.5 73q0 147 107.5 239.5t279.5 92.5h3l31 260h42z" />
<glyph unicode="%" horiz-adv-x="1861" d="M1346 1453l-742 -1468l-41 17l742 1468zM556 1460q159 0 263 -100.5t104 -260.5q0 -52 -11 -100.5t-31 -90.5t-48 -79t-63.5 -65t-76 -48.5t-86.5 -31t-94 -10.5q-156 0 -259 102.5t-103 262.5q0 175 118 298t287 123zM556 1415q-99 0 -182 -51t-130.5 -137t-47.5 -188 q0 -141 89.5 -230.5t227.5 -89.5q75 0 142.5 29t116.5 79.5t77.5 121t28.5 150.5q0 93 -41.5 165t-114.5 111.5t-166 39.5zM1381 779q159 0 263 -100.5t104 -260.5q0 -90 -32.5 -169.5t-87.5 -135t-130.5 -88t-159.5 -32.5q-156 0 -259 102.5t-103 262.5q0 86 32 163.5 t85.5 134t129 90t158.5 33.5zM1381 734q-99 0 -182 -51t-130.5 -137t-47.5 -188q0 -93 41 -166.5t113.5 -113.5t162.5 -40q76 0 143.5 29t116 79.5t77 121t28.5 150.5q0 141 -90.5 228.5t-231.5 87.5z" />
<glyph unicode="&#x26;" horiz-adv-x="1457" d="M1435 849l-5 -46h-364q-7 -134 -34.5 -252t-79 -221t-124 -177.5t-174.5 -117t-225 -42.5q-156 0 -251 94.5t-95 253.5q0 169 89 299.5t224 182.5q-62 31 -103 93.5t-41 147.5q0 80 29 152.5t81 127t129 86.5t168 32q132 0 212.5 -68.5t94.5 -184.5l-44 -16 q-11 103 -79 162.5t-186 59.5q-109 0 -191.5 -48.5t-124 -128t-41.5 -177.5q0 -86 50.5 -149t129.5 -63h955zM431 39q131 0 238 55t181.5 155t118 241t51.5 313h-508q-71 0 -140.5 -37.5t-123 -99.5t-86.5 -147.5t-33 -174.5q0 -135 79.5 -220t222.5 -85z" />
<glyph unicode="'" horiz-adv-x="336" d="M291 1455h55l-132 -446h-43z" />
<glyph unicode="(" horiz-adv-x="464" d="M188 347q0 297 81.5 591.5t232.5 539.5l-35 21q-155 -248 -239.5 -552t-84.5 -610q0 -302 94 -617l44 20q-93 313 -93 607z" />
<glyph unicode=")" horiz-adv-x="465" d="M348 871q0 358 -104 630l-41 -25q100 -271 100 -612q0 -303 -77.5 -576.5t-228.5 -549.5l39 -16q155 282 233.5 563.5t78.5 585.5z" />
<glyph unicode="*" horiz-adv-x="785" d="M684 968l-201 148l-28 -285h-43l41 285l-234 -151l-17 43l242 134l-211 136l27 40l200 -148l29 285h43l-42 -285l235 150l17 -42l-244 -136l212 -134z" />
<glyph unicode="+" horiz-adv-x="1113" d="M986 543h-400l-55 -449h-45l55 449h-403l5 45h403l56 450h45l-56 -450h400z" />
<glyph unicode="," horiz-adv-x="327" d="M105 184h56l-136 -446h-40z" />
<glyph unicode="-" horiz-adv-x="779" d="M669 606h-531l5 48h531z" />
<glyph unicode="." horiz-adv-x="364" d="M126 95q23 0 38.5 -15.5t15.5 -39.5t-16 -40.5t-40 -16.5q-23 0 -37.5 15.5t-14.5 39.5t15.5 40.5t38.5 16.5z" />
<glyph unicode="/" horiz-adv-x="681" d="M830 1506l-929 -1741l-37 19l930 1744z" />
<glyph unicode="0" horiz-adv-x="1156" d="M699 1414q81 0 147 -32t116 -95.5t77.5 -166t27.5 -236.5q0 -93 -10.5 -184t-32.5 -179.5t-54.5 -167t-78.5 -144.5t-102 -114t-128 -75t-153 -27q-78 0 -144 32t-117 95t-80 165.5t-29 234.5q0 108 15.5 214.5t45.5 207t77.5 186t108 149.5t141.5 100.5t173 36.5z M697 1366q-85 0 -159 -35t-129 -96.5t-98.5 -142.5t-70 -176t-40.5 -194.5t-14 -199.5q0 -98 17 -178.5t47 -136t71.5 -93.5t88.5 -55.5t100 -17.5q66 0 125 20t106 56t87.5 86t70.5 110.5t53.5 128.5t37.5 142t21.5 148.5t7.5 149.5q0 100 -16 181t-45 136.5t-69.5 93.5 t-88.5 55.5t-103 17.5z" />
<glyph unicode="1" horiz-adv-x="634" d="M488 1407h47l-173 -1407h-47l164 1339l-324 -248l-25 40z" />
<glyph unicode="2" horiz-adv-x="918" d="M87 51l-1 -4h688l-6 -47h-762l6 46l507 483q70 67 121.5 126.5t96.5 129.5t68.5 145.5t23.5 155.5q0 76 -27.5 138t-86.5 102t-141 40q-118 0 -222.5 -68.5t-156.5 -185.5l-39 26q58 124 172 200t248 76q131 0 216 -92t85 -236q0 -68 -17 -135t-45.5 -124.5t-71.5 -117.5 t-87.5 -109.5t-100.5 -102.5z" />
<glyph unicode="3" horiz-adv-x="943" d="M629 735q99 -32 151.5 -109t52.5 -187q0 -132 -57 -233.5t-158.5 -157t-230.5 -55.5q-149 0 -245 70t-126 186l43 20q27 -105 110.5 -166.5t218.5 -61.5q178 0 287.5 111.5t109.5 291.5q0 122 -77 195.5t-225 73.5h-133l6 47h138q155 0 251 99.5t96 258.5 q0 120 -74.5 184t-200.5 64q-215 0 -359 -182l-39 29q167 201 400 201q145 0 233 -76.5t88 -218.5q0 -141 -70 -241.5t-189 -139.5z" />
<glyph unicode="4" horiz-adv-x="1002" d="M729 315h197l-6 -47h-197l-33 -268h-47l33 268h-655l6 48l791 1091h45zM682 315l121 991l-718 -991h597z" />
<glyph unicode="5" horiz-adv-x="1003" d="M972 1360h-594l-95 -554q51 36 124 52t138 16q172 0 270 -92.5t98 -269.5q0 -149 -62.5 -267.5t-175.5 -185t-255 -66.5q-132 0 -231 71.5t-132 185.5l43 18q34 -105 119 -166t203 -61q129 0 230.5 61.5t157 168.5t55.5 239q0 156 -84.5 236t-237.5 80q-73 0 -155 -22.5 t-124 -63.5l-40 6l115 661h639z" />
<glyph unicode="6" horiz-adv-x="1069" d="M630 868q156 0 248.5 -99.5t92.5 -257.5q0 -108 -38.5 -204t-104 -164.5t-154.5 -108.5t-186 -40q-172 0 -271.5 114t-99.5 304q0 132 35 269.5t101.5 263.5t156 230.5t205 178t241.5 99.5l1 -48q-121 -25 -232.5 -99t-196.5 -178.5t-146.5 -230t-91.5 -257.5l3 -1 q71 108 186.5 168.5t250.5 60.5zM489 42q86 0 165.5 36t138.5 98t94.5 150t35.5 187q0 140 -80 223.5t-220 83.5q-158 0 -278.5 -87.5t-176.5 -231.5q-3 -41 -3 -79q0 -173 85.5 -276.5t238.5 -103.5z" />
<glyph unicode="7" horiz-adv-x="906" d="M178 1407h778l-6 -49l-739 -1375l-44 19l731 1358h-726z" />
<glyph unicode="8" horiz-adv-x="1068" d="M705 760q114 -24 179.5 -106t65.5 -203q0 -133 -64 -237.5t-176 -162t-252 -57.5q-177 0 -276.5 91.5t-99.5 243.5q0 153 91 273t246 158v2q-28 7 -54 20t-51 34.5t-43.5 48.5t-30 65.5t-11.5 83.5q0 115 54 206.5t150 142.5t216 51q149 0 235.5 -80t86.5 -210 q0 -125 -75.5 -229.5t-190.5 -131.5v-3zM277 1023q0 -118 78 -178.5t213 -60.5q96 0 177 41.5t129.5 118t48.5 171.5q0 123 -75 187t-209 64q-102 0 -185 -45.5t-130 -124t-47 -173.5zM468 42q121 0 221 53.5t156.5 145.5t56.5 204q0 144 -90.5 217.5t-242.5 73.5 q-96 0 -178.5 -31.5t-139.5 -85.5t-89 -127.5t-32 -156.5q0 -139 93 -216t245 -77z" />
<glyph unicode="9" horiz-adv-x="1076" d="M654 1414q166 0 261.5 -110t95.5 -318q0 -109 -27 -224t-75 -221t-118 -204t-152.5 -175.5t-181.5 -133t-203 -78.5v48q123 28 238.5 106t205.5 186t154.5 239.5t92.5 267.5l-3 1q-80 -119 -198 -191t-268 -72q-99 0 -173 44.5t-112 122t-38 177.5q0 108 37.5 206 t102.5 170.5t159.5 115.5t201.5 43zM476 583q93 0 178 32t165.5 106.5t140.5 185.5q3 41 3 81q-1 78 -16 140.5t-42 106.5t-65 73.5t-84.5 43.5t-101.5 14q-96 0 -180.5 -38.5t-144 -103t-94 -152t-34.5 -182.5q0 -139 70 -223t205 -84z" />
<glyph unicode=":" horiz-adv-x="351" d="M231 1009q15 0 27.5 -7t19.5 -19.5t7 -28.5q0 -24 -16 -40.5t-40 -16.5q-15 0 -27 7t-18.5 19.5t-6.5 28.5q0 24 15.5 40.5t38.5 16.5zM119 95q23 0 38.5 -15.5t15.5 -39.5t-16 -40.5t-40 -16.5q-23 0 -37.5 15.5t-14.5 39.5t15.5 40.5t38.5 16.5z" />
<glyph unicode=";" horiz-adv-x="359" d="M250 1009q23 0 38.5 -15.5t15.5 -39.5t-16 -40.5t-40 -16.5q-23 0 -37.5 15.5t-14.5 39.5t15.5 40.5t38.5 16.5zM124 184h56l-136 -446h-40z" />
<glyph unicode="&#x3c;" horiz-adv-x="1059" d="M863 184l-6 -51l-741 431l4 31l846 432l-6 -51l-772 -397z" />
<glyph unicode="=" horiz-adv-x="1068" d="M1013 772h-848l5 45h848zM963 314h-848l5 45h848z" />
<glyph unicode="&#x3e;" horiz-adv-x="1052" d="M119 184l771 395l-674 397l6 51l740 -432l-4 -31l-846 -431z" />
<glyph unicode="?" horiz-adv-x="790" d="M195 1290q56 85 139 130.5t176 45.5q113 0 180.5 -66t67.5 -190q0 -50 -10 -95.5t-26.5 -83t-44 -78t-56 -73t-69.5 -75.5q-11 -11 -37 -38.5t-37.5 -39t-33 -36t-32.5 -39.5t-26.5 -38t-23 -42t-15 -42.5t-10.5 -47.5l-15 -122h40l17 124q2 16 6.5 32t10 29.5t15 29.5 t17 27.5t21 28l22.5 27.5t25.5 28.5t26.5 27.5l29.5 29.5t29.5 30.5q53 55 87 96t68.5 95t51 112.5t16.5 123.5q0 141 -77 227.5t-211 86.5q-99 0 -191 -49t-160 -143zM320 95q23 0 38.5 -15.5t15.5 -39.5t-16 -40.5t-40 -16.5q-15 0 -27 7t-18.5 19.5t-6.5 28.5 q0 24 15.5 40.5t38.5 16.5z" />
<glyph unicode="@" horiz-adv-x="1840" d="M1005 1332q158 0 293.5 -51t232 -143.5t151.5 -228t55 -297.5q0 -37 -4.5 -76.5t-14.5 -84t-26.5 -87t-38.5 -83t-53.5 -74.5t-69 -59.5t-86.5 -40t-105 -14.5q-70 0 -108.5 45.5t-38.5 138.5q0 23 4 71l5 38q-61 -121 -165.5 -195t-226.5 -74q-92 0 -159 38.5t-104 114 t-37 181.5q0 79 18.5 152t56 136t90.5 110t127 74t161 27q89 0 171 -28.5t124 -78.5l11 101h45l-71 -581q-4 -37 -4 -72q0 -50 8 -82t25.5 -46t34 -18.5t43.5 -4.5q63 0 116 23t89 62t63.5 86.5t42.5 102t22.5 103.5t7.5 94q0 153 -50.5 280t-141 213.5t-217 134 t-276.5 47.5q-125 0 -236 -27.5t-195.5 -75t-154 -113t-117 -139.5t-80 -155.5t-47.5 -161t-15 -156.5q0 -147 50.5 -273.5t139 -215.5t212 -139t266.5 -50q275 0 467 109l29 -38q-207 -118 -496 -118q-152 0 -284 53.5t-227 148.5t-149.5 230.5t-54.5 292.5 q0 75 14.5 155.5t47.5 166.5t81.5 165t121.5 150t162 123.5t208.5 83t256.5 30.5zM818 163q68 0 136.5 33.5t123.5 89t95 133t51 161.5l26 210q-44 54 -126 83.5t-158 29.5q-98 0 -177 -37t-129 -100t-76.5 -143t-26.5 -170q0 -134 65 -212t196 -78z" />
<glyph unicode="A" horiz-adv-x="1199" d="M1027 0l-99 432h-673l-203 -432h-51l684 1455h55l336 -1455h-49zM277 479h640l-209 912h-3z" />
<glyph unicode="B" horiz-adv-x="1175" d="M785 761q115 -22 185 -94.5t70 -201.5q0 -209 -148 -337t-372 -128h-386l177 1455h413q45 0 85.5 -6.5t78.5 -20t68.5 -36t53 -52.5t35 -72.5t12.5 -93.5t-10.5 -102t-33 -98.5t-54 -88t-76 -72t-97.5 -48.5zM353 1408l-77 -626h362q66 0 124 19.5t103 55.5t77.5 84.5 t49.5 107.5t17 124q0 56 -16 98.5t-51 73.5t-92.5 47t-136.5 16h-360zM524 47q95 0 180 28.5t149 80.5t101.5 129t37.5 169q0 143 -88.5 212t-269.5 69h-363l-85 -688h338z" />
<glyph unicode="C" horiz-adv-x="1370" d="M1216 233q-99 -109 -236 -174.5t-279 -65.5q-250 0 -398.5 166.5t-148.5 448.5q0 132 34 259t99.5 234t153 188t201 127t237.5 46q301 0 496 -313l-42 -26q-93 156 -201 223.5t-249 67.5q-118 0 -225.5 -44t-189 -121t-142 -178t-92 -219.5t-31.5 -241.5 q0 -264 134.5 -416.5t365.5 -152.5q124 0 251 56.5t225 164.5z" />
<glyph unicode="D" horiz-adv-x="1350" d="M475 0h-341l177 1455h363q277 0 428.5 -157t151.5 -434q0 -186 -57 -346.5t-158.5 -274.5t-247 -178.5t-316.5 -64.5zM474 47q160 0 297 61.5t232.5 169.5t149 258.5t53.5 324.5q0 259 -138 403t-396 144h-318l-167 -1361h287z" />
<glyph unicode="E" horiz-adv-x="1086" d="M938 47l-5 -47h-799l177 1455h760l-5 -47h-713l-81 -656h599l-5 -47h-599l-81 -658h752z" />
<glyph unicode="F" horiz-adv-x="1048" d="M353 1408l-81 -661h646l-5 -47h-646l-86 -700h-47l177 1455h795l-5 -47h-748z" />
<glyph unicode="G" horiz-adv-x="1443" d="M1300 698l-62 -513q-103 -95 -242 -143.5t-280 -48.5q-175 0 -302.5 75t-193.5 212.5t-66 324.5q0 95 17.5 188.5t51.5 177.5t81.5 159t110 135.5t134.5 104.5t158 68t177 24q273 0 461 -222l-34 -36q-176 210 -425 210q-119 0 -227 -43.5t-190 -120t-142.5 -178 t-92 -221.5t-31.5 -246q0 -262 135.5 -413t380.5 -151q129 0 256 43t219 123l54 444h-491l6 47h537z" />
<glyph unicode="H" horiz-adv-x="1335" d="M1258 1455l-177 -1455h-47l81 662h-853l-81 -662h-47l177 1455h47l-91 -746h853l91 746h47z" />
<glyph unicode="I" horiz-adv-x="463" d="M195 0h-47l177 1455h47z" />
<glyph unicode="J" horiz-adv-x="890" d="M50 225q52 -87 127.5 -135.5t150.5 -48.5q293 0 340 387l125 1027h47l-126 -1030q-27 -222 -123.5 -327t-264.5 -105q-82 0 -167 51t-140 143z" />
<glyph unicode="K" horiz-adv-x="1175" d="M1185 1455l-620 -689l452 -766h-58l-427 726h-4l-300 -333l-47 -393h-47l177 1455h47l-119 -980h3l883 980h60z" />
<glyph unicode="L" horiz-adv-x="1001" d="M908 47l-5 -47h-769l177 1455h47l-172 -1408h722z" />
<glyph unicode="M" horiz-adv-x="1630" d="M1507 1455h46l-177 -1455h-47l164 1347h-3l-676 -1029h-39l-427 1034h-2l-165 -1352h-47l177 1455h46l442 -1073h5z" />
<glyph unicode="N" horiz-adv-x="1401" d="M1275 1455h47l-177 -1455h-45l-750 1362h-2l-167 -1362h-47l177 1455h42l752 -1363h3z" />
<glyph unicode="O" horiz-adv-x="1550" d="M888 1462q127 0 230.5 -39.5t178 -115t115.5 -190t41 -258.5q0 -139 -33 -268.5t-97 -237.5t-152.5 -189t-205.5 -126t-249 -45q-126 0 -230.5 41t-178 117.5t-114 190.5t-40.5 255q0 135 33.5 264t98.5 237t153.5 190t204.5 128t245 46zM717 41q124 0 233.5 42.5 t191.5 118.5t142 177.5t90.5 223.5t30.5 254q0 266 -138 411.5t-380 145.5q-101 0 -194 -31t-167.5 -86t-136 -131.5t-102.5 -166.5t-63.5 -193t-22.5 -209q0 -262 138.5 -409t377.5 -147z" />
<glyph unicode="P" horiz-adv-x="1116" d="M741 1455q174 0 265.5 -90.5t91.5 -248.5q0 -145 -57 -255.5t-167 -173.5t-258 -63h-359l-76 -624h-47l177 1455h430zM619 671q134 0 232.5 58t148.5 158t50 230q0 77 -23.5 134t-67 91t-98.5 50t-124 16h-384l-90 -737h356z" />
<glyph unicode="Q" horiz-adv-x="1569" d="M1453 859q0 -189 -60.5 -357t-171.5 -289l163 -184l-36 -36l-163 184q-195 -184 -469 -184q-126 0 -230.5 41t-178 117.5t-114 190.5t-40.5 255q0 135 33.5 264t98.5 237t153.5 190t204.5 128t245 46q127 0 230.5 -39.5t178 -115t115.5 -190t41 -258.5zM717 41 q254 0 437 172l-170 192l35 37l170 -193q103 114 159 271.5t56 336.5q0 177 -63 303t-178.5 190t-275.5 64q-101 0 -194 -31t-167.5 -86t-136 -131.5t-102.5 -166.5t-63.5 -193t-22.5 -209q0 -262 138.5 -409t377.5 -147z" />
<glyph unicode="R" horiz-adv-x="1179" d="M669 626v-5l314 -621h-56l-317 624h-353l-76 -624h-47l177 1455h430q116 0 197 -42t120.5 -117.5t39.5 -179.5q0 -206 -114.5 -339.5t-314.5 -150.5zM353 1408l-90 -737h356q134 0 232.5 58t148.5 158t50 230q0 77 -23.5 134t-67 91t-99 50t-123.5 16h-384z" />
<glyph unicode="S" horiz-adv-x="1075" d="M575 766q41 -22 62.5 -34t59.5 -34t58.5 -36.5t50.5 -37t47 -41t37 -43t30.5 -48t17.5 -52t7 -58.5q0 -175 -121 -282t-316 -107q-81 0 -161 23.5t-157.5 77t-129.5 130.5l39 35q73 -111 181.5 -164.5t229.5 -53.5q171 0 279 92t108 247q0 26 -6 50t-15 44t-26.5 41.5 t-32 37.5t-41.5 36t-45 32t-52 32t-53 30.5t-56 30.5q-11 6 -16 9q-67 36 -102 57t-90 60.5t-82.5 74t-49.5 85t-22 106.5q0 157 115 256.5t300 99.5q105 0 205 -43t171 -119l-37 -37q-44 48 -100 82.5t-117.5 51.5t-124.5 17q-102 0 -184 -36.5t-131 -106.5t-49 -161 q0 -28 6 -54t14.5 -47.5t26 -44t31.5 -38.5t40 -35.5t43 -32t49 -31.5t49.5 -28.5l52.5 -28.5q5 -3 7 -4z" />
<glyph unicode="T" horiz-adv-x="1016" d="M1074 1408h-433l-172 -1408h-47l172 1408h-427l5 47h907z" />
<glyph unicode="U" horiz-adv-x="1309" d="M1145 569q-36 -287 -179 -431.5t-380 -144.5q-105 0 -183.5 33t-127.5 94.5t-73.5 145.5t-24.5 190q0 56 8 125l107 874h47l-107 -876q-10 -66 -10 -121q0 -96 21.5 -171.5t65.5 -131t114.5 -85t163.5 -29.5q215 0 347.5 132.5t164.5 397.5l107 884h47z" />
<glyph unicode="V" horiz-adv-x="1181" d="M1185 1455h50l-680 -1455h-46l-326 1455h49l307 -1374h4z" />
<glyph unicode="W" horiz-adv-x="1849" d="M1844 1455h50l-602 -1455h-55l-202 1375h-4l-537 -1375h-55l-248 1455h49l232 -1373h4l535 1373h59l202 -1374h4z" />
<glyph unicode="X" horiz-adv-x="1138" d="M1185 1455l-560 -733l379 -722h-53l-356 676h-3l-521 -676h-57l556 723l-381 732h52l358 -685h4l523 685h59z" />
<glyph unicode="Y" horiz-adv-x="1036" d="M1060 1455h56l-554 -793l-81 -662h-47l81 662l-358 793h52l332 -736h4z" />
<glyph unicode="Z" horiz-adv-x="1123" d="M1088 1407l-962 -1356v-4h804l-5 -47h-864l5 44l965 1361v3h-749l5 47h806z" />
<glyph unicode="[" horiz-adv-x="517" d="M335 1440l-207 -1686h220l-5 -41h-262l217 1769h262l-5 -42h-220z" />
<glyph unicode="\" horiz-adv-x="681" d="M99 1506l40 22l504 -1744l-40 -19z" />
<glyph unicode="]" horiz-adv-x="517" d="M414 1440h-220l5 42h262l-217 -1769h-262l5 41h220z" />
<glyph unicode="^" horiz-adv-x="883" d="M211 1023l322 432h51l216 -432h-56l-190 386l-286 -386h-57z" />
<glyph unicode="_" horiz-adv-x="936" d="M878 -102h-966l5 45h966z" />
<glyph unicode="`" horiz-adv-x="969" d="M480 1398l193 -276h-57l-197 276h61z" />
<glyph unicode="a" horiz-adv-x="1087" d="M950 992h45l-121 -992h-45l39 319h-3q-33 -70 -75 -127.5t-95 -102.5t-118.5 -70.5t-137.5 -25.5q-105 0 -183.5 52.5t-118 141t-39.5 200.5q0 125 37 236.5t103 195t163.5 132t212.5 48.5q61 0 121 -14t112.5 -42.5t85.5 -67.5h3zM440 39q73 0 140.5 31t120.5 85 t95.5 124t68.5 149.5t36 161.5l27 222q-27 42 -69.5 72t-89.5 44t-85 19.5t-73 5.5q-104 0 -192 -45.5t-148 -123t-93.5 -181t-33.5 -218.5q0 -154 77.5 -250t218.5 -96z" />
<glyph unicode="b" horiz-adv-x="1117" d="M673 999q113 0 192 -53.5t116.5 -145.5t37.5 -215q0 -94 -23 -182t-69 -162t-109 -129.5t-148 -87t-182 -31.5q-222 0 -363 98l173 1417h45l-102 -833h4q32 69 74.5 126.5t95.5 102.5t119.5 70t138.5 25zM491 39q109 0 201 45t153 121t94.5 175t33.5 207q0 66 -11 121.5 t-35 101t-59 77.5t-85 49t-111 17q-74 0 -142.5 -31t-121.5 -85t-95.5 -124t-68.5 -149.5t-36 -161.5l-35 -289q118 -74 318 -74z" />
<glyph unicode="c" horiz-adv-x="973" d="M454 -7q-68 0 -131.5 27t-114.5 76.5t-81.5 127.5t-30.5 172q0 122 36.5 231.5t102.5 192t165 131t217 48.5q60 0 116.5 -15.5t110.5 -52t90 -90.5l-39 -30q-47 72 -120.5 107t-158.5 35q-107 0 -197.5 -45t-150.5 -121.5t-93 -177.5t-33 -213q0 -156 90.5 -256.5 t227.5 -100.5q116 0 202.5 38t152.5 119l35 -27q-29 -36 -61.5 -64.5t-69.5 -49.5t-78 -35t-87.5 -20.5t-99.5 -6.5z" />
<glyph unicode="d" horiz-adv-x="1113" d="M1017 1508h45l-184 -1508h-45l39 321h-2q-33 -70 -75.5 -128t-95.5 -103.5t-119.5 -71t-139.5 -25.5q-105 0 -183.5 52.5t-118 141t-39.5 200.5q0 125 37 236.5t103 195t163.5 132t212.5 48.5q95 0 183.5 -33.5t137.5 -93.5h3zM441 39q74 0 142 31t121.5 85t96 124 t68.5 149.5t36 161.5l27 218q-27 43 -70 73.5t-90 45t-86 20.5t-74 6q-104 0 -192 -45.5t-148 -123t-93.5 -181t-33.5 -218.5q0 -154 77.5 -250t218.5 -96z" />
<glyph unicode="e" horiz-adv-x="941" d="M478 39q180 0 315 157l35 -27q-144 -176 -351 -176q-112 0 -198 49t-134.5 142.5t-48.5 218.5q0 121 38.5 230.5t105 190t162.5 128t205 47.5q30 0 64 -5.5t75 -21t73 -39.5t53.5 -65.5t21.5 -93.5q0 -55 -26 -103t-69 -84.5t-104.5 -67.5t-127.5 -52.5t-142 -38 t-144.5 -26.5t-138.5 -16q5 -162 96 -254.5t240 -92.5zM606 953q-128 0 -232.5 -70.5t-164.5 -189t-66 -261.5q75 6 150 17.5t157 30t151.5 46t126 62t88.5 82t32 101.5q0 43 -18 77t-44 53t-60.5 31.5t-63.5 16.5t-56 4z" />
<glyph unicode="f" horiz-adv-x="580" d="M704 1419q-63 50 -163 50q-81 0 -134 -59.5t-70 -199.5l-26 -218h314l-5 -45h-314l-116 -947h-45l116 947h-126l5 45h126l28 231q18 152 81.5 222t169.5 70q99 0 173 -48z" />
<glyph unicode="g" horiz-adv-x="1090" d="M948 992h45l-105 -857q-16 -131 -51 -228.5t-81 -157.5t-110.5 -97t-132 -50.5t-152.5 -13.5q-170 0 -320 77l14 49q144 -80 309 -80q77 0 137.5 12t119.5 46t101.5 89.5t74.5 146t47 212.5l25 207h-3q-25 -54 -56.5 -101t-72.5 -88.5t-86.5 -71t-100.5 -46.5t-113 -17 q-105 0 -183.5 52.5t-118 141t-39.5 200.5q0 114 37 219t103 186t164 129t212 48q94 0 181.5 -33t137.5 -91h3zM438 69q60 0 116.5 21t103.5 57.5t87.5 85.5t70.5 105.5t51 116.5t30 120l29 237q-28 42 -70.5 72t-89 44t-84.5 19.5t-73 5.5q-103 0 -192 -45t-148.5 -120 t-93 -172t-33.5 -201q0 -154 77.5 -250t218.5 -96z" />
<glyph unicode="h" horiz-adv-x="1089" d="M702 999q299 0 246 -403l-78 -596h-45l78 595q8 72 8 126.5t-13 94.5t-30.5 66t-45 42t-56.5 22.5t-65 6.5q-79 0 -162 -42t-150.5 -111.5t-116 -166t-60.5 -199.5l-53 -434h-45l184 1508h45l-103 -844h3q48 99 122.5 175t162 118t174.5 42z" />
<glyph unicode="i" horiz-adv-x="419" d="M309 1352q23 0 38.5 -15.5t15.5 -39.5t-16 -40.5t-40 -16.5q-23 0 -37.5 15.5t-14.5 39.5q0 12 4 22.5t11 18t17.5 12t21.5 4.5zM247 992h45l-121 -992h-45z" />
<glyph unicode="j" horiz-adv-x="330" d="M256 1352q15 0 27.5 -7t19.5 -19.5t7 -28.5q0 -24 -16 -40.5t-40 -16.5q-23 0 -37.5 15.5t-14.5 39.5t15.5 40.5t38.5 16.5zM-228 -333q21 -15 40.5 -22.5t32 -9t32.5 -1.5q34 0 59 8.5t50 32t42.5 71.5t26.5 120l137 1126h45l-138 -1128q-9 -70 -24.5 -120t-42 -85.5 t-66 -53t-92.5 -17.5q-61 0 -111 31z" />
<glyph unicode="k" horiz-adv-x="945" d="M667 245q38 -87 63.5 -130.5t44.5 -58.5t46 -20l-13 -43q-14 0 -31 5q-18 6 -34.5 20t-28.5 28.5t-27.5 44t-24.5 49.5t-27 61q-7 16 -11 25l-99 226h-3q-165 -146 -336 -231l-27 -221h-45l184 1508h45l-150 -1229h5q225 120 411.5 321t248.5 392h48 q-40 -131 -131 -260.5t-215 -245.5z" />
<glyph unicode="l" horiz-adv-x="403" d="M309 1508h45l-184 -1508h-45z" />
<glyph unicode="m" horiz-adv-x="1666" d="M1296 999q292 0 239 -403l-78 -596h-45l78 595q8 72 8 126.5t-12.5 94.5t-30 66t-44 42t-54.5 22.5t-62 6.5q-93 0 -185 -68.5t-158 -186t-86 -253.5l-57 -445h-45l77 595q8 72 8 126.5t-12 94.5t-28.5 66t-42.5 42t-54 22.5t-63 6.5q-69 0 -141.5 -41t-132.5 -109 t-104 -163t-58 -196l-54 -444h-45l121 992h45l-38 -314h3q68 144 179.5 232.5t225.5 88.5q257 0 243 -319h4q67 144 176 231.5t223 87.5z" />
<glyph unicode="n" horiz-adv-x="1089" d="M702 999q299 0 246 -403l-78 -596h-45l78 595q8 72 8 126.5t-13 94.5t-30.5 66t-45 42t-56.5 22.5t-65 6.5q-77 0 -157.5 -39.5t-147 -105t-116 -156.5t-65.5 -189l-56 -463h-45l121 992h45l-40 -327h3q74 149 201 241.5t258 92.5z" />
<glyph unicode="o" horiz-adv-x="1096" d="M610 999q179 0 285 -105.5t106 -297.5q0 -126 -36 -236t-100.5 -191.5t-161 -128.5t-211.5 -47q-181 0 -289 109t-108 303q0 119 36.5 226.5t101.5 189t163 130t214 48.5zM610 953q-134 0 -241.5 -71.5t-167.5 -196.5t-60 -280q0 -172 94.5 -269t256.5 -97q134 0 239 69 t164.5 196.5t59.5 291.5q0 171 -91 264t-254 93z" />
<glyph unicode="p" horiz-adv-x="1114" d="M673 999q108 0 187.5 -52.5t119 -141t39.5 -200.5q0 -125 -37 -236.5t-103.5 -195t-165.5 -132t-215 -48.5q-95 0 -184.5 34t-137.5 94h-2l-65 -526h-45l171 1397h45l-39 -319h3q32 70 75 127.5t96 102.5t119.5 70.5t138.5 25.5zM501 39q105 0 194.5 45.5t150 123t94 181 t33.5 218.5q0 100 -33.5 177.5t-102.5 123t-165 45.5q-74 0 -142 -31t-121.5 -85t-96 -124t-68.5 -149.5t-36 -161.5l-27 -218q27 -43 70 -73.5t90 -45t86 -20.5t74 -6z" />
<glyph unicode="q" horiz-adv-x="1096" d="M951 992h45l-170 -1397h-45l88 724h-3q-33 -70 -75 -127.5t-95 -102.5t-118.5 -70.5t-137.5 -25.5q-105 0 -183.5 52.5t-118 141t-39.5 200.5q0 125 37 236.5t103 195t163.5 132t212.5 48.5q46 0 91.5 -8t87.5 -23.5t78.5 -39.5t61.5 -53h3zM441 39q73 0 140.5 31 t120.5 85t95.5 124t68.5 149.5t36 161.5l27 222q-27 42 -69.5 72t-89.5 44t-85 19.5t-73 5.5q-104 0 -192 -45.5t-148 -123t-93.5 -181t-33.5 -218.5q0 -154 77.5 -250t218.5 -96z" />
<glyph unicode="r" horiz-adv-x="558" d="M247 691q55 120 145.5 199t208.5 109l-6 -60q-148 -34 -252 -168t-130 -324l-54 -447h-45l121 992h45l-37 -301h4z" />
<glyph unicode="s" horiz-adv-x="801" d="M59 168q62 -66 133.5 -97.5t160.5 -31.5q125 0 203.5 59t78.5 161q0 27 -7.5 51t-18 41.5t-32 35.5t-37.5 29.5t-46.5 26.5t-48 22.5l-52.5 22.5q-15 6 -23 9q-42 18 -70.5 32t-62.5 36.5t-54 46.5t-33.5 59t-13.5 76q0 46 16 87t44 70.5t66 51t81.5 32.5t90.5 11 q81 0 146 -26.5t124 -91.5l-31 -34q-55 60 -112 83t-135 23q-66 0 -121 -24.5t-89 -73.5t-34 -113q0 -31 11.5 -57.5t29 -46t47 -39t56 -32.5t64.5 -29q9 -4 28 -12q37 -15 56 -23.5t52 -25t50.5 -29.5t41 -33.5t35 -41.5t20 -49.5t8.5 -60.5q0 -53 -18 -97.5t-48.5 -75.5 t-72.5 -53.5t-89.5 -33t-99.5 -10.5q-101 0 -180 34t-145 105z" />
<glyph unicode="t" horiz-adv-x="673" d="M518 115l7 -52q-96 -70 -211 -70q-71 0 -110.5 34t-47.5 94t1 142l84 684h-123l5 45h123l44 358l45 6l-44 -364h355l-5 -45h-355l-84 -685q-7 -47 -5 -88t12 -71t37.5 -47t71.5 -17q104 0 200 76z" />
<glyph unicode="u" horiz-adv-x="1050" d="M905 992h45l-121 -992h-45l38 314h-3q-69 -145 -183 -233t-234 -88q-154 0 -222.5 96.5t-42.5 306.5l74 596h45l-74 -595q-7 -72 -6.5 -126.5t14.5 -94.5t32.5 -66t48 -42t61 -22.5t71.5 -6.5q71 0 144.5 39t134 104t105.5 155.5t61 187.5z" />
<glyph unicode="v" horiz-adv-x="962" d="M375 -7q59 0 124 25.5t132 82.5t122 138.5t94.5 204.5t49.5 269q9 124 -15 279h-48q26 -159 16 -301q-9 -139 -55.5 -263t-113.5 -208t-147.5 -132.5t-158.5 -48.5q-35 0 -63 6.5t-54.5 23t-43 44t-28.5 69.5t-11.5 100t8.5 135l72 575h-45l-71 -576q-13 -116 -5 -196.5 t40 -130.5t81.5 -73t119.5 -23z" />
<glyph unicode="w" horiz-adv-x="1382" d="M1302 992q27 -170 13 -297q-12 -141 -46 -260t-79 -199t-100 -136t-109 -81.5t-106 -25.5q-201 0 -217 245h-4q-50 -117 -133 -181t-162 -64q-272 0 -221 413l72 586h45l-73 -585q-8 -75 -8 -131t12 -97t28 -68t40.5 -43t50 -22.5t56.5 -6.5q70 0 136 54.5t111.5 146.5 t61.5 201v3l67 548h45l-74 -595q-12 -86 -6 -148t19.5 -102.5t39 -64.5t54 -33.5t64.5 -9.5q54 0 108 33.5t101.5 95t86 142.5t63.5 182.5t32 208.5q4 100 0.5 155t-16.5 136h48z" />
<glyph unicode="x" horiz-adv-x="882" d="M876 992l-405 -495l284 -497h-56l-260 453h-3l-368 -453h-57l403 496l-286 496h56l260 -454h4l369 454h59z" />
<glyph unicode="y" horiz-adv-x="1042" d="M900 992h45l-105 -857q-12 -94 -33 -171t-48 -133.5t-62.5 -99t-74 -69.5t-84 -44t-90 -23.5t-95.5 -6.5q-151 0 -301 77l14 47q140 -78 290 -78q65 0 118.5 12t108 46t95 89t72 146t46.5 213l21 175h-3q-70 -145 -184 -233.5t-234 -88.5q-154 0 -222.5 96.5t-42.5 306.5 l74 596h45l-74 -595q-7 -72 -6.5 -126.5t14.5 -94.5t32.5 -66t48 -42t61 -22.5t71.5 -6.5q74 0 150 42t137.5 111t105.5 164.5t56 196.5z" />
<glyph unicode="z" horiz-adv-x="834" d="M807 950l-737 -901l-1 -4q159 0 224.5 -0.5t162.5 -4.5t153 -13t103 -25l-13 -45q-98 30 -229.5 36.5t-465.5 6.5l5 46l736 897l1 4h-604l5 45h665z" />
<glyph unicode="{" horiz-adv-x="561" d="M511 1482h54l-5 -42h-52q-57 0 -100.5 -39.5t-52.5 -107.5l-64 -524q-11 -88 -37.5 -129.5t-97.5 -54.5l-1 -2q66 -13 84 -56t7 -130l-57 -464q-12 -97 15.5 -138t94.5 -41h54l-5 -41h-52q-76 0 -120 49t-33 135l63 515q5 26 3.5 51t-10 45t-36.5 34.5t-76 19.5l4 44 q40 5 68.5 16t44 23.5t25.5 33.5t13 37t6 43l67 539q9 79 61.5 131.5t134.5 52.5z" />
<glyph unicode="|" horiz-adv-x="517" d="M360 1509h45l-214 -1744h-45z" />
<glyph unicode="}" horiz-adv-x="563" d="M379 757q-6 -27 -4 -52t10.5 -44.5t36.5 -34t76 -20.5l-4 -44q-33 -3 -58.5 -10.5t-41.5 -20t-26.5 -24.5t-16.5 -30.5t-9 -32t-5 -34.5l-63 -515q-11 -86 -66.5 -134t-132.5 -48h-54l5 41h52q69 0 107.5 42t50.5 139l57 464q5 43 12.5 71.5t22.5 53t40 38.5t62 21v2 q-67 13 -84.5 56t-6.5 130l64 524q9 68 -24.5 106.5t-91.5 38.5h-54l5 42h54q82 0 122.5 -53.5t31.5 -132.5z" />
<glyph unicode="~" horiz-adv-x="1040" d="M147 502q79 157 209 157q33 0 67.5 -10.5t54 -20.5t51.5 -30q10 -6 28 -17.5t27.5 -17t24.5 -14t26 -13.5t24 -9.5t26 -6.5t27 -2q47 0 89.5 32t69.5 95l37 -17q-19 -40 -43.5 -70.5t-51 -48.5t-53.5 -27t-53 -9q-19 0 -38.5 4t-33.5 9t-34 15.5t-28 15.5t-29 18.5 t-24 15.5q-99 62 -165 62q-106 0 -173 -126z" />
<glyph unicode="&#xa1;" horiz-adv-x="396" d="M246 897q-23 0 -38.5 15.5t-15.5 39.5t16 40.5t40 16.5q15 0 27 -7t18.5 -19.5t6.5 -28.5t-7 -29t-19.5 -20.5t-27.5 -7.5zM234 623l-132 -1139h-52l148 1139h36z" />
<glyph unicode="&#xa2;" horiz-adv-x="985" d="M677 1110q88 -4 167 -43t129 -114l-39 -30q-47 72 -120.5 107t-158.5 35q-62 0 -119 -15t-104 -43t-87 -67t-70 -87.5t-51.5 -103.5t-32 -116t-10.5 -125q0 -156 90.5 -256.5t227.5 -100.5q116 0 202.5 38t152.5 119l35 -27q-64 -80 -145.5 -122.5t-189.5 -51.5l-29 -237 h-39l29 235h-22q-68 0 -131.5 27t-114.5 76.5t-81.5 127.5t-30.5 172q0 120 35 227.5t99 190t159.5 132t209.5 53.5l32 256h39z" />
<glyph unicode="&#xa3;" horiz-adv-x="1032" d="M975 1179q-71 184 -256 184q-138 0 -229.5 -102t-117.5 -317l-16 -129h330l-6 -47h-330l-88 -721h666l-6 -47h-885l6 47h172l88 721h-132l6 47h132l17 137q13 102 41 182t65 131t85 84.5t97.5 47.5t104.5 14q106 0 179.5 -53t114.5 -150z" />
<glyph unicode="&#xa4;" horiz-adv-x="917" d="M841 838q0 -58 -15 -114.5t-43.5 -105.5t-67.5 -88l119 -150l-32 -31l-119 152q-105 -82 -238 -82q-137 0 -220 83l-155 -151l-26 32l155 150q-56 79 -56 190q0 93 31.5 175t88.5 144l-119 152l32 31l119 -153q104 91 241 91q134 0 218 -87l154 151l26 -31l-153 -152 q60 -84 60 -206zM191 723q0 -118 68.5 -187t185.5 -69q96 0 176 49t126 134.5t46 187.5q0 126 -70.5 201.5t-186.5 75.5q-95 0 -174.5 -52t-125 -142t-45.5 -198z" />
<glyph unicode="&#xa5;" horiz-adv-x="965" d="M1042 1407l-384 -589h235l-6 -46h-259l-103 -158l-5 -37h343l-6 -46h-342l-66 -531h-47l66 531h-349l6 46h348l5 37l-64 158h-265l6 46h240l-239 589h54l297 -738l483 738h52z" />
<glyph unicode="&#xa6;" horiz-adv-x="518" d="M360 1509h46l-88 -718h-46zM236 492h46l-90 -726h-46z" />
<glyph unicode="&#xa7;" horiz-adv-x="958" d="M536 828q2 -1 7 -3q35 -14 52.5 -21.5t48.5 -21.5t47.5 -23.5t41.5 -25t38 -29t29.5 -32t24.5 -37.5t13.5 -42.5t5.5 -49.5q0 -111 -60.5 -185t-168.5 -122q67 -41 103 -92t36 -125q0 -154 -101.5 -242t-268.5 -88q-112 0 -202 44.5t-142 133.5l35 34q40 -81 123 -122.5 t184 -41.5q147 0 236 72t89 204q0 28 -7.5 53.5t-17.5 44.5t-31.5 39t-37.5 32.5t-47.5 29.5t-50.5 26.5t-57 26.5q-11 5 -16 8q-11 5 -31 15q-34 15 -50.5 23t-46 23t-45 25t-38.5 25.5t-35 28.5t-27 31.5t-22 36.5t-12 40.5t-5 47.5q0 101 62 180.5t164 115.5 q-123 80 -123 209q0 71 27.5 132t73.5 102.5t107.5 65.5t128.5 24q90 0 173 -34t134 -90l-36 -34q-45 53 -119 82t-151 29q-76 0 -141.5 -32t-107.5 -95t-42 -145q0 -23 5 -44.5t12 -38t21 -33.5t25 -28.5t33 -25.5t35 -22t40.5 -21t41 -19t43.5 -19zM565 264q52 19 91.5 42 t72.5 55.5t50.5 76.5t17.5 98q0 27 -7.5 50.5t-17.5 41.5t-31 36.5t-37 30t-48 28t-51 25t-58 25.5q-5 2 -8 3.5t-8 3.5t-9 4q-89 38 -112 50q-69 -15 -121.5 -52t-82 -91t-29.5 -117q0 -26 7 -49t16.5 -40.5t30 -36t36.5 -31t48 -30t51.5 -27t60.5 -29.5q19 -9 29 -14 q12 -6 35 -16.5t41 -19.5t33 -17z" />
<glyph unicode="&#xa8;" horiz-adv-x="943" d="M431 1326q15 0 27.5 -7t19.5 -19.5t7 -28.5q0 -24 -16 -40.5t-40 -16.5q-23 0 -37.5 15.5t-14.5 39.5t15.5 40.5t38.5 16.5zM702 1326q23 0 38.5 -15.5t15.5 -39.5t-16 -40.5t-40 -16.5q-23 0 -37.5 15.5t-14.5 39.5q0 16 7 29t19.5 20.5t27.5 7.5z" />
<glyph unicode="&#xa9;" horiz-adv-x="1364" d="M684 1241q120 0 228.5 -47.5t185.5 -127t122.5 -188t45.5 -227.5q0 -118 -45.5 -226t-123.5 -188t-187 -127.5t-229 -47.5t-228.5 47.5t-186.5 127t-123.5 188t-45.5 226.5t46 226.5t124 188.5t187 127.5t230 47.5zM1221 651q0 109 -42 209.5t-113.5 174t-171 117.5 t-210.5 44q-112 0 -212.5 -44t-172.5 -117.5t-114.5 -174t-42.5 -209.5t42 -209.5t113.5 -174t172 -117t211.5 -43.5t211.5 44t172 117.5t114 173.5t42.5 209zM699 361q135 0 219 107l36 -29q-99 -124 -255 -124q-68 0 -127 22t-104 63t-70.5 104.5t-25.5 141.5 q0 95 36.5 170.5t112 121.5t178.5 46q153 0 255 -126l-36 -29q-88 109 -219 109q-135 0 -208 -81t-73 -211q0 -136 79 -210.5t202 -74.5z" />
<glyph unicode="&#xaa;" horiz-adv-x="740" d="M696 1407h46l-74 -592h-43l19 165h-3q-29 -53 -68.5 -90.5t-88 -57.5t-102.5 -20q-64 0 -111 27.5t-73 82t-26 131.5q0 71 21 135t60 114t99.5 79.5t134.5 29.5q56 0 110.5 -18t87.5 -49h4zM388 858q96 0 176.5 80.5t97.5 194.5l19 155q-17 33 -70 55.5t-116 22.5 q-124 0 -200.5 -87.5t-76.5 -223.5q0 -92 44 -144.5t126 -52.5z" />
<glyph unicode="&#xab;" horiz-adv-x="754" d="M311 26h-45l-186 473l300 469h46l-296 -469zM582 26h-45l-186 473l300 469h46l-296 -469z" />
<glyph unicode="&#xac;" horiz-adv-x="1095" d="M935 382h-45l39 314h-758l5 45h803z" />
<glyph unicode="&#xad;" horiz-adv-x="779" d="M669 606h-531l5 48h531z" />
<glyph unicode="&#xae;" horiz-adv-x="1364" d="M684 1241q120 0 228.5 -47.5t185.5 -127t122.5 -188t45.5 -227.5q0 -118 -45.5 -226t-123.5 -188t-187 -127.5t-229 -47.5t-228.5 47.5t-186.5 127t-123.5 188t-45.5 226.5t46 226.5t124 188.5t187 127.5t230 47.5zM681 107q111 0 211.5 44t172 117.5t114 173.5t42.5 209 t-42 209.5t-113.5 174t-171 117.5t-210.5 44q-112 0 -212.5 -44t-172.5 -117.5t-114.5 -174t-42.5 -209.5t42 -209.5t113.5 -174t172 -117t211.5 -43.5zM912 800q0 -59 -22.5 -100t-62 -62.5t-94.5 -27.5l207 -286h-56l-204 284h-144v-284h-45v663h216q103 0 154 -51.5 t51 -135.5zM536 942v-290h159q49 0 84 12.5t53.5 34t26.5 46.5t8 55q0 44 -19 76.5t-54 49t-82 16.5h-176z" />
<glyph unicode="&#xaf;" horiz-adv-x="906" d="M305 1288h491l-7 -46h-491z" />
<glyph unicode="&#xb0;" horiz-adv-x="759" d="M496 1462q63 0 113.5 -28t79.5 -81.5t29 -124.5q0 -59 -21.5 -114t-58.5 -96.5t-91.5 -66.5t-116.5 -25q-102 0 -161 60t-59 159q0 86 37 158.5t103 115.5t146 43zM496 1416q-101 0 -170.5 -78t-69.5 -193q0 -81 46.5 -127t127.5 -46q102 0 172 74.5t70 181.5 q0 85 -48 136.5t-128 51.5z" />
<glyph unicode="&#xb1;" horiz-adv-x="1081" d="M999 735h-400l-55 -449h-45l55 449h-403l5 45h403l56 450h45l-56 -450h400zM905 0h-848l5 45h848z" />
<glyph unicode="&#xb2;" horiz-adv-x="617" d="M180 940l-1 -3h424l-6 -44h-496l5 37l340 305q83 74 126.5 140.5t43.5 147.5q0 80 -43 127t-122 47q-40 0 -81.5 -15t-81 -47.5t-63.5 -77.5l-34 27q27 47 69 83t92 55.5t101 19.5q92 0 150 -57t58 -157q0 -91 -46.5 -167t-135.5 -155z" />
<glyph unicode="&#xb3;" horiz-adv-x="619" d="M517 1329q41 -14 69.5 -41t42 -62.5t13.5 -78.5q0 -118 -80.5 -190t-200.5 -72q-65 0 -117 20t-85 54t-48 80l43 17q13 -39 40 -67t69.5 -43.5t98.5 -15.5q70 0 123.5 27t82.5 76.5t29 113.5q0 69 -51.5 115t-143.5 46h-77l6 45h87q92 0 151 55.5t59 141.5 q0 71 -45.5 108.5t-129.5 37.5q-131 0 -208 -100l-37 27q91 118 246 118q97 0 158 -49.5t61 -137.5q0 -55 -19 -99.5t-53.5 -75t-83.5 -47.5v-3z" />
<glyph unicode="&#xb4;" horiz-adv-x="969" d="M709 1398h63l-263 -276h-60z" />
<glyph unicode="&#xb5;" horiz-adv-x="1091" d="M1002 51l12 -44q-42 -14 -84 -14q-52 0 -84 19t-43 50.5t-13.5 73t5.5 87.5l4 37h-2q-43 -88 -106.5 -149t-135 -89.5t-147.5 -28.5q-89 0 -151 46t-87 137l-4 -2q-4 -47 -6.5 -72.5t-6 -65.5t-7.5 -73l-46 -368h-45l172 1397h45l-77 -625q-7 -74 2 -131.5t29.5 -94 t50.5 -60t62.5 -33t69.5 -9.5q68 0 134 28.5t123.5 81.5t100 137.5t59.5 188.5l64 517h45l-93 -750q-3 -29 -5 -48t-2 -42.5t3 -38.5t10 -30t18.5 -24t29 -14.5t41.5 -5.5q28 0 65 12z" />
<glyph unicode="&#xb6;" horiz-adv-x="704" d="M421 1288h184l-195 -1591h-46l190 1545h-104l-153 -1242h-46l106 853q-84 2 -137.5 48.5t-53.5 129.5q0 107 70.5 182t184.5 75z" />
<glyph unicode="&#xb7;" horiz-adv-x="330" d="M190 537q23 0 38.5 -15.5t15.5 -39.5t-16 -40.5t-40 -16.5q-23 0 -37.5 15.5t-14.5 39.5t15.5 40.5t38.5 16.5z" />
<glyph unicode="&#xb8;" horiz-adv-x="657" d="M237 -73q136 -15 136 -125q0 -75 -55 -127t-135 -52q-48 0 -80 16l6 43q37 -14 76 -14q32 0 63 13t55.5 45t24.5 76q0 78 -144 84l8 43l2 4l-1 2l3 2l41 75h45l-47 -84z" />
<glyph unicode="&#xb9;" horiz-adv-x="432" d="M405 1735h37l-104 -842h-44l95 778l-199 -140l-21 38z" />
<glyph unicode="&#xba;" horiz-adv-x="733" d="M479 1411q107 0 170 -62.5t63 -177.5q0 -100 -37.5 -181.5t-107.5 -129.5t-159 -48q-108 0 -172 65t-64 181q0 94 38 174.5t109 129.5t160 49zM477 1365q-111 0 -185 -87t-74 -217q0 -96 50.5 -149.5t141.5 -53.5q112 0 184 87.5t72 222.5q0 95 -49 146t-140 51z" />
<glyph unicode="&#xbb;" horiz-adv-x="754" d="M57 26l297 473l-181 469h46l185 -469l-302 -473h-45zM328 26l297 473l-181 469h46l185 -469l-302 -473h-45z" />
<glyph unicode="&#xbc;" horiz-adv-x="1274" d="M976 1470l41 -17l-742 -1468l-41 17zM257 613l95 778l-199 -140l-21 38l236 166h37l-104 -842h-44zM1061 201h126l-6 -44h-126l-19 -157h-44l19 157h-400l6 41l486 644h37zM1017 201l66 544l-407 -544h341z" />
<glyph unicode="&#xbd;" horiz-adv-x="1339" d="M976 1470l41 -17l-742 -1468l-41 17zM257 613l95 778l-199 -140l-21 38l236 166h37l-104 -842h-44zM789 47l-1 -3h424l-6 -44h-496l5 37l340 305q31 28 54.5 51.5t46 52.5t37 56.5t23.5 60.5t9 67q0 80 -43 127t-122 47q-62 0 -126 -37t-100 -103l-34 27 q40 71 112.5 114.5t149.5 43.5q92 0 150 -57t58 -157q0 -91 -46.5 -167t-135.5 -155z" />
<glyph unicode="&#xbe;" horiz-adv-x="1433" d="M1135 1470l41 -17l-742 -1468l-41 17zM604 867q0 -118 -80.5 -190t-200.5 -72q-97 0 -162 42t-88 112l43 17q13 -39 40 -67t69.5 -43.5t98.5 -15.5q52 0 96 15.5t74.5 44t47.5 69t17 88.5q0 69 -51.5 115t-143.5 46h-77l6 45h87q92 0 151 55.5t59 141.5q0 71 -45.5 108.5 t-129.5 37.5q-131 0 -208 -100l-37 27q91 118 246 118q97 0 158 -49.5t61 -137.5q0 -83 -41 -140t-115 -82v-3q62 -21 93.5 -68.5t31.5 -113.5zM1220 201h126l-6 -44h-126l-19 -157h-44l19 157h-400l6 41l486 644h37zM1176 201l66 544l-407 -544h341z" />
<glyph unicode="&#xbf;" horiz-adv-x="719" d="M490 896q-23 0 -38.5 15.5t-15.5 39.5q0 16 7.5 29t20 20.5t28.5 7.5q23 0 37.5 -15.5t14.5 -39.5t-15.5 -40.5t-38.5 -16.5zM615 -299q-56 -85 -139 -130.5t-176 -45.5q-113 0 -180.5 66t-67.5 190q0 62 14 115.5t43.5 103.5t63 91t85.5 95q11 11 37 38.5t37.5 39t33 36 t32.5 39.5t26.5 38t23 42t15 42.5t10.5 47.5l15 122h-40l-17 -124q-3 -20 -9.5 -40t-13.5 -35.5t-22 -37t-23.5 -33.5t-30.5 -36t-31 -33.5t-36.5 -37.5t-36.5 -37q-53 -55 -87 -96t-68.5 -95t-51 -112.5t-16.5 -123.5q0 -141 77 -227.5t211 -86.5q99 0 191 49t160 143z" />
<glyph unicode="&#xc0;" horiz-adv-x="1199" d="M762 1640h-57l-197 276h61zM1027 0l-99 432h-673l-203 -432h-51l684 1455h55l336 -1455h-49zM277 479h640l-209 912h-3z" />
<glyph unicode="&#xc1;" horiz-adv-x="1199" d="M1062 1916l-263 -276h-60l260 276h63zM1027 0l-99 432h-673l-203 -432h-51l684 1455h55l336 -1455h-49zM277 479h640l-209 912h-3z" />
<glyph unicode="&#xc2;" horiz-adv-x="1199" d="M548 1638h-57l252 270v2h1l6 6h47l196 -278h-57l-162 242h-3zM1027 0l-99 432h-673l-203 -432h-51l684 1455h55l336 -1455h-49zM277 479h640l-209 912h-3z" />
<glyph unicode="&#xc3;" horiz-adv-x="1199" d="M630 1821q-81 0 -135 -126l-38 15q66 157 172 157q38 0 68 -16.5t65 -48.5q3 -2 8 -7q25 -23 39 -34.5t37 -23t43 -11.5q36 0 70.5 32.5t58.5 95.5l37 -18q-31 -78 -75 -116.5t-90 -38.5q-21 0 -41 6.5t-43 23t-32.5 25t-34.5 30.5q-62 55 -109 55zM1027 0l-99 432h-673 l-203 -432h-51l684 1455h55l336 -1455h-49zM277 479h640l-209 912h-3z" />
<glyph unicode="&#xc4;" horiz-adv-x="1199" d="M621 1731q-23 0 -37.5 15.5t-14.5 39.5t15.5 40.5t38.5 16.5t38.5 -15.5t15.5 -39.5t-16 -40.5t-40 -16.5zM892 1731q-23 0 -37.5 15.5t-14.5 39.5t15.5 40.5t38.5 16.5t38.5 -15.5t15.5 -39.5q0 -12 -4.5 -22.5t-11.5 -18t-17.5 -12t-22.5 -4.5zM1027 0l-99 432h-673 l-203 -432h-51l684 1455h55l336 -1455h-49zM277 479h640l-209 912h-3z" />
<glyph unicode="&#xc5;" horiz-adv-x="1199" d="M750 1631q-63 0 -105 42t-42 105q0 64 43.5 106.5t108.5 42.5q64 0 106 -41t42 -104q0 -65 -43.5 -108t-109.5 -43zM755 1881q-46 0 -76 -29t-30 -74q0 -44 28.5 -72.5t72.5 -28.5q31 0 55.5 13.5t38 37.5t13.5 54q0 44 -28.5 71.5t-73.5 27.5zM1027 0l-99 432h-673 l-203 -432h-51l684 1455h55l336 -1455h-49zM277 479h640l-209 912h-3z" />
<glyph unicode="&#xc6;" horiz-adv-x="1688" d="M1671 1408h-714l-81 -659h605l-5 -46h-605l-81 -656h750l-5 -47h-797l53 432h-507l-278 -432h-56l938 1455h788zM796 478l112 919h-3l-591 -919h482z" />
<glyph unicode="&#xc7;" horiz-adv-x="1370" d="M883 1414q-85 0 -165 -23t-147 -64.5t-125 -99t-102.5 -128t-76 -149.5t-48 -165.5t-16.5 -174.5q0 -264 134.5 -416.5t365.5 -152.5q124 0 251 56.5t225 164.5l37 -29q-99 -109 -236 -174.5t-279 -65.5h-7l-3 -1l-36 -64l2 -1q136 -15 136 -125q0 -75 -55 -127t-135 -52 q-48 0 -80 16l6 43q37 -14 76 -14q32 0 63 13t55.5 45t24.5 76q0 78 -144 84l8 43l2 4l-1 2l3 2l30 55v3q-227 19 -359.5 183t-132.5 430q0 132 34 259t99.5 234t153 188t201 127t237.5 46q301 0 496 -313l-42 -26q-93 156 -201 223.5t-249 67.5z" />
<glyph unicode="&#xc8;" horiz-adv-x="1086" d="M661 1923l193 -276h-57l-197 276h61zM938 47l-5 -47h-799l177 1455h760l-5 -47h-713l-81 -656h599l-5 -47h-599l-81 -658h752z" />
<glyph unicode="&#xc9;" horiz-adv-x="1086" d="M858 1922h63l-263 -276h-60zM938 47l-5 -47h-799l177 1455h760l-5 -47h-713l-81 -656h599l-5 -47h-599l-81 -658h752z" />
<glyph unicode="&#xca;" horiz-adv-x="1086" d="M544 1645h-57l252 270v2h1l6 6h47l196 -278h-57l-162 242h-3zM1066 1408h-713l-81 -656h599l-5 -47h-599l-81 -658h752l-5 -47h-799l177 1455h760z" />
<glyph unicode="&#xcb;" horiz-adv-x="1086" d="M619 1850q23 0 38.5 -15.5t15.5 -39.5t-16 -40.5t-40 -16.5q-23 0 -37.5 15.5t-14.5 39.5q0 16 7 29t19.5 20.5t27.5 7.5zM890 1850q23 0 38.5 -15.5t15.5 -39.5t-16 -40.5t-40 -16.5q-23 0 -37.5 15.5t-14.5 39.5t15.5 40.5t38.5 16.5zM938 47l-5 -47h-799l177 1455h760 l-5 -47h-713l-81 -656h599l-5 -47h-599l-81 -658h752z" />
<glyph unicode="&#xcc;" horiz-adv-x="463" d="M176 1916l193 -276h-57l-197 276h61zM195 0h-47l177 1455h47z" />
<glyph unicode="&#xcd;" horiz-adv-x="463" d="M625 1916h63l-263 -276h-60zM195 0h-47l177 1455h47z" />
<glyph unicode="&#xce;" horiz-adv-x="463" d="M571 1638l-162 242h-3l-223 -242h-57l252 270v2h1l6 6h47l196 -278h-57zM148 0l177 1455h47l-177 -1455h-47z" />
<glyph unicode="&#xcf;" horiz-adv-x="463" d="M258 1843q23 0 38.5 -15.5t15.5 -39.5t-16 -40.5t-40 -16.5q-23 0 -37.5 15.5t-14.5 39.5t15.5 40.5t38.5 16.5zM529 1843q23 0 38.5 -15.5t15.5 -39.5t-16 -40.5t-40 -16.5q-23 0 -37.5 15.5t-14.5 39.5t15.5 40.5t38.5 16.5zM195 0h-47l177 1455h47z" />
<glyph unicode="&#xd0;" horiz-adv-x="1350" d="M674 1455q138 0 247.5 -41t182.5 -117.5t111.5 -186t38.5 -246.5q0 -186 -57 -346.5t-158.5 -274.5t-247 -178.5t-316.5 -64.5h-341l91 749h-116l5 48h117l80 658h363zM474 47q160 0 297 61.5t232.5 169.5t149 258.5t53.5 324.5q0 259 -138 403t-396 144h-318l-75 -611 h366l-5 -48h-367l-86 -702h287z" />
<glyph unicode="&#xd1;" horiz-adv-x="1401" d="M733 1821q-81 0 -135 -126l-38 15q66 157 172 157q38 0 68 -16.5t65 -48.5q3 -2 8 -7q25 -23 39 -34.5t37 -23t43 -11.5q36 0 70.5 32.5t58.5 95.5l37 -18q-31 -78 -75 -116.5t-90 -38.5q-21 0 -41 6.5t-43 23t-32.5 25t-34.5 30.5q-62 55 -109 55zM1275 1455h47 l-177 -1455h-45l-750 1362h-2l-167 -1362h-47l177 1455h42l752 -1363h3z" />
<glyph unicode="&#xd2;" horiz-adv-x="1550" d="M807 1916l193 -276h-57l-197 276h61zM888 1462q127 0 230.5 -39.5t178 -115t115.5 -190t41 -258.5q0 -139 -33 -268.5t-97 -237.5t-152.5 -189t-205.5 -126t-249 -45q-126 0 -230.5 41t-178 117.5t-114 190.5t-40.5 255q0 135 33.5 264t98.5 237t153.5 190t204.5 128 t245 46zM717 41q124 0 233.5 42.5t191.5 118.5t142 177.5t90.5 223.5t30.5 254q0 266 -138 411.5t-380 145.5q-121 0 -229.5 -43.5t-191 -121t-142.5 -180t-91.5 -223.5t-31.5 -249q0 -262 138.5 -409t377.5 -147z" />
<glyph unicode="&#xd3;" horiz-adv-x="1550" d="M1174 1916h63l-263 -276h-60zM888 1462q127 0 230.5 -39.5t178 -115t115.5 -190t41 -258.5q0 -139 -33 -268.5t-97 -237.5t-152.5 -189t-205.5 -126t-249 -45q-126 0 -230.5 41t-178 117.5t-114 190.5t-40.5 255q0 135 33.5 264t98.5 237t153.5 190t204.5 128t245 46z M717 41q124 0 233.5 42.5t191.5 118.5t142 177.5t90.5 223.5t30.5 254q0 266 -138 411.5t-380 145.5q-101 0 -194 -31t-167.5 -86t-136 -131.5t-102.5 -166.5t-63.5 -193t-22.5 -209q0 -262 138.5 -409t377.5 -147z" />
<glyph unicode="&#xd4;" horiz-adv-x="1550" d="M757 1638h-57l252 270v2h1l6 6h47l196 -278h-57l-162 242h-3zM888 1462q127 0 230.5 -39.5t178 -115t115.5 -190t41 -258.5q0 -139 -33 -268.5t-97 -237.5t-152.5 -189t-205.5 -126t-249 -45q-126 0 -230.5 41t-178 117.5t-114 190.5t-40.5 255q0 135 33.5 264t98.5 237 t153.5 190t204.5 128t245 46zM717 41q124 0 233.5 42.5t191.5 118.5t142 177.5t90.5 223.5t30.5 254q0 266 -138 411.5t-380 145.5q-101 0 -194 -31t-167.5 -86t-136 -131.5t-102.5 -166.5t-63.5 -193t-22.5 -209q0 -262 138.5 -409t377.5 -147z" />
<glyph unicode="&#xd5;" horiz-adv-x="1550" d="M666 1710q66 157 172 157q38 0 68 -16.5t65 -48.5q3 -2 8 -7q25 -23 39 -34.5t37 -23t43 -11.5q36 0 70.5 32.5t58.5 95.5l37 -18q-31 -78 -75 -116.5t-90 -38.5q-17 0 -35.5 6t-30.5 12t-32 21.5t-26 21t-27 24.5q-62 55 -109 55q-81 0 -135 -126zM888 1462 q127 0 230.5 -39.5t178 -115t115.5 -190t41 -258.5q0 -139 -33 -268.5t-97 -237.5t-152.5 -189t-205.5 -126t-249 -45q-126 0 -230.5 41t-178 117.5t-114 190.5t-40.5 255q0 97 17.5 191t51.5 179t81.5 161t110.5 137t135.5 105t159 68t179.5 24zM717 41q124 0 233.5 42.5 t191.5 118.5t142 177.5t90.5 223.5t30.5 254q0 266 -138 411.5t-380 145.5q-101 0 -194 -31t-167.5 -86t-136 -131.5t-102.5 -166.5t-63.5 -193t-22.5 -209q0 -262 138.5 -409t377.5 -147z" />
<glyph unicode="&#xd6;" horiz-adv-x="1550" d="M832 1843q15 0 27.5 -7t19.5 -19.5t7 -28.5q0 -24 -16 -40.5t-40 -16.5q-23 0 -37.5 15.5t-14.5 39.5t15.5 40.5t38.5 16.5zM1103 1843q23 0 38.5 -15.5t15.5 -39.5q0 -9 -2.5 -18t-8 -16t-12 -12t-15.5 -8t-18 -3q-23 0 -37.5 15.5t-14.5 39.5q0 16 7 29t19.5 20.5 t27.5 7.5zM888 1462q127 0 230.5 -39.5t178 -115t115.5 -190t41 -258.5q0 -139 -33 -268.5t-97 -238t-152.5 -189t-205.5 -125.5t-249 -45q-126 0 -230.5 41t-178 117.5t-114 190.5t-40.5 255q0 135 33.5 264t98.5 237t153.5 190t204.5 128t245 46zM717 41q124 0 233.5 42.5 t191.5 118.5t142 177.5t90.5 223.5t30.5 254q0 266 -138 411.5t-380 145.5q-101 0 -194 -31t-167.5 -86t-136 -131.5t-102.5 -166.5t-63.5 -193t-22.5 -209q0 -262 138.5 -409t377.5 -147z" />
<glyph unicode="&#xd7;" horiz-adv-x="924" d="M726 198l-261 335l-341 -335l-29 31l344 336l-261 336l34 32l259 -336l345 337l28 -31l-344 -338l260 -336z" />
<glyph unicode="&#xd8;" horiz-adv-x="1550" d="M1480 1427l-145 -164q118 -156 118 -404q0 -139 -33 -268.5t-97 -237.5t-152.5 -189t-205.5 -126t-249 -45q-238 0 -387 138l-134 -150l-34 31l135 152q-143 162 -143 433q0 135 33.5 264t98.5 237t153.5 190t204.5 128t245 46q266 0 418 -164l141 158zM201 597 q0 -249 128 -397l945 1061q-138 153 -387 153q-101 0 -194 -31t-167.5 -86t-136 -131.5t-102.5 -166.5t-63.5 -193t-22.5 -209zM1405 857q0 228 -103 370l-942 -1060q137 -126 357 -126q124 0 233.5 42.5t191.5 118.5t142 177.5t90.5 223.5t30.5 254z" />
<glyph unicode="&#xd9;" horiz-adv-x="1309" d="M646 1916l193 -276h-57l-197 276h61zM1145 569q-36 -287 -179 -431.5t-380 -144.5q-105 0 -183.5 33t-127.5 94.5t-73.5 145.5t-24.5 190q0 56 8 125l107 874h47l-107 -876q-10 -66 -10 -121q0 -96 21.5 -171.5t65.5 -131t114.5 -85t163.5 -29.5q215 0 347.5 132.5 t164.5 397.5l107 884h47z" />
<glyph unicode="&#xda;" horiz-adv-x="1309" d="M996 1916h63l-263 -276h-60zM1145 569q-36 -287 -179 -431.5t-380 -144.5q-105 0 -183.5 33t-127.5 94.5t-73.5 145.5t-24.5 190q0 56 8 125l107 874h47l-107 -876q-10 -66 -10 -121q0 -96 21.5 -171.5t65.5 -131t114 -85t164 -29.5q215 0 347.5 132.5t164.5 397.5 l107 884h47z" />
<glyph unicode="&#xdb;" horiz-adv-x="1309" d="M605 1638h-57l252 270v2h1l6 6h47l196 -278h-57l-162 242h-3zM1206 1455h47l-108 -886q-36 -287 -179 -431.5t-380 -144.5q-105 0 -183.5 33t-127.5 94.5t-73.5 145.5t-24.5 190q0 56 8 125l107 874h47l-107 -876q-10 -66 -10 -121q0 -96 21.5 -171.5t65.5 -131 t114.5 -85t163.5 -29.5q215 0 347.5 132.5t164.5 397.5z" />
<glyph unicode="&#xdc;" horiz-adv-x="1309" d="M680 1843q23 0 38.5 -15.5t15.5 -39.5t-16 -40.5t-40 -16.5q-23 0 -37.5 15.5t-14.5 39.5t15.5 40.5t38.5 16.5zM951 1843q23 0 38.5 -15.5t15.5 -39.5q0 -12 -4.5 -22.5t-11.5 -18t-17.5 -12t-22.5 -4.5q-23 0 -37.5 15.5t-14.5 39.5t15.5 40.5t38.5 16.5zM1145 569 q-36 -287 -179 -431.5t-380 -144.5q-105 0 -183.5 33t-127.5 94.5t-73.5 145.5t-24.5 190q0 56 8 125l107 874h47l-107 -876q-10 -66 -10 -121q0 -96 21.5 -171.5t65.5 -131t114.5 -85t163.5 -29.5q215 0 347.5 132.5t164.5 397.5l107 884h47z" />
<glyph unicode="&#xdd;" horiz-adv-x="1036" d="M936 1916l-263 -276h-60l260 276h63zM1060 1455h56l-554 -793l-81 -662h-47l81 662l-358 793h52l332 -736h4z" />
<glyph unicode="&#xde;" horiz-adv-x="1144" d="M218 302l-37 -302h-47l177 1455h46l-37 -322h411q174 0 265.5 -90.5t91.5 -248.5q0 -145 -57 -255.5t-167 -173.5t-258 -63h-388zM609 349q134 0 232.5 58t148.5 158t50 230q0 77 -23.5 134t-67 91t-98.5 50t-124 16h-413l-91 -737h386z" />
<glyph unicode="&#xdf;" horiz-adv-x="1147" d="M1080 265q0 -86 -44.5 -149t-116 -93t-159.5 -30q-119 0 -196 37t-137 102l32 38q29 -32 50 -50t57 -39.5t84 -31.5t110 -10q124 0 198.5 61t75.5 163q0 36 -12 66.5t-30 53.5t-52 48t-63.5 42t-79.5 43q-37 19 -56.5 30t-50 29.5t-46.5 32.5t-35.5 35t-28.5 41.5 t-14.5 47t-3.5 56.5q2 23 10 45t18.5 39.5t29 36t34 31t41 29.5t42 27t46 27t44.5 26q39 24 66.5 45t53 48.5t38.5 60.5t13 70q0 89 -84.5 142.5t-232.5 53.5q-47 0 -94.5 -10t-96 -34.5t-87.5 -61t-67 -94t-37 -129.5l-139 -1140h-45l140 1153q8 63 29.5 116.5t54 92.5 t73 68.5t86 48t92.5 27.5t95 9q161 0 259.5 -63.5t98.5 -173.5q0 -46 -15 -86t-44 -72.5t-61 -57.5t-77 -52q-14 -9 -46.5 -27.5t-48.5 -28.5t-42 -27.5t-39.5 -31t-29 -31.5t-23 -37.5t-9.5 -40.5q-2 -24 2.5 -45.5t11.5 -38t23.5 -33.5t29 -28t37.5 -26.5t39.5 -23.5 l43.5 -24l12 -6q29 -16 45 -24.5t41.5 -23t40 -24.5t35 -24.5t32.5 -27t26.5 -28t22.5 -31t16 -33.5t11 -38t3 -42z" />
<glyph unicode="&#xe0;" horiz-adv-x="1087" d="M726 1149h-57l-197 276h61zM950 992h45l-121 -992h-45l39 319h-3q-32 -70 -74.5 -127.5t-95.5 -102.5t-118.5 -70.5t-137.5 -25.5q-105 0 -183.5 52.5t-118 141t-39.5 200.5q0 125 37 236.5t103 195t163.5 132t212.5 48.5q61 0 121 -14t112.5 -42.5t85.5 -67.5h3zM440 39 q73 0 140.5 31t120.5 85t95.5 124t68.5 149.5t36 161.5l27 222q-27 42 -69.5 72t-89.5 44t-85 19.5t-73 5.5q-104 0 -192 -45.5t-148 -123t-93.5 -181t-33.5 -218.5q0 -154 77.5 -250t218.5 -96z" />
<glyph unicode="&#xe1;" horiz-adv-x="1087" d="M995 1425l-263 -276h-60l260 276h63zM936 875l14 117h45l-121 -992h-45l39 319h-3q-33 -70 -75 -127.5t-95 -102.5t-118.5 -70.5t-137.5 -25.5q-105 0 -183.5 52.5t-118 141t-39.5 200.5q0 125 37 236.5t103 195t163.5 132t212.5 48.5q61 0 121 -14t112.5 -42.5 t85.5 -67.5h3zM440 39q73 0 140.5 31t120.5 85t95.5 124t68.5 149.5t36 161.5l27 222q-27 42 -69.5 72t-89.5 44t-85 19.5t-73 5.5q-104 0 -192 -45.5t-148 -123t-93.5 -181t-33.5 -218.5q0 -154 77.5 -250t218.5 -96z" />
<glyph unicode="&#xe2;" horiz-adv-x="1087" d="M502 1147h-57l252 270v2h1l6 6h47l196 -278h-57l-162 242h-3zM950 992h45l-121 -992h-45l39 319h-3q-33 -70 -75 -127.5t-95 -102.5t-118.5 -70.5t-137.5 -25.5q-105 0 -183.5 52.5t-118 141t-39.5 200.5q0 125 37 236.5t103 195t163.5 132t212.5 48.5q61 0 121 -14 t112.5 -42.5t85.5 -67.5h3zM440 39q73 0 140.5 31t120.5 85t95.5 124t68.5 149.5t36 161.5l27 222q-27 42 -69.5 72t-89.5 44t-85 19.5t-73 5.5q-104 0 -192 -45.5t-148 -123t-93.5 -181t-33.5 -218.5q0 -154 77.5 -250t218.5 -96z" />
<glyph unicode="&#xe3;" horiz-adv-x="1087" d="M584 1330q-81 0 -135 -126l-38 15q66 157 172 157q38 0 68 -16.5t65 -48.5q3 -2 8 -7q25 -23 39 -34.5t37 -23t43 -11.5q36 0 70.5 32.5t58.5 95.5l37 -18q-21 -52 -49.5 -88t-57 -51.5t-58.5 -15.5q-17 0 -35.5 6t-30.5 12t-32 21.5t-26 21t-27 24.5q-62 55 -109 55z M936 875l14 117h45l-121 -992h-45l39 319h-3q-33 -70 -75 -127.5t-95 -102.5t-118.5 -70.5t-137.5 -25.5q-105 0 -183.5 52.5t-118 141t-39.5 200.5q0 125 37 236.5t103 195t163.5 132t212.5 48.5q94 0 181.5 -33t137.5 -91h3zM440 39q73 0 140.5 31t120.5 85t95.5 124 t68.5 149.5t36 161.5l27 222q-22 34 -55 60t-67 41t-72 24.5t-67 12.5t-56 3q-104 0 -192 -45.5t-148 -123t-93.5 -181t-33.5 -218.5q0 -154 77.5 -250t218.5 -96z" />
<glyph unicode="&#xe4;" horiz-adv-x="1087" d="M575 1240q-23 0 -37.5 15.5t-14.5 39.5t15.5 40.5t38.5 16.5t38.5 -15.5t15.5 -39.5t-16 -40.5t-40 -16.5zM846 1240q-23 0 -37.5 15.5t-14.5 39.5q0 16 7 29t19.5 20.5t27.5 7.5q23 0 38.5 -15.5t15.5 -39.5t-16 -40.5t-40 -16.5zM950 992h45l-121 -992h-45l39 319h-3 q-33 -70 -75 -127.5t-95 -102.5t-118.5 -70.5t-137.5 -25.5q-105 0 -183.5 52.5t-118 141t-39.5 200.5q0 125 37 236.5t103 195t163.5 132t212.5 48.5q61 0 121 -14t112.5 -42.5t85.5 -67.5h3zM440 39q73 0 140.5 31t120.5 85t95.5 124t68.5 149.5t36 161.5l27 222 q-27 42 -69.5 72t-89.5 43.5t-85 19.5t-73 6q-104 0 -192 -45.5t-148 -123t-93.5 -181t-33.5 -218.5q0 -154 77.5 -250t218.5 -96z" />
<glyph unicode="&#xe5;" horiz-adv-x="1087" d="M704 1140q-63 0 -105 42t-42 105q0 64 43.5 106.5t108.5 42.5q31 0 58.5 -11t47 -30t31 -46t11.5 -58q0 -43 -20 -77.5t-55 -54t-78 -19.5zM709 1390q-46 0 -76 -29t-30 -74q0 -29 13 -52t36 -36t52 -13q31 0 55.5 13.5t38 37.5t13.5 54q0 21 -7.5 39.5t-21 31.5 t-32.5 20.5t-41 7.5zM950 992h45l-121 -992h-45l39 319h-3q-33 -70 -75 -127.5t-95 -102.5t-118.5 -70.5t-137.5 -25.5q-105 0 -183.5 52.5t-118 141t-39.5 200.5q0 125 37 236.5t103 194.5t163.5 132t212.5 49q61 0 121 -14t112.5 -42.5t85.5 -67.5h3zM440 39 q73 0 140.5 31t120.5 85t95.5 124t68.5 149.5t36 161.5l27 222q-27 42 -69.5 72t-89.5 43.5t-85 19.5t-73 6q-104 0 -192 -45.5t-148 -123t-93.5 -181t-33.5 -218.5q0 -154 77.5 -250t218.5 -96z" />
<glyph unicode="&#xe6;" horiz-adv-x="1336" d="M937 39q67 0 145.5 43t133.5 115l37 -28q-59 -78 -147 -127t-169 -49q-85 0 -153 34.5t-112 98.5t-63 152h-3q-26 -60 -56 -108.5t-68.5 -90t-87 -64t-102.5 -22.5q-94 0 -158.5 74.5t-64.5 208.5q0 149 50.5 277.5t138.5 219.5t211.5 142.5t264.5 51.5q60 0 140 -17 q95 49 205 49q107 0 172.5 -57.5t65.5 -152.5q0 -69 -40 -131t-104 -109t-154.5 -89t-180 -70.5t-192.5 -52.5q15 -140 92 -219t199 -79zM1271 791q0 38 -13.5 67.5t-34 47t-47 28.5t-50.5 15t-47 4q-102 0 -185.5 -44.5t-138 -121t-83.5 -176t-29 -211.5v-17 q79 19 150.5 41t144.5 50t131.5 62t104.5 72.5t71.5 85.5t25.5 97zM291 39q55 0 103.5 27.5t86.5 76t66.5 104t50.5 121.5q-1 11 -1 34q0 162 57.5 298t162.5 214v2q-30 5 -93 5q-129 0 -242 -48.5t-193.5 -133t-127 -205t-46.5 -258.5q0 -68 19 -120.5t59.5 -84.5t97.5 -32 z" />
<glyph unicode="&#xe7;" horiz-adv-x="973" d="M617 999q93 0 178.5 -39t138.5 -119l-39 -30q-47 72 -120.5 107t-158.5 35q-107 0 -197.5 -45t-150.5 -121.5t-93 -177.5t-33 -213q0 -156 90.5 -256.5t227.5 -100.5q116 0 202.5 38t152.5 119l35 -27q-69 -86 -158.5 -128.5t-209.5 -47.5l-2 -1l-36 -64l2 -1 q136 -15 136 -125q0 -49 -24.5 -90t-68.5 -65t-97 -24q-48 0 -80 16l6 43q37 -14 76 -14q52 0 97.5 35t45.5 99q0 78 -144 84l8 43l2 4l-1 2l3 2l30 54l-1 3q-65 4 -125 32.5t-108 78t-76.5 125t-28.5 166.5q0 122 36.5 231.5t102.5 192t165 131t217 48.5z" />
<glyph unicode="&#xe8;" horiz-adv-x="941" d="M697 1149h-57l-197 276h61zM478 39q180 0 315 157l35 -27q-144 -176 -351 -176q-112 0 -198 49t-134.5 142.5t-48.5 218.5q0 121 38.5 230.5t105 190t162.5 128t205 47.5q30 0 64 -5.5t75 -21t73 -39.5t53.5 -65.5t21.5 -93.5q0 -55 -26 -103t-69 -84.5t-104.5 -67.5 t-127.5 -52.5t-142 -38t-144.5 -26.5t-138.5 -16q5 -162 96 -254.5t240 -92.5zM606 953q-128 0 -232.5 -70.5t-164.5 -189t-66 -261.5q75 6 150 17.5t157 30t151.5 46t126 62t88.5 82t32 101.5q0 43 -18 77t-44 53t-60.5 31.5t-63.5 16.5t-56 4z" />
<glyph unicode="&#xe9;" horiz-adv-x="941" d="M917 1425l-263 -276h-60l260 276h63zM894 774q0 -55 -26 -103t-69 -84.5t-104.5 -67.5t-127.5 -52.5t-142 -38t-144.5 -26.5t-138.5 -16q5 -162 96 -254.5t240 -92.5q180 0 315 157l35 -27q-144 -176 -351 -176q-112 0 -198 49t-134.5 142.5t-48.5 218.5 q0 121 38.5 230.5t105 190t162.5 128t205 47.5q30 0 64 -5.5t75 -21t73 -39.5t53.5 -65.5t21.5 -93.5zM143 432q75 6 150 17.5t157 30t151.5 46t126 62t88.5 82t32 101.5q0 43 -18 77t-44 53t-60.5 31.5t-63.5 16.5t-56 4q-128 0 -232.5 -70.5t-164.5 -189t-66 -261.5z" />
<glyph unicode="&#xea;" horiz-adv-x="941" d="M434 1147h-57l252 270v2h1l6 6h47l196 -278h-57l-162 242h-3zM478 39q180 0 315 157l35 -27q-144 -176 -351 -176q-112 0 -198 49t-134.5 142.5t-48.5 218.5q0 121 38.5 230.5t105 190t162.5 128t205 47.5q30 0 64 -5.5t75 -21t73 -39.5t53.5 -65.5t21.5 -93.5 q0 -55 -26 -103t-69 -84.5t-104.5 -67.5t-127.5 -52.5t-142 -38t-144.5 -26.5t-138.5 -16q5 -162 96 -254.5t240 -92.5zM606 953q-128 0 -232.5 -70.5t-164.5 -189t-66 -261.5q64 5 128 14t134.5 24t133 34t120 46t99 59t66 73.5t24.5 88.5q0 43 -18 77t-44 53t-60.5 31.5 t-63.5 16.5t-56 4z" />
<glyph unicode="&#xeb;" horiz-adv-x="941" d="M507 1240q-23 0 -37.5 15.5t-14.5 39.5t15.5 40.5t38.5 16.5t38.5 -15.5t15.5 -39.5t-16 -40.5t-40 -16.5zM778 1240q-23 0 -37.5 15.5t-14.5 39.5t15.5 40.5t38.5 16.5t38.5 -15.5t15.5 -39.5t-16 -40.5t-40 -16.5zM478 39q180 0 315 157l35 -27q-144 -176 -351 -176 q-112 0 -198 49t-134.5 142.5t-48.5 218.5q0 121 38.5 230.5t105 190t162.5 128t205 47.5q30 0 64 -5.5t75 -21t73 -39.5t53.5 -65.5t21.5 -93.5q0 -55 -26 -103t-69 -84.5t-104.5 -67.5t-127.5 -52.5t-142 -38t-144.5 -26.5t-138.5 -16q5 -162 96 -254.5t240 -92.5z M606 953q-128 0 -232.5 -70.5t-164.5 -189t-66 -261.5q64 5 128 14t134.5 24t133 34t120 46t99 59t66 73.5t24.5 88.5q0 43 -18 77t-44 53t-60.5 31.5t-63.5 16.5t-56 4z" />
<glyph unicode="&#xec;" horiz-adv-x="419" d="M170 1427l133 -276h-55l-135 276h57zM247 992h45l-121 -992h-45z" />
<glyph unicode="&#xed;" horiz-adv-x="419" d="M544 1425h63l-263 -276h-60zM247 992h45l-121 -992h-45z" />
<glyph unicode="&#xee;" horiz-adv-x="419" d="M483 1147l-162 242h-3l-223 -242h-57l252 270v2h1l6 6h47l196 -278h-57zM126 0l121 992h45l-121 -992h-45z" />
<glyph unicode="&#xef;" horiz-adv-x="419" d="M170 1353q23 0 38.5 -15.5t15.5 -39.5q0 -16 -7.5 -29t-20 -20.5t-28.5 -7.5q-23 0 -37.5 15.5t-14.5 39.5t15.5 40.5t38.5 16.5zM441 1353q23 0 38.5 -15.5t15.5 -39.5t-16 -40.5t-40 -16.5q-23 0 -37.5 15.5t-14.5 39.5q0 16 7 29t19.5 20.5t27.5 7.5zM247 992h45 l-121 -992h-45z" />
<glyph unicode="&#xf0;" horiz-adv-x="1097" d="M1002 622q0 -51 -4 -101q-5 -87 -32 -166.5t-73 -145t-106.5 -114t-136 -75.5t-158.5 -27q-182 0 -289.5 110.5t-107.5 301.5q0 120 38 228.5t104.5 189.5t163.5 128.5t209 47.5q53 0 100.5 -10t87 -28.5t71.5 -46t56 -63.5q1 -1 4.5 -6t5.5 -8l1 1q-32 154 -107.5 284.5 t-184.5 223.5l-175 -137l-25 35l165 129q-78 60 -174 99l20 41q105 -43 192 -110l147 115l24 -37l-136 -106q151 -130 235.5 -326.5t84.5 -426.5zM492 39q132 0 238 73t165 198.5t59 276.5q0 170 -90.5 268t-253.5 98q-102 0 -190.5 -44t-149 -118.5t-95 -174.5t-34.5 -211 q0 -171 94 -268.5t257 -97.5z" />
<glyph unicode="&#xf1;" horiz-adv-x="1089" d="M556 1330q-81 0 -135 -126l-38 15q66 157 172 157q38 0 68 -16.5t65 -48.5q3 -2 8 -7q25 -23 39 -34.5t37 -23t43 -11.5q36 0 70.5 32.5t58.5 95.5l37 -18q-31 -78 -75 -116.5t-90 -38.5q-21 0 -41 6.5t-43 23t-32.5 25t-34.5 30.5q-62 55 -109 55zM702 999 q299 0 246 -403l-78 -596h-45l78 595q8 72 8 126.5t-13 94.5t-30.5 66t-45 42t-56.5 22.5t-65 6.5q-77 0 -157.5 -39.5t-147 -105t-116 -156.5t-65.5 -189l-56 -463h-45l121 992h45l-40 -327h3q74 149 201 241.5t258 92.5z" />
<glyph unicode="&#xf2;" horiz-adv-x="1096" d="M526 1425l193 -276h-57l-197 276h61zM610 999q179 0 285 -105.5t106 -297.5q0 -126 -36 -236t-100.5 -191.5t-161 -128.5t-211.5 -47q-181 0 -289 109t-108 303q0 119 36.5 226.5t101.5 189t163 130t214 48.5zM610 953q-134 0 -241.5 -71.5t-167.5 -196.5t-60 -280 q0 -172 94.5 -269t256.5 -97q134 0 239 69t164.5 196.5t59.5 291.5q0 171 -91 264t-254 93z" />
<glyph unicode="&#xf3;" horiz-adv-x="1096" d="M891 1425h63l-263 -276h-60zM610 999q179 0 285 -105.5t106 -297.5q0 -126 -36 -236t-100.5 -191.5t-161 -128.5t-211.5 -47q-181 0 -289 109t-108 303q0 119 36.5 226.5t101.5 189t163 130t214 48.5zM610 953q-134 0 -241.5 -71.5t-167.5 -196.5t-60 -280 q0 -172 94.5 -269t256.5 -97q134 0 239 69t164.5 196.5t59.5 291.5q0 171 -91 264t-254 93z" />
<glyph unicode="&#xf4;" horiz-adv-x="1096" d="M451 1147h-57l252 270v2h1l6 6h47l196 -278h-57l-162 242h-3zM610 999q118 0 205.5 -46t136.5 -137.5t49 -219.5q0 -126 -36 -236t-100.5 -191.5t-161 -128.5t-211.5 -47q-181 0 -289 109t-108 303q0 119 36.5 226.5t101.5 189t163 130t214 48.5zM492 39q134 0 239 69 t164.5 196.5t59.5 291.5q0 171 -91 264t-254 93q-134 0 -241.5 -71.5t-167.5 -196.5t-60 -280q0 -172 94.5 -269t256.5 -97z" />
<glyph unicode="&#xf5;" horiz-adv-x="1096" d="M360 1219q66 157 172 157q26 0 51.5 -10t42 -22t39.5 -33q3 -2 8 -7q25 -23 39 -34.5t37 -23t43 -11.5q36 0 70.5 32.5t58.5 95.5l37 -18q-31 -78 -75 -116.5t-90 -38.5q-17 0 -35.5 6t-30.5 12t-32 21.5t-26 21t-27 24.5q-62 55 -109 55q-81 0 -135 -126zM610 999 q179 0 285 -105.5t106 -297.5q0 -126 -36 -236t-100.5 -191.5t-161 -128.5t-211.5 -47q-181 0 -289 109t-108 303q0 119 36.5 226.5t101.5 189t163 130t214 48.5zM610 953q-134 0 -241.5 -71.5t-167.5 -196.5t-60 -280q0 -172 94.5 -269t256.5 -97q134 0 239 69t164.5 196.5 t59.5 291.5q0 171 -91 264t-254 93z" />
<glyph unicode="&#xf6;" horiz-adv-x="1096" d="M526 1352q23 0 38.5 -15.5t15.5 -39.5t-16 -40.5t-40 -16.5q-23 0 -37.5 15.5t-14.5 39.5t15.5 40.5t38.5 16.5zM797 1352q23 0 38.5 -15.5t15.5 -39.5t-16 -40.5t-40 -16.5q-23 0 -37.5 15.5t-14.5 39.5t15.5 40.5t38.5 16.5zM610 999q179 0 285 -105.5t106 -297.5 q0 -126 -36 -236t-100.5 -191.5t-161 -128.5t-211.5 -47q-181 0 -289 109t-108 303q0 119 36.5 226.5t101.5 189t163 130t214 48.5zM610 953q-134 0 -241.5 -71.5t-167.5 -196.5t-60 -280q0 -172 94.5 -269t256.5 -97q134 0 239 69t164.5 196.5t59.5 291.5q0 171 -91 264 t-254 93z" />
<glyph unicode="&#xf7;" horiz-adv-x="1129" d="M637 1015q23 0 38.5 -15.5t15.5 -39.5t-16 -40.5t-40 -16.5q-23 0 -37.5 15.5t-14.5 39.5q0 16 7 29t19.5 20.5t27.5 7.5zM1015 543h-848l5 45h848zM554 228q23 0 38.5 -15.5t15.5 -39.5t-16 -40.5t-40 -16.5q-23 0 -37.5 15.5t-14.5 39.5q0 12 4 22.5t11 18t17.5 12 t21.5 4.5z" />
<glyph unicode="&#xf8;" horiz-adv-x="1098" d="M1050 976l-119 -122q72 -102 72 -258q0 -126 -36 -236t-100.5 -191.5t-161 -128.5t-211.5 -47q-185 0 -293 114l-125 -128l-35 26l132 135q-76 105 -76 265q0 119 36.5 226.5t101.5 189t163 130t214 48.5q186 0 291 -111l114 117zM143 405q0 -139 63 -231l665 681 q-92 98 -259 98q-134 0 -241.5 -71.5t-167.5 -196.5t-60 -280zM957 596q0 135 -59 224l-664 -680q95 -101 260 -101q134 0 239 69t164.5 196.5t59.5 291.5z" />
<glyph unicode="&#xf9;" horiz-adv-x="1050" d="M654 1149h-57l-197 276h61zM905 992h45l-121 -992h-45l38 314h-3q-69 -145 -183 -233t-234 -88q-154 0 -222.5 96.5t-42.5 306.5l74 596h45l-74 -595q-7 -72 -6.5 -126.5t14.5 -94.5t32.5 -66t48 -42t61 -22.5t71.5 -6.5q71 0 144.5 39t134 104t105.5 155.5t61 187.5z " />
<glyph unicode="&#xfa;" horiz-adv-x="1050" d="M878 1425l-263 -276h-60l260 276h63zM905 992h45l-121 -992h-45l38 314h-3q-69 -145 -183 -233t-234 -88q-154 0 -222.5 96.5t-42.5 306.5l74 596h45l-74 -595q-7 -72 -6.5 -126.5t14.5 -94.5t32.5 -66t48 -42t61 -22.5t71.5 -6.5q71 0 144.5 39t134 104t105.5 155.5 t61 187.5z" />
<glyph unicode="&#xfb;" horiz-adv-x="1050" d="M397 1147h-57l252 270v2h1l6 6h47l196 -278h-57l-162 242h-3zM905 992h45l-121 -992h-45l38 314h-3q-69 -145 -183 -233t-234 -88q-154 0 -222.5 96.5t-42.5 306.5l74 596h45l-74 -595q-7 -72 -6.5 -126.5t14.5 -94.5t32.5 -66t48 -42t61 -22.5t71.5 -6.5q71 0 144.5 39 t134 104t105.5 155.5t61 187.5z" />
<glyph unicode="&#xfc;" horiz-adv-x="1050" d="M470 1240q-23 0 -37.5 15.5t-14.5 39.5t15.5 40.5t38.5 16.5t38.5 -15.5t15.5 -39.5t-16 -40.5t-40 -16.5zM741 1240q-23 0 -37.5 15.5t-14.5 39.5q0 16 7 29t19.5 20.5t27.5 7.5q23 0 38.5 -15.5t15.5 -39.5t-16 -40.5t-40 -16.5zM905 992h45l-121 -992h-45l38 314h-3 q-69 -145 -183 -233t-234 -88q-154 0 -222.5 96.5t-42.5 306.5l74 596h45l-74 -595q-7 -72 -6.5 -126.5t14.5 -94.5t32.5 -66t48 -42t61 -22.5t71.5 -6.5q71 0 144.5 39t134 104t105.5 155.5t61 187.5z" />
<glyph unicode="&#xfd;" horiz-adv-x="1042" d="M893 1425l-263 -276h-60l260 276h63zM900 992h45l-105 -857q-9 -73 -24 -136.5t-33.5 -113.5t-43 -91t-51 -71.5t-58 -54t-63 -38.5t-68 -24.5t-72 -13.5t-74.5 -4q-151 0 -301 77l14 47q140 -78 290 -78q65 0 118.5 12t108 46t95 89t72 146t46.5 213l21 175h-3 q-70 -145 -184 -233.5t-234 -88.5q-154 0 -222.5 96.5t-42.5 306.5l74 596h45l-74 -595q-7 -72 -6.5 -126.5t14.5 -94.5t32.5 -66t48 -42t61 -22.5t71.5 -6.5q74 0 150 42t137.5 111t105.5 164.5t56 196.5z" />
<glyph unicode="&#xfe;" horiz-adv-x="1114" d="M673 999q108 0 187.5 -52.5t119 -141t39.5 -200.5q0 -125 -37 -236.5t-103.5 -195t-165.5 -132t-215 -48.5q-95 0 -184.5 34t-137.5 94h-3l-63 -526h-45l233 1913h45l-103 -839h3q32 70 74.5 128.5t96 104.5t120 71.5t139.5 25.5zM501 39q105 0 194.5 45.5t150 123 t94 181t33.5 218.5q0 100 -33.5 177.5t-102.5 123t-165 45.5q-74 0 -142 -31t-121.5 -84.5t-96 -124t-68.5 -149.5t-36 -160l-21 -169l-6 -50q22 -35 55 -62t67 -42.5t73 -25.5t68.5 -13t56.5 -3z" />
<glyph unicode="&#xff;" horiz-adv-x="1042" d="M467 1240q-23 0 -37.5 15.5t-14.5 39.5t15.5 40.5t38.5 16.5t38.5 -15.5t15.5 -39.5t-16 -40.5t-40 -16.5zM738 1240q-23 0 -37.5 15.5t-14.5 39.5t15.5 40.5t38.5 16.5t38.5 -15.5t15.5 -39.5t-16 -40.5t-40 -16.5zM900 992h45l-105 -857q-9 -74 -24 -137t-33.5 -113 t-43 -91t-51 -71.5t-57.5 -54t-63 -38.5t-68.5 -24.5t-72 -13.5t-74.5 -4q-151 0 -301 77l14 47q140 -78 290 -78q65 0 118.5 12t108 46t95 89t72 146t46.5 213l21 175h-3q-70 -145 -184 -233.5t-234 -88.5q-154 0 -222.5 96.5t-42.5 306.5l74 596h45l-74 -595 q-7 -72 -6.5 -126.5t14.5 -94.5t32.5 -66t48 -42t61 -22.5t71.5 -6.5q74 0 150 42t137.5 111t105.5 164.5t56 196.5z" />
<glyph unicode="&#x131;" horiz-adv-x="419" d="M247 992h45l-121 -992h-45z" />
<glyph unicode="&#x13f;" horiz-adv-x="1001" d="M908 47l-5 -47h-769l177 1455h47l-172 -1408h722zM717 740q23 0 38.5 -15.5t15.5 -39.5t-16 -40.5t-40 -16.5q-23 0 -37.5 15.5t-14.5 39.5t15.5 40.5t38.5 16.5z" />
<glyph unicode="&#x140;" horiz-adv-x="439" d="M309 1508h45l-184 -1508h-45zM449 611q23 0 38.5 -15.5t15.5 -39.5t-16 -40.5t-40 -16.5q-23 0 -37.5 15.5t-14.5 39.5t15.5 40.5t38.5 16.5z" />
<glyph unicode="&#x152;" horiz-adv-x="1752" d="M1732 1408h-713l-81 -656h599l-5 -47h-599l-81 -658h752l-5 -47h-891q-255 0 -404 164t-149 447q0 133 33.5 259t97 231.5t150.5 185t200 124t238 44.5h863zM806 48l165 1359h-98q-98 0 -188 -29.5t-163 -82.5t-133 -127.5t-101 -162t-63 -188.5t-22 -206 q0 -262 134.5 -412.5t371.5 -150.5h97z" />
<glyph unicode="&#x153;" horiz-adv-x="1512" d="M1113 39q67 0 145.5 42.5t133.5 115.5l37 -28q-39 -51 -92.5 -91.5t-112 -62.5t-111.5 -22q-135 0 -222.5 84t-108.5 231h-4q-55 -143 -156 -229t-229 -86q-141 0 -230 107t-89 293q0 127 36 240t97 193t144.5 126.5t175.5 46.5q60 0 111 -21.5t89.5 -61.5t63.5 -98 t34 -131h2q39 97 101 167t145.5 107.5t181.5 37.5q107 0 172.5 -57.5t65.5 -152.5q0 -285 -674 -402q3 -162 82 -255t212 -93zM394 39q99 0 184.5 64t140.5 179.5t65 258.5q9 125 -18.5 218t-89 143.5t-150.5 50.5q-111 0 -204.5 -73.5t-147.5 -202.5t-54 -284 q0 -167 75.5 -260.5t198.5 -93.5zM1255 953q-125 0 -221 -66t-149.5 -178.5t-63.5 -258.5q0 -3 -0.5 -8.5t-0.5 -7.5q80 14 150.5 30.5t144 39t131.5 51.5t104.5 63.5t71.5 78.5t25 94q0 38 -13.5 67.5t-34 47t-47 28.5t-50.5 15t-47 4z" />
<glyph unicode="&#x178;" horiz-adv-x="1036" d="M536 1731q-23 0 -37.5 15.5t-14.5 39.5t15.5 40.5t38.5 16.5q15 0 27.5 -7t19.5 -19.5t7 -28.5q0 -12 -4.5 -22.5t-11.5 -18t-17.5 -12t-22.5 -4.5zM807 1731q-23 0 -37.5 15.5t-14.5 39.5t15.5 40.5t38.5 16.5t38.5 -15.5t15.5 -39.5t-16 -40.5t-40 -16.5zM1060 1455h56 l-554 -793l-81 -662h-47l81 662l-358 793h52l332 -736h4z" />
<glyph unicode="&#x237;" horiz-adv-x="330" d="M-228 -333q21 -15 40.5 -22.5t32 -9t32.5 -1.5q34 0 59 8.5t50 32t42.5 71.5t26.5 120l137 1126h45l-138 -1128q-9 -70 -24.5 -120t-42 -85.5t-66 -53t-92.5 -17.5q-61 0 -111 31z" />
<glyph unicode="&#x2c6;" horiz-adv-x="996" d="M768 1120l-162 242h-3l-223 -242h-57l252 270v2h1l6 6h47l196 -278h-57z" />
<glyph unicode="&#x2dc;" horiz-adv-x="988" d="M289 1193q66 157 172 157q38 0 68 -16.5t65 -48.5q3 -2 8 -7q25 -23 39 -34.5t37 -23t43 -11.5q36 0 70.5 32.5t58.5 95.5l37 -18q-31 -78 -75 -116.5t-90 -38.5q-15 0 -28.5 3t-29 11.5t-24 13t-26 19t-21.5 18t-22 20.5q-62 55 -109 55q-81 0 -135 -126z" />
<glyph unicode="&#x2000;" horiz-adv-x="963" />
<glyph unicode="&#x2001;" horiz-adv-x="1927" />
<glyph unicode="&#x2002;" horiz-adv-x="963" />
<glyph unicode="&#x2003;" horiz-adv-x="1927" />
<glyph unicode="&#x2004;" horiz-adv-x="642" />
<glyph unicode="&#x2005;" horiz-adv-x="481" />
<glyph unicode="&#x2006;" horiz-adv-x="321" />
<glyph unicode="&#x2007;" horiz-adv-x="321" />
<glyph unicode="&#x2008;" horiz-adv-x="240" />
<glyph unicode="&#x2009;" horiz-adv-x="40" />
<glyph unicode="&#x200a;" horiz-adv-x="107" />
<glyph unicode="&#x2010;" horiz-adv-x="779" d="M669 606h-531l5 48h531z" />
<glyph unicode="&#x2011;" horiz-adv-x="779" d="M669 606h-531l5 48h531z" />
<glyph unicode="&#x2012;" horiz-adv-x="779" d="M669 606h-531l5 48h531z" />
<glyph unicode="&#x2013;" horiz-adv-x="1204" d="M1091 585h-956l5 44h956z" />
<glyph unicode="&#x2014;" horiz-adv-x="2160" d="M2047 585h-1912l5 44h1912z" />
<glyph unicode="&#x2018;" horiz-adv-x="342" d="M246 1008h-55l132 446h43z" />
<glyph unicode="&#x2019;" horiz-adv-x="329" d="M291 1455h55l-132 -446h-43z" />
<glyph unicode="&#x201a;" horiz-adv-x="326" d="M109 184h56l-136 -446h-40z" />
<glyph unicode="&#x201c;" horiz-adv-x="500" d="M246 1008h-55l132 446h43zM404 1008h-55l132 446h43z" />
<glyph unicode="&#x201d;" horiz-adv-x="487" d="M291 1455h55l-132 -446h-43zM449 1455h55l-132 -446h-43z" />
<glyph unicode="&#x201e;" horiz-adv-x="478" d="M119 296h55l-132 -446h-43zM277 296h55l-132 -446h-43z" />
<glyph unicode="&#x2022;" horiz-adv-x="783" d="M413 819q73 0 122 -48t49 -121q0 -76 -51 -126.5t-127 -50.5q-73 0 -121.5 49t-48.5 123t50.5 124t126.5 50z" />
<glyph unicode="&#x2026;" horiz-adv-x="2048" d="M281 95q23 0 38.5 -15.5t15.5 -39.5t-16 -40.5t-40 -16.5q-23 0 -37.5 15.5t-14.5 39.5t15.5 40.5t38.5 16.5zM964 95q23 0 38.5 -15.5t15.5 -39.5t-16 -40.5t-40 -16.5q-23 0 -37.5 15.5t-14.5 39.5q0 16 7 29t19.5 20.5t27.5 7.5zM1647 95q23 0 38.5 -15.5t15.5 -39.5 t-16 -40.5t-40 -16.5q-23 0 -37.5 15.5t-14.5 39.5t15.5 40.5t38.5 16.5z" />
<glyph unicode="&#x202f;" horiz-adv-x="385" />
<glyph unicode="&#x2039;" horiz-adv-x="482" d="M311 26h-45l-186 473l300 469h46l-296 -469z" />
<glyph unicode="&#x203a;" horiz-adv-x="482" d="M57 26l297 473l-181 469h46l185 -469l-302 -473h-45z" />
<glyph unicode="&#x2044;" horiz-adv-x="402" d="M622 1453l-742 -1468l-41 17l742 1468z" />
<glyph unicode="&#x205f;" horiz-adv-x="481" />
<glyph unicode="&#x2070;" horiz-adv-x="717" d="M513 1742q116 0 185.5 -87.5t69.5 -247.5q0 -99 -24 -191.5t-67.5 -166.5t-112.5 -118.5t-152 -44.5q-77 0 -134.5 37.5t-89.5 113.5t-32 182q0 100 24 192.5t67.5 167t112.5 119t153 44.5zM512 1697q-75 0 -136 -41.5t-98 -110.5t-57 -153t-20 -174q0 -139 57.5 -213 t155.5 -74q75 0 135.5 42t97.5 111t56.5 153t19.5 173q0 94 -27 159.5t-74 96.5t-110 31z" />
<glyph unicode="&#x2074;" horiz-adv-x="664" d="M564 1094h126l-6 -44h-126l-19 -157h-44l19 157h-400l6 41l486 644h37zM520 1094l66 544l-407 -544h341z" />
<glyph unicode="&#x2075;" horiz-adv-x="627" d="M693 1691h-374l-53 -305q64 34 156 34q112 0 177 -60t65 -169q0 -137 -88 -221t-222 -84q-90 0 -153 39.5t-92 108.5l38 21q24 -58 77 -91.5t130 -33.5q116 0 190.5 71.5t74.5 191.5q0 89 -53 136t-152 47q-45 0 -91 -13.5t-77 -37.5l-34 7l73 403h414z" />
<glyph unicode="&#x2076;" horiz-adv-x="648" d="M466 1421q66 0 115.5 -27.5t75.5 -77t26 -115.5q0 -63 -22.5 -120.5t-62.5 -100t-97 -67.5t-123 -25q-105 0 -168.5 70t-63.5 190q0 98 37 202t99 190t149 148t181 79l1 -43q-134 -25 -243 -144t-154 -272l3 -1q46 52 111 83t136 31zM380 933q113 0 185 79.5t72 191.5 q0 54 -21.5 92.5t-63 59t-100.5 20.5q-78 0 -148.5 -48.5t-107.5 -119.5q-4 -28 -4 -62q0 -68 25 -116.5t67 -72.5t96 -24z" />
<glyph unicode="&#x2077;" horiz-adv-x="581" d="M190 1735h502l-5 -41l-456 -812l-45 13l449 796h-451z" />
<glyph unicode="&#x2078;" horiz-adv-x="663" d="M544 1350q39 -12 70.5 -38.5t50.5 -67.5t19 -88q0 -79 -42 -141.5t-111 -95.5t-152 -33q-111 0 -176.5 57t-65.5 152q0 90 60 161.5t137 91.5v2q-42 13 -73.5 54t-31.5 100q0 105 76.5 171.5t182.5 66.5q94 0 149.5 -49t55.5 -130q0 -80 -47.5 -137.5t-101.5 -73.5v-2z M274 1509q0 -32 12 -58t34 -43.5t53.5 -27t68.5 -9.5q87 0 146.5 54t59.5 136q0 66 -45 101t-122 35q-88 0 -147.5 -55.5t-59.5 -132.5zM388 931q42 0 81 11.5t69.5 32t53.5 48.5t35 62.5t12 71.5q0 78 -56.5 123.5t-150.5 45.5q-51 0 -97 -17.5t-79.5 -48t-53.5 -73 t-20 -89.5q0 -82 56.5 -124.5t149.5 -42.5z" />
<glyph unicode="&#x2079;" horiz-adv-x="670" d="M491 1742q104 0 168.5 -72t64.5 -190q0 -98 -37.5 -200.5t-99.5 -188t-148.5 -147t-179.5 -78.5l-2 43q90 18 174 83.5t143.5 158t86.5 195.5l-2 1q-46 -59 -112.5 -95t-141.5 -36q-64 0 -114 26.5t-76.5 74t-26.5 107.5q0 133 88.5 225.5t214.5 92.5zM410 1261 q56 0 110 25.5t93.5 64.5t63.5 86q2 28 2 44q0 101 -55 158.5t-136 57.5q-69 0 -128 -36.5t-93 -99t-34 -137.5q0 -49 22 -86t62 -57t93 -20z" />
<glyph unicode="&#x207a;" horiz-adv-x="650" d="M672 1309l-6 -45h-222l-31 -251h-45l31 251h-227l6 45h226l31 252h45l-31 -252h223z" />
<glyph unicode="&#x207c;" horiz-adv-x="698" d="M711 1431h-494l5 45h494zM669 1088h-494l5 44h494z" />
<glyph unicode="&#x207d;" horiz-adv-x="267" d="M182 1164q0 180 54 365.5t151 326.5l-34 21q-102 -150 -159 -341.5t-57 -379.5q0 -200 66 -398l45 22q-66 190 -66 384z" />
<glyph unicode="&#x207e;" horiz-adv-x="268" d="M331 1476q0 230 -76 403l-42 -25q73 -167 73 -389q0 -352 -197 -687l38 -18q204 351 204 716z" />
<glyph unicode="&#x207f;" horiz-adv-x="647" d="M387 467q86 0 125.5 -57.5t24.5 -175.5l-49 -370h-45l48 369q25 189 -105 189q-103 0 -185.5 -82.5t-99.5 -205.5l-33 -269h-45l73 597h45l-18 -151h2q47 73 117.5 114.5t144.5 41.5z" />
<glyph unicode="&#x2080;" horiz-adv-x="717" d="M384 714q116 0 185.5 -87.5t69.5 -247.5q0 -99 -24 -191.5t-67.5 -166.5t-112.5 -118.5t-152 -44.5q-117 0 -186.5 87t-69.5 246q0 100 24 192.5t67.5 167t112.5 119t153 44.5zM383 669q-75 0 -136 -41.5t-98 -110.5t-57 -153t-20 -174q0 -139 57.5 -213t155.5 -74 q75 0 135.5 42t97.5 111t56.5 153t19.5 173q0 140 -57 213.5t-154 73.5z" />
<glyph unicode="&#x2081;" horiz-adv-x="432" d="M277 707h37l-104 -842h-44l95 778l-199 -140l-21 38z" />
<glyph unicode="&#x2082;" horiz-adv-x="617" d="M51 -88l-1 -3h424l-6 -44h-496l5 37l340 305q31 28 54.5 51.5t46 52.5t37 56.5t23.5 60.5t9 67q0 80 -43 127t-122 47q-62 0 -126 -37t-100 -103l-34 27q40 71 112.5 114.5t149.5 43.5q92 0 150 -57t58 -157q0 -91 -46.5 -167t-135.5 -155z" />
<glyph unicode="&#x2083;" horiz-adv-x="619" d="M388 302q62 -21 93.5 -68.5t31.5 -113.5q0 -118 -80.5 -190t-200.5 -72q-97 0 -162 42t-88 112l43 17q20 -60 72.5 -93t135.5 -33q106 0 170.5 59.5t64.5 157.5q0 69 -51.5 115t-143.5 46h-77l6 45h87q92 0 151 55.5t59 141.5q0 47 -20.5 80t-60 49.5t-94.5 16.5 q-131 0 -208 -100l-37 27q91 118 246 118q97 0 158 -49.5t61 -137.5q0 -83 -41 -140t-115 -82v-3z" />
<glyph unicode="&#x2084;" horiz-adv-x="664" d="M435 66h126l-6 -44h-126l-19 -157h-44l19 157h-400l6 41l486 644h37zM391 66l66 544l-407 -544h341z" />
<glyph unicode="&#x2085;" horiz-adv-x="627" d="M564 663h-374l-53 -305q64 34 156 34q112 0 177 -60t65 -169q0 -91 -41 -161t-111.5 -107t-157.5 -37q-90 0 -153 39.5t-92 108.5l38 21q24 -58 77 -91.5t130 -33.5q76 0 135.5 31.5t94.5 91.5t35 140q0 59 -24 100t-70 62t-111 21q-30 0 -60.5 -6t-58.5 -17.5t-49 -27.5 l-34 7l73 403h414z" />
<glyph unicode="&#x2086;" horiz-adv-x="648" d="M340 393q100 0 158.5 -60t58.5 -160q0 -85 -38.5 -156t-109 -114t-157.5 -43q-105 0 -168.5 70t-63.5 190q0 99 37 202.5t99 189.5t149 148t181 79l1 -43q-134 -25 -243 -144t-154 -272l3 -1q46 52 111 83t136 31zM254 -95q57 0 105.5 22t81.5 59t51.5 86.5t18.5 103.5 q0 82 -48 127t-137 45q-78 0 -148.5 -48.5t-107.5 -119.5q-4 -28 -4 -62q0 -101 52.5 -157t135.5 -56z" />
<glyph unicode="&#x2087;" horiz-adv-x="581" d="M64 707h502l-5 -41l-456 -812l-45 13l449 796h-451z" />
<glyph unicode="&#x2088;" horiz-adv-x="663" d="M415 322q60 -18 100 -71t40 -123q0 -79 -42 -141.5t-111 -95.5t-152 -33q-111 0 -176.5 57t-65.5 152q0 90 60 161.5t137 91.5v2q-27 8 -50 27.5t-39 53t-16 73.5q0 105 76.5 171.5t182.5 66.5q94 0 149.5 -49t55.5 -130q0 -80 -47.5 -137.5t-101.5 -73.5v-2zM145 481 q0 -64 46 -101t122 -37q87 0 146.5 54t59.5 136q0 66 -45 101t-122 35q-58 0 -106 -26t-74.5 -69t-26.5 -93zM259 -97q107 0 179 65.5t72 160.5q0 78 -56.5 123.5t-150.5 45.5q-104 0 -177 -66t-73 -162q0 -55 27 -93t73 -56t106 -18z" />
<glyph unicode="&#x2089;" horiz-adv-x="670" d="M361 714q104 0 168.5 -72t64.5 -190q0 -98 -37.5 -200.5t-99.5 -188t-148.5 -147t-179.5 -78.5l-2 43q90 18 174 83.5t143.5 158t86.5 195.5l-2 1q-46 -59 -112.5 -95t-141.5 -36q-64 0 -114 26.5t-76.5 74t-26.5 107.5q0 133 88.5 225.5t214.5 92.5zM280 233 q83 0 156 51.5t111 124.5q2 28 2 44q0 101 -54.5 158.5t-136.5 57.5q-69 0 -128 -36.5t-93 -99t-34 -137.5q0 -74 48.5 -118.5t128.5 -44.5z" />
<glyph unicode="&#x208a;" horiz-adv-x="650" d="M544 267l-6 -45h-222l-31 -251h-45l31 251h-227l6 45h226l31 252h45l-31 -252h223z" />
<glyph unicode="&#x208b;" horiz-adv-x="650" d="M538 222h-494l6 45h494z" />
<glyph unicode="&#x208c;" horiz-adv-x="698" d="M585 405h-494l5 45h494zM543 62h-494l5 45h494z" />
<glyph unicode="&#x208d;" horiz-adv-x="272" d="M64 140q0 180 54 365.5t151 326.5l-34 21q-102 -150 -159 -341.5t-57 -379.5q0 -200 66 -398l45 22q-66 190 -66 384z" />
<glyph unicode="&#x208e;" horiz-adv-x="269" d="M214 450q0 230 -76 403l-42 -25q73 -167 73 -389q0 -352 -197 -687l38 -18q204 351 204 716z" />
<glyph unicode="&#x2090;" horiz-adv-x="681" d="M533 456h46l-74 -592h-43l19 166h-3q-43 -80 -110.5 -124.5t-148.5 -44.5q-97 0 -153.5 63t-56.5 178q0 71 21 135t60 114t99.5 79.5t134.5 29.5q56 0 110.5 -18t87.5 -49h4zM225 -93q96 0 176.5 80.5t97.5 194.5l19 155q-8 16 -26.5 30.5t-43 25t-55 16.5t-61.5 6 q-124 0 -200.5 -87.5t-76.5 -223.5q0 -92 44 -144.5t126 -52.5z" />
<glyph unicode="&#x2091;" horiz-adv-x="584" d="M242 -97q114 0 186 89l35 -28q-86 -106 -221 -106q-109 0 -173.5 66t-64.5 179q0 98 39.5 179t112.5 129.5t165 48.5q27 0 55.5 -6t58 -19.5t48.5 -42t19 -67.5q0 -44 -29 -81t-74 -61.5t-107.5 -43t-121 -29t-121.5 -16.5q2 -89 53.5 -140t139.5 -51zM321 415 q-109 0 -184 -77t-86 -198q186 18 295.5 68t109.5 117q0 42 -36 66t-99 24z" />
<glyph unicode="&#x2092;" horiz-adv-x="670" d="M331 457q107 0 170 -62.5t63 -177.5q0 -100 -37.5 -181.5t-107.5 -129.5t-159 -48q-108 0 -172 65t-64 181q0 94 38 174.5t109 129.5t160 49zM329 411q-111 0 -185 -87t-74 -217q0 -48 13 -86t37.5 -63.5t60.5 -39.5t81 -14q112 0 184 87.5t72 222.5q0 63 -22 107 t-64.5 67t-102.5 23z" />
<glyph unicode="&#x2093;" horiz-adv-x="546" d="M513 462l-254 -296l183 -301h-57l-156 260h-2l-220 -260h-56l252 301l-179 296h56l153 -255h4l219 255h57z" />
<glyph unicode="&#x20ac;" horiz-adv-x="1088" d="M781 1342q-100 0 -189.5 -38t-160 -106t-122 -161.5t-80.5 -205.5h621l-6 -47h-626q-18 -93 -21 -193h624l-6 -46h-618q3 -124 37.5 -221.5t92 -158.5t131.5 -93t159 -32q188 0 343 116l23 -41q-167 -122 -368 -122q-93 0 -175 35t-146.5 101.5t-103 173.5t-41.5 242 h-114l6 46h108q3 100 21 193h-106l6 47h110q30 122 86.5 224.5t133 176.5t175.5 115.5t208 41.5q194 0 332 -119l-31 -38q-123 110 -303 110z" />
<glyph unicode="&#x2116;" horiz-adv-x="2018" d="M1682 857q-108 0 -172 65t-64 181q0 94 38 174.5t109 129.5t160 49q107 0 170 -62.5t63 -177.5q0 -100 -37.5 -181.5t-107.5 -129.5t-159 -48zM1108 92l167 1363h47l-177 -1455h-45l-750 1362h-2l-167 -1362h-47l177 1455h42l752 -1363h3zM1751 1410q-111 0 -185 -87 t-74 -217q0 -96 50.5 -149.5t141.5 -53.5q112 0 184 87.5t72 222.5q0 95 -49 146t-140 51zM1409 681l3 44h497l-3 -44h-497z" />
<glyph unicode="&#x2122;" horiz-adv-x="1234" d="M151 1411l6 44h421l-6 -44h-190l-76 -619h-45l76 619h-186zM1209 1455h45l-82 -663h-45l70 571l-278 -431h-33l-175 434l-70 -574h-44l82 663h46l184 -465z" />
<glyph unicode="&#x2190;" horiz-adv-x="1279" d="M492 218l-493 329l411 331l38 -308h733l6 -46h-733z" />
<glyph unicode="&#x2191;" horiz-adv-x="1159" d="M909 733h-306v-733h-46v733h-308l331 452z" />
<glyph unicode="&#x2192;" horiz-adv-x="1279" d="M787 218l38 306h-733l6 46h733l38 308l411 -331z" />
<glyph unicode="&#x2193;" horiz-adv-x="1159" d="M909 452l-329 -452l-331 452h308v733h46v-733h306z" />
<glyph unicode="&#x2236;" horiz-adv-x="352" d="M246 1127q23 0 38.5 -15.5t15.5 -39.5t-16 -40.5t-40 -16.5q-23 0 -37.5 15.5t-14.5 39.5t15.5 40.5t38.5 16.5zM134 213q11 0 21 -4t17.5 -11.5t11.5 -17.5t4 -22q0 -16 -7.5 -29t-20 -20.5t-28.5 -7.5q-23 0 -37.5 15.5t-14.5 39.5t15.5 40.5t38.5 16.5z" />
<glyph unicode="&#x25fc;" horiz-adv-x="990" d="M0 990h990v-990h-990v990z" />
<glyph unicode="&#x2780;" horiz-adv-x="1565" d="M885 1447q137 0 258.5 -50.5t208 -137.5t136.5 -209.5t50 -260.5q0 -108 -29 -213t-81 -194t-127 -165t-164 -129.5t-195 -83.5t-217 -30q-137 0 -257.5 50.5t-207 137.5t-136 209t-49.5 260q0 108 30 213t84 194t129.5 165.5t164.5 130t192.5 83.5t209.5 30zM725 19 q155 0 297 61.5t245 165t164.5 246t61.5 297.5q0 129 -46.5 243t-127 195t-193.5 128t-241 47q-86 0 -170.5 -21t-159.5 -60t-142 -92.5t-120.5 -121t-92 -143t-59.5 -161t-21 -172.5q0 -104 29.5 -198t84 -169t128.5 -130t167.5 -85t195.5 -30zM631 969l236 166h37 l-104 -842h-44l95 778l-199 -140z" />
<glyph unicode="&#x2781;" horiz-adv-x="1565" d="M885 1447q137 0 258.5 -50.5t208 -137.5t136.5 -209.5t50 -260.5q0 -108 -29 -213t-81 -194t-127 -165t-164 -129.5t-195 -83.5t-217 -30q-137 0 -257.5 50.5t-207 137.5t-136 209t-49.5 260q0 108 30 213t84 194t129.5 165.5t164.5 130t192.5 83.5t209.5 30zM725 19 q155 0 297 61.5t245 165t164.5 246t61.5 297.5q0 129 -46.5 243t-127 195t-193.5 128t-241 47q-86 0 -170.5 -21t-159.5 -60t-142 -92.5t-120.5 -121t-92 -143t-59.5 -161t-21 -172.5q0 -104 29.5 -198t84 -169t128.5 -130t167.5 -85t195.5 -30zM887 606l-299 -266l-1 -3 h424l-6 -44h-496l5 37l340 305q83 74 126.5 140.5t43.5 147.5q0 80 -43 127t-122 47q-62 0 -126 -37t-100 -103l-34 27q27 47 69 83t92 55.5t101 19.5q92 0 150 -57t58 -157q0 -91 -46.5 -167t-135.5 -155z" />
<glyph unicode="&#x2782;" horiz-adv-x="1565" d="M885 1447q137 0 258.5 -50.5t208 -137.5t136.5 -209.5t50 -260.5q0 -108 -29 -213t-81 -194t-127 -165t-164 -129.5t-195 -83.5t-217 -30q-137 0 -257.5 50.5t-207 137.5t-136 209t-49.5 260q0 108 30 213t84 194t129.5 165.5t164.5 130t192.5 83.5t209.5 30zM725 19 q155 0 297 61.5t245 165t164.5 246t61.5 297.5q0 129 -46.5 243t-127 195t-193.5 128t-241 47q-86 0 -170.5 -21t-159.5 -60t-142 -92.5t-120.5 -121t-92 -143t-59.5 -161t-21 -172.5q0 -104 29.5 -198t84 -169t128.5 -130t167.5 -85t195.5 -30zM1087 955q0 -83 -41 -140 t-115 -82v-3q62 -21 93.5 -68.5t31.5 -113.5q0 -118 -80.5 -190t-200.5 -72q-97 0 -162 42t-88 112l43 17q13 -39 40 -67t69.5 -43.5t98.5 -15.5q106 0 170.5 59.5t64.5 157.5q0 45 -21.5 81t-66.5 58t-107 22h-77l6 45h87q92 0 151 55.5t59 141.5q0 47 -20.5 80t-60 49.5 t-94.5 16.5q-131 0 -208 -100l-37 27q91 118 246 118q64 0 113 -21t77.5 -64t28.5 -102z" />
<glyph unicode="&#x2783;" horiz-adv-x="1565" d="M885 1447q137 0 258.5 -50.5t208 -137.5t136.5 -209.5t50 -260.5q0 -108 -29 -213t-81 -194t-127 -165t-164 -129.5t-195 -83.5t-217 -30q-137 0 -257.5 50.5t-207 137.5t-136 209t-49.5 260q0 108 30 213t84 194t129.5 165.5t164.5 130t192.5 83.5t209.5 30zM725 19 q155 0 297 61.5t245 165t164.5 246t61.5 297.5q0 129 -46.5 243t-127 195t-193.5 128t-241 47q-86 0 -170.5 -21t-159.5 -60t-142 -92.5t-120.5 -121t-92 -143t-59.5 -161t-21 -172.5q0 -104 29.5 -198t84 -169t128.5 -130t167.5 -85t195.5 -30zM993 1135l-79 -641h126 l-6 -44h-126l-19 -157h-44l19 157h-400l6 41l486 644h37zM870 494l66 544l-407 -544h341z" />
<glyph unicode="&#x2784;" horiz-adv-x="1565" d="M885 1447q137 0 258.5 -50.5t208 -137.5t136.5 -209.5t50 -260.5q0 -108 -29 -213t-81 -194t-127 -165t-164 -129.5t-195 -83.5t-217 -30q-137 0 -257.5 50.5t-207 137.5t-136 209t-49.5 260q0 108 30 213t84 194t129.5 165.5t164.5 130t192.5 83.5t209.5 30zM725 19 q155 0 297 61.5t245 165t164.5 246t61.5 297.5q0 129 -46.5 243t-127 195t-193.5 128t-241 47q-86 0 -170.5 -21t-159.5 -60t-142 -92.5t-120.5 -121t-92 -143t-59.5 -161t-21 -172.5q0 -104 29.5 -198t84 -169t128.5 -130t167.5 -85t195.5 -30zM608 732l73 403h414l-6 -44 h-374l-53 -305q65 34 156 34q112 0 177 -60t65 -169q0 -137 -88 -221t-222 -84q-90 0 -153 39.5t-92 108.5l38 21q24 -58 77 -91.5t130 -33.5q116 0 190.5 71.5t74.5 191.5q0 89 -53 136t-152 47q-45 0 -91 -13.5t-77 -37.5z" />
<glyph unicode="&#x2785;" horiz-adv-x="1565" d="M885 1447q137 0 258.5 -50.5t208 -137.5t136.5 -209.5t50 -260.5q0 -108 -29 -213t-81 -194t-127 -165t-164 -129.5t-195 -83.5t-217 -30q-137 0 -257.5 50.5t-207 137.5t-136 209t-49.5 260q0 108 30 213t84 194t129.5 165.5t164.5 130t192.5 83.5t209.5 30zM725 19 q155 0 297 61.5t245 165t164.5 246t61.5 297.5q0 129 -46.5 243t-127 195t-193.5 128t-241 47q-86 0 -170.5 -21t-159.5 -60t-142 -92.5t-120.5 -121t-92 -143t-59.5 -161t-21 -172.5q0 -104 29.5 -198t84 -169t128.5 -130t167.5 -85t195.5 -30zM827 819q100 0 158.5 -60 t58.5 -160q0 -85 -38.5 -156t-109 -114t-157.5 -43q-105 0 -168.5 70t-63.5 190q0 99 37 202.5t99 189.5t149 148t181 79l1 -43q-134 -25 -243 -144t-154 -272l3 -1q23 26 50.5 46.5t59 36t66.5 23.5t71 8zM741 331q113 0 185 79.5t72 191.5q0 82 -48 127t-137 45 q-78 0 -148.5 -48.5t-107.5 -119.5q-4 -28 -4 -62q0 -101 52.5 -157t135.5 -56z" />
<glyph unicode="&#x2786;" horiz-adv-x="1565" d="M885 1447q137 0 258.5 -50.5t208 -137.5t136.5 -209.5t50 -260.5q0 -108 -29 -213t-81 -194t-127 -165t-164 -129.5t-195 -83.5t-217 -30q-137 0 -257.5 50.5t-207 137.5t-136 209t-49.5 260q0 108 30 213t84 194t129.5 165.5t164.5 130t192.5 83.5t209.5 30zM725 19 q155 0 297 61.5t245 165t164.5 246t61.5 297.5q0 129 -46.5 243t-127 195t-193.5 128t-241 47q-86 0 -170.5 -21t-159.5 -60t-142 -92.5t-120.5 -121t-92 -143t-59.5 -161t-21 -172.5q0 -104 29.5 -198t84 -169t128.5 -130t167.5 -85t195.5 -30zM616 1091l6 44h502l-5 -41 l-456 -812l-45 13l449 796h-451z" />
<glyph unicode="&#x2787;" horiz-adv-x="1565" d="M885 1447q137 0 258.5 -50.5t208 -137.5t136.5 -209.5t50 -260.5q0 -108 -29 -213t-81 -194t-127 -165t-164 -129.5t-195 -83.5t-217 -30q-137 0 -257.5 50.5t-207 137.5t-136 209t-49.5 260q0 108 30 213t84 194t129.5 165.5t164.5 130t192.5 83.5t209.5 30zM725 19 q155 0 297 61.5t245 165t164.5 246t61.5 297.5q0 129 -46.5 243t-127 195t-193.5 128t-241 47q-86 0 -170.5 -21t-159.5 -60t-142 -92.5t-120.5 -121t-92 -143t-59.5 -161t-21 -172.5q0 -104 29.5 -198t84 -169t128.5 -130t167.5 -85t195.5 -30zM1066 963q0 -41 -14.5 -79 t-37 -64t-48 -43.5t-49.5 -24.5v-2q39 -12 70.5 -38.5t50.5 -67.5t19 -88q0 -79 -42 -141.5t-111 -95.5t-152 -33q-111 0 -176.5 57t-65.5 152q0 90 60 161.5t137 91.5v2q-42 13 -73.5 54t-31.5 100q0 105 76.5 171.5t182.5 66.5q94 0 149.5 -49t55.5 -130zM647 909 q0 -64 46 -101t122 -37q87 0 146.5 54t59.5 136q0 44 -21.5 75t-58.5 46t-87 15q-88 0 -147.5 -55.5t-59.5 -132.5zM1012 557q0 78 -56.5 123.5t-150.5 45.5q-104 0 -177 -66t-73 -162q0 -82 56.5 -124.5t149.5 -42.5q107 0 179 65.5t72 160.5z" />
<glyph unicode="&#x2788;" horiz-adv-x="1565" d="M885 1447q137 0 258.5 -50.5t208 -137.5t136.5 -209.5t50 -260.5q0 -108 -29 -213t-81 -194t-127 -165t-164 -129.5t-195 -83.5t-217 -30q-137 0 -257.5 50.5t-207 137.5t-136 209t-49.5 260q0 108 30 213t84 194t129.5 165.5t164.5 130t192.5 83.5t209.5 30zM725 19 q155 0 297 61.5t245 165t164.5 246t61.5 297.5q0 129 -46.5 243t-127 195t-193.5 128t-241 47q-86 0 -170.5 -21t-159.5 -60t-142 -92.5t-120.5 -121t-92 -143t-59.5 -161t-21 -172.5q0 -104 29.5 -198t84 -169t128.5 -130t167.5 -85t195.5 -30zM866 1142q104 0 168.5 -72 t64.5 -190q0 -98 -37.5 -200.5t-99.5 -188t-148.5 -147t-179.5 -78.5l-2 43q68 14 133.5 55.5t118 100t92.5 131.5t60 150l-2 1q-46 -59 -112.5 -95t-141.5 -36q-97 0 -157 58t-60 150q0 133 88.5 225.5t214.5 92.5zM1052 837q2 28 2 44q0 101 -55 158.5t-136 57.5 q-106 0 -180.5 -79.5t-74.5 -193.5q0 -74 48.5 -118.5t128.5 -44.5q83 0 156 51.5t111 124.5z" />
<glyph unicode="&#x278a;" horiz-adv-x="1565" d="M725 -26q-137 0 -257.5 50.5t-206.5 137.5t-136 209t-50 260q0 108 30 213t84 194t129.5 165.5t164.5 130t192.5 83.5t209.5 30q137 0 258.5 -50.5t208 -137.5t136.5 -209.5t50 -260.5q0 -108 -29 -213t-81 -194t-127 -165t-164 -129.5t-195 -83.5t-217 -30zM867 1135 l-236 -166l21 -38l199 140l-95 -778h44l104 842h-37z" />
<glyph unicode="&#x278b;" horiz-adv-x="1565" d="M725 -26q-137 0 -257.5 50.5t-206.5 137.5t-136 209t-50 260q0 108 30 213t84 194t129.5 165.5t164.5 130t192.5 83.5t209.5 30q137 0 258.5 -50.5t208 -137.5t136.5 -209.5t50 -260.5q0 -108 -29 -213t-81 -194t-127 -165t-164 -129.5t-195 -83.5t-217 -30zM588 340 l299 266q89 79 135.5 155t46.5 167q0 100 -58 157t-150 57q-77 0 -149.5 -43t-112.5 -115l34 -27q24 45 63.5 77.5t81 47.5t81.5 15q79 0 122 -47t43 -127q0 -81 -43.5 -147.5t-126.5 -140.5l-340 -305l-5 -37h496l6 44h-424z" />
<glyph unicode="&#x278c;" horiz-adv-x="1565" d="M725 -26q-137 0 -257.5 50.5t-206.5 137.5t-136 209t-50 260q0 108 30 213t84 194t129.5 165.5t164.5 130t192.5 83.5t209.5 30q137 0 258.5 -50.5t208 -137.5t136.5 -209.5t50 -260.5q0 -108 -29 -213t-81 -194t-127 -165t-164 -129.5t-195 -83.5t-217 -30zM931 730v3 q74 25 115 82t41 140q0 88 -61 137.5t-158 49.5q-155 0 -246 -118l37 -27q77 100 208 100q84 0 129.5 -37.5t45.5 -108.5q0 -86 -59 -141.5t-151 -55.5h-87l-6 -45h77q92 0 143.5 -46t51.5 -115q0 -98 -64.5 -157.5t-170.5 -59.5q-83 0 -135.5 33t-72.5 93l-43 -17 q23 -70 88 -112t162 -42q120 0 200.5 72t80.5 190q0 66 -31.5 113.5t-93.5 68.5z" />
<glyph unicode="&#x278d;" horiz-adv-x="1565" d="M725 -26q-137 0 -257.5 50.5t-206.5 137.5t-136 209t-50 260q0 108 30 213t84 194t129.5 165.5t164.5 130t192.5 83.5t209.5 30q137 0 258.5 -50.5t208 -137.5t136.5 -209.5t50 -260.5q0 -108 -29 -213t-81 -194t-127 -165t-164 -129.5t-195 -83.5t-217 -30zM914 494 l79 641h-37l-486 -644l-6 -41h400l-19 -157h44l19 157h126l6 44h-126zM870 494l66 544l-407 -544h341z" />
<glyph unicode="&#x278e;" horiz-adv-x="1565" d="M725 -26q-137 0 -257.5 50.5t-206.5 137.5t-136 209t-50 260q0 108 30 213t84 194t129.5 165.5t164.5 130t192.5 83.5t209.5 30q137 0 258.5 -50.5t208 -137.5t136.5 -209.5t50 -260.5q0 -108 -29 -213t-81 -194t-127 -165t-164 -129.5t-195 -83.5t-217 -30zM1089 1091 l6 44h-414l-73 -403l34 -7q21 16 49 27.5t58.5 17.5t60.5 6q99 0 152 -47t53 -136q0 -120 -74.5 -191.5t-190.5 -71.5q-77 0 -130 33.5t-77 91.5l-38 -21q14 -34 36.5 -61t53.5 -46.5t70.5 -30t84.5 -10.5q134 0 222 84t88 221q0 109 -65 169t-177 60q-91 0 -156 -34l53 305 h374z" />
<glyph unicode="&#x278f;" horiz-adv-x="1565" d="M725 -26q-137 0 -257.5 50.5t-206.5 137.5t-136 209t-50 260q0 108 30 213t84 194t129.5 165.5t164.5 130t192.5 83.5t209.5 30q137 0 258.5 -50.5t208 -137.5t136.5 -209.5t50 -260.5q0 -108 -29 -213t-81 -194t-127 -165t-164 -129.5t-195 -83.5t-217 -30zM827 819 q-48 0 -94 -14.5t-84.5 -40t-68.5 -59.5l-3 1q22 74 61 143t90 125.5t115 95.5t131 52l-1 43q-94 -17 -181 -79t-149 -148t-99 -189.5t-37 -202.5q0 -120 63.5 -190t168.5 -70q66 0 123 25t97 67.5t62.5 100t22.5 120.5q0 100 -58.5 160t-158.5 60zM741 331q113 0 185 79.5 t72 191.5q0 82 -48 127t-137 45q-78 0 -148.5 -48.5t-107.5 -119.5q-4 -28 -4 -62q0 -68 25 -116.5t67 -72.5t96 -24z" />
<glyph unicode="&#x2790;" horiz-adv-x="1565" d="M725 -26q-137 0 -257.5 50.5t-206.5 137.5t-136 209t-50 260q0 108 30 213t84 194t129.5 165.5t164.5 130t192.5 83.5t209.5 30q137 0 258.5 -50.5t208 -137.5t136.5 -209.5t50 -260.5q0 -108 -29 -213t-81 -194t-127 -165t-164 -129.5t-195 -83.5t-217 -30zM622 1135 l-6 -44h451l-449 -796l45 -13l456 812l5 41h-502z" />
<glyph unicode="&#x2791;" horiz-adv-x="1565" d="M725 -26q-137 0 -257.5 50.5t-206.5 137.5t-136 209t-50 260q0 108 30 213t84 194t129.5 165.5t164.5 130t192.5 83.5t209.5 30q137 0 258.5 -50.5t208 -137.5t136.5 -209.5t50 -260.5q0 -108 -29 -213t-81 -194t-127 -165t-164 -129.5t-195 -83.5t-217 -30zM917 750v2 q54 16 101.5 73.5t47.5 137.5q0 81 -55.5 130t-149.5 49q-106 0 -182.5 -66.5t-76.5 -171.5q0 -59 31.5 -100t73.5 -54v-2q-77 -20 -137 -91.5t-60 -161.5q0 -95 65.5 -152t176.5 -57q83 0 152 33t111 95.5t42 141.5q0 70 -40 123t-100 71zM647 909q0 -64 46 -101t122 -37 q87 0 146.5 54t59.5 136q0 44 -21.5 75t-58.5 46t-87 15q-88 0 -147.5 -55.5t-59.5 -132.5zM761 331q107 0 179 65.5t72 160.5q0 78 -56.5 123.5t-150.5 45.5q-104 0 -177 -66t-73 -162q0 -82 56.5 -124.5t149.5 -42.5z" />
<glyph unicode="&#x2792;" horiz-adv-x="1565" d="M725 -26q-137 0 -257.5 50.5t-206.5 137.5t-136 209t-50 260q0 108 30 213t84 194t129.5 165.5t164.5 130t192.5 83.5t209.5 30q137 0 258.5 -50.5t208 -137.5t136.5 -209.5t50 -260.5q0 -108 -29 -213t-81 -194t-127 -165t-164 -129.5t-195 -83.5t-217 -30zM866 1142 q-82 0 -152 -42t-110.5 -115.5t-40.5 -160.5q0 -92 60 -150t157 -58q75 0 141.5 36t112.5 95l2 -1q-27 -103 -86.5 -195.5t-143.5 -158t-174 -83.5l2 -43q93 17 179.5 78.5t148.5 147t99.5 188t37.5 200.5q0 118 -64.5 190t-168.5 72zM785 661q56 0 110 25.5t93.5 64.5 t63.5 86q2 28 2 44q0 101 -55 158.5t-136 57.5q-106 0 -180.5 -79.5t-74.5 -193.5q0 -74 48.5 -118.5t128.5 -44.5z" />
<glyph horiz-adv-x="1548" d="M1453 859q0 -180 -54.5 -341t-159 -283.5t-245.5 -184.5l257 -274l-34 -39l-273 293q-108 -37 -228 -37q-126 0 -230.5 41t-178 117.5t-114 190.5t-40.5 255q0 135 33.5 264t98.5 237t153.5 190t204.5 128t245 46q127 0 230.5 -39.5t178 -115t115.5 -190t41 -258.5z M202 597q0 -262 138 -409t377 -147q78 0 150.5 17t135 48.5t117.5 76.5t99 101t79 121.5t58 138t35.5 152t12.5 161.5q0 177 -63 303t-178.5 190t-275.5 64q-121 0 -229.5 -43.5t-190.5 -121t-142.5 -180t-91.5 -223.5t-31 -249z" />
<glyph horiz-adv-x="419" d="M309 1352q23 0 38.5 -15.5t15.5 -39.5t-16 -40.5t-40 -16.5q-23 0 -37.5 15.5t-14.5 39.5q0 12 4 22.5t11 18t17.5 12t21.5 4.5zM247 992h45l-121 -992h-45z" />
<glyph horiz-adv-x="589" d="M648 1450q-49 19 -107 19q-81 0 -134 -59.5t-70 -199.5l-26 -218h314l-5 -45h-314l-116 -947h-45l116 947h-126l5 45h126l28 231q18 152 81.5 222t169.5 70q64 0 118 -20z" />
<glyph horiz-adv-x="1403" d="M998 765q3 -2 10 -6q39 -22 59 -33.5t56 -33t55 -35.5t48 -36.5t45 -40.5t35.5 -42.5t29 -47.5t16.5 -51t7 -57q0 -116 -54.5 -204.5t-151.5 -136.5t-221 -48q-106 0 -217 48t-189 140l31 45q73 -94 172.5 -139.5t204.5 -45.5q108 0 193 40.5t134.5 118.5t49.5 180 q0 32 -9.5 62t-23 53.5t-40 50t-47 43.5t-59.5 42t-62 38t-68 39q-17 9 -25 14q-92 52 -156 99l362 540l1 5q-190 48 -429 48q-144 0 -240 -39t-149.5 -118.5t-68.5 -204.5l-127 -1052h-47l126 1058q17 137 77 226.5t166.5 133.5t262.5 44q243 0 507 -66l-374 -560v-5 q33 -23 110 -66z" />
<glyph horiz-adv-x="1016" d="M846 0l-84 347h-568l-169 -347h-49l577 1186h52l288 -1186h-47zM216 393h535l-176 730h-5z" />
<glyph horiz-adv-x="1016" d="M913 1637l-263 -276h-60l260 276h63zM553 1186h52l288 -1186h-47l-84 347h-568l-169 -347h-49zM216 393h535l-176 730h-5z" />
<glyph horiz-adv-x="1016" d="M414 1359h-57l252 270v2h1l6 6h47l196 -278h-57l-162 242h-3zM846 0l-84 347h-568l-169 -347h-49l577 1186h52l288 -1186h-47zM216 393h535l-176 730h-5z" />
<glyph horiz-adv-x="1016" d="M487 1452q-23 0 -37.5 15.5t-14.5 39.5t15.5 40.5t38.5 16.5t38.5 -15.5t15.5 -39.5t-16 -40.5t-40 -16.5zM758 1452q-23 0 -37.5 15.5t-14.5 39.5t15.5 40.5t38.5 16.5t38.5 -15.5t15.5 -39.5q0 -12 -4.5 -22.5t-11.5 -18t-17.5 -12t-22.5 -4.5zM846 0l-84 347h-568 l-169 -347h-49l577 1186h52l288 -1186h-47zM216 393h535l-176 730h-5z" />
<glyph horiz-adv-x="1016" d="M634 1361h-57l-197 276h61zM846 0l-84 347h-568l-169 -347h-49l577 1186h52l288 -1186h-47zM216 393h535l-176 730h-5z" />
<glyph horiz-adv-x="1016" d="M616 1352q-63 0 -105 42t-42 105q0 64 43.5 106.5t108.5 42.5q64 0 106 -41t42 -104q0 -65 -43.5 -108t-109.5 -43zM621 1602q-46 0 -76 -29t-30 -74q0 -44 28.5 -72.5t72.5 -28.5q47 0 77 29.5t30 75.5q0 44 -28.5 71.5t-73.5 27.5zM846 0l-84 347h-568l-169 -347h-49 l577 1186h52l288 -1186h-47zM216 393h535l-176 730h-5z" />
<glyph horiz-adv-x="1016" d="M496 1542q-81 0 -135 -126l-38 15q66 157 172 157q26 0 51.5 -10t42 -22t39.5 -33q3 -2 8 -7q19 -17 29.5 -26t27 -20.5t32 -17t30.5 -5.5q36 0 70.5 32.5t58.5 95.5l37 -18q-31 -78 -75 -116.5t-90 -38.5q-21 0 -41 6.5t-43 23t-32.5 25t-34.5 30.5q-62 55 -109 55z M553 1186h52l288 -1186h-47l-84 347h-568l-169 -347h-49zM216 393h535l-176 730h-5z" />
<glyph horiz-adv-x="1463" d="M1421 1140h-638l-63 -523h545l-6 -46h-545l-65 -525h668l-6 -46h-714l43 347h-431l-231 -347h-52l792 1186h709zM646 393l91 741h-3l-494 -741h406z" />
<glyph horiz-adv-x="1006" d="M662 622q40 -6 75 -21.5t65.5 -43t48.5 -73.5t18 -106q0 -115 -56.5 -201.5t-155.5 -131.5t-227 -45h-330l146 1186h331q71 0 125 -11.5t96.5 -37.5t65 -71.5t22.5 -110.5q0 -112 -60 -204t-163 -126zM286 1140l-61 -499h303q88 0 160 42t111.5 111.5t39.5 152.5 q0 99 -58 146t-200 47h-295zM433 46q113 0 200.5 38.5t138 113t50.5 175.5q0 118 -72 170.5t-215 52.5h-315l-68 -550h281z" />
<glyph horiz-adv-x="1173" d="M1016 190q-86 -91 -201 -144t-244 -53q-208 0 -333.5 136.5t-125.5 364.5q0 108 29.5 211.5t84.5 191t129.5 154.5t170.5 104.5t200 37.5q260 0 425 -256l-40 -25q-77 122 -168.5 178t-212.5 56q-83 0 -160 -25t-139 -69.5t-113.5 -106t-86 -133.5t-53.5 -153t-19 -163 q0 -208 112.5 -332t301.5 -124q113 0 219 46t189 132z" />
<glyph horiz-adv-x="1173" d="M726 1193q260 0 425 -256l-40 -25q-77 122 -168.5 178t-212.5 56q-83 0 -160 -25t-139 -69.5t-113.5 -106t-86 -133.5t-53.5 -153t-19 -163q0 -208 112.5 -332t301.5 -124q113 0 219 46t189 132l35 -28q-79 -84 -184 -136t-224 -60l-37 -66l2 -1q136 -15 136 -125 q0 -75 -54.5 -127t-135.5 -52q-48 0 -80 16l6 43q37 -14 76 -14q32 0 63 13t55.5 45t24.5 76q0 78 -144 84l8 43l2 4l-1 2l3 2l29 54v2q-134 2 -235.5 64t-157.5 175t-56 262q0 108 29.5 211.5t84.5 191t129.5 154.5t170.5 104.5t200 37.5z" />
<glyph horiz-adv-x="1164" d="M392 0h-292l146 1186h315q235 0 364 -128t129 -350q0 -153 -48.5 -284t-134.5 -224.5t-209.5 -146.5t-269.5 -53zM392 46q135 0 250 50t195 137.5t125 209.5t45 263q0 134 -51 231t-152 150t-245 53h-273l-134 -1094h240z" />
<glyph horiz-adv-x="1166" d="M563 1186q235 0 364 -128t129 -350q0 -153 -48.5 -284t-134.5 -224.5t-209.5 -146.5t-269.5 -53h-292l60 486h-123l4 48h125l80 652h315zM394 46q135 0 250 50t195 137.5t125 209.5t45 263q0 134 -51 231t-152 150t-245 53h-273l-74 -606h260l-4 -48h-262l-54 -440h240z " />
<glyph horiz-adv-x="935" d="M787 46l-6 -46h-681l146 1186h648l-6 -46h-602l-64 -523h505l-5 -46h-506l-64 -525h635z" />
<glyph horiz-adv-x="935" d="M718 1637h63l-263 -276h-60zM787 46l-6 -46h-681l146 1186h648l-6 -46h-602l-64 -523h505l-5 -46h-506l-64 -525h635z" />
<glyph horiz-adv-x="935" d="M404 1360h-57l252 270v2h1l6 6h47l196 -278h-57l-162 242h-3zM888 1140h-602l-64 -523h505l-5 -46h-506l-64 -525h635l-6 -46h-681l146 1186h648z" />
<glyph horiz-adv-x="935" d="M479 1565q23 0 38.5 -15.5t15.5 -39.5t-16 -40.5t-40 -16.5q-23 0 -37.5 15.5t-14.5 39.5t15.5 40.5t38.5 16.5zM750 1565q23 0 38.5 -15.5t15.5 -39.5t-16 -40.5t-40 -16.5q-23 0 -37.5 15.5t-14.5 39.5q0 16 7 29t19.5 20.5t27.5 7.5zM787 46l-6 -46h-681l146 1186h648 l-6 -46h-602l-64 -523h505l-5 -46h-506l-64 -525h635z" />
<glyph horiz-adv-x="935" d="M534 1637l193 -276h-57l-197 276h61zM787 46l-6 -46h-681l146 1186h648l-6 -46h-602l-64 -523h505l-5 -46h-506l-64 -525h635z" />
<glyph horiz-adv-x="903" d="M286 1140l-64 -528h545l-6 -46h-545l-70 -566h-46l146 1186h677l-6 -46h-631z" />
<glyph horiz-adv-x="1231" d="M1086 575l-53 -425q-88 -77 -207.5 -117t-256.5 -40q-208 0 -333.5 136.5t-125.5 364.5q0 108 29 211.5t84.5 191t130.5 154.5t172.5 104.5t205.5 37.5q233 0 392 -183l-33 -33q-147 169 -361 169q-101 0 -192 -35.5t-159.5 -98t-119 -144.5t-76.5 -177.5t-26 -194.5 q0 -208 112.5 -332t301.5 -124q254 0 419 132l44 358h-410l6 45h456z" />
<glyph horiz-adv-x="1153" d="M1053 1186l-146 -1186h-46l66 537h-716l-66 -537h-46l146 1186h46l-74 -603h716l74 603h46z" />
<glyph horiz-adv-x="400" d="M149 0h-46l146 1186h46z" />
<glyph horiz-adv-x="400" d="M548 1638h63l-263 -276h-60zM149 0h-46l146 1186h46z" />
<glyph horiz-adv-x="400" d="M487 1360l-162 242h-3l-223 -242h-57l252 270v2h1l6 6h47l196 -278h-57zM103 0l146 1186h46l-146 -1186h-46z" />
<glyph horiz-adv-x="400" d="M174 1565q23 0 38.5 -15.5t15.5 -39.5t-16 -40.5t-40 -16.5q-23 0 -37.5 15.5t-14.5 39.5t15.5 40.5t38.5 16.5zM445 1565q9 0 17.5 -2.5t15 -7.5t11.5 -11.5t7.5 -15.5t2.5 -18t-2.5 -18t-8 -16t-12 -12t-15.5 -8t-18 -3q-15 0 -27 7t-18.5 19.5t-6.5 28.5t7 29 t19.5 20.5t27.5 7.5zM149 0h-46l146 1186h46z" />
<glyph horiz-adv-x="400" d="M121 1638l193 -276h-57l-197 276h61zM149 0h-46l146 1186h46z" />
<glyph horiz-adv-x="759" d="M12 187q44 -70 108.5 -108.5t134.5 -38.5q116 0 185 74t90 241l105 831h46l-105 -834q-23 -186 -101.5 -272.5t-220.5 -86.5q-77 0 -151 41.5t-121 117.5z" />
<glyph horiz-adv-x="1003" d="M990 1186l-519 -557l383 -629h-55l-360 592h-2l-252 -270l-40 -322h-46l149 1186h46l-99 -785h4l733 785h58z" />
<glyph horiz-adv-x="858" d="M762 46l-6 -46h-656l146 1186h46l-140 -1140h610z" />
<glyph horiz-adv-x="1417" d="M1265 1186h44l-147 -1186h-46l134 1080h-4l-561 -821h-37l-361 829h-2l-135 -1088h-46l147 1186h45l375 -866h5z" />
<glyph horiz-adv-x="1221" d="M1068 1186h46l-146 -1186h-43l-636 1099h-3l-134 -1099h-46l145 1186h40l639 -1099h3z" />
<glyph horiz-adv-x="1221" d="M587 1542q-81 0 -135 -126l-38 15q66 157 172 157q26 0 51.5 -10t42 -22t39.5 -33q3 -2 8 -7q19 -17 29.5 -26t27 -20.5t32 -17t30.5 -5.5q36 0 70.5 32.5t58.5 95.5l37 -18q-31 -78 -75 -116.5t-90 -38.5q-21 0 -41 6.5t-43 23t-32.5 25t-34.5 30.5q-62 55 -109 55z M1068 1186h46l-146 -1186h-43l-636 1099h-3l-134 -1099h-46l145 1186h40l639 -1099h3z" />
<glyph horiz-adv-x="1325" d="M733 1193q107 0 196 -33.5t152 -96t98 -155.5t35 -208q0 -112 -28 -217.5t-82.5 -194t-129.5 -154.5t-174.5 -103.5t-212.5 -37.5q-218 0 -348 132t-130 365q0 109 28.5 213.5t83.5 192.5t130 154.5t174 104.5t208 38zM588 40q104 0 196.5 35t161.5 97t119.5 144.5 t76 180.5t25.5 202q0 209 -116.5 328t-318.5 119q-101 0 -192.5 -35.5t-160.5 -98t-119.5 -145t-77 -179.5t-26.5 -198q0 -212 116 -331t316 -119z" />
<glyph horiz-adv-x="1325" d="M999 1637h63l-263 -276h-60zM733 1193q107 0 196 -33.5t152 -96t98 -155.5t35 -208q0 -112 -28 -217.5t-82.5 -194t-129.5 -154.5t-175 -103.5t-212 -37.5q-218 0 -348 132t-130 365q0 109 28.5 213.5t83.5 192.5t130 154.5t173.5 104.5t208.5 38zM588 40q104 0 196.5 35 t161.5 97t119.5 144.5t76 180.5t25.5 202q0 209 -116.5 328t-318.5 119q-101 0 -192.5 -35.5t-160.5 -98t-119.5 -145t-77 -179.5t-26.5 -198q0 -212 116 -331t316 -119z" />
<glyph horiz-adv-x="1325" d="M570 1359h-57l252 270v2h1l6 6h47l196 -278h-57l-162 242h-3zM733 1193q107 0 196 -33.5t152 -96t98 -155.5t35 -208q0 -112 -28 -217.5t-82.5 -194t-129.5 -154.5t-174.5 -103.5t-212.5 -37.5q-218 0 -348 132t-130 365q0 109 28.5 213.5t84 192.5t130 155t173.5 104.5 t208 37.5zM588 40q104 0 196.5 35t161.5 97t119.5 144.5t76 180.5t25.5 202q0 209 -116.5 328t-318.5 119q-101 0 -192.5 -35.5t-160.5 -98t-119.5 -145t-77 -179.5t-26.5 -198q0 -212 116 -331t316 -119z" />
<glyph horiz-adv-x="1325" d="M645 1564q23 0 38.5 -15.5t15.5 -39.5t-16 -40.5t-40 -16.5q-23 0 -37.5 15.5t-14.5 39.5t15.5 40.5t38.5 16.5zM916 1564q23 0 38.5 -15.5t15.5 -39.5q0 -12 -4.5 -22.5t-11.5 -18t-17.5 -12t-22.5 -4.5q-15 0 -27 7t-18.5 19.5t-6.5 28.5q0 24 15.5 40.5t38.5 16.5z M733 1193q107 0 196 -33.5t152 -96t98 -155.5t35 -208q0 -112 -28 -217.5t-82.5 -194t-129.5 -154.5t-174.5 -103.5t-212.5 -37.5q-218 0 -348 132t-130 365q0 109 28.5 213.5t83.5 192.5t130 154.5t174 104.5t208 38zM588 40q104 0 196.5 35t161.5 97t119.5 144.5t76 180.5 t25.5 202q0 209 -116.5 328t-318.5 119q-101 0 -192.5 -35.5t-160.5 -98t-119.5 -145t-77 -179.5t-26.5 -198q0 -212 116 -331t316 -119z" />
<glyph horiz-adv-x="1325" d="M613 1637l193 -276h-57l-197 276h61zM733 1193q107 0 196 -33.5t152 -96t98 -155.5t35 -208q0 -112 -28 -217.5t-82.5 -194t-129.5 -154.5t-174.5 -103.5t-212.5 -37.5q-218 0 -348 132t-130 365q0 109 28.5 213.5t83.5 192.5t130 154.5t174 104.5t208 38zM588 40 q104 0 196.5 35t161.5 97t119.5 144.5t76 180.5t25.5 202q0 209 -116.5 328t-318.5 119q-101 0 -192.5 -35.5t-160.5 -98t-119.5 -145t-77 -179.5t-26.5 -198q0 -212 116 -331t316 -119z" />
<glyph horiz-adv-x="1330" d="M1289 1169l-159 -164q84 -124 84 -305q0 -112 -28 -217.5t-82.5 -194t-129.5 -154.5t-174.5 -103.5t-212.5 -37.5q-202 0 -329 113l-122 -126l-37 33l125 128q-115 131 -115 349q0 137 45.5 264.5t125.5 224.5t198.5 155.5t254.5 58.5q77 0 145 -17.5t124.5 -51 t98.5 -82.5l154 158zM156 490q0 -197 101 -315l811 833q-116 138 -336 138q-101 0 -192.5 -35.5t-160.5 -98t-119.5 -145t-77 -179.5t-26.5 -198zM1167 699q0 160 -71 271l-804 -830q112 -100 296 -100q104 0 196.5 35t161.5 97t119.5 144.5t76 180.5t25.5 202z" />
<glyph horiz-adv-x="1325" d="M479 1431q66 157 172 157q26 0 51.5 -10t42 -22t39.5 -33q3 -2 8 -7q25 -23 39 -34.5t37 -23t43 -11.5q36 0 70.5 32.5t58.5 95.5l37 -18q-31 -78 -75 -116.5t-90 -38.5q-21 0 -41 6.5t-43 23t-32.5 25t-34.5 30.5q-62 55 -109 55q-81 0 -135 -126zM733 1193 q107 0 196 -33.5t152 -96t98 -155.5t35 -208q0 -112 -28 -217.5t-82.5 -194t-129.5 -154.5t-175 -103.5t-212 -37.5q-107 0 -195.5 33.5t-151 96.5t-97 157t-34.5 210q0 109 28.5 213.5t83.5 192.5t130 154.5t173.5 104.5t208.5 38zM588 40q104 0 196.5 35t161.5 97 t119.5 144.5t76 180.5t25.5 202q0 209 -116.5 328t-318.5 119q-101 0 -192.5 -35.5t-160.5 -98t-119.5 -145t-77 -179.5t-26.5 -198q0 -212 116 -331t316 -119z" />
<glyph horiz-adv-x="1492" d="M1448 1140h-603l-63 -523h510l-6 -46h-510l-65 -525h633l-6 -46h-751q-218 0 -348 130.5t-130 359.5q0 107 28.5 210t84 190.5t130 154t173.5 104t208 37.5h721zM665 46l134 1094h-67q-101 0 -192.5 -35.5t-160.5 -98t-119.5 -144t-77 -177.5t-26.5 -195 q0 -207 116.5 -325.5t315.5 -118.5h77z" />
<glyph horiz-adv-x="958" d="M615 1186q148 0 226 -74.5t78 -205.5q0 -177 -111 -287.5t-301 -110.5h-299l-62 -508h-46l146 1186h369zM510 554q112 0 195 46.5t125 125.5t42 181q0 61 -20 107t-56 73t-82.5 40t-103.5 13h-324l-72 -586h296z" />
<glyph horiz-adv-x="986" d="M610 922q148 0 226 -74.5t78 -205.5q0 -86 -28.5 -159.5t-80.5 -126.5t-130 -82.5t-173 -29.5h-326l-30 -244h-46l146 1186h46l-32 -264h350zM505 290q112 0 195 46.5t125 125.5t42 181q0 49 -13 88.5t-36.5 66t-56.5 44.5t-72 26t-84 8h-351l-72 -586h323z" />
<glyph horiz-adv-x="1325" d="M1214 700q0 -159 -56 -301.5t-159 -241.5l109 -135l-34 -33l-110 137q-160 -133 -377 -133q-218 0 -348 132t-130 365q0 109 28.5 213.5t83.5 192.5t130 154.5t174 104.5t208 38q218 0 349.5 -131.5t131.5 -361.5zM588 40q198 0 347 123l-145 181l32 33l148 -183 q94 92 145.5 224.5t51.5 280.5q0 209 -116.5 328t-318.5 119q-101 0 -192.5 -35.5t-160.5 -98t-119.5 -145t-77 -179.5t-26.5 -198q0 -212 116 -331t316 -119z" />
<glyph horiz-adv-x="1000" d="M560 510v-3l266 -507h-54l-267 508h-296l-63 -508h-46l146 1186h372q149 0 226.5 -74.5t77.5 -205.5q0 -164 -96.5 -272t-265.5 -124zM287 1140l-73 -586h299q168 0 265 98.5t97 254.5q0 49 -13 88.5t-36.5 66t-56.5 44.5t-72 26t-84 8h-326z" />
<glyph horiz-adv-x="923" d="M476 631q43 -22 70 -36t64 -36t60 -40t48.5 -43.5t39.5 -50t23.5 -55.5t9.5 -65q0 -99 -49.5 -170.5t-132.5 -106t-190 -34.5q-104 0 -209.5 43.5t-177.5 136.5l37 32q69 -87 161.5 -126t190.5 -39q91 0 163 28t116 88.5t44 145.5q0 29 -8.5 55t-20 46.5t-35.5 42.5 t-42 36.5t-53.5 35.5t-56.5 32l-63 33q-2 1 -3.5 2t-3.5 2l-4 2l-12 6q-39 20 -59 31t-55 32t-54 36.5t-44 39.5t-37.5 47t-22 53t-9.5 62q0 127 99 211.5t256 84.5q82 0 167.5 -35.5t153.5 -98.5l-35 -34q-64 58 -140 89.5t-149 31.5q-129 0 -217 -69.5t-88 -175.5 q0 -28 8.5 -54.5t20.5 -46.5t35.5 -42t41.5 -35.5t51.5 -33t53 -29.5t57.5 -29z" />
<glyph horiz-adv-x="1212" d="M818 636q33 -17 54.5 -28t51.5 -27.5t49.5 -30t43.5 -31.5t39.5 -34t31.5 -36.5t25 -41.5t14.5 -46t5.5 -51q0 -99 -49.5 -170.5t-132.5 -106t-190 -34.5q-97 0 -196.5 38.5t-172.5 120.5l27 43q69 -82 159 -118.5t185 -36.5q91 0 163 28t116 88.5t44 145.5q0 29 -8.5 55 t-20 46.5t-35.5 42.5t-42 36.5t-53.5 35.5t-56.5 32t-62 33l-12 6q-69 35 -121 66l285 439l-1 4q-182 42 -381 42q-102 0 -173 -28t-115.5 -90.5t-56.5 -159.5l-105 -868h-46l106 881q37 312 394 312q236 0 450 -60l-293 -451v-6q32 -18 79 -40z" />
<glyph horiz-adv-x="900" d="M903 1140h-370l-140 -1140h-46l140 1140h-357l6 46h773z" />
<glyph horiz-adv-x="1140" d="M962 466q-30 -235 -148 -353.5t-318 -118.5q-174 0 -266.5 97.5t-92.5 275.5q0 60 7 111l90 708h46l-90 -710q-7 -52 -7 -104q0 -78 18 -138.5t55.5 -104t98 -66t142.5 -22.5q179 0 286 107.5t134 319.5l90 718h46z" />
<glyph horiz-adv-x="1140" d="M865 1637h63l-263 -276h-60zM962 466q-30 -235 -148 -353.5t-318 -118.5q-174 0 -266.5 97.5t-92.5 275.5q0 60 7 111l90 708h46l-90 -710q-7 -52 -7 -104q0 -159 76.5 -245t237.5 -86q179 0 286 107.5t134 319.5l90 718h46z" />
<glyph horiz-adv-x="1140" d="M462 1359h-57l252 270v2h1l6 6h47l196 -278h-57l-162 242h-3zM1007 1186h46l-91 -720q-30 -235 -148 -353.5t-318 -118.5q-174 0 -266.5 97.5t-92.5 275.5q0 60 7 111l90 708h46l-90 -710q-7 -52 -7 -104q0 -78 18 -138.5t55.5 -104t98 -66t142.5 -22.5q179 0 286 107.5 t134 319.5z" />
<glyph horiz-adv-x="1140" d="M537 1564q15 0 27.5 -7t19.5 -19.5t7 -28.5q0 -24 -16 -40.5t-40 -16.5q-23 0 -37.5 15.5t-14.5 39.5t15.5 40.5t38.5 16.5zM808 1564q23 0 38.5 -15.5t15.5 -39.5t-16 -40.5t-40 -16.5q-23 0 -37.5 15.5t-14.5 39.5t15.5 40.5t38.5 16.5zM962 466q-30 -235 -148 -353.5 t-318 -118.5q-174 0 -266.5 97.5t-92.5 275.5q0 60 7 111l90 708h46l-90 -710q-7 -52 -7 -104q0 -159 76.5 -245t237.5 -86q179 0 286 107.5t134 319.5l90 718h46z" />
<glyph horiz-adv-x="1140" d="M513 1637l193 -276h-57l-197 276h61zM962 466q-30 -235 -148 -353.5t-318 -118.5q-174 0 -266.5 97.5t-92.5 275.5q0 60 7 111l90 708h46l-90 -710q-7 -52 -7 -104q0 -78 18 -138.5t55.5 -104t98 -66t142.5 -22.5q179 0 286 107.5t134 319.5l90 718h46z" />
<glyph horiz-adv-x="999" d="M972 1186h48l-572 -1186h-46l-280 1186h46l263 -1110h4z" />
<glyph horiz-adv-x="1552" d="M1525 1186h48l-507 -1186h-51l-172 1115h-3l-450 -1115h-51l-215 1186h46l201 -1107h4l445 1107h57l171 -1107h4z" />
<glyph horiz-adv-x="972" d="M983 1186l-470 -598l320 -588h-52l-297 549h-3l-437 -549h-54l470 592l-325 594h51l303 -556h2l439 556h53z" />
<glyph horiz-adv-x="900" d="M878 1186h55l-467 -646l-67 -540h-46l67 540l-306 646h51l279 -592h5z" />
<glyph horiz-adv-x="900" d="M838 1637l-263 -276h-60l260 276h63zM878 1186h55l-467 -646l-67 -540h-46l67 540l-306 646h51l279 -592h5z" />
<glyph horiz-adv-x="900" d="M422 1452q-15 0 -27 7t-18.5 19.5t-6.5 28.5q0 24 15.5 40.5t38.5 16.5t38.5 -15.5t15.5 -39.5t-16 -40.5t-40 -16.5zM693 1452q-15 0 -27 7t-18.5 19.5t-6.5 28.5q0 24 15.5 40.5t38.5 16.5q15 0 27.5 -7t19.5 -19.5t7 -28.5q0 -12 -4.5 -22.5t-11.5 -18t-17.5 -12 t-22.5 -4.5zM878 1186h55l-467 -646l-67 -540h-46l67 540l-306 646h51l279 -592h5z" />
<glyph horiz-adv-x="951" d="M903 1140l-804 -1090v-4h680l-6 -46h-738l6 44l805 1092l1 4h-630l6 46h686z" />
<glyph horiz-adv-x="1417" d="M1265 1186h44l-147 -1186h-46l134 1080h-4l-561 -821h-37l-361 829h-2l-135 -1088h-46l147 1186h45l375 -866h5z" />
<glyph horiz-adv-x="1133" d="M643 1062q181 0 290.5 -114t109.5 -322q0 -128 -40.5 -244.5t-110.5 -201.5t-170.5 -135.5t-214.5 -50.5q-181 0 -290 114.5t-109 323.5q0 128 40 244t109.5 201t170 135t215.5 50zM641 1014q-104 0 -194.5 -45.5t-154 -123.5t-100 -184.5t-36.5 -225.5q0 -189 96.5 -291 t256.5 -102q102 0 193 46t155 124t101 185.5t37 227.5q0 188 -96.5 288.5t-257.5 100.5z" />
<glyph horiz-adv-x="634" d="M441 1055h47l-130 -1055h-47l122 993l-325 -231l-22 41z" />
<glyph horiz-adv-x="919" d="M97 51l-1 -4h686l-6 -47h-772l6 41l412 321q2 2 6 5q42 32 62.5 48.5t57 46t55 47t46.5 45t42 47.5t32 47t26.5 50.5t14.5 51.5t6 56q0 62 -25 108t-78 73t-130 27q-105 0 -204.5 -52t-174.5 -142l-30 32q73 93 184.5 151.5t225.5 58.5q130 0 205 -66t75 -185 q0 -33 -6 -64.5t-14.5 -58t-27 -56t-33.5 -51.5t-44.5 -51.5t-50 -49t-60 -51.5t-64.5 -51.5t-72 -56.5z" />
<glyph horiz-adv-x="925" d="M583 407q97 -30 148 -105t51 -183q0 -128 -58.5 -227t-157.5 -151t-223 -52q-147 0 -239.5 63.5t-127.5 175.5l39 19q32 -99 114.5 -154.5t216.5 -55.5q109 0 197 47.5t139.5 136t51.5 201.5q0 58 -19 106t-56.5 83.5t-96.5 55t-136 19.5h-120l5 46h136q98 0 175.5 43 t121 120.5t43.5 176.5q0 110 -74.5 176t-195.5 66q-219 0 -354 -168l-32 31q66 83 165.5 134t222.5 51q93 0 164.5 -34t111.5 -99.5t40 -152.5q0 -136 -67 -232t-185 -134v-3z" />
<glyph horiz-adv-x="917" d="M648 47h189l-6 -47h-189l-37 -306h-47l37 306h-620l6 46l745 1009h46zM601 47l111 910l-670 -910h559z" />
<glyph horiz-adv-x="954" d="M877 1008h-571l-91 -516q54 33 125 47.5t125 14.5q167 0 269 -92.5t102 -264.5q0 -148 -59 -264t-169.5 -181t-254.5 -65q-125 0 -219.5 65t-136.5 170l39 21q43 -100 125 -154t196 -54q130 0 228.5 59t150.5 163.5t52 238.5q0 100 -42 171.5t-111.5 105t-159.5 33.5 q-176 0 -277 -77l-41 5l111 621h615z" />
<glyph horiz-adv-x="1037" d="M620 837q163 0 250.5 -90t87.5 -251q0 -106 -37.5 -199.5t-102 -159.5t-152 -104.5t-184.5 -38.5q-168 0 -268 108.5t-100 295.5q0 124 36.5 256.5t104.5 253t156.5 221.5t199.5 170.5t227 91.5l1 -47q-90 -19 -177 -68t-160.5 -119.5t-136 -157.5t-107.5 -185t-69 -200 h2q72 100 183 161.5t246 61.5zM482 42q86 0 165 34.5t136.5 94t92 144t34.5 180.5q0 94 -34.5 160.5t-99 100t-155.5 33.5q-83 0 -157 -24.5t-129.5 -66.5t-96.5 -92.5t-70 -109.5q-6 -48 -6 -97q0 -164 85 -260.5t235 -96.5z" />
<glyph horiz-adv-x="848" d="M82 1055h768l-6 -48l-729 -1327l-44 19l719 1309h-714z" />
<glyph horiz-adv-x="1022" d="M685 733q113 -25 176.5 -106.5t63.5 -198.5q0 -77 -24.5 -146t-69 -121t-104 -90t-131.5 -57.5t-150 -19.5q-87 0 -158.5 25.5t-119.5 70t-74 104t-26 128.5q0 148 91 264.5t237 146.5v2q-78 20 -131.5 87.5t-53.5 160.5q0 83 32 154t87.5 120t131 76.5t159.5 27.5 q76 0 137 -21t102 -59t62.5 -90.5t21.5 -115.5q0 -126 -72 -219.5t-187 -120.5v-2zM259 988q0 -76 37.5 -129t98.5 -77.5t139 -24.5q104 0 185.5 37.5t129 110.5t47.5 171q0 111 -78.5 174t-206.5 63q-97 0 -176.5 -39.5t-127.5 -114.5t-48 -171zM456 42q114 0 210 49 t153.5 137.5t57.5 196.5q0 132 -90.5 208t-242.5 76q-189 0 -308.5 -108.5t-119.5 -277.5q0 -128 95.5 -204.5t244.5 -76.5z" />
<glyph horiz-adv-x="1040" d="M595 1062q166 0 263.5 -107t97.5 -295q0 -124 -37 -255.5t-105 -250.5t-157 -220t-200.5 -171.5t-227.5 -96.5l-7 46q146 33 284 144.5t237 268t140 325.5l-1 1q-76 -105 -188.5 -170t-239.5 -65q-162 0 -251.5 91t-89.5 255q0 103 38.5 195.5t103.5 159.5t154 106 t186 39zM457 264q72 0 143 25.5t128 68t102 95t73 109.5q5 48 5 87q0 86 -21 154t-60.5 114.5t-98 71.5t-132.5 25q-85 0 -165 -35t-139.5 -94.5t-95 -143t-35.5 -175.5q0 -146 75.5 -224t220.5 -78z" />
<glyph d="M721 1414q81 0 147 -32t116 -95.5t77.5 -166t27.5 -236.5q0 -93 -10.5 -184t-32.5 -179.5t-54.5 -167t-78.5 -144.5t-102 -114t-128 -75t-153 -27q-78 0 -144 32t-117 95t-80 165.5t-29 234.5q0 108 15.5 214.5t45.5 207t77.5 186t108 149.5t141.5 100.5t173 36.5z M719 1366q-85 0 -159 -35t-129 -96.5t-98.5 -142.5t-70 -176t-40.5 -194.5t-14 -199.5q0 -122 26 -216t71.5 -151t102.5 -85.5t124 -28.5q87 0 162 34.5t130 96t97 142t68 175.5t39 193.5t13 199.5q0 124 -24.5 218.5t-69 151.5t-101.5 85.5t-127 28.5z" />
<glyph d="M640 47h281l-6 -47h-700l6 47h372l158 1294l-384 -250l-25 40l418 276h47z" />
<glyph d="M719 502l-499 -455h720l-6 -47h-791l6 46l533 488q67 61 115.5 115t94.5 121t70 142t24 154q0 96 -32 163.5t-92.5 102t-146.5 34.5q-131 0 -236 -68t-157 -186l-39 26q59 126 173 201t261 75q145 0 231 -92.5t86 -255.5q0 -83 -25.5 -163.5t-73 -152t-98.5 -129.5 t-118 -119z" />
<glyph d="M795 736q101 -31 154.5 -108t53.5 -189q0 -98 -38 -182t-101.5 -141.5t-148.5 -90t-178 -32.5q-155 0 -252.5 70t-128.5 186l43 20q27 -105 112 -166.5t227 -61.5q85 0 161.5 29.5t133 82t89.5 128t33 163.5q0 122 -77.5 195.5t-224.5 73.5h-163l6 47h168q155 0 251 99.5 t96 258.5q0 120 -76 184t-209 64q-128 0 -219.5 -48t-159.5 -134l-39 29q167 201 420 201q152 0 241.5 -76t89.5 -219t-71.5 -244t-192.5 -139z" />
<glyph d="M830 315h197l-6 -47h-197l-33 -268h-47l33 268h-655l6 48l791 1091h45zM783 315l121 991l-718 -991h597z" />
<glyph d="M1069 1360h-594l-95 -554q51 36 124 52t138 16q172 0 270 -92.5t98 -269.5q0 -149 -62.5 -267.5t-175 -185t-255.5 -66.5q-132 0 -231 71.5t-132 185.5l43 18q23 -69 67.5 -120t110 -79t144.5 -28q129 0 230.5 61.5t157 168.5t55.5 239q0 156 -84.5 236t-237.5 80 q-73 0 -155 -22.5t-124 -63.5l-40 6l115 661h639z" />
<glyph d="M683 868q156 0 248.5 -99.5t92.5 -257.5q0 -108 -38.5 -204t-104 -164.5t-154.5 -108.5t-186 -40q-172 0 -271.5 114t-99.5 304q0 132 35 269.5t101.5 263.5t156 230.5t205 178t241.5 99.5l1 -48q-121 -25 -232.5 -99t-196.5 -178.5t-146.5 -230t-91.5 -257.5l3 -1 q71 108 186.5 168.5t250.5 60.5zM542 42q86 0 165.5 36t138.5 98t94.5 150t35.5 187q0 140 -80 223.5t-220 83.5q-106 0 -197 -41t-156 -112.5t-102 -165.5q-3 -41 -3 -79q0 -173 85.5 -276.5t238.5 -103.5z" />
<glyph d="M286 1407h831l-6 -49l-769 -1375l-44 19l760 1358h-778z" />
<glyph d="M776 760q114 -24 179.5 -106t65.5 -203q0 -133 -64 -237.5t-176 -162t-252 -57.5q-177 0 -276.5 91.5t-99.5 243.5q0 153 91 273t246 158v2q-28 7 -54 20t-51 34.5t-43.5 48.5t-30 65.5t-11.5 83.5q0 115 54 206.5t150 142.5t216 51q149 0 235.5 -80t86.5 -210 q0 -125 -75.5 -229.5t-190.5 -131.5v-3zM348 1023q0 -118 78 -178.5t213 -60.5q96 0 177 41.5t129.5 118t48.5 171.5q0 123 -75 187t-209 64q-155 0 -258.5 -99t-103.5 -244zM539 42q121 0 221 53.5t156.5 145.5t56.5 204q0 144 -90.5 217.5t-242.5 73.5q-77 0 -145.5 -20 t-122 -57t-92 -86.5t-59 -110.5t-20.5 -127q0 -139 93 -216t245 -77z" />
<glyph d="M724 1414q166 0 261.5 -110t95.5 -318q0 -131 -37.5 -268.5t-107.5 -261.5t-162 -228t-209 -177.5t-241 -100.5v48q123 28 238.5 106t205.5 186t154.5 239.5t92.5 267.5l-3 1q-80 -119 -198 -191t-268 -72q-99 0 -173 44.5t-112 122t-38 177.5q0 108 37.5 206 t102.5 170.5t159.5 115.5t201.5 43zM546 583q93 0 178 32t165.5 106.5t140.5 185.5q3 40 3 81q-3 191 -85 284.5t-224 93.5q-96 0 -180.5 -38.5t-144 -103t-94 -152t-34.5 -182.5q0 -139 70 -223t205 -84z" />
<glyph horiz-adv-x="717" d="M400 849q76 0 133 -38t89.5 -114t32.5 -183q0 -99 -24 -191.5t-67.5 -166.5t-112.5 -118.5t-152 -44.5q-117 0 -186.5 87t-69.5 246q0 100 24 192.5t67.5 167t112.5 119t153 44.5zM399 804q-75 0 -136 -41.5t-98 -110.5t-57 -153t-20 -174q0 -139 57.5 -213t155.5 -74 q75 0 135.5 42t97.5 111t56.5 153t19.5 173q0 140 -57 213.5t-154 73.5z" />
<glyph horiz-adv-x="432" d="M293 842h37l-104 -842h-44l95 778l-199 -140l-21 38z" />
<glyph horiz-adv-x="617" d="M67 47l-1 -3h424l-6 -44h-496l5 37l340 305q83 74 126.5 140.5t43.5 147.5q0 80 -43 127t-122 47q-62 0 -126 -37t-100 -103l-34 27q40 71 112.5 114.5t149.5 43.5q92 0 150 -57t58 -157q0 -91 -46.5 -167t-135.5 -155z" />
<glyph horiz-adv-x="619" d="M404 437q62 -21 93.5 -68.5t31.5 -113.5q0 -118 -80.5 -190t-200.5 -72q-97 0 -162 42t-88 112l43 17q20 -60 72.5 -93t135.5 -33q106 0 170.5 59.5t64.5 157.5q0 69 -51.5 115t-143.5 46h-77l6 45h87q92 0 151 55.5t59 141.5q0 71 -45.5 108.5t-129.5 37.5 q-131 0 -208 -100l-37 27q91 118 246 118q97 0 158 -49.5t61 -137.5q0 -83 -41 -140t-115 -82v-3z" />
<glyph horiz-adv-x="664" d="M451 201h126l-6 -44h-126l-19 -157h-44l19 157h-400l6 41l486 644h37zM407 201l66 544l-407 -544h341z" />
<glyph horiz-adv-x="627" d="M580 798h-374l-53 -305q64 34 156 34q112 0 177 -60t65 -169q0 -137 -88 -221t-222 -84q-90 0 -153 39.5t-92 108.5l38 21q24 -58 77 -91.5t130 -33.5q116 0 190.5 71.5t74.5 191.5q0 89 -53 136t-152 47q-45 0 -91 -13.5t-77 -37.5l-34 7l73 403h414z" />
<glyph horiz-adv-x="648" d="M353 526q100 0 158.5 -60t58.5 -160q0 -85 -38.5 -156.5t-109 -114t-157.5 -42.5q-51 0 -94 18t-73.5 51.5t-47.5 82t-17 108.5q0 98 37 202t99 190t149 148t181 79l1 -43q-89 -17 -171 -79t-139.5 -149.5t-86.5 -187.5l3 -1q46 52 111 83t136 31zM267 38q113 0 185 79.5 t72 191.5q0 82 -48 127t-137 45q-78 0 -148.5 -48.5t-107.5 -119.5q-4 -28 -4 -62q0 -101 52.5 -157t135.5 -56z" />
<glyph horiz-adv-x="581" d="M80 842h502l-5 -41l-456 -812l-45 13l449 796h-451z" />
<glyph horiz-adv-x="663" d="M432 457q60 -18 100 -71t40 -123q0 -79 -42 -141.5t-111 -95.5t-152 -33q-111 0 -176.5 57t-65.5 152q0 90 60 161.5t137 91.5v2q-42 13 -73.5 54t-31.5 100q0 105 76.5 171.5t182.5 66.5q63 0 109.5 -22.5t71 -63t24.5 -93.5q0 -80 -47.5 -137.5t-101.5 -73.5v-2z M162 616q0 -42 21 -73.5t59 -48t88 -16.5q87 0 146.5 54t59.5 136q0 66 -45 101t-122 35q-88 0 -147.5 -55.5t-59.5 -132.5zM276 38q107 0 179 65.5t72 160.5q0 78 -56.5 123.5t-150.5 45.5q-104 0 -177 -66t-73 -162q0 -82 56.5 -124.5t149.5 -42.5z" />
<glyph horiz-adv-x="670" d="M378 849q104 0 168.5 -72t64.5 -190q0 -98 -37.5 -200.5t-99.5 -188t-148.5 -147t-179.5 -78.5l-2 43q90 18 174 83.5t143.5 158t86.5 195.5l-2 1q-46 -59 -112.5 -95t-141.5 -36q-97 0 -157 58t-60 150q0 133 88.5 225.5t214.5 92.5zM297 368q83 0 156 51.5t111 124.5 q2 28 2 44q0 101 -55 158.5t-136 57.5q-106 0 -180.5 -79.5t-74.5 -193.5q0 -74 48.5 -118.5t128.5 -44.5z" />
<glyph horiz-adv-x="717" d="M479 1462q76 0 133 -38t89.5 -114t32.5 -183q0 -99 -24 -191.5t-67.5 -166.5t-112.5 -118.5t-152 -44.5q-117 0 -186.5 87t-69.5 246q0 100 24 192.5t67.5 167t112.5 119t153 44.5zM478 1417q-75 0 -136 -41.5t-98 -110.5t-57 -153t-20 -174q0 -93 27 -158.5t74.5 -97 t111.5 -31.5q75 0 135.5 42t97.5 111t56.5 153t19.5 173q0 140 -57 213.5t-154 73.5z" />
<glyph horiz-adv-x="432" d="M368 1455h37l-104 -842h-44l95 778l-199 -140l-21 38z" />
<glyph horiz-adv-x="617" d="M142 660l-1 -3h424l-6 -44h-496l5 37l340 305q40 35 67.5 65t52.5 66t37.5 75.5t12.5 81.5q0 52 -18.5 91t-56 61t-90.5 22q-62 0 -126 -37t-100 -103l-34 27q40 71 112.5 114.5t149.5 43.5q92 0 150 -57t58 -157q0 -91 -46.5 -167t-135.5 -155z" />
<glyph horiz-adv-x="619" d="M479 1049q62 -21 93.5 -68.5t31.5 -113.5q0 -118 -80.5 -190t-200.5 -72q-97 0 -162 42t-88 112l43 17q20 -60 72.5 -93t135.5 -33q52 0 96 15.5t74.5 44t47.5 69t17 88.5q0 69 -51.5 115t-143.5 46h-77l6 45h87q92 0 151 55.5t59 141.5q0 71 -45.5 108.5t-129.5 37.5 q-131 0 -208 -100l-37 27q91 118 246 118q97 0 158 -49.5t61 -137.5q0 -83 -41 -140t-115 -82v-3z" />
<glyph horiz-adv-x="664" d="M530 814h126l-6 -44h-126l-19 -157h-44l19 157h-400l6 41l486 644h37zM486 814l66 544l-407 -544h341z" />
<glyph horiz-adv-x="627" d="M659 1411h-374l-53 -305q65 34 156 34q112 0 177 -60t65 -169q0 -137 -88 -221t-222 -84q-90 0 -153 39.5t-92 108.5l38 21q24 -58 77 -91.5t130 -33.5q56 0 105 18.5t84.5 52t55.5 83t20 109.5q0 89 -53 136t-152 47q-45 0 -91 -13.5t-77 -37.5l-34 7l73 403h414z" />
<glyph horiz-adv-x="648" d="M432 1141q100 0 158.5 -60t58.5 -160q0 -85 -38.5 -156.5t-109 -114t-157.5 -42.5q-105 0 -168.5 70t-63.5 190q0 99 37 202.5t99 189.5t149 148t181 79l1 -43q-134 -25 -243 -144t-154 -272l3 -1q46 52 111 83t136 31zM346 653q113 0 185 79.5t72 191.5q0 82 -48 127 t-137 45q-78 0 -148.5 -48.5t-107.5 -119.5q-4 -28 -4 -62q0 -101 52.5 -157t135.5 -56z" />
<glyph horiz-adv-x="581" d="M157 1455h502l-5 -41l-456 -812l-45 13l449 796h-451z" />
<glyph horiz-adv-x="663" d="M510 1070q60 -18 100 -71t40 -123q0 -60 -24.5 -111t-66 -85.5t-97 -54t-117.5 -19.5q-111 0 -176.5 57t-65.5 152q0 90 60 161.5t137 91.5v2q-42 13 -73.5 54t-31.5 100q0 70 36.5 125.5t95 84t127.5 28.5q94 0 149.5 -49t55.5 -130q0 -80 -47.5 -137.5t-101.5 -73.5v-2 zM240 1229q0 -64 46 -101t122 -37q87 0 146.5 54t59.5 136q0 44 -21.5 75t-58.5 46t-87 15q-58 0 -106 -26t-74.5 -69t-26.5 -93zM354 651q107 0 179 65.5t72 160.5q0 78 -56.5 123.5t-150.5 45.5q-104 0 -177 -66t-73 -162q0 -82 56.5 -124.5t149.5 -42.5z" />
<glyph horiz-adv-x="670" d="M457 1462q68 0 121 -32t82.5 -92t29.5 -138q0 -98 -37.5 -200.5t-99.5 -188t-148.5 -147t-179.5 -78.5l-2 43q90 18 174 83.5t143.5 158t86.5 195.5l-2 1q-46 -59 -112.5 -95t-141.5 -36q-48 0 -89 15.5t-69 43t-43.5 66t-15.5 83.5q0 133 88.5 225.5t214.5 92.5z M376 981q83 0 156 51.5t111 124.5q2 28 2 44q0 101 -55 158.5t-136 57.5q-106 0 -180.5 -79.5t-74.5 -193.5q0 -74 48.5 -118.5t128.5 -44.5z" />
<glyph horiz-adv-x="1049" d="M599 1193q156 0 249.5 -119.5t93.5 -341.5q0 -110 -20.5 -217t-61.5 -201t-98.5 -166t-137.5 -113.5t-172 -41.5q-156 0 -251 121.5t-95 344.5q0 110 20.5 216t62.5 199.5t100 164.5t138 112.5t172 41.5zM597 1146q-84 0 -157 -39.5t-125 -106.5t-89 -155t-55 -186.5 t-18 -200.5q0 -202 82.5 -310t217.5 -108q71 0 133.5 28t110 77.5t86 116t62.5 143.5t37 160t13 166q0 203 -81.5 309t-216.5 106z" />
<glyph horiz-adv-x="582" d="M402 1186h45l-146 -1186h-46l139 1122l-284 -205l-22 38z" />
<glyph horiz-adv-x="844" d="M66 50l-1 -4h620l-6 -46h-690l6 43l473 430q32 29 55 51t51 52t47.5 55.5t39.5 57t32.5 61.5t20 65t7.5 70q0 78 -28 136.5t-84 91.5t-134 33q-206 0 -321 -206l-37 25q59 106 152.5 167t207.5 61q128 0 209.5 -81t81.5 -223q0 -65 -19.5 -126t-59 -117t-82.5 -103 t-105 -102z" />
<glyph horiz-adv-x="865" d="M557 621q89 -27 134.5 -91t45.5 -159q0 -112 -53 -199t-142 -133t-197 -46q-133 0 -222.5 57.5t-123.5 153.5l41 20q21 -56 60 -96.5t102 -64t144 -23.5q95 0 173.5 41.5t124.5 117.5t46 171q0 103 -71 166t-211 63h-111l5 45h125q137 0 222.5 79.5t85.5 207.5 q0 101 -70 158t-179 57q-198 0 -316 -144l-35 28q134 163 352 163q82 0 148 -30t106.5 -90.5t40.5 -141.5q0 -114 -60 -193.5t-165 -113.5v-3z" />
<glyph horiz-adv-x="878" d="M625 271h172l-6 -47h-172l-28 -224h-46l28 224h-575l6 46l691 916h42zM578 270l99 816l-616 -816h517z" />
<glyph horiz-adv-x="913" d="M850 1140h-530l-76 -432q50 28 117 40.5t113 12.5q146 0 238 -88.5t92 -240.5q0 -125 -56 -225.5t-155 -157t-221 -56.5q-120 0 -211.5 58t-125.5 153l42 18q33 -85 111 -133.5t185 -48.5q111 0 199 51t136.5 140.5t48.5 199.5q0 133 -78 208t-207 75q-34 0 -68.5 -4.5 t-68 -13t-63.5 -22.5t-51 -32l-36 7l97 537h574z" />
<glyph horiz-adv-x="939" d="M537 744q147 0 230 -83.5t83 -224.5q0 -90 -32 -171.5t-88.5 -141t-137.5 -94.5t-174 -35q-159 0 -248.5 96t-89.5 267q0 96 23 195t65 189.5t102 172.5t131 145.5t156 108t173 60.5l-2 -47q-135 -25 -256.5 -119t-205 -229t-118.5 -287l3 -2q65 94 165.5 147t220.5 53z M422 41q109 0 197 54t136 144t48 197q0 122 -72.5 191.5t-204.5 69.5q-138 0 -241 -76t-155 -192q-3 -33 -3 -65q0 -154 77 -238.5t218 -84.5z" />
<glyph horiz-adv-x="763" d="M91 1186h685l-5 -45l-641 -1156l-45 15l633 1140h-633z" />
<glyph horiz-adv-x="951" d="M621 643q63 -14 110.5 -49.5t74.5 -92.5t27 -128q0 -111 -61 -198.5t-163 -134t-224 -46.5q-157 0 -245 82t-88 209t83.5 229t206.5 128v2q-65 18 -113.5 76.5t-48.5 145.5q0 93 50.5 168.5t135 117t185.5 41.5q69 0 125.5 -19t94 -52.5t57.5 -79.5t20 -101 q0 -71 -30 -133.5t-81.5 -105t-115.5 -57.5v-2zM227 871q0 -63 32 -109.5t90.5 -71.5t136.5 -25q87 0 158 31.5t114 94.5t43 147q0 99 -67.5 153.5t-182.5 54.5q-86 0 -160 -34.5t-119 -98t-45 -142.5zM385 41q79 0 151.5 23.5t128 65t88.5 103.5t33 134q0 81 -36 137 t-105 85t-169 29q-104 0 -190 -41.5t-136.5 -118t-50.5 -171.5q0 -109 77.5 -177.5t208.5 -68.5z" />
<glyph horiz-adv-x="958" d="M559 1193q149 0 237 -99t88 -268q0 -92 -25.5 -189.5t-70.5 -187t-109 -172t-139 -147t-162.5 -110t-177.5 -62.5l1 47q139 32 265.5 127t216 227.5t128.5 278.5l-3 1q-67 -90 -168 -140t-212 -50q-76 0 -136.5 21.5t-100 60.5t-60 91.5t-20.5 114.5q0 94 35 179 t95 145.5t143 96t175 35.5zM429 496q52 0 104.5 13t107 40.5t105 79.5t87.5 122q4 35 4 77q0 150 -73 234t-205 84q-108 0 -199.5 -51.5t-146.5 -146t-55 -210.5q0 -108 69 -175t202 -67z" />
<glyph horiz-adv-x="851" d="M420 874q73 0 122 -48t49 -121q0 -76 -51 -126.5t-127 -50.5q-73 0 -121.5 49t-48.5 123t50.5 124t126.5 50z" />
<glyph horiz-adv-x="421" d="M289 981q-23 0 -38.5 15.5t-15.5 39.5t16 40.5t40 16.5q23 0 37.5 -15.5t14.5 -39.5t-15.5 -40.5t-38.5 -16.5zM277 707l-132 -1139h-52l148 1139h36z" />
<glyph horiz-adv-x="794" d="M501 982q-23 0 -38.5 15.5t-15.5 39.5t16 40.5t40 16.5q23 0 37.5 -15.5t14.5 -39.5t-15.5 -40.5t-38.5 -16.5zM626 -213q-23 -34 -50.5 -62t-58 -49t-64.5 -35.5t-69.5 -22t-72.5 -7.5q-113 0 -180.5 66t-67.5 190q0 62 14 115.5t43.5 103.5t63 91t85.5 95 q11 12 33 34.5t33.5 34.5t30.5 32.5t29.5 34.5t25 33.5t23.5 36t18 36t14 40t8 41.5l15 122h-40l-17 -124q-2 -18 -7 -34.5t-13.5 -34t-16 -31t-21.5 -32t-23 -30t-28 -31.5t-29 -30.5t-32.5 -33.5t-32.5 -33q-53 -55 -87 -96t-68.5 -95t-51 -112.5t-16.5 -123.5 q0 -141 77 -227.5t211 -86.5q99 0 191 49t160 143z" />
<glyph horiz-adv-x="600" d="M356 1009q15 0 27.5 -7t19.5 -19.5t7 -28.5q0 -24 -16 -40.5t-40 -16.5q-15 0 -27 7t-18.5 19.5t-6.5 28.5t7 29t19.5 20.5t27.5 7.5zM244 95q11 0 21 -4t17.5 -11.5t11.5 -17.5t4 -22q0 -24 -16 -40.5t-40 -16.5q-23 0 -37.5 15.5t-14.5 39.5t15.5 40.5t38.5 16.5z" />
<glyph horiz-adv-x="600" d="M266 184h56l-136 -446h-40z" />
<glyph d="M976 1387h44l-121 -464h254l-5 -44h-261l-98 -382h276l-6 -45h-283l-118 -459h-44l119 459h-353l-120 -459h-43l119 459h-242l6 45h247l100 382h-265l5 44h271l120 464h45l-121 -464h354zM844 879h-354l-100 -382h355z" />
<glyph horiz-adv-x="600" d="M244 95q23 0 38.5 -15.5t15.5 -39.5t-16 -40.5t-40 -16.5q-23 0 -37.5 15.5t-14.5 39.5t15.5 40.5t38.5 16.5z" />
<glyph horiz-adv-x="458" d="M522 1577h54l-5 -42h-52q-57 0 -100.5 -39.5t-52.5 -107.5l-64 -524q-11 -88 -37.5 -129.5t-97.5 -54.5l-1 -2q66 -13 84 -56t7 -130l-57 -464q-12 -97 15.5 -138t94.5 -41h54l-5 -41h-52q-76 0 -120 49t-33 135l63 515q5 26 3.5 51t-10 45t-36.5 34.5t-76 19.5l4 44 q40 5 68.5 16t44 23.5t25.5 33.5t13 37t6 43l67 539q9 79 61.5 131.5t134.5 52.5z" />
<glyph horiz-adv-x="465" d="M293 852q-6 -27 -4 -52t10.5 -44.5t36.5 -34t76 -20.5l-4 -44q-33 -3 -58.5 -10.5t-41.5 -20t-26.5 -24.5t-16.5 -30.5t-9 -32t-5 -34.5l-63 -515q-7 -57 -36 -99t-71 -62.5t-92 -20.5h-54l5 41h52q69 0 107.5 42t50.5 139l57 464q5 43 12.5 71.5t22.5 52.5t40 38.5 t62 21.5v2q-67 13 -84.5 56t-6.5 130l64 524q9 68 -24.5 106.5t-91.5 38.5h-54l5 42h54q82 0 122.5 -53.5t31.5 -132.5z" />
<glyph horiz-adv-x="420" d="M346 1530l-207 -1686h220l-5 -41h-262l217 1769h262l-5 -42h-220z" />
<glyph horiz-adv-x="433" d="M341 1532h-220l5 42h262l-217 -1769h-262l5 41h220z" />
<glyph horiz-adv-x="404" d="M199 439q0 297 81.5 591.5t232.5 539.5l-35 21q-155 -248 -239.5 -552t-84.5 -610q0 -302 94 -617l44 20q-93 314 -93 607z" />
<glyph horiz-adv-x="481" d="M401 963q0 358 -104 630l-41 -25q100 -271 100 -612q0 -303 -77.5 -576.5t-228.5 -549.5l39 -16q155 282 233.5 563.5t78.5 585.5z" />
<glyph horiz-adv-x="2122" d="M2037 625h-1912l5 44h1912z" />
<glyph horiz-adv-x="1166" d="M1081 625h-956l5 44h956z" />
<glyph horiz-adv-x="721" d="M637 632h-511l5 46h511z" />
<glyph d="M1030 543h-848l5 45h848z" />
<glyph horiz-adv-x="754" d="M329 137h-45l-186 473l300 469h46l-296 -469zM600 137h-45l-186 473l300 469h46l-296 -469z" />
<glyph horiz-adv-x="753" d="M74 117l297 473l-181 469h46l185 -469l-302 -473h-45zM345 117l297 473l-181 469h46l185 -469l-302 -473h-45z" />
<glyph horiz-adv-x="340" d="M98 296l107 891h46l-111 -891h-42zM94 95q23 0 38.5 -15.5t15.5 -39.5t-16 -40.5t-40 -16.5q-23 0 -37.5 15.5t-14.5 39.5t15.5 40.5t38.5 16.5z" />
<glyph horiz-adv-x="341" d="M261 1092q-23 0 -38.5 15.5t-15.5 39.5t16 40.5t40 16.5q11 0 21 -4t16.5 -11.5t10.5 -17.5t4 -22t-4 -22.5t-11 -18t-17.5 -12t-21.5 -4.5zM257 891l-107 -891h-46l111 891h42z" />
<glyph horiz-adv-x="623" d="M105 1007q50 72 122 106t146 34q94 0 149 -54.5t55 -155.5q0 -52 -14.5 -99t-42.5 -88t-53 -69t-63 -63q-45 -42 -68 -65.5t-50.5 -58t-41.5 -67.5t-19 -72l-8 -63h44l8 61q4 32 17 61.5t40.5 61.5t48.5 53.5t65 62.5q90 84 137 163.5t47 178.5q0 116 -65 187.5 t-183 71.5q-88 0 -167.5 -41t-129.5 -115zM227 95q11 0 21.5 -4t17.5 -11.5t11 -17.5t4 -22q0 -24 -16 -40.5t-40 -16.5q-23 0 -37.5 15.5t-14.5 39.5t15.5 40.5t38.5 16.5z" />
<glyph horiz-adv-x="624" d="M415 1091q-23 0 -38.5 15.5t-15.5 39.5q0 16 7.5 29t20 20.5t28.5 7.5q11 0 21 -4t16.5 -11.5t10.5 -17.5t4 -22q0 -24 -15.5 -40.5t-38.5 -16.5zM537 179q-50 -72 -122 -106t-146 -34q-94 0 -149 54.5t-55 155.5q0 52 14.5 99t42.5 88t53 69t63 63q45 42 68 65.5 t50.5 58t41.5 67.5t19 72l8 63h-44l-8 -61q-4 -33 -17 -62t-40.5 -61t-48.5 -53.5t-65 -62.5q-90 -84 -137 -163.5t-47 -178.5q0 -116 65 -187.5t183 -71.5q88 0 167.5 41t129.5 115z" />
<glyph />
<glyph d="M754 1110q88 -4 167 -43t129 -114l-39 -30q-24 37 -56 64.5t-68.5 44.5t-75 25t-79.5 8q-62 0 -119 -15t-104 -43t-87 -67t-70 -87.5t-51.5 -103.5t-32 -116t-10.5 -125q0 -156 90.5 -256.5t227.5 -100.5q116 0 202.5 38t152.5 119l35 -27q-64 -80 -145.5 -122.5 t-189.5 -51.5l-29 -237h-39l29 235h-22q-68 0 -131.5 27t-114.5 76.5t-81.5 127.5t-30.5 172q0 120 35 227.5t99 190t159.5 132t209.5 53.5l32 256h39z" />
<glyph d="M728 1359q87 -8 168 -47.5t139 -102.5l-36 -38q-61 67 -145 104.5t-173 37.5q-144 0 -239.5 -77t-95.5 -204q0 -26 6 -50.5t13.5 -44t24 -40.5t29.5 -35.5t38 -33.5t40 -30t46.5 -29t47 -26.5t50.5 -27.5q38 -20 58.5 -31.5t54.5 -31.5t54 -34t47.5 -34.5t43.5 -38 t34.5 -40.5t28.5 -45t16.5 -48.5t6.5 -54.5q0 -163 -112.5 -263t-294.5 -100h-17l-31 -251h-42l31 255q-105 12 -201.5 65.5t-158.5 146.5l39 36q69 -104 168.5 -154t212.5 -50q161 0 259.5 86t98.5 227q0 30 -9 57.5t-21.5 49t-38 46t-45 40t-56.5 38.5t-59 35.5t-66 36.5 q-15 9 -23 13q-44 24 -67.5 37.5t-63.5 38.5t-62 44t-50.5 47.5t-43 55.5t-25 62t-10.5 73q0 147 107.5 239.5t279.5 92.5h3l31 260h42z" />
<glyph d="M851 1342q-100 0 -189.5 -38t-160 -106t-122 -161.5t-80.5 -205.5h621l-6 -47h-626q-18 -93 -21 -193h624l-6 -46h-618q3 -124 37.5 -221.5t92 -158.5t131.5 -93t159 -32q188 0 343 116l23 -41q-167 -122 -368 -122q-93 0 -175 35t-146.5 101.5t-103 173.5t-41.5 242 h-114l6 46h108q3 100 21 193h-106l6 47h110q30 122 86.5 224.5t133 176.5t175.5 115.5t208 41.5q194 0 332 -119l-31 -38q-123 110 -303 110z" />
<glyph d="M1034 1179q-71 184 -256 184q-138 0 -229.5 -102t-117.5 -317l-16 -129h330l-6 -47h-330l-88 -721h666l-6 -47h-885l6 47h172l88 721h-132l6 47h132l17 137q13 102 41 182t65 131t85 84.5t97.5 47.5t104.5 14q106 0 179.5 -53t114.5 -150z" />
<glyph d="M1155 1407l-384 -589h235l-6 -46h-259l-103 -158l-5 -37h343l-6 -46h-342l-66 -531h-47l66 531h-349l6 46h348l5 37l-64 158h-265l6 46h240l-239 589h54l297 -738l483 738h52z" />
<glyph horiz-adv-x="1113" d="M997 634h-400l-55 -449h-45l55 449h-403l5 45h403l56 450h45l-56 -450h400z" />
<glyph d="M652 1015q23 0 38.5 -15.5t15.5 -39.5q0 -16 -7.5 -29t-20 -20.5t-28.5 -7.5q-15 0 -27 7t-18.5 19.5t-6.5 28.5q0 24 15.5 40.5t38.5 16.5zM1030 543h-848l5 45h848zM569 228q23 0 38.5 -15.5t15.5 -39.5t-16 -40.5t-40 -16.5q-23 0 -37.5 15.5t-14.5 39.5q0 16 7 29 t19.5 20.5t27.5 7.5z" />
<glyph d="M1055 772h-848l5 45h848zM1005 314h-848l5 45h848z" />
<glyph d="M165 184l771 395l-674 397l6 51l740 -432l-4 -31l-846 -431z" />
<glyph d="M958 184l-6 -51l-741 431l4 31l846 432l-6 -51l-772 -397z" />
<glyph d="M865 198l-261 335l-341 -335l-29 31l344 336l-261 336l34 32l259 -336l345 337l28 -31l-344 -338l260 -336z" />
<glyph d="M1030 543h-400l-55 -449h-45l55 449h-403l5 45h403l56 450h45l-56 -450h400z" />
<glyph horiz-adv-x="1815" d="M1005 1482q158 0 293.5 -51t232 -143.5t151.5 -228t55 -297.5q0 -43 -6 -88.5t-19.5 -97t-34.5 -98.5t-53 -90t-72 -75t-95 -51t-118 -19q-70 0 -108.5 45.5t-38.5 138.5q0 23 4 71l5 38q-61 -121 -165.5 -195t-226.5 -74q-139 0 -219.5 87.5t-80.5 246.5q0 79 18.5 152 t56 136t90.5 110t127 74t161 27q89 0 171 -28.5t124 -78.5l11 101h45l-71 -581q-4 -37 -4 -72q0 -50 8 -82t25.5 -46t34 -18.5t43.5 -4.5q63 0 116 23t89 62t63.5 86.5t42.5 102t22.5 103.5t7.5 94q0 153 -50.5 280t-141 213.5t-217 134t-276.5 47.5q-125 0 -236 -27.5 t-195.5 -75t-154 -113t-117 -139.5t-80 -155.5t-47.5 -161t-15 -156.5q0 -147 50.5 -273.5t139 -215.5t212 -139t266.5 -50q275 0 467 109l29 -38q-207 -118 -496 -118q-152 0 -284 53.5t-227 148t-149.5 230.5t-54.5 293q0 75 14.5 155.5t47.5 166.5t81.5 165t121.5 150 t162 123.5t208.5 83t256.5 30.5zM818 313q68 0 136.5 33.5t123.5 89t95 133t51 161.5l26 210q-30 37 -81.5 63.5t-103 38t-99.5 11.5q-98 0 -177 -37t-129 -100t-76.5 -143t-26.5 -170q0 -134 65 -212t196 -78z" />
<glyph d="M525 1462q97 0 159.5 -64t62.5 -170q0 -59 -21.5 -114t-58.5 -96.5t-91.5 -66.5t-116.5 -25q-51 0 -92 16t-69.5 44.5t-43.5 69t-15 89.5q0 86 37 158.5t103 115.5t146 43zM525 1416q-101 0 -170.5 -78t-69.5 -193q0 -81 46.5 -127t127.5 -46q102 0 172 74.5t70 181.5 q0 85 -48 136.5t-128 51.5z" />
<glyph horiz-adv-x="1220" d="M1188 699l-5 -45h-284q-6 -109 -28 -205.5t-65 -181t-103 -145t-145.5 -95t-188.5 -34.5q-135 0 -218.5 77t-83.5 207q0 139 74.5 246.5t187.5 148.5q-54 22 -89 72.5t-35 122.5q0 88 40.5 161.5t119.5 118.5t182 45q115 0 182 -55.5t79 -150.5l-45 -5q-10 80 -65 123 t-151 43q-132 0 -214.5 -79t-82.5 -201q0 -33 10 -62.5t28.5 -53.5t48.5 -38t68 -14h783zM369 37q214 0 342.5 162t143.5 455h-399q-72 -1 -136 -31t-109.5 -81t-72 -120t-26.5 -145q0 -110 70 -175t187 -65z" />
<glyph horiz-adv-x="330" d="M473 1424h63l-263 -276h-60zM-228 -333q21 -15 40.5 -22.5t32 -9t32.5 -1.5q34 0 59 8.5t50 32t42.5 71.5t26.5 120l137 1126h45l-138 -1128q-9 -70 -24.5 -120t-42 -85.5t-66 -53t-92.5 -17.5q-61 0 -111 31z" />
<glyph horiz-adv-x="890" d="M1068 1915h63l-263 -276h-60zM50 225q52 -87 127.5 -135.5t150.5 -48.5q293 0 340 387l125 1027h47l-126 -1030q-27 -222 -123.5 -327t-264.5 -105q-82 0 -167 51t-140 143z" />
</font>
</defs>
</svg>
