<?xml version="1.0" standalone="no"?>
<!DOCTYPE svg PUBLIC "-//W3C//DTD SVG 1.1//EN" "http://www.w3.org/Graphics/SVG/1.1/DTD/svg11.dtd" >
<svg xmlns="http://www.w3.org/2000/svg" xmlns:xlink="http://www.w3.org/1999/xlink" version="1.1">
<metadata></metadata>
<defs>
<font id="avertaextrathin" horiz-adv-x="1200" >
<font-face units-per-em="2048" ascent="1581" descent="-467" />
<missing-glyph horiz-adv-x="573" />
<glyph horiz-adv-x="0" />
<glyph horiz-adv-x="682" />
<glyph unicode=" "  horiz-adv-x="573" />
<glyph unicode="&#x09;" horiz-adv-x="573" />
<glyph unicode="&#xa0;" horiz-adv-x="573" />
<glyph unicode="!" horiz-adv-x="389" d="M174 369l-8 1139h54l-9 -1139h-37zM195 -20q-26 0 -42.5 16.5t-16.5 41.5q0 18 7.5 31.5t21 20.5t30.5 7q26 0 42.5 -16t16.5 -43q0 -25 -16.5 -41.5t-42.5 -16.5z" />
<glyph unicode="&#x22;" horiz-adv-x="502" d="M102 1009l72 446h54l-86 -446h-40zM273 1009l71 446h56l-86 -446h-41z" />
<glyph unicode="#" horiz-adv-x="1255" d="M296 -51l70 459h-273v45h278l59 382h-298v44h305l70 464h45l-71 -464h398l70 464h44l-71 -464h283v-44h-290l-57 -382h307v-45h-315l-69 -459h-44l70 459h-397l-71 -459h-43zM415 453h398l58 382h-397z" />
<glyph unicode="$" horiz-adv-x="1111" d="M1009 338q0 -73 -27 -134.5t-78 -107.5t-129.5 -72.5t-177.5 -27.5v-253h-46v254q-118 8 -228.5 56.5t-201.5 135.5l38 39q58 -57 127.5 -98t147 -63.5t156.5 -22.5q105 0 188.5 33t133.5 101t50 160q0 45 -11.5 83.5t-27.5 66.5t-49 54.5t-58 42.5t-74.5 36.5t-79.5 31 t-89 30.5q-5 1 -7 2q-7 2 -21 7q-59 20 -88.5 30.5t-79.5 31t-76.5 37t-60.5 44t-50.5 56t-29 68t-12.5 85.5q0 68 25 125.5t71.5 100.5t120 67.5t165.5 24.5h21v259h46v-264q35 -4 72.5 -13t75 -21.5t73 -27.5t68 -33t59.5 -37l-35 -39q-74 55 -183.5 92t-196.5 37 q-95 0 -169.5 -30.5t-119.5 -92.5t-45 -147q0 -39 11.5 -73t27 -58.5t47.5 -48.5t56.5 -39t71 -34t74 -28.5t81.5 -27.5q11 -4 17 -6q4 -2 13 -5q63 -21 94 -32t83.5 -33t79.5 -40.5t62.5 -48t52.5 -61.5t29.5 -76t12.5 -96z" />
<glyph unicode="%" horiz-adv-x="1920" d="M667 -15l-42 15l624 1468l42 -15zM477 672q-110 0 -201 49t-145 140.5t-54 207.5q0 108 49.5 197.5t141.5 142.5t209 53q110 0 201.5 -48.5t146 -139t54.5 -205.5q0 -109 -49.5 -199.5t-142 -144t-210.5 -53.5zM477 717q105 0 187.5 47t126 127t43.5 178q0 103 -48 183 t-129 122.5t-180 42.5q-105 0 -186.5 -46.5t-125 -125.5t-43.5 -176q0 -104 47.5 -185t128.5 -124t179 -43zM1423 -7q-110 0 -200.5 48.5t-145 140.5t-54.5 208q0 108 49.5 197.5t141.5 142.5t209 53q169 0 285.5 -109.5t116.5 -283.5q0 -109 -49.5 -199.5t-142 -144 t-210.5 -53.5zM1423 37q106 0 188 47t125.5 127.5t43.5 178.5q0 102 -48 182.5t-129 123t-180 42.5q-105 0 -186.5 -46.5t-125 -125.5t-43.5 -176q0 -104 47.5 -185t128.5 -124.5t179 -43.5z" />
<glyph unicode="&#x26;" horiz-adv-x="1267" d="M1145 0l-168 186h-2q-75 -90 -185 -141.5t-254 -51.5q-124 0 -224.5 49t-159.5 142t-59 214q0 128 81 250t214 186v3l-201 222q0 185 105.5 294t290.5 109q91 0 166.5 -31.5t127 -88t77.5 -132.5l-44 -18q-34 103 -119.5 163t-207.5 60q-110 0 -188.5 -42t-117.5 -118.5 t-39 -181.5l733 -812h2q19 28 35 59t28 63t21 64.5t14.5 65.5t8.5 65.5t3 64.5h47q0 -70 -12.5 -140.5t-41 -143t-71.5 -132.5v-3l202 -224h-62zM536 39q257 0 407 182v2l-521 576q-122 -56 -202.5 -167.5t-80.5 -233.5q0 -75 28.5 -140.5t79.5 -114t125.5 -76.5t163.5 -28z " />
<glyph unicode="'" horiz-adv-x="330" d="M102 1009l72 446h54l-86 -446h-40z" />
<glyph unicode="(" horiz-adv-x="474" d="M346 -279q-98 208 -152.5 423t-54.5 467q0 246 59.5 477.5t160.5 411.5l36 -23q-98 -178 -154.5 -401.5t-56.5 -464.5q0 -247 53 -455t150 -417z" />
<glyph unicode=")" horiz-adv-x="474" d="M148 -279l-41 18q97 209 150 417t53 455q0 241 -56.5 464.5t-154.5 401.5l36 23q101 -180 160.5 -411.5t59.5 -477.5q0 -252 -54.5 -467t-152.5 -423z" />
<glyph unicode="*" horiz-adv-x="826" d="M390 831l7 285l-243 -151l-22 43l252 134l-254 136l24 40l243 -148l-7 285h46l-8 -285l243 150l23 -42l-253 -136l254 -134l-24 -40l-243 148l8 -285h-46z" />
<glyph unicode="+" horiz-adv-x="1193" d="M574 94v449h-449v45h449v450h45v-450h448v-45h-448v-449h-45z" />
<glyph unicode="," horiz-adv-x="322" d="M74 -262l72 446h55l-87 -446h-40z" />
<glyph unicode="-" horiz-adv-x="826" d="M118 606v48h590v-48h-590z" />
<glyph unicode="." horiz-adv-x="352" d="M176 -20q-26 0 -42.5 16.5t-16.5 41.5q0 18 7.5 31.5t21 20.5t30.5 7q26 0 42.5 -16t16.5 -43q0 -25 -16.5 -41.5t-42.5 -16.5z" />
<glyph unicode="/" horiz-adv-x="764" d="M11 -235l-38 19l797 1744l38 -22z" />
<glyph unicode="0" horiz-adv-x="1246" d="M623 -7q-107 0 -198.5 46t-160 133t-107.5 223t-39 306q0 121 20.5 228.5t62.5 196t102 153t141.5 100t178.5 35.5q107 0 198.5 -46t159.5 -134t107 -224.5t39 -308.5q0 -119 -20.5 -225.5t-62.5 -195t-101.5 -152.5t-141 -99.5t-178.5 -35.5zM623 41q73 0 136.5 22.5 t113.5 64.5t89 101t64.5 132.5t39 159t13.5 180.5q0 162 -35 290.5t-97.5 209.5t-144.5 123t-179 42q-109 0 -196.5 -50t-144 -139t-86.5 -210t-30 -266q0 -160 35 -287t97.5 -208t145 -123t179.5 -42z" />
<glyph unicode="1" horiz-adv-x="656" d="M409 0v1345l-332 -252l-28 38l360 276h47v-1407h-47z" />
<glyph unicode="2" horiz-adv-x="994" d="M141 47h769v-47h-847v46l536 518q55 54 93 97.5t75 98.5t55.5 115t18.5 124q0 161 -100 264t-258 103q-127 0 -220 -62t-145 -181l-45 24q57 126 160 196.5t250 70.5q79 0 152 -28t129.5 -79.5t90.5 -131t34 -174.5q0 -121 -62.5 -232t-191.5 -236l-494 -479v-7z" />
<glyph unicode="3" horiz-adv-x="1024" d="M651 735q133 -38 206 -135.5t73 -229.5q0 -108 -56.5 -194.5t-155 -134.5t-220.5 -48q-164 0 -281.5 66t-173.5 179l45 22q51 -102 155 -160.5t255 -58.5q81 0 152 24.5t122 68t80.5 107.5t29.5 140q0 54 -15.5 103t-47.5 91t-78.5 72.5t-112 48t-143.5 17.5h-135v47h154 q87 0 154.5 24t108.5 66t62 94.5t21 112.5q0 141 -102 225t-261 84q-237 0 -357 -171l-44 27q138 192 401 192q86 0 160.5 -24.5t130.5 -69.5t88 -113t32 -151q0 -112 -62.5 -197.5t-184.5 -120.5v-3z" />
<glyph unicode="4" horiz-adv-x="1096" d="M776 0v268h-730v48l733 1091h44v-1092h222v-47h-222v-268h-47zM103 315h673v1003z" />
<glyph unicode="5" horiz-adv-x="1083" d="M527 874q99 0 185 -29.5t150.5 -84.5t101.5 -139.5t37 -188.5q0 -128 -64 -229t-172 -155.5t-238 -54.5q-146 0 -267.5 68.5t-177.5 179.5l45 20q36 -67 95.5 -116.5t138 -76.5t166.5 -27q89 0 167.5 29t135.5 79.5t90 124t33 158.5q0 93 -32.5 168.5t-90.5 124.5 t-135.5 75t-167.5 26q-41 0 -80.5 -5t-77 -15t-70.5 -26.5t-56 -38.5l-44 5l38 661h708v-47h-664l-32 -562q58 39 139 57.5t139 18.5z" />
<glyph unicode="6" horiz-adv-x="1147" d="M614 868q200 0 321 -118t121 -317q0 -90 -33.5 -170t-93 -139.5t-147 -94.5t-189.5 -35q-103 0 -191.5 38t-152 105.5t-99.5 165t-36 212.5q0 117 23 226t63 197.5t94 166t116 135.5t129 103t132.5 72t127.5 38l7 -48q-78 -14 -159.5 -54t-162.5 -109.5t-147 -160 t-112 -214t-58 -260.5l1 -1q66 116 182.5 189t263.5 73zM593 42q93 0 171.5 30.5t131.5 83.5t82.5 124.5t29.5 151.5q0 178 -106.5 283t-287.5 105q-59 0 -113.5 -13t-99 -36t-82.5 -53t-67.5 -67t-51.5 -76t-37 -80q3 -101 37 -186t91 -143.5t134.5 -91t167.5 -32.5z" />
<glyph unicode="7" horiz-adv-x="985" d="M62 1407h864v-49l-633 -1375l-46 16l628 1361h-813v47z" />
<glyph unicode="8" horiz-adv-x="1152" d="M725 760q147 -27 235.5 -129.5t88.5 -245.5q0 -114 -64 -204t-172.5 -138.5t-241.5 -48.5q-106 0 -196 31t-151 84.5t-95.5 124.5t-34.5 151q0 143 88.5 245.5t235.5 129.5v3q-49 10 -93.5 35t-80.5 62.5t-57.5 91t-21.5 116.5q0 103 53.5 182.5t145.5 121.5t207 42 q92 0 169.5 -27t129.5 -73.5t81 -110t29 -135.5q0 -62 -21.5 -116t-58 -91.5t-81.5 -62.5t-94 -35v-3zM213 1068q0 -130 99 -207t259 -77q106 0 187.5 34t127.5 99t46 151q0 134 -102 216t-259 82q-162 0 -260 -85t-98 -213zM571 42q96 0 177.5 27t136.5 73.5t85.5 109 t30.5 132.5q0 159 -117.5 255.5t-312.5 96.5q-194 0 -311.5 -96.5t-117.5 -255.5q0 -100 57 -178.5t154.5 -121t217.5 -42.5z" />
<glyph unicode="9" horiz-adv-x="1160" d="M571 1414q101 0 188.5 -38t152 -107.5t101 -173t35.5 -227.5q-1 -117 -27 -225.5t-70 -194.5t-103.5 -162t-125 -132t-135.5 -99t-134.5 -68.5t-123.5 -36.5l-6 48q52 10 110 32.5t121 60.5t122.5 87t114.5 115t97.5 141t71.5 169.5t37 195.5l-2 1q-68 -117 -190 -191 t-285 -74q-186 0 -304.5 117t-118.5 304q0 92 34.5 176t96 146t150.5 99t193 37zM520 583q72 0 142 19t135 57t118 102t84 148q-3 70 -20 132.5t-45 112.5t-66.5 90t-85 67t-100 41t-111.5 14q-96 0 -176.5 -32.5t-135 -87.5t-84.5 -129.5t-30 -158.5q0 -170 104 -272.5 t271 -102.5z" />
<glyph unicode=":" horiz-adv-x="333" d="M167 895q-26 0 -42.5 16.5t-16.5 41.5q0 18 7.5 31.5t21 20.5t30.5 7q26 0 42.5 -16t16.5 -43q0 -25 -16.5 -41.5t-42.5 -16.5zM167 -20q-26 0 -42.5 16.5t-16.5 41.5q0 18 7.5 31.5t21 20.5t30.5 7q26 0 42.5 -16t16.5 -43q0 -25 -16.5 -41.5t-42.5 -16.5z" />
<glyph unicode=";" horiz-adv-x="357" d="M190 895q-26 0 -42.5 16.5t-16.5 41.5q0 13 4.5 24t12 19t18.5 12t24 4q26 0 42.5 -16t16.5 -43q0 -25 -16.5 -41.5t-42.5 -16.5zM83 -262l72 446h55l-87 -446h-40z" />
<glyph unicode="&#x3c;" horiz-adv-x="1130" d="M1001 133l-879 431v31l879 432v-51l-808 -397l808 -395v-51z" />
<glyph unicode="=" horiz-adv-x="1139" d="M102 772v45h942v-45h-942zM102 314v45h942v-45h-942z" />
<glyph unicode="&#x3e;" horiz-adv-x="1125" d="M149 133v51l808 395l-808 397v51l879 -432v-31z" />
<glyph unicode="?" horiz-adv-x="855" d="M366 360v123q0 22 5.5 45t11.5 41t21 42t24.5 38t32 40t32.5 37t37 40.5t36 38.5q39 42 66 76t54 79t41 94.5t14 102.5q0 72 -26 131t-70.5 97.5t-101.5 59.5t-120 21q-99 0 -187 -46t-143 -133l-33 37q62 93 158 142t205 49q83 0 153 -29t116 -78t72 -114t26 -137 q0 -49 -11.5 -95.5t-28 -83t-44 -76t-51 -67t-57.5 -63.5q-7 -8 -31.5 -33.5t-32 -34t-27.5 -31t-27.5 -33t-22.5 -30t-20.5 -32.5t-13.5 -30.5t-10.5 -33t-2.5 -31.5v-123h-44zM394 -20q-26 0 -42.5 16.5t-16.5 41.5q0 27 16.5 43t42.5 16t42.5 -16t16.5 -43 q0 -25 -16.5 -41.5t-42.5 -16.5z" />
<glyph unicode="@" horiz-adv-x="1836" d="M988 1332q158 0 295 -51t235.5 -143.5t155 -228t56.5 -297.5q0 -49 -9 -104t-27 -114t-48.5 -112.5t-69.5 -96t-94.5 -67.5t-119.5 -25q-157 0 -157 184q0 17 3 57h-5q-49 -103 -147.5 -161.5t-218.5 -58.5q-59 0 -114.5 17.5t-102 52t-81 82t-54 110t-19.5 132.5 q0 60 15.5 121t50.5 120t85 104.5t125.5 73.5t164.5 28q114 0 203.5 -63.5t127.5 -171.5h4l21 228h45l-53 -585q-4 -37 -4 -72q0 -50 8 -82t25.5 -46t34 -18.5t43.5 -4.5q56 0 104 23t82.5 61.5t61 87t42 102t23.5 103.5t8 94q0 153 -52 280t-144.5 213.5t-220.5 134 t-278 47.5q-126 0 -236 -27t-193.5 -73.5t-152 -111t-115 -137.5t-78 -153.5t-46 -159.5t-14.5 -156q0 -147 52 -275.5t142 -218.5t215.5 -142t268.5 -52q265 0 457 109l29 -38q-207 -118 -486 -118q-151 0 -285.5 55.5t-231 151.5t-152.5 233.5t-56 294.5q0 58 8.5 119 t27 127t46.5 129t69.5 125t92 116t117.5 99.5t144 78.5t173.5 51.5t203.5 18.5zM841 161q79 0 146 27.5t110 70.5t73.5 97.5t43.5 108t13 103.5q0 95 -38.5 172.5t-111 122.5t-166.5 45q-79 0 -146 -23t-112.5 -62t-77.5 -90t-46.5 -106t-14.5 -111q0 -153 92 -254t235 -101 z" />
<glyph unicode="A" horiz-adv-x="1311" d="M1200 0l-169 432h-753l-167 -432h-52l564 1455h59l570 -1455h-52zM296 478h717l-359 919h-2z" />
<glyph unicode="B" horiz-adv-x="1250" d="M796 759q66 -10 124 -37t106 -71t76 -113t28 -153q0 -178 -126 -281.5t-375 -103.5h-446v1455h417q79 0 146 -11.5t126 -37.5t100 -66t64.5 -101t23.5 -138q0 -122 -68 -214t-196 -125v-3zM230 1408v-626h409q44 0 86.5 7t85 21.5t78.5 40t64 59.5t43.5 83t15.5 108 q0 149 -102 228t-326 79h-354zM622 47q105 0 189 20.5t145 60.5t93.5 104t32.5 147q0 171 -116 263.5t-329 92.5h-407v-688h392z" />
<glyph unicode="C" horiz-adv-x="1462" d="M836 -7q-117 0 -223.5 30t-195 90.5t-153.5 146.5t-101.5 204t-36.5 256q0 103 21 198t60.5 177.5t100.5 150t138.5 115.5t177 74.5t212.5 26.5q103 0 198 -27.5t187.5 -90.5t168.5 -157l-39 -31q-104 132 -236.5 195t-278.5 63q-106 0 -198.5 -24.5t-164.5 -69 t-129 -107.5t-94 -140t-56.5 -166t-19.5 -187q0 -130 33.5 -240t94 -190t143.5 -136.5t182 -84.5t209 -28q168 0 293 66.5t222 188.5l39 -30q-104 -130 -238.5 -201.5t-315.5 -71.5z" />
<glyph unicode="D" horiz-adv-x="1446" d="M183 0v1455h382q170 0 311.5 -53.5t239 -149.5t151 -231.5t53.5 -295.5t-53 -294.5t-149.5 -229.5t-237 -148t-309.5 -53h-388zM230 47h338q158 0 290 50t223 139t141 214.5t50 274.5q0 151 -50 278t-141.5 216t-224 139t-291.5 50h-335v-1361z" />
<glyph unicode="E" horiz-adv-x="1157" d="M183 0v1455h844v-47h-797v-656h670v-47h-670v-658h840v-47h-887z" />
<glyph unicode="F" horiz-adv-x="1122" d="M183 0v1455h883v-47h-836v-661h723v-47h-723v-700h-47z" />
<glyph unicode="G" horiz-adv-x="1556" d="M837 -7q-155 0 -287 54t-225.5 149.5t-146 232t-52.5 297.5q0 162 53 299t146 233t225 150t287 54q320 0 530 -202l-34 -34q-193 188 -496 188q-145 0 -268 -50t-210 -139.5t-136 -218t-49 -280.5q0 -150 49 -278t135.5 -217t210 -139.5t268.5 -50.5q318 0 512 165v445 h-550v47h597v-513q-104 -95 -247 -143.5t-312 -48.5z" />
<glyph unicode="H" horiz-adv-x="1418" d="M183 0v1455h47v-746h958v746h47v-1455h-47v662h-958v-662h-47z" />
<glyph unicode="I" horiz-adv-x="441" d="M197 0v1455h47v-1455h-47z" />
<glyph unicode="J" horiz-adv-x="956" d="M434 -7q-91 0 -195.5 50.5t-184.5 142.5l28 38q167 -183 352 -183q73 0 129 21t99 66.5t65.5 123t22.5 185.5v1018h47v-1029q0 -433 -363 -433z" />
<glyph unicode="K" horiz-adv-x="1254" d="M528 728h-4l-294 -340v-388h-47v1455h47v-991h3l857 991h63l-596 -689l606 -766h-61z" />
<glyph unicode="L" horiz-adv-x="1081" d="M183 0v1455h47v-1408h807v-47h-854z" />
<glyph unicode="M" horiz-adv-x="1746" d="M1516 1455h47v-1455h-47v1361h-2l-619 -1043h-44l-620 1044h-1v-1362h-47v1455h48l641 -1076h4z" />
<glyph unicode="N" horiz-adv-x="1491" d="M1259 1455h47v-1455h-46l-1028 1371h-2v-1371h-47v1455h44l1030 -1373h2v1373z" />
<glyph unicode="O" horiz-adv-x="1683" d="M844 -7q-158 0 -293 58t-227.5 157.5t-145 234t-52.5 286.5q0 150 52.5 284.5t145 233.5t227.5 157t293 58q146 0 276.5 -53t227 -147.5t153 -232.5t56.5 -300t-56.5 -301t-153 -233.5t-227 -148t-276.5 -53.5zM844 41q136 0 257.5 50t212 138.5t143 218.5t52.5 281 t-52.5 280t-143 217.5t-212 138t-257.5 49.5q-147 0 -273 -54t-212.5 -146.5t-135.5 -218t-49 -266.5q0 -113 31 -217.5t90 -189.5t140 -148.5t186 -98t223 -34.5z" />
<glyph unicode="P" horiz-adv-x="1192" d="M183 0v1455h476q118 0 206 -31t140 -87t77.5 -129t25.5 -163q0 -87 -23.5 -157t-65.5 -119t-103 -82t-134 -48t-160 -15h-392v-624h-47zM230 671h391q116 0 202.5 28.5t137 80t75 117.5t24.5 148q0 92 -28.5 162t-81 113.5t-123 65.5t-156.5 22h-441v-737z" />
<glyph unicode="Q" horiz-adv-x="1700" d="M1579 28l-30 -35l-213 191q-97 -92 -223.5 -141.5t-268.5 -49.5q-158 0 -293 58t-227.5 157.5t-145 234t-52.5 286.5q0 150 52.5 284.5t145 233.5t227.5 157t293 58q146 0 276.5 -53t227 -147.5t153 -232.5t56.5 -300q0 -153 -49.5 -283t-139.5 -229zM844 41 q87 0 169.5 20.5t154 60t131.5 95.5l-210 188l30 37l213 -192q84 91 130.5 213.5t46.5 265.5q0 151 -52.5 280.5t-143 217.5t-212 137.5t-257.5 49.5q-147 0 -273 -54t-212.5 -146.5t-135.5 -218t-49 -266.5q0 -113 31 -217.5t90 -189.5t140 -148.5t186 -98t223 -34.5z" />
<glyph unicode="R" horiz-adv-x="1253" d="M1125 0h-59l-449 624h-387v-624h-47v1455h476q115 0 203 -31t141 -87t79.5 -129.5t26.5 -162.5q0 -102 -31.5 -180.5t-89.5 -128.5t-136.5 -77.5t-176.5 -33.5l-1 -1zM230 1408v-737h392q95 0 169.5 18.5t124.5 51.5t83 80.5t47.5 103t14.5 120.5q0 182 -106 272.5 t-293 90.5h-432z" />
<glyph unicode="S" horiz-adv-x="1142" d="M578 -7q-139 0 -268 55t-222 165l36 37q51 -69 126.5 -117t159 -70t172.5 -22q81 0 153 20.5t128.5 58.5t90 99t33.5 137q0 33 -6.5 62t-15.5 52.5t-27.5 45.5t-34 38t-43.5 34t-48 29t-55 26.5t-57 24.5t-63 25t-63 25q-5 2 -14 6q-50 20 -76 31t-71.5 32t-70.5 37.5 t-60 41t-54.5 50t-39 57t-28 69t-8.5 79.5q0 148 115 244.5t299 96.5q106 0 217.5 -40.5t198.5 -111.5l-34 -38q-83 68 -184 105t-197 37q-69 0 -134 -19t-117.5 -54.5t-84 -92.5t-31.5 -127q0 -43 12 -80.5t29 -65.5t50.5 -56t59 -45.5t73 -40t75.5 -34t82 -33.5q4 -1 6 -2 q19 -8 57 -22q59 -23 88.5 -35t79 -35.5t75 -42t59 -48.5t49.5 -60.5t28 -72.5t12 -91q0 -77 -31 -143.5t-88.5 -115.5t-144.5 -77t-193 -28z" />
<glyph unicode="T" horiz-adv-x="1109" d="M528 0v1408h-477v47h1007v-47h-483v-1408h-47z" />
<glyph unicode="U" horiz-adv-x="1396" d="M698 -7q-117 0 -215.5 40.5t-169 115t-109.5 185.5t-39 246v875h47v-875q0 -125 35.5 -227t99.5 -170.5t154 -105t197 -36.5t197 36.5t154 104.5t100 170t36 228v875h47v-875q0 -136 -39.5 -246.5t-110 -185t-169 -115t-215.5 -40.5z" />
<glyph unicode="V" horiz-adv-x="1290" d="M1178 1455h51l-559 -1455h-50l-559 1455h51l531 -1384h3z" />
<glyph unicode="W" horiz-adv-x="2029" d="M1908 1455h52l-472 -1455h-60l-412 1386h-2l-413 -1386h-60l-472 1455h51l450 -1387h2l412 1387h62l411 -1385h2z" />
<glyph unicode="X" horiz-adv-x="1238" d="M1171 1455l-522 -732l520 -723h-59l-488 676h-2v3l-494 -679h-57l521 724l-523 731h56l495 -687h4l491 687h58z" />
<glyph unicode="Y" horiz-adv-x="1138" d="M1044 1455h57l-510 -793v-662h-47v662l-507 793h57l471 -739h4z" />
<glyph unicode="Z" horiz-adv-x="1205" d="M178 47h897v-47h-960v44l889 1360v4h-834v47h894v-48l-886 -1357v-3z" />
<glyph unicode="[" horiz-adv-x="530" d="M168 -287v1769h288v-42h-246v-1686h246v-41h-288z" />
<glyph unicode="\" horiz-adv-x="764" d="M773 -235l-797 1741l38 22l797 -1744z" />
<glyph unicode="]" horiz-adv-x="530" d="M382 -287h-288v41h246v1686h-246v42h288v-1769z" />
<glyph unicode="^" horiz-adv-x="928" d="M139 1023l300 432h50l300 -432h-57l-269 386l-267 -386h-57z" />
<glyph unicode="_" horiz-adv-x="1043" d="M-15 -102v45h1073v-45h-1073z" />
<glyph unicode="`" horiz-adv-x="1040" d="M584 1122l-255 276h63l252 -276h-60z" />
<glyph unicode="a" horiz-adv-x="1211" d="M1014 992h45v-992h-45v272h-2q-55 -127 -167.5 -203t-260.5 -76q-101 0 -191 36t-156.5 99.5t-105 156t-38.5 201.5q0 105 36 198.5t99.5 163.5t156.5 110.5t201 40.5q93 0 176 -34.5t147.5 -99t101.5 -152.5h3v279zM584 39q88 0 167 32.5t137 90t92 142t34 182.5 q0 128 -53 234.5t-151.5 169.5t-223.5 63q-92 0 -174 -34t-142.5 -94.5t-95.5 -148.5t-35 -190q0 -123 54.5 -224.5t157 -162t233.5 -60.5z" />
<glyph unicode="b" horiz-adv-x="1229" d="M638 999q108 0 201 -40.5t156.5 -110.5t99.5 -163.5t36 -198.5q0 -109 -38.5 -201.5t-105 -156t-156.5 -99.5t-191 -36q-148 0 -260 75.5t-167 202.5h-3v-271h-45v1508h45v-795h3q55 133 169.5 209.5t255.5 76.5zM640 39q131 0 233.5 60.5t157 162t54.5 224.5 q0 102 -35 190t-95.5 148.5t-142.5 94.5t-174 34q-125 0 -224 -63t-151.5 -169.5t-52.5 -234.5q0 -98 34 -182.5t92 -142t137 -90t167 -32.5z" />
<glyph unicode="c" horiz-adv-x="1022" d="M569 -7q-139 0 -246.5 63.5t-166.5 178t-59 260.5t59 260.5t167.5 179t247.5 64.5q105 0 202.5 -40.5t167.5 -117.5l-36 -34q-56 66 -144 106t-190 40q-126 0 -224 -59t-151.5 -163t-53.5 -236q0 -133 53.5 -237t151 -161.5t222.5 -57.5q100 0 192 38t152 105l31 -34 q-64 -69 -164.5 -112t-210.5 -43z" />
<glyph unicode="d" horiz-adv-x="1229" d="M1019 1508h45v-1508h-45v272h-3q-55 -127 -167.5 -203t-259.5 -76q-101 0 -191.5 36t-157 99.5t-105 156t-38.5 201.5q0 105 36 198.5t99 163.5t156 110.5t201 40.5q93 0 176.5 -34.5t148 -99t101.5 -152.5h4v795zM589 39q88 0 166.5 32.5t137 90t92.5 142t34 182.5 q0 128 -53 234.5t-152.5 169.5t-224.5 63q-92 0 -173.5 -34t-142 -94.5t-96 -148.5t-35.5 -190q0 -92 32.5 -174t90 -142.5t141.5 -95.5t183 -35z" />
<glyph unicode="e" horiz-adv-x="1090" d="M999 497h-856v-2q0 -130 54 -234t151 -163t220 -59q226 0 355 165l35 -26q-65 -89 -163 -137t-223 -48q-137 0 -246 65t-169 179.5t-60 257.5q0 107 36.5 201t99 160t150 104.5t185.5 38.5q95 0 176 -36t137 -98.5t88 -150t32 -188.5q0 -23 -2 -29zM568 953 q-169 0 -288 -116t-135 -295h810q-12 187 -116.5 299t-270.5 112z" />
<glyph unicode="f" horiz-adv-x="636" d="M215 0v947h-140v45h140v240q0 73 17.5 127.5t49.5 88.5t75.5 50.5t97.5 16.5q101 0 194 -52l-9 -45q-87 51 -188 51q-87 0 -139.5 -56.5t-52.5 -180.5v-240h354v-45h-354v-947h-45z" />
<glyph unicode="g" horiz-adv-x="1201" d="M1006 992h45v-971q0 -130 -49.5 -226t-153 -151.5t-251.5 -55.5q-111 0 -208.5 27.5t-195.5 87.5l13 48q96 -62 190.5 -89.5t203.5 -27.5q102 0 180.5 29.5t127.5 82.5t73.5 124.5t24.5 159.5v269h-3q-54 -127 -165 -201t-263 -74q-99 0 -186 35.5t-152 99t-102.5 157 t-37.5 203.5q0 98 35 186t96.5 153t152 103t196.5 38q96 0 179.5 -32t147 -92t99.5 -142h3v259zM575 70q130 0 229 59.5t150.5 161t51.5 228.5t-56.5 226.5t-154 153.5t-218.5 54q-77 0 -145.5 -22t-120.5 -62t-90 -94t-58 -119.5t-20 -136.5q0 -100 34 -185t92 -142.5 t137 -89.5t169 -32z" />
<glyph unicode="h" horiz-adv-x="1123" d="M637 999q159 0 250 -105.5t91 -296.5v-597h-45v575q0 101 -23 175.5t-64.5 118t-93.5 64t-115 20.5q-194 0 -310.5 -127t-116.5 -336v-490h-45v1508h45v-781h2q54 128 164.5 200t260.5 72z" />
<glyph unicode="i" horiz-adv-x="400" d="M200.5 1242q-24.5 0 -40 15.5t-15.5 39.5q0 25 15.5 40.5t40.5 15.5t40.5 -15.5t15.5 -40.5q0 -24 -16 -39.5t-40.5 -15.5zM177 0v992h45v-992h-45z" />
<glyph unicode="j" horiz-adv-x="360" d="M191.5 1242q-24.5 0 -40 15.5t-15.5 39.5q0 25 15.5 40.5t40.5 15.5t40.5 -15.5t15.5 -40.5q0 -24 -16 -39.5t-40.5 -15.5zM9 -412q-70 0 -129 30l5 49q52 -33 127 -33q158 0 158 191v1167h45v-1167q0 -49 -9.5 -88.5t-32 -74.5t-64 -54.5t-100.5 -19.5z" />
<glyph unicode="k" horiz-adv-x="989" d="M925 992l-394 -430l391 -562h-57l-366 525h-2l-287 -313v-212h-45v1508h45v-1224h3l648 708h64z" />
<glyph unicode="l" horiz-adv-x="397" d="M176 0v1508h45v-1508h-45z" />
<glyph unicode="m" horiz-adv-x="1766" d="M1298 999q84 0 147.5 -31t104 -88.5t60.5 -136t20 -176.5v-567h-45v545q0 204 -74.5 306t-212.5 102q-76 0 -144 -34t-118 -93.5t-79 -146.5t-29 -189v-490h-45v545q0 202 -78 305t-215 103q-79 0 -149 -33.5t-121 -93.5t-80.5 -147t-29.5 -189v-490h-45v992h45v-263h2 q52 126 152 198t226 72q134 0 217.5 -79.5t109.5 -221.5h2q47 139 149 220t230 81z" />
<glyph unicode="n" horiz-adv-x="1113" d="M627 999q159 0 250 -105.5t91 -296.5v-597h-45v575q0 101 -23 175.5t-64.5 118t-93.5 64t-115 20.5q-187 0 -302 -127.5t-115 -335.5v-490h-45v992h45v-265h2q54 128 162 200t253 72z" />
<glyph unicode="o" horiz-adv-x="1185" d="M594 -7q-109 0 -203 40t-158 108.5t-100.5 160t-36.5 193.5t36.5 194t100.5 160.5t158 109t203 40.5q81 0 156 -23.5t136.5 -68t107 -105.5t70.5 -140t25 -167q0 -109 -39 -203.5t-106 -159.5t-157.5 -102t-192.5 -37zM594 39q124 0 226 57t162.5 162t60.5 237 q0 133 -60.5 238.5t-162.5 162.5t-226 57q-100 0 -185 -36.5t-143 -98.5t-91 -146t-33 -177t33 -176.5t91 -145t143 -98t185 -36.5z" />
<glyph unicode="p" horiz-adv-x="1228" d="M638 999q108 0 201 -40.5t156.5 -110.5t99.5 -163.5t36 -198.5q0 -109 -38.5 -201.5t-105 -156t-156.5 -99.5t-191 -36q-148 0 -260 75.5t-167 202.5h-3v-676h-45v1397h45v-280h2q28 66 71.5 119.5t98.5 90.5t120.5 57t135.5 20zM640 39q131 0 233.5 60.5t157 162 t54.5 224.5q0 102 -35 190t-95.5 148.5t-142.5 94.5t-174 34q-125 0 -224 -63t-151.5 -169.5t-52.5 -234.5q0 -98 34 -182.5t92 -142t137 -90t167 -32.5z" />
<glyph unicode="q" horiz-adv-x="1231" d="M1022 992h45v-1397h-45v676h-3q-56 -127 -168 -202.5t-260 -75.5q-101 0 -190.5 36t-156 99.5t-105.5 156t-39 201.5q0 105 36 198.5t99 163.5t156.5 110.5t201.5 40.5q93 0 176.5 -34.5t148 -99t101.5 -152.5h3v279zM591 39q88 0 167 32.5t137.5 90t92.5 142t34 182.5 q0 128 -53 234.5t-152 169.5t-224 63q-92 0 -173.5 -34t-142 -94.5t-96 -148.5t-35.5 -190q0 -92 32 -174t89.5 -142.5t141.5 -95.5t182 -35z" />
<glyph unicode="r" horiz-adv-x="650" d="M567 999q45 0 66 -2v-48q-42 4 -60 4q-163 0 -263 -126.5t-100 -331.5v-495h-45v992h45v-245h3q45 119 136 185.5t218 66.5z" />
<glyph unicode="s" horiz-adv-x="849" d="M433 -7q-210 0 -364 139l27 35q33 -28 62 -48t70 -40t92.5 -30t112.5 -10q130 0 208 61.5t78 148.5q0 23 -4.5 43t-11 36t-19.5 31t-25 25.5t-32 22t-35.5 19t-42 18t-44.5 16.5t-49 17t-51 18q-40 15 -66.5 25t-60 26t-54.5 30t-43.5 34t-35 41.5t-20.5 49.5t-8 60 q0 101 82.5 169.5t202.5 68.5q184 0 323 -118l-30 -33q-70 59 -140 82t-151 23q-102 0 -171.5 -55.5t-69.5 -132.5q0 -24 5 -45.5t16.5 -39.5t22.5 -32t32 -27.5t36.5 -23t43 -21t45 -18t48.5 -17.5l51 -18q50 -17 74.5 -26t63.5 -26t58 -30t44 -34t36 -43t19 -52.5t7 -66.5 q-1 -50 -23 -95.5t-63 -80.5t-104.5 -55.5t-141.5 -20.5z" />
<glyph unicode="t" horiz-adv-x="726" d="M417 -7q-55 0 -94.5 13t-63.5 35t-38.5 57.5t-19.5 73.5t-5 90v685h-137v45h137v358l45 6v-364h399v-45h-399v-654q0 -42 2.5 -73t9 -61.5t18.5 -51t30.5 -37t46 -24t64.5 -7.5q108 0 208 65l12 -44q-99 -67 -215 -67z" />
<glyph unicode="u" horiz-adv-x="1089" d="M892 992h45v-992h-45v262h-2q-51 -126 -150.5 -197.5t-223.5 -71.5q-180 0 -277.5 117t-97.5 315v567h45v-544q0 -203 88 -306t242 -103q79 0 148 33.5t119.5 93.5t79.5 147t29 189v490z" />
<glyph unicode="v" horiz-adv-x="1011" d="M899 992h52l-421 -992h-45l-425 992h52l395 -922h2z" />
<glyph unicode="w" horiz-adv-x="1540" d="M1421 992h50l-353 -992h-48l-299 923h-2l-300 -923h-47l-353 992h49l327 -912h2l295 912h53l298 -912h2z" />
<glyph unicode="x" horiz-adv-x="955" d="M893 992l-384 -495l384 -497h-61l-353 456l-352 -456h-60l383 495l-387 497h62l353 -458l353 458h62z" />
<glyph unicode="y" horiz-adv-x="1037" d="M922 992h55l-594 -1397h-52l175 415l-450 982h54l419 -922h3z" />
<glyph unicode="z" horiz-adv-x="894" d="M123 45h713v-45h-776v46l700 898v3h-676v45h739v-42l-700 -902v-3z" />
<glyph unicode="{" horiz-adv-x="589" d="M269 770q0 -87 -25 -129.5t-101 -55.5v-2q76 -14 101 -56t25 -129v-464q0 -66 17.5 -106t50 -57t82.5 -17h59v-41h-57q-84 0 -139 48.5t-55 134.5v515q0 19 -0.5 30t-3.5 27.5t-9 27t-17 23t-27 20t-40.5 14t-55.5 9.5v44q31 3 55.5 10t40.5 14.5t27 20t17 22.5t9 26.5 t3.5 28t0.5 30.5v539q0 79 52 132t142 53h57v-42h-59q-65 0 -107.5 -39t-42.5 -107v-524z" />
<glyph unicode="|" horiz-adv-x="493" d="M224 -235v1744h45v-1744h-45z" />
<glyph unicode="}" horiz-adv-x="589" d="M382 758q0 -19 0.5 -30.5t3.5 -28t9 -26.5t17 -22.5t27 -20t40.5 -14.5t55.5 -10v-44q-31 -3 -55.5 -9.5t-40.5 -14t-27 -20t-17 -23t-9 -27t-3.5 -27.5t-0.5 -30v-515q0 -86 -55 -134.5t-139 -48.5h-57v41h59q76 0 113 41.5t37 138.5v464q0 87 25 129t101 56v2 q-76 13 -101 55.5t-25 129.5v524q0 68 -42.5 107t-107.5 39h-59v42h57q90 0 142 -53t52 -132v-539z" />
<glyph unicode="~" horiz-adv-x="1105" d="M762 473q-20 0 -42.5 4t-38.5 9t-41 16t-36.5 17t-40 21t-36.5 19q-103 54 -176 54q-121 0 -178 -125l-34 13q67 158 212 158q36 0 76 -11t63.5 -21t67.5 -32q12 -6 39 -20t43 -21.5t39.5 -17t44.5 -14t42 -4.5q52 0 96.5 31.5t68.5 94.5l34 -15q-30 -78 -85.5 -117 t-117.5 -39z" />
<glyph unicode="&#xa1;" horiz-adv-x="389" d="M195 1011q17 0 30.5 -7.5t21 -21t7.5 -29.5q0 -13 -4.5 -24t-12 -19t-18.5 -12t-24 -4q-26 0 -42.5 16t-16.5 43q0 25 16.5 41.5t42.5 16.5zM174 622h37l9 -1139h-54z" />
<glyph unicode="&#xa2;" horiz-adv-x="1081" d="M1016 260q-63 -64 -160 -106t-204 -48v-236h-43v235q-144 2 -255.5 67t-172 178t-60.5 257t61 257.5t172 178.5t255 68v256h43v-257q68 -3 132 -21t123 -52.5t105 -83.5l-35 -33q-23 25 -52 47t-63.5 40t-72 31t-80.5 20t-87 7q-99 0 -184 -34t-144 -94t-92.5 -145.5 t-33.5 -184.5q0 -133 56.5 -237t159.5 -161.5t236 -57.5q106 0 204 38t160 105z" />
<glyph unicode="&#xa3;" horiz-adv-x="1122" d="M93 0v47h191v721h-147v47h147v156q0 90 20.5 164.5t55.5 125t83 85t102.5 50t115.5 15.5q230 0 350 -202l-37 -31q-105 185 -313 185q-74 0 -134.5 -26t-104 -75.5t-67.5 -125t-24 -171.5v-150h368v-47h-368v-721h745v-47h-983z" />
<glyph unicode="&#xa4;" horiz-adv-x="997" d="M869 787q0 -143 -96 -249l159 -158l-32 -31l-158 158q-106 -93 -249 -93q-142 0 -248 95l-158 -158l-32 32l158 157q-94 107 -94 247q0 143 94 248l-158 159l32 31l157 -158q107 96 249 96q143 0 250 -94l157 158l32 -31l-157 -159q94 -107 94 -250zM494 462 q88 0 163.5 44t119 119t43.5 163t-43.5 163t-119 119t-164.5 44q-88 0 -163 -44t-119 -119t-44 -163q1 -88 45 -163t119 -119t163 -44z" />
<glyph unicode="&#xa5;" horiz-adv-x="1056" d="M1024 1404l-347 -586h262v-47h-290l-93 -157v-37h383v-46h-383v-531h-47v531h-390v46h390v37l-93 157h-297v47h269l-347 587h56l433 -736h4l436 736z" />
<glyph unicode="&#xa6;" horiz-adv-x="494" d="M224 791v718h46v-718h-46zM224 -234v726h46v-726h-46z" />
<glyph unicode="&#xa7;" horiz-adv-x="1032" d="M723 236q81 -43 125 -100t44 -144q0 -131 -99.5 -217t-269.5 -86q-115 0 -221 44t-182 133l34 36q63 -81 161.5 -123t203.5 -42q89 0 161.5 27.5t118.5 86t46 138.5q0 47 -18.5 85.5t-42 63t-74 51t-84 39.5t-101.5 38q-11 4 -17 6q-7 3 -21 8q-56 20 -84 30.5t-75.5 31 t-72.5 36t-57 41t-48 51t-27.5 60t-11.5 73.5q0 94 58 165t160 99q-49 28 -83 60t-56 79.5t-22 105.5q0 123 92.5 204.5t240.5 81.5q60 0 124.5 -15.5t123.5 -43t106 -64.5l-33 -36q-33 27 -74 48.5t-82.5 35.5t-82.5 21t-78 7q-55 0 -106 -15t-92.5 -43.5t-66.5 -74.5 t-25 -103q0 -48 19.5 -88.5t44.5 -66t75 -52.5t83 -40t98 -37q3 -1 5 -2q13 -5 40 -14l78 -28.5t69 -28t65.5 -33.5t51.5 -39t42.5 -49t24 -59.5t10.5 -74.5q0 -93 -51.5 -162.5t-146.5 -104.5zM159 605q0 -39 11 -71t38.5 -58.5t52 -45t74.5 -40.5t81.5 -34t95.5 -35l9 -3 q107 -38 144 -55q95 25 152 86t57 151q0 47 -17 84.5t-38 61t-67.5 48t-78 36.5t-95.5 35q-33 12 -50 18q-109 41 -135 53q-103 -16 -168.5 -76.5t-65.5 -154.5z" />
<glyph unicode="&#xa8;" horiz-adv-x="1017" d="M357.5 1215q-24.5 0 -40 15.5t-15.5 39.5q0 17 7 29.5t20 19.5t29 7q25 0 40.5 -15.5t15.5 -40.5q0 -24 -16 -39.5t-40.5 -15.5zM658.5 1215q-24.5 0 -40 15.5t-15.5 39.5q0 17 7 29.5t20 19.5t29 7q25 0 40.5 -15.5t15.5 -40.5q0 -24 -16 -39.5t-40.5 -15.5z" />
<glyph unicode="&#xa9;" horiz-adv-x="1354" d="M677 62q-120 0 -228.5 47.5t-186.5 127t-123.5 188t-45.5 226.5t46 226.5t124 188.5t187 127.5t230 47.5q96 0 185.5 -30.5t161 -85.5t124.5 -127.5t82 -162t29 -184.5q0 -118 -45.5 -226t-123.5 -188t-187 -127.5t-229 -47.5zM677 107q111 0 211.5 44t172 117.5 t114 173.5t42.5 209t-42 209.5t-113.5 174t-171 117.5t-210.5 44q-112 0 -212.5 -44t-172.5 -117.5t-114.5 -174t-42.5 -209.5t42 -209.5t113.5 -174t172 -117t211.5 -43.5zM695 315q-54 0 -103 13.5t-90 41.5t-71 67t-46.5 92.5t-16.5 116.5q0 71 21.5 132t62 107t103 72.5 t140.5 26.5q153 0 255 -126l-36 -29q-87 109 -219 109q-135 0 -208 -81t-73 -211q0 -91 37.5 -156.5t100.5 -97t143 -31.5q135 0 219 107l36 -29q-99 -124 -255 -124z" />
<glyph unicode="&#xaa;" horiz-adv-x="838" d="M672 1407h46v-595h-46v137h-2q-38 -66 -104.5 -104.5t-149.5 -38.5q-129 0 -215 83t-86 214t84 219.5t217 88.5q79 0 147 -39.5t107 -108.5h2v144zM421 852q107 0 179.5 70t72.5 181t-70.5 186.5t-179.5 75.5q-73 0 -132.5 -32t-94.5 -92.5t-35 -137.5 q0 -106 72.5 -178.5t187.5 -72.5z" />
<glyph unicode="&#xab;" horiz-adv-x="807" d="M408 26h-45l-268 473l267 469h46l-263 -469zM716 26h-45l-268 473l267 469h46l-263 -469z" />
<glyph unicode="&#xac;" horiz-adv-x="1169" d="M985 382v314h-846v45h891v-359h-45z" />
<glyph unicode="&#xad;" horiz-adv-x="826" d="M118 606v48h590v-48h-590z" />
<glyph unicode="&#xae;" horiz-adv-x="1354" d="M680 1241q120 0 228.5 -47.5t185.5 -127t122.5 -188t45.5 -227.5q0 -118 -45.5 -226t-123.5 -188t-187 -127.5t-229 -47.5q-96 0 -186 30t-161.5 85t-125 128t-82.5 162t-29 184q0 118 46 226.5t124 188.5t187 127.5t230 47.5zM677 107q111 0 211.5 44t172 117.5 t114 173.5t42.5 209q0 87 -26.5 170t-76 150t-115 118t-148 79t-171.5 28q-112 0 -212.5 -44t-172.5 -117.5t-114.5 -174t-42.5 -209.5t42 -209.5t113.5 -174t172 -117t211.5 -43.5zM908 800q0 -87 -47 -134t-132 -56l207 -286h-56l-204 284h-144v-284h-45v663h216 q103 0 154 -51.5t51 -135.5zM532 942v-290h159q49 0 84 12.5t53.5 34t26.5 46.5t8 55q0 67 -41.5 104.5t-113.5 37.5h-176z" />
<glyph unicode="&#xaf;" horiz-adv-x="986" d="M220 1242v46h545v-46h-545z" />
<glyph unicode="&#xb0;" horiz-adv-x="789" d="M394 926q-73 0 -136 36t-100 97.5t-37 133.5q0 109 82 189t191 80t191.5 -80.5t82.5 -191.5q0 -108 -81.5 -186t-192.5 -78zM394 970q94 0 162 65.5t68 154.5q0 61 -32.5 113.5t-85.5 83.5t-112 31t-112 -30.5t-85 -83t-32 -111.5q0 -92 67.5 -157.5t161.5 -65.5z" />
<glyph unicode="&#xb1;" horiz-adv-x="1165" d="M560 286v449h-449v45h449v450h45v-450h448v-45h-448v-449h-45zM111 0v45h942v-45h-942z" />
<glyph unicode="&#xb2;" horiz-adv-x="664" d="M130 937h466v-44h-550l1 37l338 305q76 68 114.5 125.5t38.5 126.5q0 88 -62 149t-157 61q-69 0 -134 -36.5t-96 -102.5l-37 25q35 72 108.5 115.5t159.5 43.5q69 0 128.5 -30.5t97 -89t37.5 -132.5q0 -76 -38.5 -141t-123.5 -142l-291 -263v-7z" />
<glyph unicode="&#xb3;" horiz-adv-x="670" d="M449 1329q81 -24 123.5 -81t42.5 -135q0 -101 -77 -164.5t-203 -63.5q-108 0 -184 41.5t-112 111.5l41 19q31 -60 95 -93.5t159 -33.5q72 0 125 21.5t82 65.5t29 106q0 78 -66.5 131.5t-179.5 53.5h-85v45h99q65 0 114 22.5t73.5 60t24.5 83.5q0 84 -60 130.5t-164 46.5 q-147 0 -220 -99l-38 25q85 119 258 119q117 0 192.5 -58t75.5 -160q0 -67 -36 -117.5t-109 -73.5v-3z" />
<glyph unicode="&#xb4;" horiz-adv-x="1040" d="M396 1122l251 276h64l-255 -276h-60z" />
<glyph unicode="&#xb5;" horiz-adv-x="1125" d="M915 992h45v-992h-40l-6 255h-4q-52 -123 -150 -192.5t-221 -69.5q-119 0 -202.5 53.5t-126.5 150.5l-3 -1q3 -115 3 -232v-369h-45v1397h45v-544q0 -203 87.5 -306t241.5 -103q79 0 148 33.5t119.5 93.5t79.5 147t29 189v490z" />
<glyph unicode="&#xb6;" horiz-adv-x="729" d="M497 -303v1545h-122v-1242h-46v853q-105 0 -170.5 57t-65.5 160q0 104 62.5 161t169.5 57h218v-1591h-46z" />
<glyph unicode="&#xb7;" horiz-adv-x="313" d="M164 422q-17 0 -30.5 7.5t-21 21t-7.5 29.5q0 27 16.5 43t42.5 16t42.5 -16t16.5 -43q0 -16 -7.5 -29.5t-21 -21t-30.5 -7.5z" />
<glyph unicode="&#xb8;" horiz-adv-x="814" d="M381 -72q64 -5 113.5 -47.5t49.5 -110.5q0 -61 -46 -104t-128 -43q-48 0 -100 13v46q54 -14 92 -14q58 0 97 27t39 77q0 48 -43.5 82.5t-124.5 34.5l2 40l38 83h46l-37 -82z" />
<glyph unicode="&#xb9;" horiz-adv-x="445" d="M264 893v781l-209 -142l-22 37l238 166h37v-842h-44z" />
<glyph unicode="&#xba;" horiz-adv-x="842" d="M421 805q-135 0 -220.5 87.5t-85.5 215.5t85.5 215.5t220.5 87.5q130 0 218 -84.5t88 -218.5q0 -88 -41 -158t-110.5 -107.5t-154.5 -37.5zM421 851q54 0 102 19t82.5 52t55 81.5t20.5 104.5q0 113 -75 185t-185 72q-77 0 -136.5 -35t-91.5 -93t-32 -129 q0 -108 72.5 -182.5t187.5 -74.5z" />
<glyph unicode="&#xbb;" horiz-adv-x="807" d="M111 26l263 473l-263 469h46l267 -469l-268 -473h-45zM419 26l263 473l-263 469h46l267 -469l-268 -473h-45z" />
<glyph unicode="&#xbc;" horiz-adv-x="1413" d="M354 -15l-42 15l624 1468l41 -15zM264 613v781l-209 -142l-22 37l238 166h37v-842h-44zM1180 0v157h-447v41l454 644h37v-641h141v-44h-141v-157h-44zM790 201h390v556z" />
<glyph unicode="&#xbd;" horiz-adv-x="1469" d="M936 1468l41 -15l-623 -1468l-42 15zM33 1289l238 166h37v-842h-44v781l-209 -142zM935 44h466v-44h-550l1 37l338 305q37 33 62 59.5t47 58t33 65t11 69.5q0 88 -62 149t-157 61q-69 0 -134 -36.5t-96 -102.5l-37 25q35 72 108.5 115.5t159.5 43.5q106 0 184.5 -70.5 t78.5 -181.5q0 -76 -38.5 -141t-123.5 -142l-291 -263v-7z" />
<glyph unicode="&#xbe;" horiz-adv-x="1610" d="M1133 1468l41 -15l-623 -1468l-42 15zM615 833q0 -101 -77 -164.5t-203 -63.5q-107 0 -183.5 41.5t-112.5 111.5l41 19q31 -60 95 -93.5t159 -33.5q110 0 173 50t63 143q0 78 -66.5 131.5t-179.5 53.5h-85v45h99q98 0 155 47.5t57 118.5q0 84 -60 130.5t-164 46.5 q-147 0 -220 -99l-38 25q85 119 258 119q117 0 192.5 -58t75.5 -160q0 -67 -36 -117.5t-109 -73.5v-3q81 -24 123.5 -81t42.5 -135zM1421 201h141v-44h-141v-157h-44v157h-447v41l454 644h37v-641zM1377 201v556l-390 -556h390z" />
<glyph unicode="&#xbf;" horiz-adv-x="784" d="M481 1011q26 0 42.5 -16.5t16.5 -41.5q0 -27 -16.5 -43t-42.5 -16t-42.5 16t-16.5 43q0 25 16.5 41.5t42.5 16.5zM509 631v-123q0 -22 -5.5 -45t-11.5 -41t-21 -42t-24.5 -38t-32 -40t-32.5 -37t-37 -40.5t-36 -38.5q-39 -42 -66 -76t-54 -78.5t-41 -94.5t-14 -103 q0 -72 26 -131t70.5 -97.5t101.5 -59.5t120 -21q99 0 187 46t143 133l33 -37q-62 -93 -158 -142t-205 -49q-83 0 -153 29t-116 78t-72 114t-26 137q0 60 15.5 115t46 104t59 84.5t71.5 81.5q8 9 28.5 30.5t29 30.5t25.5 28.5t25 29.5l22 27.5t20.5 29t15 27.5t12.5 29t7 28 t3 29v123h44z" />
<glyph unicode="&#xc0;" horiz-adv-x="1311" d="M678 1640h-60l-255 276h63zM1200 0l-169 432h-753l-167 -432h-52l564 1455h59l570 -1455h-52zM296 478h717l-359 919h-2z" />
<glyph unicode="&#xc1;" horiz-adv-x="1311" d="M962 1916l-255 -276h-60l251 276h64zM1200 0l-169 432h-753l-167 -432h-52l564 1455h59l570 -1455h-52zM296 478h717l-359 919h-2z" />
<glyph unicode="&#xc2;" horiz-adv-x="1311" d="M653 1881l-217 -243h-59l251 278h51l255 -278h-60l-217 243h-4zM1200 0l-169 432h-753l-167 -432h-52l564 1455h59l570 -1455h-52zM296 478h717l-359 919h-2z" />
<glyph unicode="&#xc3;" horiz-adv-x="1311" d="M505 1822q-89 0 -131 -125l-43 13q51 158 171 158q28 0 59 -10.5t48.5 -21t50.5 -31.5q6 -4 28 -20.5t32 -22.5t28 -16.5t33 -14.5t30 -4q39 0 72 32t51 95l43 -16q-24 -78 -68.5 -117t-95.5 -39q-16 0 -33.5 4.5t-29 8.5t-32.5 16.5t-27 16t-30.5 21t-26.5 18.5 q-78 55 -129 55zM1200 0l-169 432h-753l-167 -432h-52l564 1455h59l570 -1455h-52zM296 478h717l-359 919h-2z" />
<glyph unicode="&#xc4;" horiz-adv-x="1311" d="M502.5 1733q-24.5 0 -40 15.5t-15.5 39.5q0 17 7 29.5t20 19.5t29 7q25 0 40.5 -15.5t15.5 -40.5q0 -24 -16 -39.5t-40.5 -15.5zM804 1733q-25 0 -40.5 15.5t-15.5 39.5q0 17 7 29.5t20 19.5t29 7q25 0 40.5 -15.5t15.5 -40.5q0 -24 -15.5 -39.5t-40.5 -15.5zM1200 0 l-169 432h-753l-167 -432h-52l564 1455h59l570 -1455h-52zM296 478h717l-359 919h-2z" />
<glyph unicode="&#xc5;" horiz-adv-x="1311" d="M655 1629q-39 0 -74 20t-56 54.5t-21 74.5q0 61 45.5 105.5t105.5 44.5q40 0 75 -20t55.5 -55t20.5 -75q0 -61 -45 -105t-106 -44zM655 1882q-43 0 -74 -31t-31 -73t31 -72.5t74 -30.5t74 30.5t31 72.5q0 21 -8.5 40t-22.5 33t-33.5 22.5t-40.5 8.5zM1200 0l-169 432 h-753l-167 -432h-52l564 1455h59l570 -1455h-52zM296 478h717l-359 919h-2z" />
<glyph unicode="&#xc6;" horiz-adv-x="1858" d="M933 47h838v-47h-885v432h-568l-251 -432h-57l847 1455h873v-47h-797v-659h676v-46h-676v-656zM345 478h541v926h-3z" />
<glyph unicode="&#xc7;" horiz-adv-x="1462" d="M836 41q168 0 293 66.5t222 188.5l39 -30q-104 -130 -238.5 -201.5t-315.5 -71.5h-13l-28 -63l2 -2q64 -5 113.5 -47.5t49.5 -110.5q0 -40 -19 -72.5t-59.5 -53.5t-95.5 -21q-48 0 -100 13v46q54 -14 92 -14q58 0 97 27t39 77q0 48 -43.5 82.5t-124.5 34.5l2 40l30 66 q-109 7 -207 41t-179.5 96t-140.5 146.5t-92 197.5t-33 244q0 103 21 198t60.5 177.5t100.5 150t138.5 115.5t177 74.5t212.5 26.5q103 0 198 -27.5t187.5 -90.5t168.5 -157l-39 -31q-53 67 -114.5 117t-127.5 80.5t-134 45.5t-139 15q-106 0 -198.5 -24.5t-164.5 -69 t-129 -107.5t-94 -140t-56.5 -166t-19.5 -187q0 -130 33.5 -240t94 -190t143.5 -136.5t182 -84.5t209 -28z" />
<glyph unicode="&#xc8;" horiz-adv-x="1157" d="M662 1640l-255 276h63l252 -276h-60zM183 0v1455h844v-47h-797v-656h670v-47h-670v-658h840v-47h-887z" />
<glyph unicode="&#xc9;" horiz-adv-x="1157" d="M444 1640l251 276h64l-255 -276h-60zM183 0v1455h844v-47h-797v-656h670v-47h-670v-658h840v-47h-887z" />
<glyph unicode="&#xca;" horiz-adv-x="1157" d="M584 1881l-217 -243h-59l251 278h51l255 -278h-60l-217 243h-4zM230 47h840v-47h-887v1455h844v-47h-797v-656h670v-47h-670v-658z" />
<glyph unicode="&#xcb;" horiz-adv-x="1157" d="M433.5 1733q-24.5 0 -40 15.5t-15.5 39.5q0 25 15.5 40.5t40.5 15.5t40.5 -15.5t15.5 -40.5q0 -24 -16 -39.5t-40.5 -15.5zM735 1733q-25 0 -40.5 15.5t-15.5 39.5q0 25 15.5 40.5t40.5 15.5t40.5 -15.5t15.5 -40.5q0 -24 -15.5 -39.5t-40.5 -15.5zM183 0v1455h844v-47 h-797v-656h670v-47h-670v-658h840v-47h-887z" />
<glyph unicode="&#xcc;" horiz-adv-x="441" d="M184 1640l-255 276h63l252 -276h-60zM197 0v1455h47v-1455h-47z" />
<glyph unicode="&#xcd;" horiz-adv-x="489" d="M212 1640l251 276h64l-255 -276h-60zM197 0v1455h47v-1455h-47z" />
<glyph unicode="&#xce;" horiz-adv-x="441" d="M246 1916l255 -278h-60l-217 243h-4l-217 -243h-59l251 278h51zM197 0v1455h47v-1455h-47z" />
<glyph unicode="&#xcf;" horiz-adv-x="441" d="M70 1733q-16 0 -29 7.5t-20 20t-7 27.5q0 25 15.5 40.5t40.5 15.5q16 0 29 -7t20 -19.5t7 -29.5q0 -24 -16 -39.5t-40 -15.5zM370.5 1733q-24.5 0 -40 15.5t-15.5 39.5q0 25 15.5 40.5t40.5 15.5t40.5 -15.5t15.5 -40.5q0 -24 -16 -39.5t-40.5 -15.5zM197 0v1455h47 v-1455h-47z" />
<glyph unicode="&#xd0;" horiz-adv-x="1446" d="M565 1455q170 0 311.5 -53.5t239 -149.5t151 -231.5t53.5 -295.5t-53 -294.5t-149.5 -229.5t-237 -148t-309.5 -53h-388v749h-120v48h120v658h382zM568 47q158 0 290 50t223 139t141 214.5t50 274.5q0 151 -50 278t-141.5 216t-224 139t-291.5 50h-335v-611h423v-48h-423 v-702h338z" />
<glyph unicode="&#xd1;" horiz-adv-x="1491" d="M595 1822q-89 0 -131 -125l-43 13q51 158 171 158q28 0 59 -10.5t48.5 -21t50.5 -31.5q6 -4 28 -20.5t32 -22.5t28 -16.5t33 -14.5t30 -4q39 0 72 32t51 95l43 -16q-16 -52 -43 -88t-57.5 -52t-63.5 -16q-16 0 -33.5 4.5t-29 8.5t-32.5 16t-27 16t-30.5 21.5t-26.5 18.5 q-78 55 -129 55zM1259 1455h47v-1455h-46l-1028 1371h-2v-1371h-47v1455h44l1030 -1373h2v1373z" />
<glyph unicode="&#xd2;" horiz-adv-x="1683" d="M846 1640l-255 276h63l252 -276h-60zM844 -7q-158 0 -293 58t-227.5 157.5t-145 234t-52.5 286.5q0 150 52.5 284.5t145 233.5t227.5 157t293 58q146 0 276.5 -53t227 -147.5t153 -232.5t56.5 -300t-56.5 -301t-153 -233.5t-227 -148t-276.5 -53.5zM844 41 q136 0 257.5 50t212 138.5t143 218.5t52.5 281t-52.5 280t-143 217.5t-212 138t-257.5 49.5q-147 0 -273 -54t-212.5 -146.5t-135.5 -218t-49 -266.5q0 -113 31 -217.5t90 -189.5t140 -148.5t186 -98t223 -34.5z" />
<glyph unicode="&#xd3;" horiz-adv-x="1683" d="M830 1640l251 276h64l-255 -276h-60zM844 -7q-158 0 -293 58t-227.5 157.5t-145 234t-52.5 286.5q0 150 52.5 284.5t145 233.5t227.5 157t293 58q146 0 276.5 -53t227 -147.5t153 -232.5t56.5 -300t-56.5 -301t-153 -233.5t-227 -148t-276.5 -53.5zM844 41 q136 0 257.5 50t212 138.5t143 218.5t52.5 281t-52.5 280t-143 217.5t-212 138t-257.5 49.5q-147 0 -273 -54t-212.5 -146.5t-135.5 -218t-49 -266.5q0 -113 31 -217.5t90 -189.5t140 -148.5t186 -98t223 -34.5z" />
<glyph unicode="&#xd4;" horiz-adv-x="1683" d="M842 1881l-217 -243h-59l251 278h51l255 -278h-60l-217 243h-4zM844 1462q146 0 276.5 -53t227 -147.5t153 -232.5t56.5 -300t-56.5 -301t-153 -233.5t-227 -148t-276.5 -53.5q-158 0 -293 58t-227.5 157.5t-145 234t-52.5 286.5q0 150 52.5 284.5t145 233.5t227.5 157 t293 58zM844 41q136 0 257.5 50t212 138.5t143 218.5t52.5 281t-52.5 280.5t-143 217.5t-212 137.5t-257.5 49.5q-147 0 -273 -54t-212.5 -146.5t-135.5 -218t-49 -266.5q0 -113 31 -217.5t90 -189.5t140 -148.5t186 -98t223 -34.5z" />
<glyph unicode="&#xd5;" horiz-adv-x="1683" d="M1002 1682q-16 0 -33.5 4.5t-29 8.5t-32.5 16t-27 16t-30.5 21.5t-26.5 18.5q-78 55 -129 55q-89 0 -131 -125l-43 13q51 158 171 158q28 0 59 -10.5t48.5 -21t50.5 -31.5q6 -4 28 -20.5t32 -22.5t28 -16.5t33 -14.5t30 -4q39 0 72 32t51 95l43 -16q-24 -78 -68.5 -117 t-95.5 -39zM844 -7q-158 0 -293 58t-227.5 157.5t-145 234t-52.5 286.5q0 150 52.5 284.5t145 233.5t227.5 157t293 58q146 0 276.5 -53t227 -147.5t153 -232.5t56.5 -300t-56.5 -301t-153 -233.5t-227 -148t-276.5 -53.5zM844 41q136 0 257.5 50t212 138.5t143 218.5 t52.5 281t-52.5 280.5t-143 217.5t-212 137.5t-257.5 49.5q-147 0 -273 -54t-212.5 -146.5t-135.5 -218t-49 -266.5q0 -113 31 -217.5t90 -189.5t140 -148.5t186 -98t223 -34.5z" />
<glyph unicode="&#xd6;" horiz-adv-x="1683" d="M692 1733q-16 0 -29 7.5t-20 20t-7 27.5q0 25 15.5 40.5t40.5 15.5t40.5 -15.5t15.5 -40.5q0 -24 -16 -39.5t-40 -15.5zM993 1733q-16 0 -29 7.5t-20 20t-7 27.5q0 25 15.5 40.5t40.5 15.5t40.5 -15.5t15.5 -40.5q0 -24 -16 -39.5t-40 -15.5zM844 -7q-158 0 -293 58 t-227.5 157.5t-145 234t-52.5 286.5q0 150 52.5 284.5t145 233.5t227.5 157t293 58q146 0 276.5 -53t227 -147.5t153 -232.5t56.5 -300t-56.5 -301t-153 -233.5t-227 -148t-276.5 -53.5zM844 41q136 0 257.5 50t212 138.5t143 218.5t52.5 281t-52.5 280t-143 217.5t-212 138 t-257.5 49.5q-147 0 -273 -54t-212.5 -146.5t-135.5 -218t-49 -266.5q0 -113 31 -217.5t90 -189.5t140 -148.5t186 -98t223 -34.5z" />
<glyph unicode="&#xd7;" horiz-adv-x="981" d="M153 198l-32 31l336 336l-336 336l32 32l335 -336l338 337l32 -31l-337 -338l336 -336l-33 -31l-336 335z" />
<glyph unicode="&#xd8;" horiz-adv-x="1683" d="M1361 1247q93 -99 144.5 -231t51.5 -287q0 -162 -56.5 -301t-153 -233.5t-227 -148t-276.5 -53.5q-144 0 -268 47.5t-218 134.5l-182 -195l-38 33l185 197q-63 67 -107 148.5t-67 175.5t-23 195q0 150 52.5 284.5t145 233.5t227.5 157t293 58q92 0 179 -21.5t163.5 -62 t140.5 -98.5l166 176l35 -31zM174 729q0 -141 47 -265.5t135 -218.5l938 999q-90 82 -205.5 126t-244.5 44q-147 0 -273 -54t-212.5 -146.5t-135.5 -218t-49 -266.5zM844 41q136 0 257.5 50t212 138.5t143 218.5t52.5 281q0 145 -47.5 267.5t-133.5 214.5l-937 -1001 q88 -81 203.5 -125t249.5 -44z" />
<glyph unicode="&#xd9;" horiz-adv-x="1396" d="M731 1640l-255 276h63l252 -276h-60zM698 -7q-117 0 -215.5 40.5t-169 115t-109.5 185.5t-39 246v875h47v-875q0 -125 35.5 -227t99.5 -170.5t154 -105t197 -36.5t197 36.5t154 104.5t100 170t36 228v875h47v-875q0 -136 -39.5 -246.5t-110 -185t-169 -115t-215.5 -40.5z " />
<glyph unicode="&#xda;" horiz-adv-x="1396" d="M632 1640l251 276h64l-255 -276h-60zM698 -7q-117 0 -215.5 40.5t-169 115t-109.5 185.5t-39 246v875h47v-875q0 -125 35.5 -227t99.5 -170.5t154 -105t197 -36.5t197 36.5t154 104.5t100 170t36 228v875h47v-875q0 -136 -39.5 -246.5t-110 -185t-169 -115t-215.5 -40.5z " />
<glyph unicode="&#xdb;" horiz-adv-x="1396" d="M698 1881l-217 -243h-59l251 278h51l255 -278h-60l-217 243h-4zM1185 1455h47v-875q0 -136 -39.5 -246.5t-110 -185t-169 -115t-215.5 -40.5t-215.5 40.5t-169 115t-109.5 185.5t-39 246v875h47v-875q0 -125 35.5 -227t99.5 -170.5t154 -105t197 -36.5t197 36.5 t154 104.5t100 170t36 228v875z" />
<glyph unicode="&#xdc;" horiz-adv-x="1396" d="M547.5 1733q-24.5 0 -40 15.5t-15.5 39.5q0 25 15.5 40.5t40.5 15.5t40.5 -15.5t15.5 -40.5q0 -24 -16 -39.5t-40.5 -15.5zM849 1733q-16 0 -29 7.5t-20 20t-7 27.5q0 25 15.5 40.5t40.5 15.5t40.5 -15.5t15.5 -40.5q0 -24 -16 -39.5t-40 -15.5zM698 -7 q-117 0 -215.5 40.5t-169 115t-109.5 185.5t-39 246v875h47v-875q0 -125 35.5 -227t99.5 -170.5t154 -105t197 -36.5t197 36.5t154 104.5t100 170t36 228v875h47v-875q0 -136 -39.5 -246.5t-110 -185t-169 -115t-215.5 -40.5z" />
<glyph unicode="&#xdd;" horiz-adv-x="1138" d="M875 1916l-255 -276h-60l251 276h64zM1044 1455h57l-510 -793v-662h-47v662l-507 793h57l471 -739h4z" />
<glyph unicode="&#xde;" horiz-adv-x="1227" d="M183 0v1455h47v-324h465q118 0 206 -30.5t140.5 -86.5t77.5 -129t25 -164q0 -108 -35.5 -189t-101 -131t-153.5 -74.5t-197 -24.5h-427v-302h-47zM230 349h437q112 0 196 28.5t134 80t74.5 117.5t24.5 147q0 92 -28.5 162t-81 113.5t-122.5 65t-157 21.5h-477v-735z" />
<glyph unicode="&#xdf;" horiz-adv-x="1201" d="M796 889q150 -48 237.5 -171t87.5 -270q0 -136 -61.5 -240.5t-166.5 -159.5t-236 -55h-238v46h238q119 0 213.5 49t149.5 142.5t55 217.5q0 64 -18.5 125.5t-56 114.5t-89.5 93t-122.5 63t-151.5 23h-140v46h136q84 1 148.5 20.5t100 47.5t57.5 66t29 69.5t7 65.5 q0 138 -96 213t-272 75q-91 0 -163 -26t-124.5 -79t-81 -137.5t-28.5 -197.5v-1030h-45v1030q0 123 32 216.5t91 152t139 88t180 29.5q193 0 303.5 -87.5t110.5 -246.5q0 -23 -4 -47.5t-12.5 -53.5t-25.5 -56.5t-41 -53t-60.5 -46.5t-81.5 -34v-2z" />
<glyph unicode="&#xe0;" horiz-adv-x="1211" d="M697 1149h-60l-255 276h63zM1014 992h45v-992h-45v272h-2q-55 -127 -167.5 -203t-260.5 -76q-101 0 -191 36t-156.5 99.5t-105 156t-38.5 201.5q0 105 36 198.5t99.5 163.5t156.5 110.5t201 40.5q93 0 176 -34.5t147.5 -99t101.5 -152.5h3v279zM584 39q88 0 167 32.5 t137 90t92 142t34 182.5q0 128 -53 234.5t-151.5 169.5t-223.5 63q-92 0 -174 -34t-142.5 -94.5t-95.5 -148.5t-35 -190q0 -123 54.5 -224.5t157 -162t233.5 -60.5z" />
<glyph unicode="&#xe1;" horiz-adv-x="1211" d="M908 1425l-255 -276h-60l251 276h64zM1014 992h45v-992h-45v272h-2q-55 -127 -167.5 -203t-260.5 -76q-101 0 -191 36t-156.5 99.5t-105 156t-38.5 201.5q0 105 36 198.5t99 163.5t156.5 110.5t201.5 40.5q93 0 176 -34.5t147.5 -99t101.5 -152.5h3v279zM584 39 q88 0 167 32.5t137 90t92 142t34 182.5q0 128 -53 234.5t-151.5 169.5t-223.5 63q-92 0 -174 -34t-142.5 -94.5t-95.5 -148.5t-35 -190q0 -123 54.5 -224.5t157 -162t233.5 -60.5z" />
<glyph unicode="&#xe2;" horiz-adv-x="1211" d="M586 1390l-217 -243h-59l251 278h51l255 -278h-60l-217 243h-4zM1014 992h45v-992h-45v272h-2q-55 -127 -167.5 -203t-260.5 -76q-101 0 -191 36t-156.5 99.5t-105 156t-38.5 201.5q0 105 36 198.5t99 163t156.5 110.5t201.5 41q140 0 254.5 -76.5t170.5 -209.5h3v279z M584 39q88 0 167 32.5t137 90t92 142t34 182.5q0 128 -53 234.5t-151.5 169.5t-223.5 63q-92 0 -174 -34t-142.5 -94.5t-95.5 -148.5t-35 -190q0 -123 54.5 -224.5t157 -162t233.5 -60.5z" />
<glyph unicode="&#xe3;" horiz-adv-x="1211" d="M438 1331q-89 0 -131 -125l-43 13q51 158 171 158q28 0 59 -10.5t48.5 -21t50.5 -31.5q6 -4 28 -20.5t32 -22.5t28 -16.5t33 -14.5t30 -4q39 0 72 32t51 95l43 -16q-24 -78 -68.5 -117t-95.5 -39q-14 0 -27.5 2.5t-28 8t-25 10.5t-26.5 15t-23.5 15t-25.5 17.5t-23 16.5 q-78 55 -129 55zM1014 992h45v-992h-45v272h-2q-55 -127 -167.5 -203t-260.5 -76q-101 0 -191 36t-156.5 99.5t-105 156t-38.5 201.5q0 105 36 198.5t99 163.5t156.5 110.5t201.5 40.5q140 0 254.5 -76.5t170.5 -209.5h3v279zM584 39q88 0 167 32.5t137 90t92 142t34 182.5 q0 128 -53 234.5t-151.5 169.5t-223.5 63q-92 0 -174 -34t-142.5 -94.5t-95.5 -148.5t-35 -190q0 -123 54.5 -224.5t157 -162t233.5 -60.5z" />
<glyph unicode="&#xe4;" horiz-adv-x="1211" d="M435.5 1242q-24.5 0 -40 15.5t-15.5 39.5q0 17 7 29.5t20 19.5t29 7t29 -7t20 -19.5t7 -29.5q0 -24 -16 -39.5t-40.5 -15.5zM737.5 1242q-24.5 0 -40.5 15.5t-16 39.5q0 13 4 23.5t11.5 17.5t18 11t22.5 4q25 0 40.5 -15.5t15.5 -40.5q0 -24 -15.5 -39.5t-40 -15.5z M1014 992h45v-992h-45v272h-2q-55 -127 -167.5 -203t-260.5 -76q-101 0 -191 36t-156.5 99.5t-105 156t-38.5 201.5q0 105 36 198.5t99.5 163.5t156.5 110.5t201 40.5q93 0 176 -34.5t147.5 -99t101.5 -152.5h3v279zM584 39q88 0 167 32.5t137 90t92 142t34 182.5 q0 128 -53 234.5t-151.5 169.5t-223.5 63q-92 0 -174 -34t-142.5 -94.5t-95.5 -148.5t-35 -190q0 -123 54.5 -224.5t157 -162t233.5 -60.5z" />
<glyph unicode="&#xe5;" horiz-adv-x="1211" d="M588 1138q-60 0 -105.5 44.5t-45.5 104.5q0 61 45.5 105.5t105.5 44.5q61 0 106 -44.5t45 -105.5t-45 -105t-106 -44zM588 1391q-43 0 -74 -31t-31 -73t31 -72.5t74 -30.5t74 30.5t31 72.5t-31 73t-74 31zM1014 992h45v-992h-45v272h-2q-55 -127 -167.5 -203t-260.5 -76 q-101 0 -191 36t-156.5 99.5t-105 156t-38.5 201.5q0 105 36 198.5t99 163t156.5 110.5t201.5 41q140 0 254.5 -76.5t170.5 -209.5h3v279zM584 39q88 0 167 32.5t137 90t92 142t34 182.5q0 128 -53 234.5t-151.5 169.5t-223.5 63q-92 0 -174 -34t-142.5 -94.5t-95.5 -148.5 t-35 -190q0 -123 54.5 -224.5t157 -162t233.5 -60.5z" />
<glyph unicode="&#xe6;" horiz-adv-x="1622" d="M1552 497h-770l-1 -27q5 -123 54.5 -222t132 -154t181.5 -55q96 0 179 43.5t145 121.5l35 -26q-67 -88 -158 -136.5t-198 -48.5q-127 0 -230 80t-150 214h-3q-28 -136 -136 -215t-254 -79q-73 0 -132 23t-95.5 62.5t-56 90t-19.5 106.5q0 55 20.5 102.5t60.5 84t105 58 t147 21.5l328 1v49q0 102 -12 169t-40.5 111t-73.5 63t-114 19q-162 0 -312 -86l-23 38q154 94 335 94q137 0 201 -68.5t79 -210.5h2q50 129 150 204t230 75q83 0 155.5 -36t125 -99t83 -152t30.5 -191zM1159 953q-101 0 -184 -53t-133 -146.5t-59 -211.5h724 q-13 186 -109 298.5t-239 112.5zM379 39q72 0 136 23t114 66.5t79 113t29 156.5v99l-328 -1q-57 0 -107.5 -14t-91 -40.5t-64.5 -69.5t-24 -97q0 -37 9.5 -71t30.5 -64t51 -52.5t72.5 -35.5t93.5 -13z" />
<glyph unicode="&#xe7;" horiz-adv-x="1022" d="M562 -7l-28 -63l2 -2q64 -5 113.5 -47.5t49.5 -110.5q0 -61 -46 -104t-128 -43q-48 0 -100 13v46q54 -14 92 -14q58 0 97 27t39 77q0 31 -17.5 56.5t-56.5 43t-94 17.5l2 40l30 66q-190 18 -305 155t-115 345q0 146 59 260.5t167.5 179t247.5 64.5q105 0 202.5 -40.5 t167.5 -117.5l-36 -34q-56 66 -144 106t-190 40q-126 0 -224 -59t-151.5 -163t-53.5 -236q0 -133 53.5 -237t151 -161.5t222.5 -57.5q100 0 192 38t152 105l31 -34q-42 -45 -100 -79.5t-129.5 -55t-145.5 -20.5h-7z" />
<glyph unicode="&#xe8;" horiz-adv-x="1090" d="M668 1149h-60l-255 276h63zM999 497h-856v-2q0 -130 54 -234t151 -163t220 -59q226 0 355 165l35 -26q-65 -89 -163 -137t-223 -48q-137 0 -246 65t-169 179.5t-60 257.5q0 107 36.5 201t99 160t150 104.5t185.5 38.5q95 0 176 -36t137 -98.5t88 -150t32 -188.5 q0 -23 -2 -29zM568 953q-169 0 -288 -116t-135 -295h810q-12 187 -116.5 299t-270.5 112z" />
<glyph unicode="&#xe9;" horiz-adv-x="1090" d="M850 1425l-255 -276h-60l251 276h64zM999 497h-856v-2q0 -130 54 -234t151 -163t220 -59q226 0 355 165l35 -26q-65 -89 -163 -137t-223 -48q-137 0 -246 65t-169 179.5t-60 257.5q0 107 36.5 201t99 160t150 104.5t185.5 38.5q95 0 176 -36t137 -98.5t88 -150t32 -188.5 q0 -23 -2 -29zM568 953q-169 0 -288 -116t-135 -295h810q-12 187 -116.5 299t-270.5 112z" />
<glyph unicode="&#xea;" horiz-adv-x="1090" d="M568 1390l-217 -243h-59l251 278h51l255 -278h-60l-217 243h-4zM999 497h-856v-2q0 -97 31.5 -182t87 -145t135 -94.5t171.5 -34.5q226 0 355 165l35 -26q-65 -89 -163 -137t-223 -48q-137 0 -246 65t-169 179.5t-60 257.5q0 107 36.5 201t99 160t150 104.5t185.5 38.5 q95 0 176 -36t137 -98.5t88 -150t32 -188.5q0 -23 -2 -29zM568 953q-169 0 -288 -116t-135 -295h810q-12 187 -116.5 299t-270.5 112z" />
<glyph unicode="&#xeb;" horiz-adv-x="1090" d="M417.5 1242q-24.5 0 -40 15.5t-15.5 39.5q0 17 7 29.5t20 19.5t29 7t29 -7t20 -19.5t7 -29.5q0 -24 -16 -39.5t-40.5 -15.5zM718.5 1242q-24.5 0 -40 15.5t-15.5 39.5q0 25 15.5 40.5t40.5 15.5t40.5 -15.5t15.5 -40.5q0 -24 -16 -39.5t-40.5 -15.5zM999 497h-856v-2 q0 -130 54 -234t151 -163t220 -59q226 0 355 165l35 -26q-65 -89 -163 -137t-223 -48q-137 0 -246 65t-169 179.5t-60 257.5q0 107 36.5 201t99 160t150 104.5t185.5 38.5q95 0 176 -36t137 -98.5t88 -150t32 -188.5q0 -23 -2 -29zM568 953q-169 0 -288 -116t-135 -295h810 q-12 187 -116.5 299t-270.5 112z" />
<glyph unicode="&#xec;" horiz-adv-x="401" d="M167 1149l-185 276h59l182 -276h-56zM177 0v992h45v-992h-45z" />
<glyph unicode="&#xed;" horiz-adv-x="400" d="M180 1149l251 276h64l-255 -276h-60zM177 0v992h45v-992h-45z" />
<glyph unicode="&#xee;" horiz-adv-x="400" d="M225 1425l255 -278h-60l-217 243h-4l-217 -243h-59l251 278h51zM177 0v992h45v-992h-45z" />
<glyph unicode="&#xef;" horiz-adv-x="400" d="M48.5 1242q-24.5 0 -40 15.5t-15.5 39.5q0 25 15.5 40.5t40.5 15.5t40.5 -15.5t15.5 -40.5q0 -24 -16 -39.5t-40.5 -15.5zM350 1242q-25 0 -40.5 15.5t-15.5 39.5q0 25 15.5 40.5t40.5 15.5t40.5 -15.5t15.5 -40.5q0 -24 -15.5 -39.5t-40.5 -15.5zM177 0v992h45v-992h-45 z" />
<glyph unicode="&#xf0;" horiz-adv-x="1188" d="M1089 502v-7q0 -102 -36 -194t-100 -160t-157.5 -108t-201.5 -40q-102 0 -193 36.5t-158.5 101.5t-106.5 159.5t-39 204.5q0 102 36 194t100 160.5t158 109t203 40.5q118 0 219.5 -49t170.5 -137q1 -1 7 -9t9 -13l1 1q-52 170 -160.5 314t-254.5 243l-177 -138l-30 33 l166 130v1q-101 62 -206 97l14 41q123 -43 230 -110l147 115l29 -35l-136 -106v-1q213 -147 339.5 -376t126.5 -498zM594 39q98 0 182.5 36t142.5 98t91 145.5t33 176.5q0 133 -60.5 238.5t-162.5 162.5t-226 57q-99 0 -184 -36.5t-143 -98.5t-91 -146t-33 -177 q0 -100 35.5 -186t96.5 -145t143.5 -92t175.5 -33z" />
<glyph unicode="&#xf1;" horiz-adv-x="1113" d="M427 1331q-89 0 -131 -125l-43 13q51 158 171 158q28 0 59 -10.5t48.5 -21t50.5 -31.5q6 -4 28 -20.5t32 -22.5t28 -16.5t33 -14.5t30 -4q39 0 72 32t51 95l43 -16q-24 -78 -68.5 -117t-95.5 -39q-16 0 -33.5 4.5t-29 8.5t-32.5 16.5t-27 16t-30.5 21t-26.5 18.5 q-78 55 -129 55zM627 999q159 0 250 -105.5t91 -296.5v-597h-45v575q0 101 -23 175.5t-64.5 118t-93.5 64t-115 20.5q-187 0 -302 -127.5t-115 -335.5v-490h-45v992h45v-265h2q54 128 162 200t253 72z" />
<glyph unicode="&#xf2;" horiz-adv-x="1185" d="M623 1149l-255 276h63l252 -276h-60zM594 -7q-109 0 -203 40t-158 108.5t-100.5 160t-36.5 193.5t36.5 194t100.5 160.5t158 109t203 40.5q81 0 156 -23.5t136.5 -68t107 -105.5t70.5 -140t25 -167q0 -109 -39 -203.5t-106 -159.5t-157.5 -102t-192.5 -37zM594 39 q124 0 226 57t162.5 162t60.5 237q0 133 -60.5 238.5t-162.5 162.5t-226 57q-100 0 -185 -36.5t-143 -98.5t-91 -146t-33 -177t33 -176.5t91 -145t143 -98t185 -36.5z" />
<glyph unicode="&#xf3;" horiz-adv-x="1185" d="M561 1149l251 276h64l-255 -276h-60zM594 -7q-109 0 -203 40t-158 108.5t-100.5 160t-36.5 193.5t36.5 194t100.5 160.5t158 109t203 40.5q81 0 156 -23.5t136.5 -68t107 -105.5t70.5 -140t25 -167q0 -109 -39 -203.5t-106 -159.5t-157.5 -102t-192.5 -37zM594 39 q124 0 226 57t162.5 162t60.5 237q0 133 -60.5 238.5t-162.5 162.5t-226 57q-100 0 -185 -36.5t-143 -98.5t-91 -146t-33 -177t33 -176.5t91 -145t143 -98t185 -36.5z" />
<glyph unicode="&#xf4;" horiz-adv-x="1185" d="M594 1390l-217 -243h-59l251 278h51l255 -278h-60l-217 243h-4zM594 999q58 0 113.5 -12t104.5 -35.5t91.5 -56.5t76.5 -76t58.5 -93t37.5 -109t13 -122q0 -109 -39 -203.5t-106 -159.5t-157.5 -102t-192.5 -37q-109 0 -203 40t-158 108.5t-100.5 160t-36.5 193.5 t36.5 194t100.5 160.5t158 109t203 40.5zM594 39q124 0 226 57t162.5 162t60.5 237q0 133 -60.5 238.5t-162.5 162.5t-226 57q-100 0 -185 -36.5t-143 -98.5t-91 -146t-33 -177t33 -176.5t91 -145t143 -98t185 -36.5z" />
<glyph unicode="&#xf5;" horiz-adv-x="1185" d="M754 1191q-16 0 -33.5 4.5t-29 8.5t-32.5 16.5t-27 16t-30.5 21t-26.5 18.5q-78 55 -129 55q-89 0 -131 -125l-43 13q51 158 171 158q28 0 59 -10.5t48.5 -21t50.5 -31.5q6 -4 28 -20.5t32 -22.5t28 -16.5t33 -14.5t30 -4q39 0 72 32t51 95l43 -16q-24 -78 -68.5 -117 t-95.5 -39zM594 -7q-109 0 -203 40t-158 108.5t-100.5 160t-36.5 193.5t36.5 194t100.5 160.5t158 109t203 40.5q81 0 156 -23.5t136.5 -68t107 -105.5t70.5 -140t25 -167q0 -109 -39 -203.5t-106 -159.5t-157.5 -102t-192.5 -37zM594 39q124 0 226.5 57t162.5 162t60 237 q0 133 -60.5 238.5t-162.5 162.5t-226 57q-100 0 -185 -36.5t-143 -98.5t-91 -146t-33 -177t33 -176.5t91 -145t143 -98t185 -36.5z" />
<glyph unicode="&#xf6;" horiz-adv-x="1185" d="M443.5 1242q-24.5 0 -40 15.5t-15.5 39.5q0 25 15.5 40.5t40.5 15.5t40.5 -15.5t15.5 -40.5q0 -24 -16 -39.5t-40.5 -15.5zM744.5 1242q-24.5 0 -40 15.5t-15.5 39.5q0 25 15.5 40.5t40.5 15.5t40.5 -15.5t15.5 -40.5q0 -24 -16 -39.5t-40.5 -15.5zM594 -7 q-109 0 -203 40t-158 108.5t-100.5 160t-36.5 193.5t36.5 194t100.5 160.5t158 109t203 40.5q81 0 156 -23.5t136.5 -68t107 -105.5t70.5 -140t25 -167q0 -109 -39 -203.5t-106 -159.5t-157.5 -102t-192.5 -37zM594 39q124 0 226 57t162.5 162t60.5 237q0 133 -60.5 238.5 t-162.5 162.5t-226 57q-100 0 -185 -36.5t-143 -98.5t-91 -146t-33 -177t33 -176.5t91 -145t143 -98t185 -36.5z" />
<glyph unicode="&#xf7;" horiz-adv-x="1202" d="M584.5 904q-24.5 0 -40 15.5t-15.5 39.5q0 25 15.5 40.5t40.5 15.5t40.5 -15.5t15.5 -40.5q0 -24 -16 -39.5t-40.5 -15.5zM130 543v45h942v-45h-942zM584.5 117q-24.5 0 -40 15.5t-15.5 39.5q0 25 15.5 40.5t40.5 15.5t40.5 -15.5t15.5 -40.5q0 -24 -16 -39.5 t-40.5 -15.5z" />
<glyph unicode="&#xf8;" horiz-adv-x="1185" d="M1089 976l-128 -134q128 -141 128 -347q0 -109 -39 -203.5t-106 -159.5t-157.5 -102t-192.5 -37q-192 0 -328 117l-125 -131l-39 33l128 134q-64 69 -99 159t-35 190q0 102 36.5 194t100.5 160.5t158 109t203 40.5q63 0 123.5 -14.5t113 -42t96.5 -66.5l126 132zM142 495 q0 -91 31 -172.5t88 -143.5l633 663q-124 111 -300 111q-100 0 -185 -36.5t-143 -98.5t-91 -146t-33 -177zM1043 495q0 186 -114 313l-631 -664q121 -105 296 -105q124 0 226 57t162.5 162t60.5 237z" />
<glyph unicode="&#xf9;" horiz-adv-x="1089" d="M641 1149h-60l-255 276h63zM892 992h45v-992h-45v262h-2q-51 -126 -150.5 -197.5t-223.5 -71.5q-180 0 -277.5 117t-97.5 315v567h45v-544q0 -203 88 -306t242 -103q79 0 148 33.5t119.5 93.5t79.5 147t29 189v490z" />
<glyph unicode="&#xfa;" horiz-adv-x="1089" d="M809 1425l-255 -276h-60l251 276h64zM892 992h45v-992h-45v262h-2q-51 -126 -150.5 -197.5t-223.5 -71.5q-180 0 -277.5 117t-97.5 315v567h45v-544q0 -203 88 -306t242 -103q79 0 148 33.5t119.5 93.5t79.5 147t29 189v490z" />
<glyph unicode="&#xfb;" horiz-adv-x="1089" d="M537 1390l-217 -243h-59l251 278h51l255 -278h-60l-217 243h-4zM892 992h45v-992h-45v262h-2q-51 -126 -150.5 -197.5t-223.5 -71.5q-180 0 -277.5 117t-97.5 315v567h45v-544q0 -203 88 -306t242 -103q79 0 148 33.5t119.5 93.5t79.5 147t29 189v490z" />
<glyph unicode="&#xfc;" horiz-adv-x="1089" d="M386.5 1242q-24.5 0 -40 15.5t-15.5 39.5q0 25 15.5 40.5t40.5 15.5t40.5 -15.5t15.5 -40.5q0 -24 -16 -39.5t-40.5 -15.5zM687.5 1242q-24.5 0 -40 15.5t-15.5 39.5q0 25 15.5 40.5t40.5 15.5t40.5 -15.5t15.5 -40.5q0 -24 -16 -39.5t-40.5 -15.5zM892 992h45v-992h-45 v262h-2q-51 -126 -150.5 -197.5t-223.5 -71.5q-180 0 -277.5 117t-97.5 315v567h45v-544q0 -203 88 -306t242 -103q79 0 148 33.5t119.5 93.5t79.5 147t29 189v490z" />
<glyph unicode="&#xfd;" horiz-adv-x="1037" d="M784 1425l-255 -276h-60l251 276h64zM922 992h55l-594 -1397h-52l175 415l-450 982h54l419 -922h3z" />
<glyph unicode="&#xfe;" horiz-adv-x="1228" d="M638 999q87 0 164.5 -26t137 -73.5t103 -111.5t66 -141t22.5 -161q0 -109 -38.5 -201.5t-105 -156t-156.5 -99.5t-191 -36q-148 0 -260 75.5t-167 202.5h-3v-676h-45v1913h45v-795h3q55 133 169.5 209.5t255.5 76.5zM640 39q131 0 233.5 60.5t157 162t54.5 224.5 q0 102 -35 190t-95.5 148.5t-142.5 94.5t-174 34q-125 0 -224 -63t-151.5 -169.5t-52.5 -234.5q0 -98 34 -182.5t92 -142t137 -90t167 -32.5z" />
<glyph unicode="&#xff;" horiz-adv-x="1037" d="M369.5 1242q-24.5 0 -40 15.5t-15.5 39.5q0 25 15.5 40.5t40.5 15.5t40.5 -15.5t15.5 -40.5q0 -24 -16 -39.5t-40.5 -15.5zM671 1242q-25 0 -40.5 15.5t-15.5 39.5q0 25 15.5 40.5t40.5 15.5t40.5 -15.5t15.5 -40.5q0 -24 -15.5 -39.5t-40.5 -15.5zM922 992h55 l-594 -1397h-52l175 415l-450 982h54l419 -922h3z" />
<glyph unicode="&#x131;" horiz-adv-x="400" d="M177 0v992h45v-992h-45z" />
<glyph unicode="&#x13f;" horiz-adv-x="1081" d="M183 0v1455h47v-1408h807v-47h-854zM763 625q-17 0 -30.5 7.5t-21 21t-7.5 29.5q0 27 16.5 43t42.5 16q17 0 30.5 -7t21 -20.5t7.5 -31.5q0 -25 -16.5 -41.5t-42.5 -16.5z" />
<glyph unicode="&#x140;" horiz-adv-x="433" d="M176 0v1508h45v-1508h-45zM417 496q-26 0 -42.5 16.5t-16.5 41.5q0 27 16.5 43t42.5 16t42.5 -16t16.5 -43q0 -25 -16.5 -41.5t-42.5 -16.5z" />
<glyph unicode="&#x152;" horiz-adv-x="1908" d="M982 47h839v-47h-969q-107 0 -204.5 26.5t-177 74.5t-144.5 115.5t-108.5 148.5t-67.5 174.5t-24 192.5q0 148 53 280.5t146.5 231t230.5 155.5t296 56h928v-47h-798v-657h678v-47h-678v-657zM852 48h84v1359h-84q-139 1 -263.5 -48t-216 -136.5t-145 -215t-53.5 -275.5 q0 -149 53.5 -277.5t145.5 -217t216 -139t263 -50.5z" />
<glyph unicode="&#x153;" horiz-adv-x="1688" d="M1618 497h-739v-2q0 -99 22.5 -182t65.5 -144.5t109 -95.5t149 -34q96 0 178.5 44t136.5 121l35 -26q-58 -86 -151 -135.5t-195 -49.5q-66 0 -122 17.5t-95.5 46.5t-70.5 70t-50 84.5t-32 94.5h-6q-42 -144 -142 -228.5t-228 -84.5q-121 0 -214.5 66.5t-143 180.5 t-49.5 255t52 256t145.5 181.5t209.5 66.5q83 0 157 -39t130 -112t84 -171h3q24 98 72.5 169.5t124 112t171.5 40.5q110 0 200.5 -61.5t142 -171t51.5 -245.5zM483 39q72 0 136.5 33.5t111.5 92.5t74.5 144.5t27.5 185t-28.5 186t-76.5 145.5t-112 93t-133 34 q-103 0 -186 -60t-129 -164.5t-46 -233.5q0 -128 45.5 -232t128.5 -164t187 -60zM1225 953q-78 0 -141 -30.5t-106 -86t-68 -130t-30 -164.5h694q-13 187 -107 299t-242 112z" />
<glyph unicode="&#x178;" horiz-adv-x="1138" d="M417 1733q-16 0 -29 7.5t-20 20t-7 27.5q0 25 15.5 40.5t40.5 15.5t40.5 -15.5t15.5 -40.5q0 -24 -16 -39.5t-40 -15.5zM717.5 1733q-24.5 0 -40 15.5t-15.5 39.5q0 25 15.5 40.5t40.5 15.5t40.5 -15.5t15.5 -40.5q0 -24 -16 -39.5t-40.5 -15.5zM1044 1455h57l-510 -793 v-662h-47v662l-507 793h57l471 -739h4z" />
<glyph unicode="&#x237;" horiz-adv-x="360" d="M9 -412q-70 0 -129 30l5 49q52 -33 127 -33q158 0 158 191v1167h45v-1167q0 -49 -9.5 -89t-32 -74.5t-64 -54t-100.5 -19.5z" />
<glyph unicode="&#x2c6;" horiz-adv-x="1086" d="M761 1120l-217 243h-4l-217 -243h-59l251 278h51l255 -278h-60z" />
<glyph unicode="&#x2dc;" horiz-adv-x="1082" d="M700 1164q-16 0 -33.5 4.5t-29 8.5t-32.5 16t-27 16t-30.5 21.5t-26.5 18.5q-78 55 -129 55q-89 0 -131 -125l-43 13q51 158 171 158q28 0 59 -10.5t48.5 -21t50.5 -31.5q7 -5 23.5 -17t25.5 -18.5t24 -16t26 -14.5t25 -8.5t27 -3.5q39 0 72 32t51 95l43 -16 q-16 -52 -43 -88t-57.5 -52t-63.5 -16z" />
<glyph unicode="&#x2000;" horiz-adv-x="964" />
<glyph unicode="&#x2001;" horiz-adv-x="1928" />
<glyph unicode="&#x2002;" horiz-adv-x="964" />
<glyph unicode="&#x2003;" horiz-adv-x="1928" />
<glyph unicode="&#x2004;" horiz-adv-x="642" />
<glyph unicode="&#x2005;" horiz-adv-x="482" />
<glyph unicode="&#x2006;" horiz-adv-x="321" />
<glyph unicode="&#x2007;" horiz-adv-x="321" />
<glyph unicode="&#x2008;" horiz-adv-x="241" />
<glyph unicode="&#x2009;" horiz-adv-x="47" />
<glyph unicode="&#x200a;" horiz-adv-x="107" />
<glyph unicode="&#x2010;" horiz-adv-x="826" d="M118 606v48h590v-48h-590z" />
<glyph unicode="&#x2011;" horiz-adv-x="826" d="M118 606v48h590v-48h-590z" />
<glyph unicode="&#x2012;" horiz-adv-x="826" d="M118 606v48h590v-48h-590z" />
<glyph unicode="&#x2013;" horiz-adv-x="1192" d="M118 585v44h956v-44h-956z" />
<glyph unicode="&#x2014;" horiz-adv-x="2148" d="M118 585v44h1912v-44h-1912z" />
<glyph unicode="&#x2018;" horiz-adv-x="330" d="M248 1454l-72 -446h-54l86 446h40z" />
<glyph unicode="&#x2019;" horiz-adv-x="330" d="M102 1009l72 446h54l-86 -446h-40z" />
<glyph unicode="&#x201a;" horiz-adv-x="322" d="M74 -262l72 446h55l-87 -446h-40z" />
<glyph unicode="&#x201c;" horiz-adv-x="502" d="M249 1454l-71 -446h-56l86 446h41zM420 1454l-72 -446h-54l86 446h40z" />
<glyph unicode="&#x201d;" horiz-adv-x="502" d="M102 1009l72 446h54l-86 -446h-40zM273 1009l71 446h56l-86 -446h-41z" />
<glyph unicode="&#x201e;" horiz-adv-x="493" d="M74 -150l72 446h54l-86 -446h-40zM245 -150l71 446h56l-86 -446h-41z" />
<glyph unicode="&#x2022;" horiz-adv-x="759" d="M379 473q-73 0 -123.5 50.5t-50.5 123.5q0 72 50.5 122.5t123.5 50.5q47 0 87.5 -23t64 -63t23.5 -87q0 -73 -51.5 -123.5t-123.5 -50.5z" />
<glyph unicode="&#x2026;" horiz-adv-x="2048" d="M331 -20q-26 0 -42.5 16.5t-16.5 41.5q0 27 16.5 43t42.5 16q13 0 24 -4t18.5 -12t12 -19t4.5 -24q0 -25 -16.5 -41.5t-42.5 -16.5zM1014 -20q-26 0 -42.5 16.5t-16.5 41.5q0 27 16.5 43t42.5 16t42.5 -16t16.5 -43q0 -25 -16.5 -41.5t-42.5 -16.5zM1697 -20 q-26 0 -42.5 16.5t-16.5 41.5q0 27 16.5 43t42.5 16t42.5 -16t16.5 -43q0 -25 -16.5 -41.5t-42.5 -16.5z" />
<glyph unicode="&#x202f;" horiz-adv-x="385" />
<glyph unicode="&#x2039;" horiz-adv-x="499" d="M408 26h-45l-268 473l267 469h46l-263 -469z" />
<glyph unicode="&#x203a;" horiz-adv-x="499" d="M111 26l263 473l-263 469h46l267 -469l-268 -473h-45z" />
<glyph unicode="&#x2044;" horiz-adv-x="472" d="M-54 -15l-42 15l624 1468l41 -15z" />
<glyph unicode="&#x205f;" horiz-adv-x="482" />
<glyph unicode="&#x2070;" horiz-adv-x="775" d="M388 886q-148 0 -240.5 112.5t-92.5 314.5q0 93 22.5 171.5t64 135.5t105 89.5t141.5 32.5q147 0 239.5 -113t92.5 -316q0 -124 -38 -220t-114 -151.5t-180 -55.5zM388 931q135 0 211 104t76 278q0 185 -79.5 284.5t-207.5 99.5q-91 0 -156.5 -48.5t-98.5 -134.5 t-33 -201q0 -184 79.5 -283t208.5 -99z" />
<glyph unicode="&#x2074;" horiz-adv-x="720" d="M487 893v157h-447v41l454 644h37v-641h141v-44h-141v-157h-44zM97 1094h390v556z" />
<glyph unicode="&#x2075;" horiz-adv-x="681" d="M332 1420q85 0 152.5 -30.5t109 -92t41.5 -145.5q0 -81 -42 -142.5t-111 -92.5t-154 -31q-99 0 -175 39.5t-115 107.5l38 23q35 -58 99.5 -92t151.5 -34q74 0 133 26t94.5 77t35.5 120q0 105 -73 164t-191 59q-51 0 -99 -13t-79 -37l-36 6l26 403h459v-44h-418l-20 -309 q68 38 173 38z" />
<glyph unicode="&#x2076;" horiz-adv-x="697" d="M383 1420q126 0 195.5 -68t69.5 -187q0 -53 -20 -102.5t-56.5 -88.5t-93 -62.5t-123.5 -23.5q-129 0 -214 90t-85 239q0 95 27 179.5t70.5 146.5t101 110t117 76t119.5 38l8 -43q-51 -9 -101.5 -31.5t-99.5 -61t-88.5 -87.5t-67.5 -116.5t-37 -143.5l1 -1q29 40 71 71 t95.5 48.5t110.5 17.5zM355 933q47 0 87.5 13t69.5 35.5t50 52.5t31 63.5t10 68.5q0 98 -58 153.5t-167 55.5q-65 0 -122.5 -26t-96 -66t-58.5 -87q6 -121 77.5 -192t176.5 -71z" />
<glyph unicode="&#x2077;" horiz-adv-x="632" d="M35 1735h558v-41l-399 -812l-46 13l394 796h-507v44z" />
<glyph unicode="&#x2078;" horiz-adv-x="714" d="M472 1349q76 -19 130.5 -81t54.5 -143q0 -71 -41 -126t-109.5 -84t-150.5 -29q-131 0 -215.5 68.5t-84.5 170.5q0 81 54.5 143t130.5 81v2q-53 16 -96 64.5t-43 117.5q0 94 73.5 151.5t180.5 57.5q114 0 185 -59t71 -150q0 -69 -43 -117.5t-97 -64.5v-2zM146 1531 q0 -72 59 -116t150 -44q61 0 109 19.5t76 56t28 84.5q0 74 -61 120t-152 46q-62 0 -110 -22.5t-73.5 -60t-25.5 -83.5zM355 931q113 0 185 56.5t72 140.5q0 88 -71.5 143t-185.5 55q-112 0 -183 -55t-71 -143q0 -87 74 -142t180 -55z" />
<glyph unicode="&#x2079;" horiz-adv-x="719" d="M358 1742q128 0 213.5 -88t85.5 -228q0 -79 -19 -152.5t-51.5 -131.5t-75 -106.5t-91 -83t-98.5 -56.5t-99 -30l-9 43q50 9 100.5 32t99.5 61.5t88.5 88.5t68 117.5t37.5 143.5h-1q-42 -61 -112 -98t-155 -37q-80 0 -143 33t-98.5 92.5t-35.5 135.5q0 112 82.5 188 t212.5 76zM345 1262q95 0 165 51t103 125q-4 117 -76.5 188t-178.5 71q-111 0 -180.5 -63t-69.5 -157t65.5 -154.5t171.5 -60.5z" />
<glyph unicode="&#x207a;" horiz-adv-x="697" d="M623 1309v-45h-252v-251h-45v251h-252v45h252v252l45 -1v-251h252z" />
<glyph unicode="&#x207c;" horiz-adv-x="743" d="M97 1431v45h549v-45h-549zM97 1088v44h549v-44h-549z" />
<glyph unicode="&#x207d;" horiz-adv-x="277" d="M184 759q-140 273 -140 558q0 156 40.5 302.5t110.5 258.5l38 -23q-67 -108 -105.5 -248t-38.5 -290q0 -276 136 -538z" />
<glyph unicode="&#x207e;" horiz-adv-x="277" d="M113 759l-41 20q136 262 136 538q0 150 -38.5 290t-105.5 248l38 23q70 -113 110.5 -259t40.5 -302q0 -285 -140 -558z" />
<glyph unicode="&#x207f;" horiz-adv-x="693" d="M412 467q98 0 152.5 -59.5t54.5 -169.5v-373h-46v358q0 198 -163 198q-112 0 -191 -72.5t-79 -187.5v-295h-45v596h45v-146h3q40 71 112 111t157 40z" />
<glyph unicode="&#x2080;" horiz-adv-x="775" d="M388 -142q-148 0 -240.5 112.5t-92.5 314.5q0 124 38.5 220.5t114.5 152.5t180 56q147 0 239.5 -113t92.5 -316q0 -124 -38 -219.5t-114 -151.5t-180 -56zM388 -97q135 0 211 104t76 278q0 185 -79.5 284.5t-207.5 99.5q-91 0 -156.5 -48.5t-98.5 -134.5t-33 -201 q0 -184 79.5 -283t208.5 -99z" />
<glyph unicode="&#x2081;" horiz-adv-x="445" d="M264 -135v781l-209 -142l-22 37l238 166h37v-842h-44z" />
<glyph unicode="&#x2082;" horiz-adv-x="664" d="M130 -91h466v-44h-550l1 37l338 305q76 68 114.5 125.5t38.5 126.5q0 88 -62 149t-157 61q-69 0 -134 -36.5t-96 -102.5l-37 25q35 72 108.5 115.5t159.5 43.5q51 0 98.5 -18t84 -50t58.5 -80t22 -104q0 -76 -38.5 -141t-123.5 -142l-291 -263v-7z" />
<glyph unicode="&#x2083;" horiz-adv-x="670" d="M449 302q54 -16 91.5 -47.5t56 -74.5t18.5 -94q0 -101 -77 -164.5t-203 -63.5q-108 0 -184 41.5t-112 111.5l41 19q20 -39 54.5 -67t85 -44t114.5 -16q110 0 173 50t63 143q0 78 -66.5 131.5t-179.5 53.5h-85v45h99q98 0 155 47.5t57 118.5q0 84 -60 130.5t-164 46.5 q-147 0 -220 -99l-38 25q85 119 258 119q76 0 136 -25t96 -75t36 -118q0 -44 -14.5 -80.5t-47.5 -65.5t-83 -45v-3z" />
<glyph unicode="&#x2084;" horiz-adv-x="720" d="M487 -135v157h-447v41l454 644h37v-641h141v-44h-141v-157h-44zM97 66h390v556z" />
<glyph unicode="&#x2085;" horiz-adv-x="681" d="M332 392q85 0 152.5 -30.5t109 -92t41.5 -145.5q0 -81 -42 -142.5t-111 -92.5t-154 -31q-99 0 -175 39.5t-115 107.5l38 23q35 -58 99.5 -92t151.5 -34q114 0 188.5 60t74.5 163q0 105 -73 164t-191 59q-51 0 -99 -13t-79 -37l-36 6l26 403h459v-44h-418l-20 -309 q68 38 173 38z" />
<glyph unicode="&#x2086;" horiz-adv-x="697" d="M383 392q84 0 144 -31t90.5 -88.5t30.5 -135.5q0 -30 -6.5 -59.5t-19 -57t-31 -51.5t-43 -44t-54 -34.5t-65 -22.5t-74.5 -8q-129 0 -214 90t-85 239q0 95 27 179.5t70.5 146.5t101 110t117 76t119.5 38l8 -43q-51 -9 -101.5 -31.5t-99.5 -61t-88.5 -87.5t-67.5 -116.5 t-37 -143.5l1 -1q44 62 117.5 99.5t159.5 37.5zM355 -95q58 0 106 20t78.5 53t47 74.5t16.5 85.5q0 98 -58 153.5t-167 55.5q-96 0 -170.5 -52.5t-106.5 -126.5q6 -121 77.5 -192t176.5 -71z" />
<glyph unicode="&#x2087;" horiz-adv-x="632" d="M35 707h558v-41l-399 -812l-46 13l394 796h-507v44z" />
<glyph unicode="&#x2088;" horiz-adv-x="714" d="M472 321q76 -19 130.5 -81t54.5 -143q0 -71 -41 -126t-109.5 -84t-150.5 -29q-131 0 -215.5 68.5t-84.5 170.5q0 81 54.5 143t130.5 81v2q-53 16 -96 64.5t-43 117.5q0 94 73.5 151.5t180.5 57.5q114 0 185 -59t71 -150q0 -69 -43 -117.5t-97 -64.5v-2zM146 503 q0 -48 27 -84.5t74.5 -56t107.5 -19.5q61 0 109 19.5t76 56t28 84.5q0 74 -61 120t-152 46q-93 0 -151 -48t-58 -118zM355 -97q113 0 185 56.5t72 140.5q0 88 -71.5 143t-185.5 55q-112 0 -183 -55t-71 -143q0 -57 34.5 -102.5t92.5 -70t127 -24.5z" />
<glyph unicode="&#x2089;" horiz-adv-x="719" d="M358 714q128 0 213.5 -88t85.5 -228q0 -95 -27 -180.5t-71 -149t-101 -113t-116.5 -78.5t-118.5 -39l-9 43q50 9 100.5 32t99.5 61.5t88.5 88.5t68 117.5t37.5 143.5h-1q-42 -61 -112 -98t-155 -37q-122 0 -199.5 73t-77.5 188q0 112 82.5 188t212.5 76zM345 234 q95 0 165 51t103 125q-4 117 -76.5 188t-178.5 71q-111 0 -180.5 -63t-69.5 -157q0 -62 29.5 -111t83.5 -76.5t124 -27.5z" />
<glyph unicode="&#x208a;" horiz-adv-x="697" d="M623 267v-45h-252v-251h-45v251h-252v45h252v252h45v-252h252z" />
<glyph unicode="&#x208b;" horiz-adv-x="697" d="M74 222v45h549v-45h-549z" />
<glyph unicode="&#x208c;" horiz-adv-x="743" d="M97 405v45h549v-45h-549zM97 62v45h549v-45h-549z" />
<glyph unicode="&#x208d;" horiz-adv-x="277" d="M184 -266q-140 273 -140 558q0 156 40.5 302.5t110.5 258.5l38 -23q-44 -71 -76 -155.5t-50 -183t-18 -199.5q0 -276 136 -538z" />
<glyph unicode="&#x208e;" horiz-adv-x="277" d="M113 -266l-41 20q136 262 136 538q0 150 -38.5 290t-105.5 248l38 23q70 -112 110.5 -258.5t40.5 -302.5q0 -285 -140 -558z" />
<glyph unicode="&#x2090;" horiz-adv-x="746" d="M608 460h46v-595h-46v137h-2q-38 -66 -104.5 -104.5t-149.5 -38.5q-129 0 -215 83t-86 214t84 219.5t217 88.5q79 0 147 -39.5t107 -108.5h2v144zM357 -95q107 0 179.5 70t72.5 181q0 73 -31.5 132.5t-89 94.5t-129.5 35q-73 0 -132.5 -32t-94.5 -92.5t-35 -137.5 q0 -106 72.5 -178.5t187.5 -72.5z" />
<glyph unicode="&#x2091;" horiz-adv-x="687" d="M634 174q0 -3 -0.5 -7t-1.5 -7v-4h-540q2 -110 75 -181.5t186 -71.5q140 0 220 92l34 -26q-89 -112 -253 -112q-135 0 -221.5 85.5t-86.5 217.5q0 130 88.5 216t218.5 86q82 0 146 -37t99.5 -103t35.5 -148zM353 417q-100 0 -172 -61t-86 -156h493q-11 98 -74.5 157.5 t-160.5 59.5z" />
<glyph unicode="&#x2092;" horiz-adv-x="741" d="M371 -142q-135 0 -220.5 87.5t-85.5 215.5t85.5 215.5t220.5 87.5q130 0 218 -84.5t88 -218.5q0 -133 -88 -218t-218 -85zM371 -96q72 0 131.5 32t94 91t34.5 134q0 113 -75 185t-185 72q-115 0 -187.5 -74.5t-72.5 -182.5t72.5 -182.5t187.5 -74.5z" />
<glyph unicode="&#x2093;" horiz-adv-x="593" d="M568 462l-242 -296l242 -301h-59l-211 261h-2l-209 -261h-59l239 298l-241 299h59l209 -260h3l212 260h59z" />
<glyph unicode="&#x20ac;" horiz-adv-x="1194" d="M1109 155l29 -39q-172 -123 -394 -123q-78 0 -155 22.5t-148 68.5t-129 110.5t-100 155t-59 195.5h-126v46h120q-5 52 -5 98q0 43 5 95h-120v47h126q19 119 70.5 221t126.5 177t177 117.5t217 42.5q216 0 384 -118l-29 -40q-155 111 -355 111q-105 0 -198 -38.5 t-162 -107t-116 -162t-66 -203.5h691v-47h-698q-5 -52 -5 -95q0 -46 5 -98h698v-46h-691q20 -120 74.5 -217.5t128.5 -159t161.5 -95t177.5 -33.5q209 0 365 115z" />
<glyph unicode="&#x2116;" horiz-adv-x="2347" d="M1881 850q-135 0 -220.5 87.5t-85.5 215.5t85.5 215.5t220.5 87.5q130 0 218 -84.5t88 -218.5q0 -133 -88 -218t-218 -85zM1259 82v1373h47v-1455h-46l-1028 1371h-2v-1371h-47v1455h44l1030 -1373h2zM1881 1410q-115 0 -187.5 -74.5t-72.5 -182.5q0 -70 32 -128.5 t92 -93.5t136 -35q110 0 185 72t75 185t-75 185t-185 72zM1588 659v44h593v-44h-593z" />
<glyph unicode="&#x2122;" horiz-adv-x="1348" d="M247 792v619h-210v44h467v-44h-212v-619h-45zM617 792v663h49l270 -465l271 465h48v-663h-46v576l-255 -436h-36l-256 436v-576h-45z" />
<glyph unicode="&#x2190;" horiz-adv-x="1279" d="M451 218l-452 329l452 331v-308h733v-46h-733v-306z" />
<glyph unicode="&#x2191;" horiz-adv-x="1159" d="M909 733h-306v-733h-46v733h-308l331 452z" />
<glyph unicode="&#x2192;" horiz-adv-x="1279" d="M828 218v306h-733v46h733v308l452 -331z" />
<glyph unicode="&#x2193;" horiz-adv-x="1159" d="M909 452l-329 -452l-331 452h308v733h46v-733h306z" />
<glyph unicode="&#x2236;" horiz-adv-x="353" d="M167 1025q-26 0 -42.5 16.5t-16.5 41.5q0 18 7.5 31.5t21 20.5t30.5 7q26 0 42.5 -16t16.5 -43q0 -25 -16.5 -41.5t-42.5 -16.5zM167 110q-26 0 -42.5 16.5t-16.5 41.5q0 27 16.5 43t42.5 16t42.5 -16t16.5 -43q0 -25 -16.5 -41.5t-42.5 -16.5z" />
<glyph unicode="&#x25fc;" horiz-adv-x="990" d="M0 990h990v-990h-990v990z" />
<glyph unicode="&#x2780;" horiz-adv-x="1565" d="M782 -21q-149 0 -284.5 57.5t-233.5 155.5t-156 233.5t-58 284.5q0 86 19 168t55.5 154.5t86.5 136t113.5 113.5t135.5 86.5t154.5 55.5t167.5 19q149 0 284.5 -58t234 -156t156.5 -234t58 -285t-58 -284.5t-156.5 -233.5t-234 -155.5t-284.5 -57.5zM782 25q140 0 267 54 t219 146t146.5 218.5t54.5 266.5t-54.5 267t-146.5 219t-219 146.5t-267 54.5t-267 -54.5t-218.5 -146.5t-146 -219t-54.5 -267t54.5 -266.5t146 -218.5t218.5 -146t267 -54zM770 293v781l-209 -142l-22 37l238 166h37v-842h-44z" />
<glyph unicode="&#x2781;" horiz-adv-x="1565" d="M782 1443q149 0 284.5 -58t234 -156t156.5 -234t58 -285t-58 -284.5t-156.5 -233.5t-234 -155.5t-284.5 -57.5t-284.5 57.5t-233.5 155.5t-156 233.5t-58 284.5q0 86 19 168t55.5 154.5t86.5 136t113.5 113.5t135.5 86.5t154.5 55.5t167.5 19zM782 25q140 0 267 54 t219 146t146.5 218.5t54.5 266.5t-54.5 267t-146.5 219t-219 146.5t-267 54.5t-267 -54.5t-218.5 -146.5t-146 -219t-54.5 -267t54.5 -266.5t146 -218.5t218.5 -146t267 -54zM597 344v-7h466v-44h-550l1 37l338 305q50 44 80.5 79t51.5 80t21 93q0 88 -62 149t-157 61 q-69 0 -134 -36.5t-96 -102.5l-37 25q17 36 45.5 65.5t63.5 50t76 32t83 11.5q69 0 128.5 -30.5t97 -89t37.5 -132.5q0 -76 -38.5 -141t-123.5 -142z" />
<glyph unicode="&#x2782;" horiz-adv-x="1565" d="M782 1443q149 0 284.5 -58t234 -156t156.5 -234t58 -285t-58 -284.5t-156.5 -233.5t-234 -155.5t-284.5 -57.5t-284.5 57.5t-233.5 155.5t-156 233.5t-58 284.5q0 86 19 168t55.5 154.5t86.5 136t113.5 113.5t135.5 86.5t154.5 55.5t167.5 19zM782 25q140 0 267 54 t219 146t146.5 218.5t54.5 266.5t-54.5 267t-146.5 219t-219 146.5t-267 54.5t-267 -54.5t-218.5 -146.5t-146 -219t-54.5 -267t54.5 -266.5t146 -218.5t218.5 -146t267 -54zM896 730q81 -24 123.5 -81t42.5 -135q0 -101 -77 -164.5t-203 -63.5q-107 0 -183.5 41.5 t-112.5 111.5l41 19q31 -60 95 -93.5t159 -33.5q110 0 173 50t63 143q0 78 -66.5 131.5t-179.5 53.5h-85v45h99q98 0 155 47.5t57 118.5q0 56 -27 96t-77.5 60.5t-119.5 20.5q-147 0 -220 -99l-38 25q85 119 258 119q117 0 192.5 -58t75.5 -160q0 -44 -14.5 -80.5 t-47.5 -65.5t-83 -45v-3z" />
<glyph unicode="&#x2783;" horiz-adv-x="1565" d="M782 -21q-149 0 -284.5 57.5t-233.5 155.5t-156 233.5t-58 284.5q0 86 19 168t55.5 154.5t86.5 136t113.5 113.5t135.5 86.5t154.5 55.5t167.5 19q149 0 284.5 -58t234 -156t156.5 -234t58 -285t-58 -284.5t-156.5 -233.5t-234 -155.5t-284.5 -57.5zM782 25q140 0 267 54 t219 146t146.5 218.5t54.5 266.5t-54.5 267t-146.5 219t-219 146.5t-267 54.5t-267 -54.5t-218.5 -146.5t-146 -219t-54.5 -267t54.5 -266.5t146 -218.5t218.5 -146t267 -54zM877 293v157h-447v41l454 644h37v-641h141v-44h-141v-157h-44zM487 494h390v556z" />
<glyph unicode="&#x2784;" horiz-adv-x="1565" d="M782 1443q149 0 284.5 -58t234 -156t156.5 -234t58 -285t-58 -284.5t-156.5 -233.5t-234 -155.5t-284.5 -57.5t-284.5 57.5t-233.5 155.5t-156 233.5t-58 284.5q0 86 19 168t55.5 154.5t86.5 136t113.5 113.5t135.5 86.5t154.5 55.5t167.5 19zM782 25q140 0 267 54 t219 146t146.5 218.5t54.5 266.5t-54.5 267t-146.5 219t-219 146.5t-267 54.5t-267 -54.5t-218.5 -146.5t-146 -219t-54.5 -267t54.5 -266.5t146 -218.5t218.5 -146t267 -54zM778 820q85 0 152.5 -30.5t109 -92t41.5 -145.5q0 -81 -42 -142.5t-111 -92.5t-154 -31 q-99 0 -175 39.5t-115 107.5l38 23q35 -58 99.5 -92t151.5 -34q114 0 188.5 60t74.5 163q0 105 -73 164t-191 59q-51 0 -99 -13t-79 -37l-36 6l26 403h459v-44h-418l-20 -309q68 38 173 38z" />
<glyph unicode="&#x2785;" horiz-adv-x="1565" d="M782 1443q149 0 284.5 -58t234 -156t156.5 -234t58 -285t-58 -284.5t-156.5 -233.5t-234 -155.5t-284.5 -57.5t-284.5 57.5t-233.5 155.5t-156 233.5t-58 284.5q0 86 19 168t55.5 154.5t86.5 136t113.5 113.5t135.5 86.5t154.5 55.5t167.5 19zM782 25q140 0 267 54 t219 146t146.5 218.5t54.5 266.5t-54.5 267t-146.5 219t-219 146.5t-267 54.5t-267 -54.5t-218.5 -146.5t-146 -219t-54.5 -267t54.5 -266.5t146 -218.5t218.5 -146t267 -54zM793 818q36 0 68 -6t59 -17t49 -27.5t38.5 -38t28 -47t17 -55.5t5.5 -64q0 -35 -9 -69t-25.5 -65 t-42 -57t-57.5 -45t-73 -30t-86 -11q-129 0 -214 90t-85 239q0 95 27 179.5t70.5 146.5t101 110t117 76t119.5 38l8 -43q-42 -8 -84 -25t-84 -43.5t-79.5 -64t-67.5 -83t-51 -103t-28 -121.5l1 -1q44 62 117.5 99.5t159.5 37.5zM765 331q58 0 106 20t78.5 53t47 74.5 t16.5 85.5q0 98 -58 153.5t-167 55.5q-96 0 -170.5 -52.5t-106.5 -126.5q2 -49 16 -91t37.5 -73t54.5 -53.5t68 -34t78 -11.5z" />
<glyph unicode="&#x2786;" horiz-adv-x="1565" d="M782 1443q149 0 284.5 -58t234 -156t156.5 -234t58 -285t-58 -284.5t-156.5 -233.5t-234 -155.5t-284.5 -57.5t-284.5 57.5t-233.5 155.5t-156 233.5t-58 284.5q0 86 19 168t55.5 154.5t86.5 136t113.5 113.5t135.5 86.5t154.5 55.5t167.5 19zM782 25q140 0 267 54 t219 146t146.5 218.5t54.5 266.5t-54.5 267t-146.5 219t-219 146.5t-267 54.5t-267 -54.5t-218.5 -146.5t-146 -219t-54.5 -267t54.5 -266.5t146 -218.5t218.5 -146t267 -54zM528 1091v44h558v-41l-399 -812l-46 13l394 796h-507z" />
<glyph unicode="&#x2787;" horiz-adv-x="1565" d="M782 1443q149 0 284.5 -58t234 -156t156.5 -234t58 -285t-58 -284.5t-156.5 -233.5t-234 -155.5t-284.5 -57.5t-284.5 57.5t-233.5 155.5t-156 233.5t-58 284.5q0 86 19 168t55.5 154.5t86.5 136t113.5 113.5t135.5 86.5t154.5 55.5t167.5 19zM782 25q140 0 267 54 t219 146t146.5 218.5t54.5 266.5t-54.5 267t-146.5 219t-219 146.5t-267 54.5t-267 -54.5t-218.5 -146.5t-146 -219t-54.5 -267t54.5 -266.5t146 -218.5t218.5 -146t267 -54zM896 749q49 -12 90.5 -43t68 -79t26.5 -102q0 -71 -41 -126t-109.5 -84t-150.5 -29 q-131 0 -215.5 68.5t-84.5 170.5q0 41 15.5 79t41 66.5t59 49t69.5 29.5v2q-53 16 -96 64.5t-43 117.5q0 94 73.5 151.5t180.5 57.5q114 0 185 -59t71 -150q0 -69 -43 -117.5t-97 -64.5v-2zM570 931q0 -48 27 -84.5t74.5 -56t107.5 -19.5q93 0 153 44t60 116q0 37 -16.5 68 t-45 52.5t-68 33.5t-83.5 12q-93 0 -151 -48t-58 -118zM779 331q113 0 185 56.5t72 140.5q0 88 -71.5 143t-185.5 55q-112 0 -183 -55t-71 -143q0 -87 74 -142t180 -55z" />
<glyph unicode="&#x2788;" horiz-adv-x="1565" d="M782 1443q149 0 284.5 -58t234 -156t156.5 -234t58 -285t-58 -284.5t-156.5 -233.5t-234 -155.5t-284.5 -57.5t-284.5 57.5t-233.5 155.5t-156 233.5t-58 284.5q0 86 19 168t55.5 154.5t86.5 136t113.5 113.5t135.5 86.5t154.5 55.5t167.5 19zM782 25q140 0 267 54 t219 146t146.5 218.5t54.5 266.5t-54.5 267t-146.5 219t-219 146.5t-267 54.5t-267 -54.5t-218.5 -146.5t-146 -219t-54.5 -267t54.5 -266.5t146 -218.5t218.5 -146t267 -54zM783 1142q128 0 213.5 -88t85.5 -228q0 -95 -27 -180.5t-71 -149t-101 -113t-116.5 -78.5 t-118.5 -39l-9 43q63 11 126.5 45.5t119.5 88.5t96 134.5t52 174.5h-1q-42 -61 -112 -98t-155 -37q-122 0 -199.5 73t-77.5 188q0 112 82.5 188t212.5 76zM770 662q95 0 165 51t103 125q-2 78 -37 137.5t-92 90.5t-126 31q-111 0 -180.5 -63t-69.5 -157q0 -62 29.5 -111 t83.5 -76.5t124 -27.5z" />
<glyph unicode="&#x278a;" horiz-adv-x="1565" d="M782 -21q-149 0 -284.5 57.5t-233.5 155.5t-156 233.5t-58 284.5q0 86 19 168t55.5 154.5t86.5 136t113.5 113.5t135.5 86.5t154.5 55.5t167.5 19q149 0 284.5 -58t234 -156t156.5 -234t58 -285t-58 -284.5t-156.5 -233.5t-234 -155.5t-284.5 -57.5zM770 293h44v842h-37 l-238 -166l22 -37l209 142v-781z" />
<glyph unicode="&#x278b;" horiz-adv-x="1565" d="M782 -21q-149 0 -284.5 57.5t-233.5 155.5t-156 233.5t-58 284.5q0 86 19 168t55.5 154.5t86.5 136t113.5 113.5t135.5 86.5t154.5 55.5t167.5 19q149 0 284.5 -58t234 -156t156.5 -234t58 -285t-58 -284.5t-156.5 -233.5t-234 -155.5t-284.5 -57.5zM597 337v7l291 263 q85 77 123.5 142t38.5 141q0 74 -37.5 132.5t-97 89t-128.5 30.5q-86 0 -159.5 -43.5t-108.5 -115.5l37 -25q31 66 96 102.5t134 36.5q95 0 157 -61t62 -149q0 -69 -38.5 -126.5t-114.5 -125.5l-338 -305l-1 -37h550v44h-466z" />
<glyph unicode="&#x278c;" horiz-adv-x="1565" d="M782 -21q-149 0 -284.5 57.5t-233.5 155.5t-156 233.5t-58 284.5q0 86 19 168t55.5 154.5t86.5 136t113.5 113.5t135.5 86.5t154.5 55.5t167.5 19q149 0 284.5 -58t234 -156t156.5 -234t58 -285t-58 -284.5t-156.5 -233.5t-234 -155.5t-284.5 -57.5zM896 730v3 q73 23 109 73.5t36 117.5q0 102 -75.5 160t-192.5 58q-173 0 -258 -119l38 -25q73 99 220 99q52 0 93.5 -12t70.5 -34t44.5 -55.5t15.5 -75.5q0 -71 -57 -118.5t-155 -47.5h-99v-45h85q113 0 179.5 -53.5t66.5 -131.5q0 -93 -63 -143t-173 -50q-64 0 -114.5 16t-85 44 t-54.5 67l-41 -19q23 -46 63.5 -80t100.5 -53.5t132 -19.5q126 0 203 63.5t77 164.5q0 51 -18.5 94t-56 74.5t-91.5 47.5z" />
<glyph unicode="&#x278d;" horiz-adv-x="1565" d="M782 -21q-149 0 -284.5 57.5t-233.5 155.5t-156 233.5t-58 284.5q0 86 19 168t55.5 154.5t86.5 136t113.5 113.5t135.5 86.5t154.5 55.5t167.5 19q149 0 284.5 -58t234 -156t156.5 -234t58 -285t-58 -284.5t-156.5 -233.5t-234 -155.5t-284.5 -57.5zM877 293h44v157h141 v44h-141v641h-37l-454 -644v-41h447v-157zM487 494h390v556z" />
<glyph unicode="&#x278e;" horiz-adv-x="1565" d="M782 -21q-149 0 -284.5 57.5t-233.5 155.5t-156 233.5t-58 284.5q0 86 19 168t55.5 154.5t86.5 136t113.5 113.5t135.5 86.5t154.5 55.5t167.5 19q149 0 284.5 -58t234 -156t156.5 -234t58 -285t-58 -284.5t-156.5 -233.5t-234 -155.5t-284.5 -57.5zM778 820 q-105 0 -173 -38l20 309h418v44h-459l-26 -403l36 -6q31 24 79 37t99 13q118 0 191 -59t73 -164q0 -103 -74.5 -163t-188.5 -60q-87 0 -151.5 34t-99.5 92l-38 -23q39 -68 115 -107.5t175 -39.5q63 0 119 18.5t97.5 52t66 84t24.5 111.5q0 84 -41.5 145.5t-109 92 t-152.5 30.5z" />
<glyph unicode="&#x278f;" horiz-adv-x="1565" d="M782 -21q-149 0 -284.5 57.5t-233.5 155.5t-156 233.5t-58 284.5q0 86 19 168t55.5 154.5t86.5 136t113.5 113.5t135.5 86.5t154.5 55.5t167.5 19q149 0 284.5 -58t234 -156t156.5 -234t58 -285t-58 -284.5t-156.5 -233.5t-234 -155.5t-284.5 -57.5zM793 818 q-57 0 -110.5 -17.5t-95.5 -48.5t-71 -71l-1 1q9 76 37 143.5t67.5 116.5t88.5 87.5t99.5 61t101.5 31.5l-8 43q-60 -10 -119.5 -38t-117 -76t-101 -110t-70.5 -146.5t-27 -179.5q0 -149 85 -239t214 -90q67 0 123.5 23.5t93 62.5t56.5 88.5t20 102.5q0 79 -30.5 136 t-90.5 88t-144 31zM765 331q58 0 106 20t78.5 53t47 74.5t16.5 85.5q0 98 -58 153.5t-167 55.5q-96 0 -170.5 -52.5t-106.5 -126.5q6 -121 77.5 -192t176.5 -71z" />
<glyph unicode="&#x2790;" horiz-adv-x="1565" d="M782 -21q-149 0 -284.5 57.5t-233.5 155.5t-156 233.5t-58 284.5q0 86 19 168t55.5 154.5t86.5 136t113.5 113.5t135.5 86.5t154.5 55.5t167.5 19q149 0 284.5 -58t234 -156t156.5 -234t58 -285t-58 -284.5t-156.5 -233.5t-234 -155.5t-284.5 -57.5zM528 1135v-44h507 l-394 -796l46 -13l399 812v41h-558z" />
<glyph unicode="&#x2791;" horiz-adv-x="1565" d="M782 -21q-149 0 -284.5 57.5t-233.5 155.5t-156 233.5t-58 284.5q0 86 19 168t55.5 154.5t86.5 136t113.5 113.5t135.5 86.5t154.5 55.5t167.5 19q149 0 284.5 -58t234 -156t156.5 -234t58 -285t-58 -284.5t-156.5 -233.5t-234 -155.5t-284.5 -57.5zM896 749v2 q24 7 48 22.5t45 37.5t34 54t13 68q0 91 -71 150t-185 59q-107 0 -180.5 -57.5t-73.5 -151.5q0 -69 43 -117.5t96 -64.5v-2q-76 -19 -130.5 -81t-54.5 -143q0 -102 84.5 -170.5t215.5 -68.5q82 0 150.5 29t109.5 84t41 126q0 54 -26.5 102t-68 79t-90.5 43zM570 931 q0 -48 27 -84.5t74.5 -56t107.5 -19.5q61 0 109 19.5t76 56t28 84.5q0 37 -16.5 68t-45 52.5t-68 33.5t-83.5 12q-93 0 -151 -48t-58 -118zM779 331q113 0 185 56.5t72 140.5q0 88 -71.5 143t-185.5 55q-112 0 -183 -55t-71 -143q0 -87 74 -142t180 -55z" />
<glyph unicode="&#x2792;" horiz-adv-x="1565" d="M782 -21q-149 0 -284.5 57.5t-233.5 155.5t-156 233.5t-58 284.5q0 86 19 168t55.5 154.5t86.5 136t113.5 113.5t135.5 86.5t154.5 55.5t167.5 19q149 0 284.5 -58t234 -156t156.5 -234t58 -285t-58 -284.5t-156.5 -233.5t-234 -155.5t-284.5 -57.5zM783 1142 q-130 0 -212.5 -76t-82.5 -188q0 -115 77.5 -188t199.5 -73q85 0 155 37t112 98h1q-9 -76 -37.5 -143.5t-68 -117.5t-88.5 -88.5t-99.5 -61.5t-100.5 -32l9 -43q59 10 118.5 39t116.5 78.5t101 113t71 149t27 180.5q0 140 -85.5 228t-213.5 88zM770 662q95 0 165 51t103 125 q-2 78 -37 137.5t-92 90.5t-126 31q-111 0 -180.5 -63t-69.5 -157q0 -62 29.5 -111t83.5 -76.5t124 -27.5z" />
<glyph horiz-adv-x="1681" d="M1557 729q0 -237 -115 -415.5t-306 -261.5l329 -278l-28 -37l-349 297q-115 -41 -244 -41q-158 0 -293 58t-227.5 157.5t-145 234t-52.5 286.5q0 150 52.5 284.5t145 233.5t227.5 157t293 58q146 0 276.5 -53t227 -147.5t153 -232.5t56.5 -300zM174 729q0 -142 49 -268 t135.5 -219t212.5 -147t273 -54q136 0 257.5 50t212 138.5t143 218.5t52.5 281t-52.5 280t-143 217.5t-212 138t-257.5 49.5q-147 0 -273 -54t-212.5 -146.5t-135.5 -218t-49 -266.5z" />
<glyph horiz-adv-x="400" d="M200.5 1242q-24.5 0 -40 15.5t-15.5 39.5q0 25 15.5 40.5t40.5 15.5t40.5 -15.5t15.5 -40.5q0 -24 -16 -39.5t-40.5 -15.5zM177 0v992h45v-992h-45z" />
<glyph horiz-adv-x="985" d="M502 999q88 0 152.5 -30.5t104.5 -88.5t59 -137t19 -181v-562h-45v187h-5q-53 -86 -152.5 -140t-220.5 -54q-84 0 -149.5 23t-104.5 63t-59 90t-20 107q0 60 21 109t64 87t114 59t164 21h348v9q0 392 -290 392q-165 0 -313 -89l-22 41q154 94 335 94zM414 39q76 0 147 26 t121 68t80 96t30 109v169h-348q-68 0 -125 -14t-100 -41.5t-67.5 -72.5t-24.5 -103q0 -38 10 -72t32 -64.5t55 -52.5t81.5 -35t108.5 -13z" />
<glyph horiz-adv-x="985" d="M757 1425l-255 -276h-60l251 276h64zM502 999q88 0 152.5 -30.5t104.5 -88.5t59 -137t19 -181v-562h-45v187h-5q-53 -86 -152.5 -140t-220.5 -54q-84 0 -149.5 23t-104.5 63t-59 90t-20 107q0 60 21 109t64 87t114 59t164 21h348v9q0 392 -290 392q-165 0 -313 -89 l-22 41q154 94 335 94zM414 39q76 0 147 26t121 68t80 96t30 109v169h-348q-68 0 -125 -14t-100 -41.5t-67.5 -72.5t-24.5 -103q0 -38 10 -72t32 -64.5t55 -52.5t81.5 -35t108.5 -13z" />
<glyph horiz-adv-x="985" d="M527 1390l-217 -243h-59l251 278h51l255 -278h-60l-217 243h-4zM502 999q88 0 152.5 -30.5t104.5 -88.5t59 -137t19 -181v-562h-45v187h-5q-53 -86 -152.5 -140t-220.5 -54q-84 0 -149.5 23t-104.5 63t-59 90t-20 107q0 60 21 109t64 87t114 59t164 21h348v9 q0 392 -290 392q-165 0 -313 -89l-22 41q154 94 335 94zM414 39q76 0 147 26t121 68t80 96t30 109v169h-348q-68 0 -125 -14t-100 -41.5t-67.5 -72.5t-24.5 -103q0 -38 10 -72t32 -64.5t55 -52.5t81.5 -35t108.5 -13z" />
<glyph horiz-adv-x="985" d="M376.5 1242q-24.5 0 -40 15.5t-15.5 39.5q0 17 7 29.5t20 19.5t29 7q25 0 40.5 -15.5t15.5 -40.5q0 -24 -16 -39.5t-40.5 -15.5zM678 1242q-24 0 -40 15.5t-16 39.5q0 25 15.5 40.5t40.5 15.5t40.5 -15.5t15.5 -40.5q0 -24 -16 -39.5t-40 -15.5zM502 999 q88 0 152.5 -30.5t104.5 -88.5t59 -137t19 -181v-562h-45v187h-5q-53 -86 -152.5 -140t-220.5 -54q-84 0 -149.5 23t-104.5 63t-59 90t-20 107q0 60 21 109t64 87t114 59t164 21h348v9q0 392 -290 392q-165 0 -313 -89l-22 41q154 94 335 94zM414 39q76 0 147 26t121 68 t80 96t30 109v169h-348q-92 0 -161.5 -24t-112.5 -77t-43 -130q0 -38 10 -72t32 -64.5t55 -52.5t81.5 -35t108.5 -13z" />
<glyph horiz-adv-x="985" d="M588 1149h-60l-255 276h63zM502 999q88 0 152.5 -30.5t104.5 -88.5t59 -137t19 -181v-562h-45v187h-5q-53 -86 -152.5 -140t-220.5 -54q-84 0 -149.5 23t-104.5 63t-59 90t-20 107q0 60 21 109t64 87t114 59t164 21h348v9q0 392 -290 392q-165 0 -313 -89l-22 41 q154 94 335 94zM414 39q76 0 147 26t121 68t80 96t30 109v169h-348q-68 0 -125 -14t-100 -41.5t-67.5 -72.5t-24.5 -103q0 -38 10 -72t32 -64.5t55 -52.5t81.5 -35t108.5 -13z" />
<glyph horiz-adv-x="985" d="M529 1138q-39 0 -74 20t-56 54.5t-21 74.5q0 61 45.5 105.5t105.5 44.5q61 0 106 -44.5t45 -105.5t-45 -105t-106 -44zM529 1391q-43 0 -74 -31t-31 -73t31 -72.5t74 -30.5t74 30.5t31 72.5t-31 73t-74 31zM502 999q88 0 152.5 -30.5t104.5 -88.5t59 -137t19 -181v-562 h-45v187h-5q-53 -86 -152.5 -140t-220.5 -54q-84 0 -149.5 23t-104.5 63t-59 90t-20 107q0 60 21 109t64 87t114 59t164 21h348v9q0 392 -290 392q-165 0 -313 -89l-22 41q154 94 335 94zM414 39q76 0 147 26t121 68t80 96t30 109v169h-348q-68 0 -125 -14t-100 -41.5 t-67.5 -72.5t-24.5 -103q0 -38 10 -72t32 -64.5t55 -52.5t81.5 -35t108.5 -13z" />
<glyph horiz-adv-x="985" d="M379 1331q-89 0 -131 -125l-43 13q51 158 171 158q28 0 59 -10.5t48.5 -21t50.5 -31.5q6 -4 28 -20.5t32 -22.5t28 -16.5t33 -14.5t30 -4q25 0 48 13t43 42t32 72l43 -16q-24 -78 -68.5 -117t-95.5 -39q-16 0 -33.5 4.5t-29 8.5t-32.5 16t-27 16t-30.5 21.5t-26.5 18.5 q-78 55 -129 55zM502 999q88 0 152.5 -30.5t104.5 -88.5t59 -137t19 -181v-562h-45v187h-5q-53 -86 -152.5 -140t-220.5 -54q-84 0 -149.5 23t-104.5 63t-59 90t-20 107q0 60 21 109t64 87t114 59t164 21h348v9q0 392 -290 392q-165 0 -313 -89l-22 41q154 94 335 94z M414 39q76 0 147 26t121 68t80 96t30 109v169h-348q-68 0 -125 -14t-100 -41.5t-67.5 -72.5t-24.5 -103q0 -38 10 -72t32 -64.5t55 -52.5t81.5 -35t108.5 -13z" />
<glyph horiz-adv-x="1126" d="M569 100q67 0 121 -3.5t108.5 -13t94.5 -27t72 -43.5t48.5 -65t16.5 -89q0 -47 -17 -89.5t-54.5 -81t-93 -67t-137 -45.5t-181.5 -17q-213 0 -335 73.5t-122 211.5q0 69 40 130t94 104v4q-39 17 -60 48.5t-20 71.5q1 49 30.5 91.5t104.5 113.5v3q-84 97 -84 231 q0 98 45 179.5t129.5 130t191.5 48.5q145 0 248 -90h3l217 206l34 -35l-220 -202v-3q83 -97 83 -234q0 -96 -45 -176.5t-129.5 -129t-190.5 -48.5q-143 0 -247 88h-4q-32 -30 -42.5 -40t-31 -31.5t-27 -33t-13 -29t-6.5 -34.5q-1 -51 45 -79t152 -28h182zM561 953 q-138 0 -229 -89t-91 -223q0 -133 91.5 -220.5t228.5 -87.5q134 0 226.5 88.5t92.5 219.5q0 135 -90.5 223.5t-228.5 88.5zM548 -395q127 0 224 28t154.5 86t57.5 140q0 40 -13.5 71t-41 52.5t-62.5 36t-83.5 22t-99.5 11t-115 3.5h-182q-69 0 -111 9q-22 -15 -43.5 -35 t-44.5 -48t-37.5 -64t-14.5 -72q0 -37 12.5 -70.5t42.5 -65t75.5 -54t118 -36.5t163.5 -14z" />
<glyph horiz-adv-x="636" d="M215 0v947h-140v45h140v240q0 73 17.5 127.5t49.5 88.5t75.5 50.5t97.5 16.5q72 0 133 -23l-10 -44q-56 21 -126 21q-87 0 -139.5 -56.5t-52.5 -180.5v-240h354v-45h-354v-947h-45z" />
<glyph horiz-adv-x="360" d="M191.5 1242q-24.5 0 -40 15.5t-15.5 39.5q0 25 15.5 40.5t40.5 15.5t40.5 -15.5t15.5 -40.5q0 -24 -16 -39.5t-40.5 -15.5zM-64 -355q37 -11 86 -11q74 0 111 40.5t37 140.5v1177h45v-1177q0 -39 -4.5 -70.5t-17.5 -61.5t-34.5 -50t-57 -32.5t-82.5 -12.5q-48 0 -88 11z " />
<glyph horiz-adv-x="1424" d="M891 764q19 -8 57 -22q59 -23 88.5 -35t79 -35.5t75 -42t59 -48.5t49.5 -60.5t28 -72.5t12 -91q0 -77 -31 -143.5t-88.5 -115.5t-144.5 -77t-193 -28q-134 0 -259 51t-218 154l27 47q77 -101 197.5 -152.5t256.5 -51.5q81 0 153 20.5t128.5 58.5t90 99t33.5 137 q0 33 -6.5 62t-15.5 52.5t-27.5 46t-34 38t-43.5 33.5t-48 29t-55 26.5t-57 24.5t-63 25t-63 25q-109 45 -173 77l315 569l-1 1q-202 49 -438 49q-144 0 -235 -39t-134 -118.5t-43 -204.5v-1052h-47v1058q0 206 110 305t343 99q243 0 515 -66l-20 -36l1 -2l-2 -1l-296 -540 v-3q59 -27 118 -50z" />
<glyph horiz-adv-x="1112" d="M1015 0l-141 347h-637l-140 -347h-50l478 1186h57l483 -1186h-50zM256 393h599l-299 734h-4z" />
<glyph horiz-adv-x="1112" d="M847 1637l-255 -276h-60l251 276h64zM1015 0l-141 347h-637l-140 -347h-50l478 1186h57l483 -1186h-50zM256 393h599l-299 734h-4z" />
<glyph horiz-adv-x="1112" d="M550 1602l-217 -243h-59l251 278h51l255 -278h-60l-217 243h-4zM1015 0l-141 347h-637l-140 -347h-50l478 1186h57l483 -1186h-50zM256 393h599l-299 734h-4z" />
<glyph horiz-adv-x="1112" d="M399.5 1454q-24.5 0 -40 15.5t-15.5 39.5q0 17 7 29.5t20 19.5t29 7q25 0 40.5 -15.5t15.5 -40.5q0 -24 -16 -39.5t-40.5 -15.5zM701 1454q-25 0 -40.5 15.5t-15.5 39.5q0 17 7 29.5t20 19.5t29 7q25 0 40.5 -15.5t15.5 -40.5q0 -15 -7 -27.5t-20 -20t-29 -7.5zM1015 0 l-141 347h-637l-140 -347h-50l478 1186h57l483 -1186h-50zM256 393h599l-299 734h-4z" />
<glyph horiz-adv-x="1112" d="M591 1361h-60l-255 276h63zM1015 0l-141 347h-637l-140 -347h-50l478 1186h57l483 -1186h-50zM256 393h599l-299 734h-4z" />
<glyph horiz-adv-x="1112" d="M552 1350q-39 0 -74 20t-56 54.5t-21 74.5q0 61 45.5 105.5t105.5 44.5q30 0 58 -12t48 -32t32.5 -48t12.5 -58q0 -61 -45 -105t-106 -44zM552 1603q-43 0 -74 -31t-31 -73q0 -28 14 -51.5t38.5 -37.5t52.5 -14q21 0 40.5 8.5t33.5 22t22.5 32.5t8.5 40t-8.5 40t-22.5 33 t-33.5 22.5t-40.5 8.5zM1015 0l-141 347h-637l-140 -347h-50l478 1186h57l483 -1186h-50zM256 393h599l-299 734h-4z" />
<glyph horiz-adv-x="1112" d="M402 1543q-89 0 -131 -125l-43 13q51 158 171 158q28 0 59 -10.5t48.5 -21t50.5 -31.5q7 -5 20 -14.5t21.5 -16t21 -14.5t22.5 -13t21 -10t22.5 -7.5t22.5 -2.5q25 0 48 13t43 42t32 72l43 -16q-24 -78 -68.5 -117t-95.5 -39q-16 0 -33.5 4.5t-29 8.5t-32.5 16t-27 16 t-30.5 21.5t-26.5 18.5q-78 55 -129 55zM1015 0l-141 347h-637l-140 -347h-50l478 1186h57l483 -1186h-50zM256 393h599l-299 734h-4z" />
<glyph horiz-adv-x="1612" d="M790 46h748v-46h-794v347h-480l-210 -347h-55l718 1186h787v-46h-714v-524h611v-46h-611v-524zM292 393h452v745h-1z" />
<glyph horiz-adv-x="1073" d="M698 619q55 -8 103 -30t87 -58t61.5 -91.5t22.5 -124.5q0 -146 -107 -230.5t-318 -84.5h-382v1186h357q67 0 124 -9.5t107 -31t84.5 -54t54.5 -82t20 -111.5q0 -100 -53.5 -174t-160.5 -102v-3zM211 1140v-499h341q45 0 87.5 7.5t84 26t72.5 47t50 73t19 100.5 q0 119 -85.5 182t-272.5 63h-296zM538 46q118 0 204 28.5t134.5 89t48.5 148.5q0 136 -97.5 210t-275.5 74h-341v-550h327z" />
<glyph horiz-adv-x="1247" d="M716 -7q-125 0 -234.5 39.5t-192.5 113t-130.5 187.5t-47.5 254q0 127 40 237t115 192.5t191 129.5t259 47q133 0 255 -55t216 -170l-36 -31q-166 209 -435 209q-133 0 -239.5 -43t-175.5 -118.5t-106 -177t-37 -220.5q0 -104 28.5 -192.5t79.5 -153t120.5 -110.5 t153 -68.5t176.5 -22.5q267 0 435 208l36 -31q-188 -224 -471 -224z" />
<glyph horiz-adv-x="1247" d="M716 40q267 0 435 208l36 -31q-184 -220 -461 -224l-28 -63l2 -2q64 -5 113.5 -47.5t49.5 -110.5q0 -61 -46 -104t-128 -43q-48 0 -100 13v46q54 -14 92 -14q58 0 97 27t39 77q0 31 -17.5 56.5t-56.5 43t-94 17.5l2 40l30 65q-119 5 -222.5 47t-181 115.5t-122 184.5 t-44.5 246q0 127 40 237t115 192.5t191 129.5t259 47q133 0 255 -55t216 -170l-36 -31q-166 209 -435 209q-133 0 -239.5 -43t-175.5 -118.5t-106 -177t-37 -220.5q0 -104 28.5 -192.5t79.5 -153t120.5 -110.5t153 -68.5t176.5 -22.5z" />
<glyph horiz-adv-x="1244" d="M165 0v1187h327q144 0 264.5 -44t203 -122.5t128 -188.5t45.5 -241q0 -130 -45 -239.5t-127 -187t-201.5 -121t-263.5 -43.5h-331zM211 46h283q133 0 244 40t187.5 112t118.5 173t42 220q0 97 -27 182.5t-78.5 152.5t-123.5 115.5t-165 74t-200 25.5h-281v-1095z" />
<glyph horiz-adv-x="1244" d="M492 1187q97 0 183.5 -20t156.5 -56.5t127 -90t95 -119t58.5 -144.5t20.5 -166q0 -130 -45 -239.5t-127 -187t-201.5 -121t-263.5 -43.5h-331v586h-115v48h115v553h327zM494 46q133 0 244 40t187.5 112t118.5 173t42 220q0 97 -27 182.5t-78.5 152.5t-123.5 115.5 t-165 74t-200 25.5h-281v-507h317v-48h-317v-540h283z" />
<glyph horiz-adv-x="997" d="M165 0v1186h719v-46h-673v-523h565v-45h-565v-526h710v-46h-756z" />
<glyph horiz-adv-x="997" d="M381 1362l251 276h64l-255 -276h-60zM165 0v1186h719v-46h-673v-523h565v-45h-565v-526h710v-46h-756z" />
<glyph horiz-adv-x="997" d="M521 1603l-217 -243h-59l251 278h51l255 -278h-60l-217 243h-4zM211 46h710v-46h-756v1186h719v-46h-673v-523h565v-45h-565v-526z" />
<glyph horiz-adv-x="997" d="M370.5 1455q-24.5 0 -40 15.5t-15.5 39.5q0 17 7 29.5t20 19.5t29 7q25 0 40.5 -15.5t15.5 -40.5q0 -24 -16 -39.5t-40.5 -15.5zM671.5 1455q-24.5 0 -40 15.5t-15.5 39.5q0 25 15.5 40.5t40.5 15.5t40.5 -15.5t15.5 -40.5q0 -24 -16 -39.5t-40.5 -15.5zM165 0v1186h719 v-46h-673v-523h565v-45h-565v-526h710v-46h-756z" />
<glyph horiz-adv-x="997" d="M599 1362l-255 276h63l252 -276h-60zM165 0v1186h719v-46h-673v-523h565v-45h-565v-526h710v-46h-756z" />
<glyph horiz-adv-x="966" d="M165 0v1186h752v-46h-706v-528h610v-46h-610v-566h-46z" />
<glyph horiz-adv-x="1328" d="M717 -7q-132 0 -244.5 44t-192 122t-124.5 190t-45 243t44.5 243t124 190.5t192 123t245.5 44.5q270 0 450 -167l-33 -34q-165 154 -417 154q-163 0 -290 -69t-198 -195.5t-71 -289.5q0 -161 70.5 -287t198 -195.5t290.5 -69.5q263 0 429 134v354h-463v45h509v-424 q-89 -76 -211 -116t-264 -40z" />
<glyph horiz-adv-x="1225" d="M164 0v1186h46v-603h805v603h46v-1186h-46v537h-805v-537h-46z" />
<glyph horiz-adv-x="382" d="M168 0v1186h46v-1186h-46z" />
<glyph horiz-adv-x="382" d="M175 1362l251 276h64l-255 -276h-60zM168 0v1186h46v-1186h-46z" />
<glyph horiz-adv-x="382" d="M216 1638l255 -278h-60l-217 243h-4l-217 -243h-59l251 278h51zM168 0v1186h46v-1186h-46z" />
<glyph horiz-adv-x="382" d="M40 1455q-25 0 -40.5 15.5t-15.5 39.5q0 25 15.5 40.5t40.5 15.5t40.5 -15.5t15.5 -40.5q0 -24 -15.5 -39.5t-40.5 -15.5zM341 1455q-25 0 -40.5 15.5t-15.5 39.5q0 13 4 23.5t11.5 17.5t18 11t22.5 4q16 0 29 -7t20 -19.5t7 -29.5q0 -24 -15.5 -39.5t-40.5 -15.5zM168 0 v1186h46v-1186h-46z" />
<glyph horiz-adv-x="382" d="M154 1362l-255 276h63l252 -276h-60zM168 0v1186h46v-1186h-46z" />
<glyph horiz-adv-x="817" d="M363 -7q-84 0 -171 41.5t-158 123.5l28 38q60 -71 139.5 -113.5t162.5 -42.5q61 0 108 17t82.5 53.5t54.5 99.5t19 150v826h46v-835q0 -181 -79.5 -269.5t-231.5 -88.5z" />
<glyph horiz-adv-x="1073" d="M458 590h-1l-247 -274v-316h-46v1186h46v-799h1l719 799h63l-504 -561l513 -625h-61z" />
<glyph horiz-adv-x="924" d="M165 0v1186h46v-1140h682v-46h-728z" />
<glyph horiz-adv-x="1516" d="M1298 1186h47v-1186h-46v1096h-2l-520 -838h-40l-520 838h-2v-1096h-46v1186h47l540 -868h2z" />
<glyph horiz-adv-x="1297" d="M1081 1186h46v-1186h-46l-863 1106h-2v-1106h-46v1186h43l865 -1104h3v1104z" />
<glyph horiz-adv-x="1297" d="M489 1543q-89 0 -131 -125l-43 13q51 158 171 158q28 0 59 -10.5t48.5 -21t50.5 -31.5q7 -5 20 -14.5t21.5 -16t21 -14.5t22.5 -13t21 -10t22.5 -7.5t22.5 -2.5q39 0 72 32t51 95l43 -16q-24 -78 -68.5 -117t-95.5 -39q-16 0 -33.5 4.5t-29 8.5t-32.5 16t-27 16 t-30.5 21.5t-26.5 18.5q-78 55 -129 55zM1081 1186h46v-1186h-46l-863 1106h-2v-1106h-46v1186h43l865 -1104h3v1104z" />
<glyph horiz-adv-x="1440" d="M722 -7q-134 0 -249 47t-194 128.5t-123.5 192t-44.5 234.5q0 123 44.5 232.5t123.5 190.5t194 128t249 47q124 0 235 -43.5t193.5 -120t130.5 -189.5t48 -245t-48 -245.5t-130.5 -191t-193.5 -121.5t-235 -44zM722 40q115 0 217.5 40.5t178 112t120 176t44.5 226.5 q0 70 -15 135t-42.5 119.5t-66 101.5t-87 82.5t-104 61t-117.5 38.5t-128 13q-124 0 -230.5 -43.5t-179 -117.5t-113.5 -175t-41 -215q0 -115 41 -216.5t114 -176.5t179 -118.5t230 -43.5z" />
<glyph horiz-adv-x="1440" d="M693 1361l251 276h64l-255 -276h-60zM722 -7q-134 0 -249 47t-194 128.5t-123.5 192t-44.5 234.5q0 123 44.5 232.5t123.5 190.5t194 128t249 47q124 0 235 -43.5t193.5 -120t130.5 -189.5t48 -245t-48 -245.5t-130.5 -191t-193.5 -121.5t-235 -44zM722 40 q115 0 217.5 40.5t178 112t120 176t44.5 226.5q0 70 -15 135t-42.5 119.5t-66 101.5t-87 82.5t-104 61t-117.5 38.5t-128 13q-124 0 -230.5 -43.5t-179 -117.5t-113.5 -175t-41 -215q0 -115 41 -216.5t114 -176.5t179 -118.5t230 -43.5z" />
<glyph horiz-adv-x="1440" d="M718 1602l-217 -243h-59l251 278h51l255 -278h-60l-217 243h-4zM722 1193q99 0 190.5 -27.5t167 -80t131.5 -124.5t87 -166t31 -200q0 -132 -48 -245.5t-130.5 -191t-193.5 -121.5t-235 -44q-134 0 -249 47t-194 128.5t-123.5 192t-44.5 234.5q0 123 44.5 232.5 t123.5 190.5t194 128t249 47zM722 40q115 0 217.5 40.5t178 112t120 176t44.5 226.5q0 70 -15 135t-42.5 119.5t-66 101.5t-87 82.5t-104 61t-117.5 38.5t-128 13q-124 0 -230.5 -43.5t-179 -117.5t-113.5 -175t-41 -215q0 -115 41 -216.5t114 -176.5t179 -118.5t230 -43.5z " />
<glyph horiz-adv-x="1440" d="M568 1454q-25 0 -40.5 15.5t-15.5 39.5q0 25 15.5 40.5t40.5 15.5t40.5 -15.5t15.5 -40.5q0 -15 -7 -27.5t-20 -20t-29 -7.5zM868.5 1454q-24.5 0 -40 15.5t-15.5 39.5q0 25 15.5 40.5t40.5 15.5q12 0 22.5 -4t18 -11t11.5 -17.5t4 -23.5q0 -24 -16 -39.5t-40.5 -15.5z M722 -7q-134 0 -249 47t-194 128.5t-123.5 192t-44.5 234.5q0 123 44.5 232.5t123.5 190.5t194 128t249 47q124 0 235 -43.5t193.5 -120t130.5 -189.5t48 -245t-48 -245.5t-130.5 -191t-193.5 -121.5t-235 -44zM722 40q115 0 217.5 40.5t178 112t120 176t44.5 226.5 q0 70 -15 135t-42.5 119.5t-66 101.5t-87 82.5t-104 61t-117.5 38.5t-128 13q-124 0 -230 -43.5t-179 -117.5t-114 -175t-41 -215q0 -115 41 -216.5t114 -176.5t179 -118.5t230 -43.5z" />
<glyph horiz-adv-x="1440" d="M724 1361l-255 276h63l252 -276h-60zM722 -7q-134 0 -249 47t-194 128.5t-123.5 192t-44.5 234.5q0 123 44.5 232.5t123.5 190.5t194 128t249 47q124 0 235 -43.5t193.5 -120t130.5 -189.5t48 -245t-48 -245.5t-130.5 -191t-193.5 -121.5t-235 -44zM722 40 q115 0 217.5 40.5t178 112t120 176t44.5 226.5q0 70 -15 135t-42.5 119.5t-66 101.5t-87 82.5t-104 61t-117.5 38.5t-128 13q-124 0 -230.5 -43.5t-179 -117.5t-113.5 -175t-41 -215q0 -115 41 -216.5t114 -176.5t179 -118.5t230 -43.5z" />
<glyph horiz-adv-x="1440" d="M1157 1022q82 -80 127 -189t45 -238q0 -132 -48 -245.5t-130.5 -191t-193.5 -121.5t-235 -44q-237 0 -403 139l-143 -152l-38 33l145 153q-83 83 -127.5 193t-44.5 236q0 123 44.5 232.5t123.5 190.5t194 128t249 47q114 0 216.5 -36t184.5 -103l138 146l34 -31zM158 595 q0 -115 40.5 -217t116.5 -178l775 819q-155 127 -368 127q-124 0 -230 -43.5t-179 -117.5t-114 -175t-41 -215zM722 40q115 0 217.5 40.5t178 112t120 176t44.5 226.5q0 119 -41 219t-116 174l-773 -821q151 -127 370 -127z" />
<glyph horiz-adv-x="1440" d="M878 1403q-16 0 -33.5 4.5t-29 8.5t-32.5 16t-27 16t-30.5 21.5t-26.5 18.5q-78 55 -129 55q-89 0 -131 -125l-43 13q51 158 171 158q22 0 42.5 -5t42.5 -16t35 -18.5t38 -23.5q7 -5 23.5 -17t25.5 -18.5t24 -16t26 -14.5t25 -8.5t27 -3.5q39 0 72 32t51 95l43 -16 q-24 -78 -68.5 -117t-95.5 -39zM722 -7q-134 0 -249 47t-194 128.5t-123.5 192t-44.5 234.5q0 123 44.5 232.5t123.5 190.5t194 128t249 47q124 0 235 -43.5t193.5 -120t130.5 -189.5t48 -245t-48 -245.5t-130.5 -191t-193.5 -121.5t-235 -44zM722 40q115 0 217.5 40.5 t178 112t120 176t44.5 226.5q0 70 -15 135t-42.5 119.5t-66 101.5t-87 82.5t-104 61t-117.5 38.5t-128 13q-124 0 -230 -43.5t-179 -117.5t-114 -175t-41 -215q0 -115 41 -216.5t114 -176.5t179 -118.5t230 -43.5z" />
<glyph horiz-adv-x="1630" d="M845 46h709v-46h-825q-135 0 -251.5 47.5t-196.5 128.5t-125 190.5t-45 231.5q0 120 45 227.5t125 187.5t196.5 126.5t251.5 46.5h790v-46h-674v-523h572v-45h-572v-526zM728 46h71v1094h-70q-117 0 -222 -40t-182 -110.5t-122 -172.5t-45 -219q0 -80 20.5 -153.5 t57.5 -134t89.5 -110t115 -83.5t136 -52.5t151.5 -18.5z" />
<glyph horiz-adv-x="1022" d="M165 0v1186h406q100 0 175 -25.5t119.5 -71.5t66 -105.5t21.5 -133.5q0 -89 -30 -156.5t-86 -108.5t-130.5 -61.5t-168.5 -20.5h-327v-503h-46zM211 549h335q94 0 165 23t112.5 64.5t62 94.5t20.5 119q0 144 -88.5 217t-238.5 73h-368v-591z" />
<glyph horiz-adv-x="1053" d="M165 0v1186h46v-260h390q101 0 176 -25.5t119.5 -72t66 -106.5t21.5 -135q0 -71 -20 -128t-56 -96.5t-88 -66.5t-114.5 -39.5t-136.5 -12.5h-358v-244h-46zM211 290h357q98 0 170 22.5t115 63.5t63.5 94t20.5 119q0 146 -88.5 218.5t-239.5 72.5h-398v-590z" />
<glyph horiz-adv-x="1440" d="M1329 595q0 -132 -46.5 -243t-130.5 -192l144 -138l-30 -33l-147 142q-81 -67 -183 -102.5t-214 -35.5q-134 0 -249 47t-194 128.5t-123.5 192t-44.5 234.5q0 123 44.5 232.5t123.5 190.5t194 128t249 47q124 0 235 -43.5t193.5 -120.5t130.5 -189.5t48 -244.5zM722 40 q209 0 363 124l-186 180l27 33l192 -184q51 49 87.5 110t56.5 135.5t20 156.5q0 70 -15 135t-42.5 119.5t-66 101.5t-87 82.5t-104 61t-117.5 38.5t-128 13q-124 0 -230 -43.5t-179 -117.5t-114 -175t-41 -215q0 -115 41 -216.5t114 -176.5t179 -118.5t230 -43.5z" />
<glyph horiz-adv-x="1065" d="M970 0h-60l-380 503h-319v-503h-46v1186h405q99 0 174 -25.5t120.5 -71.5t68 -106t22.5 -134q0 -163 -97.5 -248.5t-267.5 -95.5l-1 -2zM211 1140v-591h335q93 0 164 22.5t113.5 64t63.5 95t21 118.5q0 98 -43 164.5t-115 96.5t-170 30h-369z" />
<glyph horiz-adv-x="975" d="M487 -7q-116 2 -223.5 47.5t-183.5 133.5l32 36q65 -81 165 -124.5t208 -45.5q98 -2 176.5 24.5t127 84t50.5 137.5q1 28 -4 52t-12.5 43.5t-22.5 38t-28.5 32t-36.5 28t-40 24t-46.5 22t-49 20t-53 20.5t-53.5 21q-13 5 -38 15q-36 14 -54 21.5t-50.5 22t-50.5 25 t-44.5 27.5t-41 32t-32.5 36t-26.5 43t-14.5 49.5t-5 58.5q2 123 98.5 201t251.5 75q89 -2 186 -35.5t169 -89.5l-32 -39q-67 54 -155 84.5t-168 32.5q-77 2 -144 -22.5t-112.5 -78.5t-46.5 -128q0 -25 5 -48t12 -41t22.5 -36t28 -30.5t35.5 -27t38.5 -23.5t45 -21.5 t45.5 -19.5t49 -20q29 -11 43 -17q21 -8 61 -24q50 -19 74 -29.5t65 -30t61.5 -34.5t48 -40t40 -50.5t21.5 -61t8 -76.5q-1 -64 -28 -118.5t-77 -94.5t-125.5 -61.5t-168.5 -19.5z" />
<glyph horiz-adv-x="1276" d="M853 633q21 -8 61 -24q50 -19 74 -29.5t65 -30t61.5 -34.5t48 -40t40 -50.5t21.5 -61t8 -76.5q-2 -133 -108 -215.5t-291 -78.5q-109 2 -210 42t-177 118l24 42q66 -74 162 -113.5t199 -41.5q98 -2 176.5 24.5t127 84t50.5 137.5q1 28 -4 52t-12.5 43.5t-22.5 38 t-28.5 32t-36.5 28t-40 24t-46.5 22t-49 20t-53 20.5t-53.5 21q-71 28 -108 43l-2 -1l-1 3q-18 7 -31 13l256 461q-149 40 -347 40q-193 0 -301 -95.5t-108 -270.5v-780h-46v780q0 105 34.5 185.5t97 129.5t144 73.5t179.5 24.5q119 0 228.5 -17t185.5 -39l-258 -468v-1 q8 -3 40.5 -15t50.5 -20z" />
<glyph horiz-adv-x="978" d="M464 0v1140h-404v46h858v-46h-408v-1140h-46z" />
<glyph horiz-adv-x="1210" d="M605 -7q-100 0 -183.5 33t-143.5 94t-93.5 152t-33.5 202v712h46v-712q0 -201 113 -317.5t295 -116.5q183 0 295.5 116t112.5 318v712h46v-712q0 -111 -33.5 -201.5t-93.5 -151.5t-143.5 -94.5t-183.5 -33.5z" />
<glyph horiz-adv-x="1210" d="M544 1361l251 276h64l-255 -276h-60zM605 -7q-100 0 -183.5 33t-143.5 94t-93.5 152t-33.5 202v712h46v-712q0 -201 113 -317.5t295 -116.5q183 0 295.5 116t112.5 318v712h46v-712q0 -111 -33.5 -201.5t-93.5 -151.5t-143.5 -94.5t-183.5 -33.5z" />
<glyph horiz-adv-x="1210" d="M594 1602l-217 -243h-59l251 278h51l255 -278h-60l-217 243h-4zM1013 1186h46v-712q0 -89 -21.5 -165t-61.5 -134t-95.5 -99t-125.5 -62t-150 -21q-100 0 -183.5 33t-143.5 94t-93.5 152t-33.5 202v712h46v-712q0 -201 113 -317.5t295 -116.5q183 0 295.5 116t112.5 318 v712z" />
<glyph horiz-adv-x="1210" d="M443.5 1454q-24.5 0 -40 15.5t-15.5 39.5q0 17 7 29.5t20 19.5t29 7q25 0 40.5 -15.5t15.5 -40.5q0 -24 -16 -39.5t-40.5 -15.5zM745 1454q-25 0 -40.5 15.5t-15.5 39.5q0 25 15.5 40.5t40.5 15.5t40.5 -15.5t15.5 -40.5q0 -15 -7 -27.5t-20 -20t-29 -7.5zM605 -7 q-100 0 -183.5 33t-143.5 94t-93.5 152t-33.5 202v712h46v-712q0 -201 113 -317.5t295 -116.5q183 0 295.5 116t112.5 318v712h46v-712q0 -111 -33.5 -201.5t-93.5 -151.5t-143.5 -94.5t-183.5 -33.5z" />
<glyph horiz-adv-x="1210" d="M609 1361l-255 276h63l252 -276h-60zM605 -7q-100 0 -183.5 33t-143.5 94t-93.5 152t-33.5 202v712h46v-712q0 -201 113 -317.5t295 -116.5q183 0 295.5 116t112.5 318v712h46v-712q0 -111 -33.5 -201.5t-93.5 -151.5t-143.5 -94.5t-183.5 -33.5z" />
<glyph horiz-adv-x="1090" d="M993 1186h50l-474 -1186h-48l-474 1186h50l446 -1116h4z" />
<glyph horiz-adv-x="1706" d="M1608 1186h50l-402 -1186h-54l-347 1116h-2l-348 -1116h-55l-401 1186h49l378 -1115h2l347 1115h58l346 -1114h2z" />
<glyph horiz-adv-x="1061" d="M1002 1187l-441 -595l440 -592h-59l-408 551h-2l-412 -551h-59l442 592l-444 595h58l414 -553h2l410 552z" />
<glyph horiz-adv-x="986" d="M891 1186h57l-434 -646v-540h-46v540l-429 646h56l395 -594h4z" />
<glyph horiz-adv-x="986" d="M760 1637l-255 -276h-60l251 276h64zM891 1186h57l-434 -646v-540h-46v540l-429 646h56l395 -594h4z" />
<glyph horiz-adv-x="986" d="M339.5 1454q-24.5 0 -40 15.5t-15.5 39.5q0 17 7 29.5t20 19.5t29 7q25 0 40.5 -15.5t15.5 -40.5q0 -24 -16 -39.5t-40.5 -15.5zM641 1454q-25 0 -40.5 15.5t-15.5 39.5q0 25 15.5 40.5t40.5 15.5t40.5 -15.5t15.5 -40.5q0 -15 -7 -27.5t-20 -20t-29 -7.5zM891 1186h57 l-434 -646v-540h-46v540l-429 646h56l395 -594h4z" />
<glyph horiz-adv-x="1021" d="M164 46h758v-46h-819v44l749 1094v2h-702v46h761v-46l-747 -1091v-3z" />
<glyph horiz-adv-x="1167" d="M1145 58l6 -45q-42 -20 -97 -20q-44 0 -75 21t-46 58t-21.5 75.5t-6.5 84.5v59h-2q-34 -89 -91.5 -156.5t-130.5 -104.5t-152 -37q-118 0 -198 52t-122 148h-2q3 -114 3 -229v-369h-45v1397h45v-544q0 -205 83.5 -307t235.5 -102q74 0 143 38.5t120.5 103.5t82 157 t30.5 194v460h45v-739q0 -36 2 -63t8.5 -57t18 -49.5t32 -32t48.5 -12.5q50 0 86 19z" />
<glyph horiz-adv-x="1516" d="M1298 1186h47v-1186h-46v1096h-2l-520 -838h-40l-520 838h-2v-1096h-46v1186h47l540 -868h2z" />
<glyph horiz-adv-x="1224" d="M617 -6q-107 0 -201 38.5t-163 107t-109 169.5t-40 220q0 111 37 209t102.5 169.5t162.5 113t211 41.5q107 0 201 -38t163 -106.5t108.5 -169t39.5 -219.5q0 -111 -36.5 -209t-102.5 -170t-162.5 -114t-210.5 -42zM617 42q138 0 244.5 64.5t163 175t56.5 247.5 q0 109 -36 200.5t-98 153.5t-147.5 96.5t-182.5 34.5q-138 0 -245 -64.5t-163.5 -174.5t-56.5 -246q0 -87 23.5 -164t65.5 -136t99.5 -101t128 -64t148.5 -22z" />
<glyph horiz-adv-x="656" d="M405 1055h47v-1055h-47v999l-334 -234l-26 38z" />
<glyph horiz-adv-x="997" d="M154 47h765v-47h-858l1 41l438 331q77 58 122 94.5t86.5 76t61 71.5t31 68t11.5 78q0 108 -83.5 181t-227.5 73q-102 0 -205 -48.5t-180 -135.5l-34 29q49 60 118.5 106.5t147 71.5t152.5 25q101 0 183 -36.5t129.5 -106t47.5 -159.5q0 -76 -28.5 -134.5t-100 -126.5 t-217.5 -177l-360 -268v-7z" />
<glyph horiz-adv-x="1006" d="M646 407q130 -35 201 -130t71 -225q0 -103 -55.5 -186.5t-153 -130t-217.5 -46.5q-163 0 -278.5 64t-170.5 174l40 21q51 -98 155 -154.5t255 -56.5q79 0 148.5 24t120 66t79.5 103t29 133q0 67 -24.5 124.5t-72 102.5t-123 70.5t-171.5 25.5h-133v46h152 q85 0 151.5 23.5t107 63.5t61 91t20.5 110q0 66 -27.5 122t-75 93.5t-113 58t-140.5 20.5q-132 0 -216 -43t-141 -124l-39 29q132 186 396 186q113 0 204 -40t145.5 -119t54.5 -185q0 -108 -60.5 -190.5t-179.5 -117.5v-3z" />
<glyph horiz-adv-x="1008" d="M722 -306v306h-688v46l690 1009h45v-1008h216v-47h-216v-306h-47zM93 47h629v921z" />
<glyph horiz-adv-x="1037" d="M500 554q99 0 183 -28t147.5 -82t99 -139t35.5 -194q0 -95 -36 -175.5t-98.5 -134.5t-148 -84t-182.5 -30q-145 0 -263 65t-174 169l42 23q56 -99 158 -154t237 -55q118 0 212.5 45.5t149.5 132t55 198.5q0 98 -31.5 174.5t-88 124t-132 72t-165.5 24.5q-88 0 -164 -19 t-119 -57l-45 4l38 621h683v-47h-640l-31 -524q56 37 135.5 53.5t142.5 16.5z" />
<glyph horiz-adv-x="1116" d="M609 837q197 0 316.5 -112.5t119.5 -302.5q0 -87 -34.5 -165.5t-95 -136.5t-148.5 -92t-189 -34q-98 0 -183.5 36.5t-147.5 101t-97.5 158t-35.5 203.5q0 98 17.5 191t49 170t74 147t93.5 125.5t106.5 101.5t113.5 78.5t114.5 54t109.5 30.5l7 -47q-76 -13 -156.5 -51 t-160 -104t-145 -150.5t-111.5 -201t-59 -245.5l1 -1q66 109 180.5 177.5t260.5 68.5zM578 42q91 0 170 30t133 81.5t85 121t31 147.5q0 168 -105.5 267.5t-282.5 99.5q-87 0 -162.5 -26t-130 -70.5t-93 -97t-61.5 -112.5q2 -98 34.5 -181t88 -139.5t131.5 -88.5t162 -32z " />
<glyph horiz-adv-x="928" d="M12 1055h853v-48l-628 -1327l-46 16l622 1312h-801v47z" />
<glyph horiz-adv-x="1105" d="M707 733q145 -27 231.5 -125.5t86.5 -236.5q0 -110 -63 -196.5t-170.5 -133.5t-239.5 -47q-84 0 -158.5 19.5t-131 54t-97.5 81.5t-62.5 104t-21.5 118q0 137 87 236t232 126v2q-48 10 -92 34.5t-79.5 60.5t-56.5 87.5t-21 111.5q0 98 53 174.5t144 117t204 40.5 q183 0 294 -94.5t111 -237.5q0 -60 -21.5 -111.5t-57.5 -87.5t-79.5 -60.5t-91.5 -34.5v-2zM199 1030q0 -125 98 -199t255 -74q160 0 258.5 74t98.5 199q0 84 -46.5 149t-127.5 99.5t-183 34.5q-159 0 -256 -81t-97 -202zM552 42q95 0 175.5 26.5t134.5 71t84.5 104 t30.5 126.5q0 101 -52.5 178t-149 119t-223.5 42t-223 -42t-148 -119t-52 -178q0 -95 56 -170.5t152.5 -116.5t214.5 -41z" />
<glyph horiz-adv-x="1119" d="M553 1062q101 0 188.5 -36t150 -100.5t98.5 -158t36 -203.5q0 -98 -17.5 -191t-49 -170t-74 -147t-93.5 -125.5t-106.5 -101.5t-113.5 -78.5t-114.5 -54t-109.5 -30.5l-6 47q76 13 156 51t159.5 103.5t144.5 150t111.5 200t59.5 244.5l-2 1q-66 -110 -180.5 -178.5 t-258.5 -68.5q-197 0 -316.5 116t-119.5 305q0 87 35.5 166t96.5 135.5t145.5 90t179.5 33.5zM532 264q86 0 162 26.5t130.5 72t93 98.5t60.5 113q-2 130 -58 231t-151.5 155t-215.5 54q-113 0 -207 -50t-148 -136.5t-54 -190.5q0 -167 106 -270t282 -103z" />
<glyph d="M600 -7q-107 0 -198.5 46t-160 133t-107.5 223t-39 306q0 121 20.5 228.5t62.5 196t102 153t141.5 100t178.5 35.5q107 0 198.5 -46t159.5 -134t107 -224.5t39 -308.5q0 -119 -20.5 -225.5t-62.5 -195t-101.5 -152.5t-141 -99.5t-178.5 -35.5zM600 41q63 0 119 16.5 t101.5 48t83.5 76t66 100.5t47.5 122t29 141t9.5 156q0 162 -35 290.5t-97.5 209.5t-144.5 123t-179 42q-109 0 -196.5 -50t-144 -139t-86.5 -210t-30 -266q0 -160 35 -287t97.5 -208t145 -123t179.5 -42z" />
<glyph d="M683 47h322v-47h-776v47h407v1298l-392 -252l-28 38l420 276h47v-1360z" />
<glyph d="M221 47h806v-47h-877v46l566 518q35 32 64 62t57.5 64.5t49.5 70t37.5 73.5t25 80t8.5 85q0 164 -100 265.5t-276 101.5q-250 0 -387 -243l-45 24q152 267 432 267q89 0 166.5 -28t134.5 -80t90 -130.5t33 -174.5q0 -83 -28 -161t-84 -153t-142 -154z" />
<glyph d="M734 736q145 -36 222.5 -133.5t77.5 -232.5q0 -109 -57 -195t-160.5 -134t-234.5 -48q-171 0 -290 66t-175 179l45 22q51 -103 156.5 -161t263.5 -58q180 0 292 93t112 247q0 55 -15.5 103.5t-49 90.5t-83 72.5t-121 48t-158.5 17.5h-135v47h154q97 0 171.5 24t118 66 t65 94t21.5 113q0 143 -105 226t-278 83q-247 0 -367 -171l-44 27q138 192 411 192q93 0 172 -24.5t136.5 -69.5t90 -113t32.5 -151q0 -114 -66.5 -200t-201.5 -120z" />
<glyph d="M823 0v268h-730v48l733 1091h44v-1092h222v-47h-222v-268h-47zM150 315h673v1003z" />
<glyph d="M561 874q99 0 185 -29.5t150.5 -84.5t101.5 -139.5t37 -188.5q0 -128 -64 -229t-172 -155.5t-238 -54.5q-146 0 -267.5 68.5t-177.5 179.5l45 20q36 -67 95.5 -116.5t138 -76.5t166.5 -27q89 0 167.5 29t135.5 79.5t90 124t33 158.5q0 93 -32.5 168.5t-90.5 124.5 t-135.5 75t-167.5 26q-41 0 -80.5 -5t-77 -15t-70.5 -26.5t-56 -38.5l-44 5l38 661h708v-47h-664l-32 -562q58 39 139 57.5t139 18.5z" />
<glyph d="M629 868q200 0 321 -118t121 -317q0 -90 -33.5 -170t-93 -139.5t-147 -94.5t-189.5 -35q-103 0 -191.5 38t-152 105.5t-99.5 165t-36 212.5q0 117 23 226t63 197.5t94 166t116 135.5t129 103t132.5 72t127.5 38l7 -48q-78 -14 -159.5 -54t-162.5 -109.5t-147 -160 t-112 -214t-58 -260.5l1 -1q32 56 76.5 102.5t100 82.5t125 56.5t144.5 20.5zM608 42q93 0 171.5 30.5t131.5 83.5t82.5 124.5t29.5 151.5q0 178 -106.5 283t-287.5 105q-88 0 -164.5 -27.5t-131.5 -75t-93.5 -103.5t-61.5 -119q4 -134 61 -237.5t153 -159.5t216 -56z" />
<glyph d="M127 1407h924v-49l-673 -1375l-46 16l667 1361h-872v47z" />
<glyph d="M753 760q147 -27 235.5 -129.5t88.5 -245.5q0 -114 -64 -204t-172.5 -138.5t-241.5 -48.5q-106 0 -196 31t-151 84.5t-95.5 124.5t-34.5 151q0 143 88.5 245.5t235.5 129.5v3q-49 10 -93.5 35t-80.5 62.5t-57.5 91t-21.5 116.5q0 103 53.5 182.5t145.5 121.5t207 42 q92 0 169.5 -27t129.5 -73.5t81 -110t29 -135.5q0 -62 -21.5 -116t-58 -91.5t-81.5 -62.5t-94 -35v-3zM241 1068q0 -86 45.5 -151t126.5 -99t186 -34q161 0 261 77t100 207q0 134 -102 216t-259 82q-162 0 -260 -85t-98 -213zM599 42q96 0 177.5 27t136.5 73.5t85.5 109 t30.5 132.5q0 159 -117.5 255.5t-312.5 96.5q-194 0 -311.5 -96.5t-117.5 -255.5q0 -100 57 -178.5t155 -121t217 -42.5z" />
<glyph d="M598 1414q101 0 188.5 -38t152 -107.5t101 -173t35.5 -227.5q-1 -117 -27 -225.5t-70 -194.5t-103.5 -162t-125 -132t-135.5 -99t-134.5 -68.5t-123.5 -36.5l-6 48q52 10 110 32.5t121 60.5t122.5 87t114.5 115t97.5 141t71.5 169.5t37 195.5l-2 1q-68 -117 -190 -191 t-285 -74q-186 0 -304.5 117t-118.5 304q0 92 34.5 176t96 146t150.5 99t193 37zM547 583q72 0 142 19t135 57t118 102t84 148q-3 60 -15.5 114.5t-34 100t-51 84.5t-65.5 68t-77.5 49t-88 30.5t-96.5 10.5q-96 0 -176.5 -32.5t-135 -87.5t-84.5 -129.5t-30 -158.5 q0 -170 104 -272.5t271 -102.5z" />
<glyph horiz-adv-x="775" d="M388 -7q-148 0 -240.5 112.5t-92.5 314.5q0 124 38.5 220.5t114.5 152.5t180 56q147 0 239.5 -113t92.5 -316q0 -124 -38 -220t-114 -151.5t-180 -55.5zM388 38q90 0 155.5 48t98.5 134t33 200q0 185 -79.5 284.5t-207.5 99.5q-91 0 -156.5 -48.5t-98.5 -134.5t-33 -201 q0 -184 79.5 -283t208.5 -99z" />
<glyph horiz-adv-x="445" d="M264 0v781l-209 -142l-22 37l238 166h37v-842h-44z" />
<glyph horiz-adv-x="664" d="M130 44h466v-44h-550l1 37l338 305q50 44 80.5 79t51.5 80t21 93q0 88 -62 149t-157 61q-69 0 -134 -36.5t-96 -102.5l-37 25q23 47 64.5 83.5t94 56t109.5 19.5q51 0 98.5 -18t84 -50t58.5 -80t22 -104q0 -76 -38.5 -141t-123.5 -142l-291 -263v-7z" />
<glyph horiz-adv-x="670" d="M449 437q54 -16 91.5 -47.5t56 -74.5t18.5 -94q0 -101 -77 -164.5t-203 -63.5q-108 0 -184 41.5t-112 111.5l41 19q31 -60 95 -93.5t159 -33.5q110 0 173 50t63 143q0 78 -66.5 131.5t-179.5 53.5h-85v45h99q65 0 114 22.5t73.5 60t24.5 83.5q0 56 -27.5 96t-77.5 60.5 t-119 20.5q-147 0 -220 -99l-38 25q85 119 258 119q117 0 192.5 -58t75.5 -160q0 -67 -36 -117.5t-109 -73.5v-3z" />
<glyph horiz-adv-x="720" d="M487 0v157h-447v41l454 644h37v-641h141v-44h-141v-157h-44zM97 201h390v556z" />
<glyph horiz-adv-x="681" d="M332 527q85 0 152.5 -30.5t109 -92t41.5 -145.5q0 -81 -42 -142.5t-111 -92.5t-154 -31q-99 0 -175 39.5t-115 107.5l38 23q35 -58 99.5 -92t151.5 -34q114 0 188.5 60t74.5 163q0 105 -73 164t-191 59q-51 0 -99 -13t-79 -37l-36 6l26 403h459v-44h-418l-20 -309 q68 38 173 38z" />
<glyph horiz-adv-x="697" d="M383 525q84 0 144 -31t90.5 -88.5t30.5 -135.5q0 -53 -20 -102.5t-56.5 -88.5t-93 -62.5t-123.5 -23.5q-129 0 -214 90t-85 239q0 95 27 179.5t70.5 146.5t101 110t117 76t119.5 38l8 -43q-51 -9 -101.5 -31.5t-99.5 -61t-88.5 -87.5t-67.5 -116.5t-37 -143.5l1 -1 q44 62 117.5 99.5t159.5 37.5zM355 38q58 0 106 20t78.5 53t47 74.5t16.5 85.5q0 98 -58 153.5t-167 55.5q-96 0 -170.5 -52.5t-106.5 -126.5q6 -121 77.5 -192t176.5 -71z" />
<glyph horiz-adv-x="632" d="M35 842h558v-41l-399 -812l-46 13l394 796h-507v44z" />
<glyph horiz-adv-x="714" d="M472 456q76 -19 130.5 -81t54.5 -143q0 -71 -41 -126t-109.5 -84t-150.5 -29q-131 0 -215.5 68.5t-84.5 170.5q0 54 26.5 102t68 79t90.5 43v2q-53 16 -96 64.5t-43 117.5q0 94 73.5 151.5t180.5 57.5q114 0 185 -59t71 -150q0 -69 -43 -117.5t-97 -64.5v-2zM146 638 q0 -72 59 -116t150 -44q93 0 153 44t60 116q0 74 -61 120t-152 46q-46 0 -85.5 -13t-66.5 -35.5t-42 -53t-15 -64.5zM355 38q75 0 134 26.5t91 71t32 99.5q0 88 -71.5 143t-185.5 55q-44 0 -83.5 -9t-70.5 -26.5t-53.5 -41.5t-34.5 -55t-12 -66q0 -57 34.5 -102.5t92.5 -70 t127 -24.5z" />
<glyph horiz-adv-x="719" d="M358 849q128 0 213.5 -88t85.5 -228q0 -95 -27 -180.5t-71 -149t-101 -113t-116.5 -78.5t-118.5 -39l-9 43q50 9 100.5 32t99.5 61.5t88.5 88.5t68 117.5t37.5 143.5h-1q-42 -61 -112 -98t-155 -37q-122 0 -199.5 73t-77.5 188q0 112 82.5 188t212.5 76zM345 369 q95 0 165 51t103 125q-4 117 -76.5 188t-178.5 71q-111 0 -180.5 -63t-69.5 -157q0 -62 29.5 -111t83.5 -76.5t124 -27.5z" />
<glyph horiz-adv-x="775" d="M388 606q-148 0 -240.5 112.5t-92.5 314.5q0 124 38.5 220.5t114.5 152.5t180 56q147 0 239.5 -113t92.5 -316q0 -124 -38 -220t-114 -151.5t-180 -55.5zM388 651q135 0 211 104t76 278q0 185 -79.5 284.5t-207.5 99.5q-91 0 -156.5 -48.5t-98.5 -134.5t-33 -201 q0 -184 79.5 -283t208.5 -99z" />
<glyph horiz-adv-x="445" d="M264 613v781l-209 -142l-22 37l238 166h37v-842h-44z" />
<glyph horiz-adv-x="664" d="M130 657h466v-44h-550l1 37l338 305q76 68 114.5 125.5t38.5 126.5q0 88 -62 149t-157 61q-69 0 -134 -36.5t-96 -102.5l-37 25q35 72 108.5 115.5t159.5 43.5q51 0 98.5 -18t84 -50t58.5 -80t22 -104q0 -76 -38.5 -141t-123.5 -142l-291 -263v-7z" />
<glyph horiz-adv-x="670" d="M449 1049q54 -16 91.5 -47.5t56 -74.5t18.5 -94q0 -101 -77 -164.5t-203 -63.5q-108 0 -184 41.5t-112 111.5l41 19q31 -60 95 -93.5t159 -33.5q110 0 173 50t63 143q0 78 -66.5 131.5t-179.5 53.5h-85v45h99q98 0 155 47.5t57 118.5q0 84 -60 130.5t-164 46.5 q-147 0 -220 -99l-38 25q85 119 258 119q117 0 192.5 -58t75.5 -160q0 -67 -36 -117.5t-109 -73.5v-3z" />
<glyph horiz-adv-x="720" d="M487 613v157h-447v41l454 644h37v-641h141v-44h-141v-157h-44zM97 814h390v556z" />
<glyph horiz-adv-x="681" d="M332 1140q85 0 152.5 -30.5t109 -92t41.5 -145.5q0 -81 -42 -142.5t-111 -92.5t-154 -31q-99 0 -175 39.5t-115 107.5l38 23q35 -58 99.5 -92t151.5 -34q74 0 133 26t94.5 77t35.5 120q0 105 -73 164t-191 59q-51 0 -99 -13t-79 -37l-36 6l26 403h459v-44h-418l-20 -309 q68 38 173 38z" />
<glyph horiz-adv-x="697" d="M383 1140q63 0 113 -18t83.5 -51t51 -80t17.5 -106q0 -53 -20 -102.5t-56.5 -88.5t-93 -62.5t-123.5 -23.5q-129 0 -214 90t-85 239q0 95 27 179.5t70.5 146.5t101 110t117 76t119.5 38l8 -43q-51 -9 -101.5 -31.5t-99.5 -61t-88.5 -87.5t-67.5 -116.5t-37 -143.5l1 -1 q44 62 117.5 99.5t159.5 37.5zM355 653q58 0 106 20t78.5 53t47 74.5t16.5 85.5q0 98 -58 153.5t-167 55.5q-96 0 -170.5 -52.5t-106.5 -126.5q4 -80 39 -140.5t91 -91.5t124 -31z" />
<glyph horiz-adv-x="632" d="M35 1455h558v-41l-399 -812l-46 13l394 796h-507v44z" />
<glyph horiz-adv-x="714" d="M472 1069q76 -19 130.5 -81t54.5 -143q0 -71 -41 -126t-109.5 -84t-150.5 -29q-131 0 -215.5 68.5t-84.5 170.5q0 33 10 64t27.5 56.5t41 46.5t50.5 35.5t56 21.5v2q-53 16 -96 64.5t-43 117.5q0 94 73.5 151.5t180.5 57.5q114 0 185 -59t71 -150q0 -69 -43 -117.5 t-97 -64.5v-2zM146 1251q0 -72 59 -116t150 -44q93 0 153 44t60 116q0 74 -61 120t-152 46q-62 0 -110 -22.5t-73.5 -60t-25.5 -83.5zM355 651q38 0 72.5 7t62.5 19.5t51 30.5t38.5 40t24 47.5t8.5 52.5q0 88 -71.5 143t-185.5 55q-112 0 -183 -55t-71 -143 q0 -57 34.5 -102.5t92.5 -70t127 -24.5z" />
<glyph horiz-adv-x="719" d="M358 1462q128 0 213.5 -88t85.5 -228q0 -95 -27 -180.5t-71 -149t-101 -113t-116.5 -78.5t-118.5 -39l-9 43q50 9 100.5 32t99.5 61.5t88.5 88.5t68 117.5t37.5 143.5h-1q-42 -61 -112 -98t-155 -37q-122 0 -199.5 73t-77.5 188q0 112 82.5 188t212.5 76zM345 982 q95 0 165 51t103 125q-4 117 -76.5 188t-178.5 71q-111 0 -180.5 -63t-69.5 -157t65.5 -154.5t171.5 -60.5z" />
<glyph horiz-adv-x="1126" d="M563 -7q-96 0 -178 39t-144 113t-97 189.5t-35 258.5q0 102 18.5 192.5t56 165t91.5 128.5t127.5 84t160.5 30q96 0 178.5 -39t144.5 -113t97 -189.5t35 -258.5q0 -171 -51 -305t-155.5 -214.5t-248.5 -80.5zM563 40q129 0 222.5 72t139.5 195.5t46 285.5 q0 135 -31.5 241.5t-87 174t-129 102.5t-160.5 35q-129 0 -222 -72t-139 -195.5t-46 -285.5q0 -134 31.5 -241t87 -174.5t129 -102.5t159.5 -35z" />
<glyph horiz-adv-x="602" d="M360 1187h45v-1187h-46v1126l-290 -208l-27 37z" />
<glyph horiz-adv-x="912" d="M140 46h685v-46h-766v43l482 429q50 44 84 79.5t67.5 82t50.5 97.5t17 107q0 62 -24 118.5t-65.5 98.5t-101.5 66.5t-129 24.5q-115 0 -200.5 -51.5t-131.5 -150.5l-39 23q51 106 147 166t224 60q70 0 136.5 -25.5t117.5 -70.5t82 -112t31 -144q0 -107 -56 -200.5 t-174 -198.5l-437 -388v-8z" />
<glyph horiz-adv-x="937" d="M601 621q117 -31 181 -110.5t64 -192.5q0 -93 -51 -167.5t-140.5 -116t-199.5 -41.5q-147 0 -252.5 57t-157.5 153l42 22q15 -28 35 -52t45 -44.5t56 -37t66.5 -28t77.5 -17.5t88 -6q97 0 174.5 34t123 99t45.5 150q0 45 -14 86t-42.5 75.5t-70 60t-100 40t-127.5 14.5 h-122v45h140q77 0 137 20t96.5 55t55.5 79t19 94q0 117 -91.5 185.5t-232.5 68.5q-214 0 -321 -143l-41 26q126 164 361 164q104 0 187.5 -35t134 -104.5t50.5 -161.5q0 -93 -54.5 -165t-161.5 -103v-3z" />
<glyph horiz-adv-x="959" d="M681 0v224h-640v46l644 917h42v-916h194v-47h-194v-224h-46zM95 270h586v830z" />
<glyph horiz-adv-x="985" d="M481 761q118 0 213.5 -45t153 -134t57.5 -207q0 -88 -33.5 -161t-91.5 -121t-135 -74t-164 -26q-133 0 -242 57.5t-160 152.5l43 20q49 -84 144 -133.5t215 -49.5q106 0 191 39t135.5 116t50.5 180q0 104 -50.5 182t-135.5 117.5t-191 39.5q-77 0 -146 -18t-110 -53 l-40 6l34 538h638v-46h-594l-27 -438q36 21 86.5 35t89 18.5t69.5 4.5z" />
<glyph horiz-adv-x="1006" d="M551 744q182 0 287.5 -101.5t105.5 -268.5q0 -63 -18.5 -120.5t-55 -104.5t-86 -82t-114.5 -54t-139 -19q-93 0 -172.5 32.5t-137 90.5t-90.5 143.5t-33 186.5q0 133 40 253.5t104 209t146 157t166 108t163 53.5l6 -47q-70 -11 -143 -44t-145.5 -90.5t-131.5 -131.5 t-101 -174.5t-53 -211.5l2 -1q59 97 163 156.5t237 59.5zM531 41q81 0 150.5 26t116 71t73 106t26.5 130q0 145 -92 234t-254 89q-79 0 -148 -23t-118.5 -62.5t-84 -86t-55.5 -99.5q7 -174 114.5 -279.5t271.5 -105.5z" />
<glyph horiz-adv-x="833" d="M17 1187h761v-45l-555 -1157l-46 15l549 1141h-709v46z" />
<glyph horiz-adv-x="1026" d="M662 642q125 -23 203 -110t78 -207q0 -97 -57.5 -173t-155 -117t-216.5 -41q-96 0 -177.5 26.5t-136.5 71.5t-86 105t-31 128q0 79 36.5 146t101 111.5t145.5 59.5v3q-40 9 -77.5 30t-70 52.5t-52 77t-19.5 97.5q0 87 48.5 153.5t132 102t186.5 35.5q167 0 267.5 -83 t100.5 -208q0 -52 -20 -97.5t-52 -77t-70 -52.5t-78 -30v-3zM194 901q0 -107 88.5 -171.5t232 -64.5t232 64.5t88.5 171.5q0 109 -91.5 177t-229.5 68q-144 0 -232 -70t-88 -175zM514 41q169 0 275.5 82.5t106.5 201.5q0 133 -105 213t-277 80q-173 0 -278.5 -80 t-105.5 -213q0 -83 51.5 -148t139 -100.5t193.5 -35.5z" />
<glyph horiz-adv-x="1027" d="M503 1193q95 0 175 -32.5t137.5 -91t89 -145.5t31.5 -191q0 -98 -24 -189t-63.5 -163.5t-93 -136.5t-112.5 -111.5t-122 -84t-121.5 -58.5t-111.5 -32l-7 46q55 10 115.5 34.5t125 63t124 94.5t109 122.5t84 154t45.5 182.5h-1q-60 -93 -166.5 -149.5t-250.5 -56.5 q-166 0 -273.5 101.5t-107.5 256.5q0 81 30 152t83.5 122.5t132 81.5t172.5 30zM466 496q52 0 101.5 8.5t98 28.5t89.5 49.5t76 74t58 100.5q-5 179 -111 284t-275 105q-170 0 -270.5 -95.5t-100.5 -242.5q0 -137 94 -224.5t240 -87.5z" />
<glyph horiz-adv-x="851" d="M379 528q-73 0 -123.5 50.5t-50.5 123.5q0 72 50.5 122.5t123.5 50.5q72 0 123.5 -50.5t51.5 -122.5q0 -73 -51.5 -123.5t-123.5 -50.5z" />
<glyph horiz-adv-x="389" d="M195 1096q26 0 42.5 -16.5t16.5 -41.5q0 -18 -7.5 -31.5t-21 -20.5t-30.5 -7q-26 0 -42.5 16t-16.5 43q0 25 16.5 41.5t42.5 16.5zM174 707h37l9 -1139h-54z" />
<glyph horiz-adv-x="855" d="M481 1093q26 0 42.5 -16.5t16.5 -41.5q0 -27 -16.5 -43t-42.5 -16t-42.5 16t-16.5 43q0 25 16.5 41.5t42.5 16.5zM509 713v-123q0 -22 -5.5 -45t-11.5 -41t-21 -42t-24.5 -38t-32 -40t-32.5 -37t-37 -40.5t-36 -38.5q-39 -42 -66 -76t-54 -79t-41 -94.5t-14 -102.5 q0 -58 17 -108t47 -86.5t70 -62.5t87 -39t97 -13q65 0 125.5 19.5t114 60t90.5 99.5l33 -37q-42 -62 -100.5 -105.5t-125 -64.5t-137.5 -21q-83 0 -153 29t-116 78t-72 114t-26 137q0 49 11.5 95.5t28 83t44 76t51 67t57.5 63.5q7 8 31 33.5l32 34t28 31t27.5 33t22.5 30 t20.5 32.5t13.5 30.5t10.5 33t2.5 31.5v123h44z" />
<glyph horiz-adv-x="600" d="M290 895q-26 0 -42.5 16.5t-16.5 41.5q0 27 16.5 43t42.5 16t42.5 -16t16.5 -43q0 -25 -16.5 -41.5t-42.5 -16.5zM290 -20q-26 0 -42.5 16.5t-16.5 41.5q0 27 16.5 43t42.5 16t42.5 -16t16.5 -43q0 -25 -16.5 -41.5t-42.5 -16.5z" />
<glyph horiz-adv-x="600" d="M227 -262l72 446h55l-87 -446h-40z" />
<glyph d="M253 -7l70 459h-263v45h268l59 382h-288v44h295l70 464h45l-71 -464h378l70 464h44l-71 -464h273v-44h-280l-57 -382h297v-45h-305l-69 -459h-44l70 459h-377l-71 -459h-43zM372 497h378l58 382h-377z" />
<glyph horiz-adv-x="600" d="M290 -20q-26 0 -42.5 16.5t-16.5 41.5q0 27 16.5 43t42.5 16t42.5 -16t16.5 -43q0 -25 -16.5 -41.5t-42.5 -16.5z" />
<glyph horiz-adv-x="496" d="M269 865q0 -87 -25 -129.5t-101 -55.5v-2q76 -14 101 -56t25 -129v-464q0 -66 17.5 -106t50 -57t82.5 -17h59v-41h-57q-84 0 -139 48.5t-55 134.5v515q0 19 -0.5 30t-3.5 27.5t-9 27t-17 23t-27 20t-40.5 14t-55.5 9.5v44q31 3 55.5 10t40.5 14.5t27 20t17 22.5t9 26.5 t3.5 28t0.5 30.5v539q0 79 52 132t142 53h57v-42h-59q-65 0 -107.5 -39t-42.5 -107v-524z" />
<glyph horiz-adv-x="496" d="M289 853q0 -19 0.5 -30.5t3.5 -28t9 -26.5t17 -22.5t27 -20t40.5 -14.5t55.5 -10v-44q-31 -3 -55.5 -9.5t-40.5 -14t-27 -20t-17 -23t-9 -27t-3.5 -27.5t-0.5 -30v-515q0 -86 -55 -134.5t-139 -48.5h-57v41h59q76 0 113 41.5t37 138.5v464q0 87 25 129t101 56v2 q-76 13 -101 55.5t-25 129.5v524q0 68 -42.5 107t-107.5 39h-59v42h57q61 0 105.5 -25.5t66.5 -67t22 -92.5v-539z" />
<glyph horiz-adv-x="446" d="M168 -197v1769h288v-42h-246v-1686h246v-41h-288z" />
<glyph horiz-adv-x="446" d="M298 -195h-288v41h246v1686h-246v42h288v-1769z" />
<glyph horiz-adv-x="423" d="M346 -187q-63 135 -106 261t-72 291t-29 338q0 125 16 249t45.5 236.5t69.5 214t89 189.5l36 -23q-98 -178 -154.5 -401.5t-56.5 -464.5q0 -247 53 -455t150 -417z" />
<glyph horiz-adv-x="492" d="M187 -187l-41 18q97 209 150 417t53 455q0 241 -56.5 464.5t-154.5 401.5l36 23q66 -118 115 -257t77 -303t28 -329q0 -252 -54.5 -467t-152.5 -423z" />
<glyph horiz-adv-x="2111" d="M99 625v44h1912v-44h-1912z" />
<glyph horiz-adv-x="1155" d="M99 625v44h956v-44h-956z" />
<glyph horiz-adv-x="766" d="M99 633v46h567v-46h-567z" />
<glyph d="M119 543v45h942v-45h-942z" />
<glyph horiz-adv-x="807" d="M408 118h-45l-268 473l267 469h46l-263 -469zM716 118h-45l-268 473l267 469h46l-263 -469z" />
<glyph horiz-adv-x="807" d="M111 117l263 473l-263 469h46l267 -469l-268 -473h-45zM419 117l263 473l-263 469h46l267 -469l-268 -473h-45z" />
<glyph horiz-adv-x="329" d="M140 296l-1 891h43v-891h-42zM165 -20q-26 0 -42.5 16.5t-16.5 41.5q0 18 7.5 31.5t21 20.5t30.5 7q26 0 42.5 -16t16.5 -43q0 -25 -16.5 -41.5t-42.5 -16.5z" />
<glyph horiz-adv-x="329" d="M165 1207q26 0 42.5 -16.5t16.5 -41.5q0 -18 -7.5 -31.5t-21 -20.5t-30.5 -7q-26 0 -42.5 16t-16.5 43q0 25 16.5 41.5t42.5 16.5zM140 891h42v-891h-43z" />
<glyph horiz-adv-x="680" d="M281 292v64q0 18 4.5 36.5t10 33.5t18 34.5t21 31t27 32.5t27.5 30.5t32 33t31 31.5q69 72 107 138t38 148q0 57 -21.5 103.5t-58.5 76.5t-84.5 46t-101.5 16q-85 0 -158.5 -35.5t-119.5 -105.5l-30 32q36 50 85.5 85t106 52.5t116.5 17.5q56 0 106 -15t87 -42t64 -63.5 t41 -79t14 -88.5q0 -49 -12.5 -94t-38 -85t-49.5 -70t-60 -66q-7 -7 -26 -26.5t-26.5 -27.5t-23.5 -25t-23.5 -26.5t-19.5 -25t-17 -26.5t-11.5 -25.5t-9 -28t-2.5 -27.5v-60h-43zM302 -20q-26 0 -42.5 16.5t-16.5 41.5q0 18 7.5 31.5t21 20.5t30.5 7q13 0 24 -4t18.5 -12 t12 -19t4.5 -24q0 -25 -16.5 -41.5t-42.5 -16.5z" />
<glyph horiz-adv-x="680" d="M398 1206q26 0 42.5 -16.5t16.5 -41.5q0 -27 -16.5 -43t-42.5 -16t-42.5 16t-16.5 43q0 25 16.5 41.5t42.5 16.5zM419 894v-64q0 -15 -2.5 -29.5t-7 -27.5t-12 -27.5t-14.5 -25.5t-18.5 -26t-20 -25t-23 -25.5t-23.5 -25t-25 -26t-25 -25.5q-69 -72 -107 -138t-38 -148 q0 -76 37.5 -132t97 -83t131.5 -27q85 0 158.5 35.5t119.5 105.5l30 -32q-54 -75 -135.5 -115t-172.5 -40q-70 0 -129.5 23.5t-99 63t-61.5 92t-22 109.5q0 49 12.5 94t37.5 85t49.5 70t60.5 66q7 7 26 26.5t26.5 27.5t23.5 25t23.5 26.5t19 25t17 26.5t12 25.5t9 28 t2.5 27.5v60h43z" />
<glyph />
<glyph d="M1037 260q-63 -64 -160 -106t-204 -48v-236h-43v235q-144 2 -255.5 67t-172 178t-60.5 257t61 257.5t172 178.5t255 68v256h43v-257q103 -5 197.5 -45t162.5 -112l-35 -33q-60 66 -153 105.5t-202 39.5q-99 0 -184 -34t-144 -94t-92.5 -145.5t-33.5 -184.5 q0 -133 56.5 -237t159.5 -161.5t236 -57.5q106 0 204 38t160 105z" />
<glyph d="M1034 338q0 -73 -27 -134.5t-78 -107.5t-129.5 -72.5t-177.5 -27.5v-253h-46v254q-118 8 -229 56.5t-201 135.5l38 39q34 -34 73.5 -63t82.5 -51t88 -38t92.5 -24t94.5 -8q105 0 188.5 33t133.5 101t50 160q0 45 -11.5 83.5t-27.5 66.5t-49 54.5t-58 42.5t-74.5 36.5 t-79.5 31t-89 30.5q-5 1 -7 2q-7 2 -21 7q-59 20 -88.5 30.5t-79.5 31t-76.5 37t-60.5 44t-50.5 56t-29 68t-12.5 85.5q0 68 25 125.5t71.5 100.5t120 67.5t165.5 24.5h21v259h46v-264q35 -4 72.5 -13t75 -21.5t73 -27.5t68 -33t59.5 -37l-35 -39q-74 55 -183.5 92 t-196.5 37q-95 0 -169.5 -30.5t-119.5 -92.5t-45 -147q0 -39 11.5 -73t27 -58.5t47.5 -48.5t56.5 -39t71 -34t74 -28.5t81.5 -28.5q11 -3 17 -5q4 -2 13 -5q55 -18 82 -27.5t74.5 -28.5t72 -34t60 -38t53.5 -47.5t37 -56.5t27 -70.5t8 -84.5z" />
<glyph d="M1116 155l29 -39q-172 -123 -394 -123q-78 0 -155 22.5t-148 68.5t-129 110.5t-100 155t-59 195.5h-126v46h120q-5 52 -5 98q0 43 5 95h-120v47h126q19 119 70.5 221t126.5 177t177 117.5t217 42.5q216 0 384 -118l-29 -40q-155 111 -355 111q-105 0 -198 -38.5 t-162 -107t-116 -162t-66 -203.5h691v-47h-698q-5 -52 -5 -95q0 -46 5 -98h698v-46h-691q14 -80 43 -151.5t69.5 -126t90.5 -98t105.5 -72t114.5 -43t119 -14.5q210 0 365 115z" />
<glyph d="M98 0v47h191v721h-147v47h147v156q0 90 20.5 164.5t55.5 125t83 85t102.5 50t115.5 15.5q230 0 350 -202l-37 -31q-105 185 -313 185q-74 0 -134.5 -26t-104 -75.5t-67.5 -125t-24 -171.5v-150h368v-47h-368v-721h745v-47h-983z" />
<glyph d="M1093 1404l-347 -586h262v-47h-290l-93 -157v-37h383v-46h-383v-531h-47v531h-390v46h390v37l-93 157h-297v47h269l-347 587h56l435 -739l438 739z" />
<glyph horiz-adv-x="1193" d="M574 185v449h-449v45h449v450h45v-450h448v-45h-448v-449h-45z" />
<glyph d="M574 904q-16 0 -29 7.5t-20 20t-7 27.5q0 17 7 29.5t20 19.5t29 7q25 0 40.5 -15.5t15.5 -40.5q0 -24 -16 -39.5t-40 -15.5zM119 543v45h942v-45h-942zM574 117q-16 0 -29 7.5t-20 20t-7 27.5q0 25 15.5 40.5t40.5 15.5t40.5 -15.5t15.5 -40.5q0 -24 -16 -39.5t-40 -15.5 z" />
<glyph d="M119 772v45h942v-45h-942zM119 314v45h942v-45h-942z" />
<glyph d="M150 133v51l808 395l-808 397v51l879 -432v-31z" />
<glyph d="M1049 133l-879 431v31l879 432v-51l-808 -397l808 -395v-51z" />
<glyph d="M253 198l-32 31l336 336l-336 336l32 32l335 -336l338 337l32 -31l-337 -338l336 -336l-33 -31l-336 335z" />
<glyph d="M568 94v449h-449v45h449v450h45v-450h448v-45h-448v-449h-45z" />
<glyph horiz-adv-x="1815" d="M988 1473q158 0 295 -51t235.5 -143.5t155 -228t56.5 -297.5q0 -49 -9 -104t-27 -114t-48.5 -112.5t-69.5 -96t-94.5 -67.5t-119.5 -25q-157 0 -157 184q0 17 3 57h-5q-49 -103 -147.5 -161.5t-218.5 -58.5q-59 0 -114.5 17.5t-102 52t-81 82t-54 110t-19.5 132.5 q0 60 15.5 121t50.5 120t85 104.5t125.5 73.5t164.5 28q114 0 203.5 -63.5t127.5 -171.5h4l21 228h45l-53 -585q-4 -37 -4 -72q0 -50 8 -82t25.5 -46t34 -18.5t43.5 -4.5q48 0 90.5 17t74.5 46.5t58.5 68.5t44.5 82t30 89t17.5 88t5.5 80q0 153 -52 280t-144.5 213.5 t-220.5 134t-278 47.5q-126 0 -236 -27t-193.5 -73.5t-152 -111t-115 -137.5t-78 -153.5t-46 -159.5t-14.5 -156q0 -147 52 -275.5t142 -218.5t215.5 -142t268.5 -52q265 0 457 109l29 -38q-207 -118 -486 -118q-151 0 -285.5 55.5t-231 151.5t-152.5 233.5t-56 294.5 q0 58 8.5 119t27 127t46.5 129t69.5 125t92 116t117.5 99.5t144 78.5t173.5 51.5t203.5 18.5zM841 302q67 0 124.5 19t99 51.5t73.5 73.5t51 87.5t28.5 90.5t9.5 85q0 146 -87.5 243t-228.5 97q-57 0 -108 -12t-90.5 -33.5t-72.5 -51t-56 -64t-39 -73.5t-23.5 -78.5 t-7.5 -79.5q0 -153 92 -254t235 -101z" />
<glyph d="M423 926q-73 0 -136 36t-100 97.5t-37 133.5q0 109 82 189t191 80t191.5 -80.5t82.5 -191.5q0 -71 -37.5 -132t-100.5 -96.5t-136 -35.5zM423 970q94 0 162 65.5t68 154.5q0 61 -32.5 113.5t-85.5 83.5t-112 31q-91 0 -160 -67.5t-69 -157.5q0 -92 67.5 -157.5 t161.5 -65.5z" />
<glyph horiz-adv-x="1093" d="M993 0l-143 151h-3q-64 -70 -160.5 -114t-223.5 -44q-160 0 -263 91t-103 240q0 51 17.5 103t49.5 98.5t79 86.5t103 66v3l-169 178q6 151 104 242.5t242 91.5q113 0 194 -56t116 -139l-40 -20q-73 170 -271 170q-54 0 -101 -15.5t-81 -42t-60 -61.5t-39.5 -74t-16.5 -79 l617 -653h2q85 124 90 301l43 -1q0 -86 -25 -173t-75 -160v-4l176 -186h-59zM463 38q224 0 351 147v3l-434 457q-104 -45 -171.5 -133.5t-67.5 -188.5q0 -60 21.5 -111.5t61.5 -90.5t101.5 -61t137.5 -22z" />
<glyph horiz-adv-x="360" d="M172 1178l251 276h64l-255 -276h-60zM9 -412q-70 0 -129 30l5 49q52 -33 127 -33q158 0 158 191v1167h45v-1167q0 -49 -9.5 -88.5t-32 -74.5t-64 -54.5t-100.5 -19.5z" />
<glyph horiz-adv-x="956" d="M748 1628l251 276h64l-255 -276h-60zM434 -7q-91 0 -195.5 50.5t-184.5 142.5l28 38q167 -183 352 -183q73 0 129 21t99 66.5t65.5 123t22.5 185.5v1018h47v-1029q0 -433 -363 -433z" />
</font>
</defs>
</svg>
