<?xml version="1.0" encoding="utf-8"?>
<!-- Generator: Adobe Illustrator 22.0.1, SVG Export Plug-In . SVG Version: 6.00 Build 0)  -->
<svg version="1.1" id="Layer_1" xmlns="http://www.w3.org/2000/svg" xmlns:xlink="http://www.w3.org/1999/xlink" x="0px" y="0px"
	 viewBox="0 0 42.7 28.7" style="enable-background:new 0 0 42.7 28.7;" xml:space="preserve">
<style type="text/css">
	.st0{fill:#1D1D1B;}
</style>
<path class="st0" d="M3.4,15.7c-0.8,0.8-2,0.8-2.8,0s-0.8-2,0-2.8c0.8-0.8,2-0.8,2.8,0C4.2,13.7,4.2,15,3.4,15.7z M7,14.3
	c0,0.8,0.7,1.5,1.5,1.5h19c0.8,0,1.5-0.7,1.5-1.5s-0.7-1.5-1.5-1.5h-19C7.7,12.8,7,13.5,7,14.3z M29.7,28.2l12.6-12.8
	c0.6-0.6,0.6-1.5,0-2.1L29.7,0.4c-0.6-0.6-1.5-0.6-2.1,0C27,1,27,2,27.6,2.6l11.6,11.8L27.6,26.1c-0.6,0.6-0.6,1.5,0,2.1
	c0.3,0.3,0.7,0.4,1.1,0.4C29,28.7,29.4,28.5,29.7,28.2z"/>
</svg>
