<?xml version="1.0" encoding="utf-8"?>
<!-- Generator: Adobe Illustrator 22.0.1, SVG Export Plug-In . SVG Version: 6.00 Build 0)  -->
<svg version="1.1" id="Layer_1" xmlns="http://www.w3.org/2000/svg" xmlns:xlink="http://www.w3.org/1999/xlink" x="0px" y="0px"
	 viewBox="0 0 28.3 28.3" style="enable-background:new 0 0 28.3 28.3;" xml:space="preserve">
<style type="text/css">
	.st0{fill:#2E1A35;}
</style>
<path class="st0" d="M15.5,22.5c0.1-0.5,0.6-0.8,1.1-0.6c0.5,0.1,0.8,0.6,0.6,1.1c-0.1,0.5-0.6,0.8-1.1,0.6
	C15.7,23.5,15.4,23,15.5,22.5z M21.3,19.4l4.5-4.5c1.7-1.7,2.6-3.9,2.6-6.2c0-2.3-0.9-4.5-2.6-6.2C24.1,0.9,21.9,0,19.6,0
	c-2.3,0-4.5,0.9-6.2,2.6l-2,2C11,5,11,5.7,11.4,6.1c0.4,0.4,1.1,0.4,1.5,0l2-2c1.3-1.3,2.9-1.9,4.7-1.9c1.8,0,3.4,0.7,4.7,1.9
	c1.3,1.3,2,2.9,2,4.7c0,1.8-0.7,3.4-2,4.7l-4.5,4.5c-0.4,0.4-0.4,1.1,0,1.5c0.2,0.2,0.5,0.3,0.7,0.3C20.8,19.7,21.1,19.6,21.3,19.4z
	 M14.9,25.8c0.4-0.4,0.4-1.1,0-1.5c-0.4-0.4-1.1-0.4-1.5,0c-2.6,2.6-6.8,2.6-9.4,0c-2.6-2.6-2.6-6.8,0-9.4l4.5-4.5
	c0.4-0.4,0.4-1.1,0-1.5C8.1,8.5,7.4,8.5,7,8.9l-4.5,4.5c-3.4,3.4-3.4,9,0,12.4c1.7,1.7,3.9,2.6,6.2,2.6S13.2,27.5,14.9,25.8z
	 M9.3,20.5l11-11c0.4-0.4,0.4-1.1,0-1.5c-0.4-0.4-1.1-0.4-1.5,0l-11,11c-0.4,0.4-0.4,1.1,0,1.5c0.2,0.2,0.5,0.3,0.7,0.3
	C8.9,20.8,9.1,20.7,9.3,20.5z"/>
</svg>
