<?xml version="1.0" encoding="utf-8"?>
<!-- Generator: Adobe Illustrator 22.0.1, SVG Export Plug-In . SVG Version: 6.00 Build 0)  -->
<svg version="1.1" id="Layer_1" xmlns="http://www.w3.org/2000/svg" xmlns:xlink="http://www.w3.org/1999/xlink" x="0px" y="0px"
	 viewBox="0 0 29.1 22.7" style="enable-background:new 0 0 29.1 22.7;" xml:space="preserve">
<path d="M12.9,22.7c-0.1,0-0.3,0-0.4-0.1c-0.4-0.2-0.8-0.5-0.5-2c0,0,0-0.1,0-0.1c0,0-0.1,0-0.1,0H7.7c-0.3,0-0.6-0.3-0.6-0.6
	c0-0.3,0.3-0.6,0.6-0.6l5.5,0c0.5,0,0.8-0.4,0.8-0.8c0-0.5-0.4-0.8-0.8-0.8H9.7c-0.3,0-0.5-0.3-0.5-0.6c0-0.3,0.2-0.5,0.5-0.6l5.8,0
	c0.5,0,0.8-0.4,0.8-0.8c0-0.5-0.4-0.8-0.8-0.8l-12.2,0c-0.3,0-0.6-0.3-0.6-0.6c0-0.3,0.3-0.6,0.6-0.6l17.2,0c0.5,0,0.8-0.4,0.8-0.8
	c0-0.5-0.4-0.8-0.8-0.8h-11c-0.3,0-0.5-0.3-0.5-0.6C9,11.2,9.3,11,9.6,11l7,0c0.5,0,0.8-0.4,0.8-0.8s-0.4-0.8-0.8-0.8l-16,0
	C0.3,9.3,0,9,0,8.7c0-0.3,0.3-0.6,0.6-0.6l12.1,0c0.5,0,0.8-0.4,0.8-0.8c0-0.5-0.4-0.8-0.8-0.8c0,0,0,0,0,0l-4.5,0
	c-0.3,0-0.6-0.3-0.6-0.6s0.3-0.6,0.6-0.6l6.7,0c0.5,0,0.8-0.4,0.8-0.8c0-0.5-0.4-0.8-0.8-0.8l-9.3,0C5.3,3.7,5,3.5,5,3.2
	s0.3-0.6,0.6-0.6h6.3c0,0,0.1,0,0.1-0.1c0,0,0-0.1,0-0.1c-0.4-1.8,0-2.1,0.5-2.3C12.6,0,12.7,0,12.9,0c0.3,0,0.7,0.1,1.2,0.4L28,9.8
	c0.6,0.4,1,1,1.1,1.6c-0.1,0.6-0.5,1.1-1.1,1.6l-13.9,9.4C13.6,22.5,13.2,22.7,12.9,22.7L12.9,22.7z M22.1,9.3
	c-0.5,0-0.8,0.4-0.8,0.8c0,0.5,0.4,0.8,0.8,0.8c0.5,0,0.8-0.4,0.8-0.8C22.9,9.7,22.5,9.3,22.1,9.3z M19.4,9.3
	c-0.5,0-0.8,0.4-0.8,0.8c0,0.5,0.4,0.8,0.8,0.8c0.5,0,0.8-0.4,0.8-0.8C20.3,9.7,19.9,9.3,19.4,9.3z M5.5,16.4
	c-0.4,0-0.7,0.3-0.7,0.7c0,0.4,0.3,0.7,0.7,0.7c0.4,0,0.7-0.3,0.7-0.7C6.2,16.7,5.9,16.4,5.5,16.4z M5.6,10.6
	c-0.4,0-0.7,0.3-0.7,0.7c0,0.4,0.3,0.7,0.7,0.7c0.4,0,0.7-0.3,0.7-0.7C6.3,11,6,10.6,5.6,10.6z"/>
</svg>
